M48
INCH
T01C.0315
T02C.04
;LEADER: 12 
;HEADER: 
;CODE  : ASCII 
;FILE  : GAMEBOARD9-1-2.drl for  ... layers TOP and BOTTOM
;DESIGN: GAMEBOARD9.brd
;T01 Holesize 1. = 31.500000 Tolerance = +0.000000/-0.000000 PLATED MILS Quantity = 192
;T02 Holesize 2. = 40.000000 Tolerance = +0.000000/-0.000000 PLATED MILS Quantity = 77
%
G90
T01
X0752500Y0687500
X0752500Y0635000
X0892500Y0402500
X0892500Y0290000
X0915000Y0425000
X0915000Y0185000
X0687500Y0432500
X0680000Y0277500
X0906374Y0505000
X0835000Y0455000
X0252500Y0337500
X0272500Y0465000
X0222500Y0297500
X0232500Y0385000
X0167500Y0327500
X0167500Y0245000
X0527500Y0557500
X0527500Y0515000
X0615000Y0515000
X0622000Y0367000
X0617500Y0587500
X0057500Y0592500
X0330000Y0557500
X0267500Y0252500
X0410000Y0580000
X0410000Y0552500
X0625000Y0597500
X0632500Y0387500
X0077500Y0605000
X0212500Y0580000
X0205000Y0285000
X0200000Y0347500
X0200000Y0512500
X0612500Y0627500
X0612500Y0700000
X0452500Y0725000
X0452500Y0642500
X0402500Y0492500
X0395000Y0695000
X0190000Y0315000
X0190000Y0375000
X0991740Y0317500
X0802500Y0445000
X0980000Y0415000
X0880000Y0415000
X0735000Y0550000
X0722500Y0668182
X0725000Y0450000
X0740000Y0115000
X0800000Y0645000
X0800000Y0475000
X0555000Y0475000
X0555000Y0535000
X0382500Y0777500
X0389676Y0489677
X0127500Y0452500
X0152500Y0552500
X0702500Y0442500
X0727500Y0170000
X0982500Y0222500
X1010000Y0437500
X0552500Y0632500
X0552500Y0710000
X0585000Y0622500
X0585000Y0690000
X0902500Y0432500
X0900000Y0217500
X0382500Y0312500
X0387500Y0192500
X0805000Y0417500
X0787500Y0340000
X0175000Y0340000
X0175000Y0405000
X0180000Y0305000
X0175000Y0117500
X0767500Y0645000
X0767500Y0510000
X0795000Y0427500
X0812500Y0257500
X0130000Y0315000
X0142500Y0142500
X0152500Y0297500
X0152500Y0170000
X0442500Y0177500
X0442500Y0265000
X0367500Y0317500
X0367500Y0130000
X0480000Y0647500
X0495000Y0567500
X0512500Y0702500
X0512500Y0615000
X0812500Y0377500
X0184776Y0207500
X0847500Y0565000
X0753224Y0285724
X0557500Y0609500
X0557500Y0562500
X0828751Y0163749
X0750000Y0242500
X0750000Y0155000
X0812500Y0352500
X0512500Y0732500
X0512500Y0657500
X0847500Y0650000
X0417500Y0292500
X0417500Y0334500
X0395276Y0210000
X0184776Y0252724
X0258000Y0160000
X0257500Y0207500
X0117500Y0350000
X0117500Y0415000
X0372000Y0387500
X0372000Y0442500
X0175724Y0430724
X0175724Y0495724
X0175724Y0569276
X0302500Y0554724
X0305000Y0489724
X0352500Y0609724
X0330000Y0670000
X0330000Y0600000
X0622500Y0675000
X0622500Y0637500
X0542500Y0675000
X0530000Y0601457
X0605000Y0665000
X0605000Y0502500
X0340000Y0322500
X0355000Y0187500
X0652500Y0610000
X0912500Y0610000
X0702500Y0610000
X0913740Y0702500
X0442500Y0510000
X0465000Y0100000
X0875000Y0475000
X0585000Y0527500
X0585000Y0500000
X0410000Y0512500
X0560000Y0755000
X0400000Y0537500
X0400000Y0590000
X0035000Y0587500
X0057500Y0392500
X0397500Y0512500
X0452500Y0132500
X0865000Y0465000
X0472500Y0517500
X0447500Y0560000
X0560000Y0780000
X0442500Y0760000
X0370000Y0760000
X0372500Y0557500
X0097500Y0472500
X0087500Y0405000
X0485000Y0397500
X0485000Y0120000
X0575000Y0100000
X0565000Y0087500
X0545000Y0755000
X0100000Y0490000
X0345000Y0797500
X0320000Y0220000
X0320000Y0195000
X0640000Y0560000
X0680000Y0545000
X0680000Y0512500
X0292500Y0292500
X0342500Y0427500
X0492500Y0640000
X0492500Y0677500
X0990000Y0430000
X0860000Y0155000
X1002500Y0285001
X0860000Y0260000
X0715000Y0422500
X0715000Y0357500
X0657500Y0655000
X0645000Y0680000
X0287500Y0682500
X0277500Y0532500
X0309543Y0185457
X0315000Y0330000
X0665000Y0612500
X0620000Y0615000
X0782500Y0622500
X0782500Y0682500
X0680000Y0635000
X0627500Y0720000
X0257500Y0425000
X0252500Y0782500
T02
X0020000Y0435000
R05Y-0010000
X0030000Y0835000
R11X0010000
X0030000Y0765000
R11X0010000
X0215000Y0830000
X0225000Y0830000
X0285000Y0830000
R05X0010000
X0270000Y0715000
X0270000Y0725000
X0350000Y0515000
R03Y0010000
X0350000Y0455000
R02Y0010000
X0425000Y0440000
R03X-0010000
X0415000Y0540000
R02X0010000
X0575000Y0020000
R05X-0010000
X0470000Y0475000
R02Y-0010000
X0510000Y0395000
X0510000Y0405000
X0535000Y0830000
R05X0010000
X1080000Y0395000
R05Y0010000
M30
