G04 ================== begin FILE IDENTIFICATION RECORD ==================*
G04 Layout Name:  GAMEBOARD9.brd*
G04 Film Name:    TOP*
G04 File Format:  Gerber RS274X*
G04 File Origin:  Cadence Allegro 16.6-2015-S062*
G04 Origin Date:  Fri Mar 16 22:37:22 2018*
G04 *
G04 Layer:  ETCH/TOP*
G04 Layer:  PIN/TOP*
G04 Layer:  VIA CLASS/TOP*
G04 *
G04 Offset:    (0.00 0.00)*
G04 Mirror:    No*
G04 Mode:      Positive*
G04 Rotation:  0*
G04 FullContactRelief:  No*
G04 UndefLineWidth:     0.00*
G04 ================== end FILE IDENTIFICATION RECORD ====================*
%FSLAX25Y25*MOIN*%
%IR0*IPPOS*OFA0.00000B0.00000*MIA0B0*SFA1.00000B1.00000*%
%ADD17R,.07X.23*%
%ADD11C,.06*%
%ADD10C,.07*%
%ADD12R,.06X.06*%
%ADD18R,.235X.24*%
%ADD13R,.01654X.01181*%
%ADD15R,.02165X.05906*%
%ADD16R,.05906X.02165*%
%ADD14R,.07874X.02362*%
%ADD19C,.02*%
%ADD20C,.03*%
%ADD21C,.025*%
%ADD23R,.11004X.11004*%
%ADD22R,.06656X.06184*%
G75*
%LPD*%
G75*
G36*
G01X0Y2500D02*
Y850000D01*
X1100000D01*
Y2500D01*
X0D01*
G37*
%LPC*%
G75*
G36*
G01X183939Y316488D02*
X178950Y311498D01*
X134244D01*
G02Y318502I-4244J3502D01*
G01X176050D01*
X180864Y323316D01*
G03X180581Y323998I-283J282D01*
G01X171744D01*
G02Y331002I-4244J3502D01*
G01X178081D01*
G03X178364Y331684I0J400D01*
G01X175526Y334522D01*
X175434Y334515D01*
G02X180485Y339566I-434J5485D01*
G01X180478Y339474D01*
X183950Y336002D01*
X235062D01*
Y336182D01*
X246670D01*
G03X247065Y336645I0J400D01*
G02X256002Y333256I5435J855D01*
G01Y301050D01*
X248950Y293998D01*
X247938D01*
Y291002D01*
X272062D01*
Y336182D01*
X274998D01*
Y343998D01*
X204244D01*
G02Y351002I-4244J3502D01*
G01X277950D01*
X282002Y346950D01*
Y336182D01*
X284938D01*
Y331002D01*
X291050D01*
X296334Y336286D01*
Y356214D01*
X291050Y361498D01*
X178969D01*
X147068Y329598D01*
Y328365D01*
X145836D01*
X145426Y327956D01*
X143738D01*
G02X142097Y328365I1J3501D01*
G01X140412D01*
Y330369D01*
X140403Y330398D01*
G02Y332516I3337J1059D01*
G01X140412Y332545D01*
Y334549D01*
X142116D01*
X176069Y368502D01*
X293950D01*
X303338Y359114D01*
Y333502D01*
X310756D01*
G02Y326498I4244J-3502D01*
G01X306450D01*
X301636Y321684D01*
G03X301919Y321002I283J-282D01*
G01X333550D01*
X334522Y321974D01*
X334515Y322066D01*
G02X339566Y317015I5485J434D01*
G01X339474Y317022D01*
X339136Y316684D01*
G03X339419Y316002I283J-282D01*
G01X361050D01*
X362022Y316974D01*
X362015Y317066D01*
G02X367066Y312015I5485J434D01*
G01X366974Y312022D01*
X366636Y311684D01*
G03X366919Y311002I283J-282D01*
G01X376050D01*
X377022Y311974D01*
X377015Y312066D01*
G02X382066Y307015I5485J434D01*
G01X381974Y307022D01*
X381636Y306684D01*
G03X381919Y306002I283J-282D01*
G01X391424D01*
X401104Y315682D01*
G03X400822Y316365I-283J283D01*
G01X396932D01*
Y322549D01*
X403588D01*
Y318649D01*
G03X403930Y318508I200J0D01*
G01X404238Y318816D01*
Y319457D01*
G02X404403Y320516I3502J-3D01*
G01X404412Y320545D01*
Y322549D01*
X406097D01*
G02X409383I1643J-3092D01*
G01X411068D01*
Y320545D01*
X411077Y320516D01*
G02X411242Y319457I-3337J-1062D01*
G01Y315916D01*
X394324Y298998D01*
X291919D01*
G03X291636Y298316I0J-400D01*
G01X291974Y297978D01*
X292066Y297985D01*
G02X287015Y292934I434J-5485D01*
G01X287022Y293026D01*
X286050Y293998D01*
X284938D01*
Y286002D01*
X296050D01*
X306050Y296002D01*
X413256D01*
G02X421002Y288256I4244J-3502D01*
G01Y284438D01*
X427624Y277816D01*
X429328D01*
Y275812D01*
X429337Y275783D01*
G02Y273665I-3337J-1059D01*
G01X429328Y273636D01*
Y271632D01*
X427643D01*
G02X426000Y271222I-1644J3092D01*
G01X424314D01*
X423904Y271632D01*
X422672D01*
Y272865D01*
X413998Y281538D01*
Y288256D01*
G02X413256Y288998I3502J4244D01*
G01X368950D01*
X346502Y266550D01*
Y265502D01*
X348502D01*
Y254498D01*
X346502D01*
Y235502D01*
X348502D01*
Y224498D01*
X346502D01*
Y215502D01*
X348502D01*
Y204498D01*
X342450D01*
X333502Y195550D01*
Y193724D01*
G02X333337Y192665I-3502J3D01*
G01X333328Y192636D01*
Y190632D01*
X331643D01*
G02X328357I-1643J3092D01*
G01X326672D01*
Y192636D01*
X326663Y192665D01*
G02X326498Y193724I3337J1062D01*
G01Y198450D01*
X331864Y203816D01*
G03X331581Y204498I-283J282D01*
G01X324498D01*
Y206498D01*
X318950D01*
X315950Y203498D01*
X315502D01*
Y201498D01*
X304498D01*
Y203498D01*
X304050D01*
X303550Y203998D01*
X298550D01*
X288998Y213550D01*
Y236050D01*
X274998Y250050D01*
Y263818D01*
X272062D01*
Y283998D01*
X247938D01*
Y276002D01*
X253950D01*
X263502Y266450D01*
Y257178D01*
G03X264145Y256861I400J0D01*
G02X263256Y248998I3355J-4361D01*
G01X261450D01*
X245950Y233498D01*
X225502D01*
Y231498D01*
X214498D01*
Y242502D01*
X225502D01*
Y240502D01*
X243050D01*
X256498Y253950D01*
Y263550D01*
X251050Y268998D01*
X247938D01*
Y263818D01*
X235062D01*
Y264144D01*
G03X234379Y264427I-400J0D01*
G01X226450Y256498D01*
X205502D01*
Y251498D01*
X194498D01*
Y262502D01*
X200550D01*
X201550Y263502D01*
X206498D01*
Y278550D01*
X205526Y279522D01*
X205434Y279515D01*
G02X210485Y284566I-434J5485D01*
G01X210478Y284474D01*
X213502Y281450D01*
Y263502D01*
X214498D01*
Y272502D01*
X220550D01*
X221863Y273815D01*
G03X221581Y274498I-283J283D01*
G01X214498D01*
Y285502D01*
X225502D01*
Y278419D01*
G03X226185Y278137I400J1D01*
G01X226498Y278450D01*
Y283950D01*
X233550Y291002D01*
X235062D01*
Y298998D01*
X233950D01*
X228950Y293998D01*
X226744D01*
G02X226275Y301502I-4244J3501D01*
G01X226417Y301369D01*
X228364Y303316D01*
G03X228081Y303998I-283J282D01*
G01X206450D01*
X196450Y293998D01*
X156744D01*
G02Y301002I-4244J3502D01*
G01X175322D01*
G03X175639Y301645I0J400D01*
G02X180434Y310485I4361J3355D01*
G01X180526Y310478D01*
X181050Y311002D01*
X185322D01*
G03X185639Y311645I0J400D01*
G02X184614Y316123I4361J3355D01*
G03X183939Y316488I-392J82D01*
G37*
G36*
G01X378502Y363550D02*
X371450Y356498D01*
X361050D01*
X336050Y381498D01*
X236744D01*
G02Y388502I-4244J3502D01*
G01X338950D01*
X363950Y363502D01*
X368550D01*
X371498Y366450D01*
Y368365D01*
X364932D01*
Y374549D01*
X371588D01*
Y370649D01*
G03X371930Y370508I200J0D01*
G01X372238Y370816D01*
Y371457D01*
G02X372402Y372515I3502J-1D01*
G01X372412Y372544D01*
Y374549D01*
X374097D01*
G02X377383I1643J-3092D01*
G01X379068D01*
Y372544D01*
X379078Y372515D01*
G02X379242Y371457I-3338J-1059D01*
G01Y367916D01*
X378502Y367176D01*
Y363550D01*
G37*
G36*
G01X715526Y427978D02*
X715864Y428316D01*
G03X715581Y428998I-283J282D01*
G01X691744D01*
G02Y436002I-4244J3502D01*
G01X703081D01*
G03X703364Y436684I0J400D01*
G01X703026Y437022D01*
X702934Y437015D01*
G02X707985Y442066I-434J5485D01*
G01X707978Y441974D01*
X708950Y441002D01*
X728081D01*
G03X728364Y441684I0J400D01*
G01X725526Y444522D01*
X725434Y444515D01*
G02X730485Y449566I-434J5485D01*
G01X730478Y449474D01*
X733950Y446002D01*
X775062D01*
Y456182D01*
X786231D01*
X798550Y468502D01*
X841450D01*
X853950Y456002D01*
X887932D01*
Y461549D01*
X894588D01*
Y457649D01*
G03X894930Y457508I200J0D01*
G01X895238Y457816D01*
Y458457D01*
G02X895403Y459516I3502J-3D01*
G01X895412Y459545D01*
Y461549D01*
X897097D01*
G02X900383I1643J-3092D01*
G01X902068D01*
Y459545D01*
X902077Y459516D01*
G02X902242Y458457I-3337J-1062D01*
G01Y454916D01*
X899010Y451684D01*
G03X899293Y451002I283J-282D01*
G01X1016451D01*
X1032086Y435366D01*
Y387136D01*
X1016906Y371956D01*
X957738D01*
G02X956097Y372365I1J3501D01*
G01X954412D01*
Y374369D01*
X954403Y374398D01*
G02Y376516I3337J1059D01*
G01X954412Y376545D01*
Y378549D01*
X956097D01*
G02X957738Y378958I1642J-3092D01*
G01X1014006D01*
X1025084Y390036D01*
Y432466D01*
X1013551Y443998D01*
X1009419D01*
G03X1009136Y443316I0J-400D01*
G01X1009474Y442978D01*
X1009566Y442985D01*
G02X1004515Y437934I434J-5485D01*
G01X1004522Y438026D01*
X1003550Y438998D01*
X986919D01*
G03X986636Y438316I0J-400D01*
G01X989474Y435478D01*
X989566Y435485D01*
G02X984515Y430434I434J-5485D01*
G01X984522Y430526D01*
X981050Y433998D01*
X908299D01*
G03X907906Y433524I0J-400D01*
G02X906861Y429145I-5406J-1024D01*
G03X907178Y428502I317J-243D01*
G01X910756D01*
G02Y421498I4244J-3502D01*
G01X858551D01*
X856051Y423998D01*
X851919D01*
G03X851636Y423316I0J-400D01*
G01X868950Y406002D01*
X888256D01*
G02Y398998I4244J-3502D01*
G01X866050D01*
X846050Y418998D01*
X824938D01*
Y401002D01*
X830950D01*
X843816Y388136D01*
G03X844498Y388419I282J283D01*
G01Y395502D01*
X855502D01*
Y384498D01*
X848419D01*
G03X848136Y383816I0J-400D01*
G01X849450Y382502D01*
X855502D01*
Y376450D01*
X858450Y373502D01*
X864498D01*
Y375502D01*
X875502D01*
Y364498D01*
X864498D01*
Y366498D01*
X855550D01*
X850550Y371498D01*
X844498D01*
Y377550D01*
X841684Y380364D01*
G03X841002Y380081I-282J-283D01*
G01Y360950D01*
X843816Y358136D01*
G03X844498Y358419I282J283D01*
G01Y365502D01*
X855502D01*
Y354498D01*
X848419D01*
G03X848136Y353816I0J-400D01*
G01X849450Y352502D01*
X855502D01*
Y350502D01*
X864450D01*
X869450Y345502D01*
X875502D01*
Y334498D01*
X864498D01*
Y340550D01*
X861550Y343498D01*
X855502D01*
Y341498D01*
X844498D01*
Y347550D01*
X836684Y355364D01*
G03X836002Y355081I-282J-283D01*
G01Y335950D01*
X843816Y328136D01*
G03X844498Y328419I282J283D01*
G01Y335502D01*
X855502D01*
Y324498D01*
X848419D01*
G03X848136Y323816I0J-400D01*
G01X849450Y322502D01*
X855502D01*
Y320502D01*
X864450D01*
X869450Y315502D01*
X875502D01*
Y309002D01*
X877050D01*
X877498Y309450D01*
Y315502D01*
X879498D01*
Y334498D01*
X877498D01*
Y345502D01*
X879498D01*
Y364498D01*
X877498D01*
Y375502D01*
X883550D01*
X895274Y387226D01*
X954000D01*
G02X955643Y386816I-1J-3502D01*
G01X957328D01*
Y384812D01*
X957337Y384783D01*
G02Y382665I-3337J-1059D01*
G01X957328Y382636D01*
Y380632D01*
X955643D01*
G02X954000Y380222I-1644J3092D01*
G01X898174D01*
X888502Y370550D01*
Y364498D01*
X886502D01*
Y345502D01*
X888502D01*
Y334498D01*
X886502D01*
Y315502D01*
X888502D01*
Y304498D01*
X882450D01*
X879950Y301998D01*
X850226D01*
X849136Y300908D01*
G03X849419Y300226I283J-282D01*
G01X852000D01*
G02X853643Y299816I-1J-3502D01*
G01X855328D01*
Y297812D01*
X855337Y297783D01*
G02Y295665I-3337J-1059D01*
G01X855328Y295636D01*
Y293632D01*
X853643D01*
G02X852000Y293222I-1644J3092D01*
G01X765674D01*
X758702Y286250D01*
X758709Y286158D01*
G02Y285290I-5485J-434D01*
G01X758702Y285198D01*
X770398Y273502D01*
X936050D01*
X970774Y308226D01*
X988000D01*
G02X988031Y308225I-97J-3499D01*
G03X988238Y308425I7J200D01*
G01Y313256D01*
G02X995242I3502J4244D01*
G01Y296457D01*
G02X995077Y295398I-3502J3D01*
G01X995068Y295369D01*
Y293365D01*
X993383D01*
G02X990097I-1643J3092D01*
G01X988412D01*
Y295369D01*
X988403Y295398D01*
G02X988238Y296457I3337J1062D01*
G01Y301023D01*
G03X988031Y301223I-200J0D01*
G02X988000Y301222I-128J3498D01*
G01X973674D01*
X938950Y266498D01*
X778367D01*
G03X778084Y265816I0J-400D01*
G01X794674Y249226D01*
X810000D01*
G02X811643Y248816I-1J-3502D01*
G01X813328D01*
Y246812D01*
X813337Y246783D01*
G02Y244665I-3337J-1059D01*
G01X813328Y244636D01*
Y242632D01*
X811643D01*
G02X810000Y242222I-1644J3092D01*
G01X791774D01*
X754184Y279812D01*
G03X753502Y279529I-282J-283D01*
G01Y246744D01*
G02X746498I-3502J-4244D01*
G01Y273081D01*
G03X745816Y273364I-400J0D01*
G01X693674Y221222D01*
X664000D01*
G02X662357Y221632I1J3502D01*
G01X660672D01*
Y223636D01*
X660663Y223665D01*
G02Y225783I3337J1059D01*
G01X660672Y225812D01*
Y227816D01*
X662357D01*
G02X664000Y228226I1644J-3092D01*
G01X690774D01*
X744088Y281540D01*
G03X743805Y282222I-283J282D01*
G01X684019D01*
G03X683746Y281530I0J-400D01*
G02X675756Y273998I-3747J-4029D01*
G01X637560D01*
X637517Y273956D01*
X633738D01*
G02X632097Y274365I1J3501D01*
G01X630412D01*
Y276369D01*
X630403Y276398D01*
G02Y278516I3337J1059D01*
G01X630412Y278545D01*
Y280549D01*
X632097D01*
G02X633738Y280958I1642J-3092D01*
G01X634617D01*
X634660Y281002D01*
X675756D01*
G02X676254Y281530I4243J-3503D01*
G03X675981Y282222I-273J292D01*
G01X630000D01*
G02X628357Y282632I1J3502D01*
G01X626672D01*
Y284636D01*
X626663Y284665D01*
G02Y286783I3337J1059D01*
G01X626672Y286812D01*
Y288816D01*
X628357D01*
G02X630000Y289226I1644J-3092D01*
G01X748980D01*
G02X753658Y291209I4244J-3502D01*
G01X753750Y291202D01*
X762774Y300226D01*
X773998D01*
Y310528D01*
X796356Y332885D01*
Y340907D01*
X792040Y345222D01*
X790902D01*
G03X790672Y344496I1J-400D01*
G02X783256Y336498I-3173J-4495D01*
G01X755074D01*
X754617Y336956D01*
X753738D01*
G02X752097Y337365I1J3501D01*
G01X750412D01*
Y339369D01*
X750403Y339398D01*
G02Y341516I3337J1059D01*
G01X750412Y341545D01*
Y343549D01*
X752097D01*
G02X753738Y343958I1642J-3092D01*
G01X757517D01*
X757974Y343502D01*
X783256D01*
G02X784328Y344496I4244J-3502D01*
G03X784098Y345222I-231J326D01*
G01X750000D01*
G02X748357Y345632I1J3502D01*
G01X746672D01*
Y347636D01*
X746663Y347665D01*
G02Y349783I3337J1059D01*
G01X746672Y349812D01*
Y351816D01*
X748357D01*
G02X750000Y352226I1644J-3092D01*
G01X794940D01*
X799857Y347309D01*
X800774Y348226D01*
X803998D01*
Y348950D01*
X807022Y351974D01*
X807015Y352066D01*
G02X813623Y357886I5485J434D01*
G03X813988Y358561I82J392D01*
G01X811050Y361498D01*
X781450D01*
X773950Y353998D01*
X719244D01*
G02Y361002I-4244J3502D01*
G01X771050D01*
X778550Y368502D01*
X813950D01*
X826002Y356450D01*
Y341531D01*
X819068Y334598D01*
Y333365D01*
X817836D01*
X817426Y332956D01*
X815738D01*
G02X814097Y333365I1J3501D01*
G01X812412D01*
Y335369D01*
X812403Y335398D01*
G02Y337516I3337J1059D01*
G01X812412Y337545D01*
Y339549D01*
X814116D01*
X818998Y344431D01*
Y353550D01*
X818561Y353988D01*
G03X817886Y353623I-283J-283D01*
G02X815328Y347781I-5386J-1123D01*
G01Y345812D01*
X815337Y345783D01*
G02Y343665I-3337J-1059D01*
G01X815328Y343636D01*
Y341632D01*
X813643D01*
G02X812000Y341222I-1644J3092D01*
G01X803674D01*
X803358Y340907D01*
Y329985D01*
X781002Y307628D01*
Y300226D01*
X838550D01*
X847326Y309002D01*
X864498D01*
Y310550D01*
X861550Y313498D01*
X855502D01*
Y311498D01*
X844498D01*
Y317550D01*
X828998Y333050D01*
Y377487D01*
X822668Y383818D01*
X812820D01*
Y382993D01*
G02X807015Y377934I-320J-5493D01*
G01X807022Y378026D01*
X805816Y379232D01*
Y397524D01*
X811608Y403316D01*
G03X811325Y403998I-283J282D01*
G01X787938D01*
Y383818D01*
X776002D01*
Y373550D01*
X765950Y363498D01*
X765502D01*
Y361498D01*
X754498D01*
Y363498D01*
X626244D01*
G02Y370502I-4244J3502D01*
G01X754498D01*
Y372502D01*
X765050D01*
X768998Y376450D01*
Y386498D01*
X756450D01*
X756136Y386184D01*
G03X756419Y385502I283J-282D01*
G01X765502D01*
Y374498D01*
X754498D01*
Y383581D01*
G03X753816Y383864I-400J0D01*
G01X753450Y383498D01*
X745502D01*
Y381498D01*
X734498D01*
Y383498D01*
X734050D01*
X733550Y383998D01*
X636744D01*
G02Y391002I-4244J3502D01*
G01X734498D01*
Y392502D01*
X745502D01*
Y390502D01*
X750550D01*
X753550Y393502D01*
X754498D01*
Y402502D01*
X760550D01*
X761864Y403816D01*
G03X761581Y404498I-283J282D01*
G01X754498D01*
Y415502D01*
X763581D01*
G03X763864Y416184I0J400D01*
G01X761050Y418998D01*
X748950D01*
X738950Y408998D01*
X666050D01*
X638550Y436498D01*
X501450D01*
X476450Y411498D01*
X246050D01*
X208550Y448998D01*
X131744D01*
G02Y456002I-4244J3502D01*
G01X211450D01*
X248950Y418502D01*
X258081D01*
G03X258364Y419184I0J400D01*
G01X258026Y419522D01*
X257934Y419515D01*
G02X262985Y424566I-434J5485D01*
G01X262978Y424474D01*
X263950Y423502D01*
X338248D01*
G03X338396Y423836I0J200D01*
G02X338256Y423998I4092J3678D01*
G01X331560D01*
X331517Y423956D01*
X327738D01*
G02X326097Y424365I1J3501D01*
G01X324412D01*
Y426369D01*
X324403Y426398D01*
G02Y428516I3337J1059D01*
G01X324412Y428545D01*
Y430549D01*
X326097D01*
G02X327738Y430958I1642J-3092D01*
G01X328617D01*
X328660Y431002D01*
X338256D01*
G02X346861Y424145I4244J-3502D01*
G03X347178Y423502I317J-243D01*
G01X376050D01*
X381498Y428950D01*
Y451450D01*
X399598Y469550D01*
Y472545D01*
X381502D01*
Y471550D01*
X361450Y451498D01*
X354875D01*
G02X346252Y459688I-4874J3502D01*
G03Y460312I-250J312D01*
G02Y469688I3748J4688D01*
G03Y470312I-250J312D01*
G02X350872Y480938I3748J4688D01*
G01X350972Y480924D01*
X351205Y481157D01*
G03X351063Y481498I-142J141D01*
G01X344498D01*
Y488581D01*
G03X343816Y488864I-400J0D01*
G01X327496Y472544D01*
Y446002D01*
X367756D01*
G02Y438998I4244J-3502D01*
G01X327502D01*
Y435724D01*
G02X327337Y434665I-3502J3D01*
G01X327328Y434636D01*
Y432632D01*
X325643D01*
G02X322357I-1643J3092D01*
G01X320672D01*
Y434636D01*
X320663Y434665D01*
G02X320498Y435724I3337J1062D01*
G01Y436365D01*
X320492Y436371D01*
Y475444D01*
X330588Y485540D01*
G03X330305Y486222I-283J282D01*
G01X309244D01*
G02X300756I-4244J3502D01*
G01X287000D01*
G02X285357Y486632I1J3502D01*
G01X283672D01*
Y488636D01*
X283663Y488665D01*
G02Y490783I3337J1059D01*
G01X283672Y490812D01*
Y492816D01*
X285357D01*
G02X287000Y493226I1644J-3092D01*
G01X300756D01*
G02X309244I4244J-3502D01*
G01X338274D01*
X344498Y499450D01*
Y505502D01*
X353581D01*
G03X353864Y506184I0J400D01*
G01X350972Y509076D01*
X350872Y509062D01*
G02X346252Y519688I-872J5938D01*
G03Y520312I-250J312D01*
G02Y529688I3748J4688D01*
G03Y530312I-250J312D01*
G02Y539688I3748J4688D01*
G03Y540312I-250J312D01*
G02X355940Y544143I3748J4688D01*
G01X355938Y544129D01*
Y544128D01*
X355924Y544028D01*
X373502Y526450D01*
Y519284D01*
X380716D01*
Y527455D01*
X380798D01*
Y529250D01*
X358550Y551498D01*
X346450D01*
X291450Y496498D01*
X208950D01*
X186450Y473998D01*
X103950D01*
X102978Y473026D01*
X102985Y472934D01*
G02X97934Y477985I-5485J-434D01*
G01X98026Y477978D01*
X101050Y481002D01*
X183550D01*
X206050Y503502D01*
X288550D01*
X343550Y558502D01*
X361450D01*
X368316Y551636D01*
G03X368998Y551919I282J283D01*
G01Y553256D01*
G02X376366Y553586I3501J4244D01*
G01X386416Y543536D01*
G03X387098Y543819I282J283D01*
G01Y566498D01*
X343950D01*
X335478Y558026D01*
X335485Y557934D01*
G02X330434Y562985I-5485J-434D01*
G01X330526Y562978D01*
X333363Y565815D01*
G03X333081Y566498I-283J283D01*
G01X193550D01*
X171050Y588998D01*
X61744D01*
G02Y596002I-4244J3502D01*
G01X173950D01*
X196450Y573502D01*
X456450D01*
X468950Y561002D01*
X523256D01*
G02Y553998I4244J-3502D01*
G01X466050D01*
X453550Y566498D01*
X394102D01*
Y560019D01*
G03X394784Y559736I400J0D01*
G01X398550Y563502D01*
X443256D01*
G02Y556498I4244J-3502D01*
G01X414678D01*
G03X414361Y555855I0J-400D01*
G02X410002Y546998I-4361J-3355D01*
G03X409802Y546798I0J-200D01*
G01Y544238D01*
G03X410501Y543973I400J0D01*
G02X419688Y543748I4499J-3973D01*
G03X420312I312J250D01*
G02X429688I4688J-3748D01*
G03X430312I312J250D01*
G02X438502Y535125I4688J-3749D01*
G01Y533550D01*
X433950Y528998D01*
X425780D01*
X419284Y522503D01*
Y519284D01*
X427454D01*
Y519202D01*
X436750D01*
X448550Y531002D01*
X550322D01*
G03X550639Y531645I0J400D01*
G02X551498Y539244I4361J3355D01*
G01Y541365D01*
X544932D01*
Y547549D01*
X551588D01*
Y543649D01*
G03X551930Y543508I200J0D01*
G01X552238Y543816D01*
Y544457D01*
G02X552403Y545516I3502J-3D01*
G01X552412Y545545D01*
Y547549D01*
X554097D01*
G02X557383I1643J-3092D01*
G01X559068D01*
Y545545D01*
X559077Y545516D01*
G02X559242Y544457I-3337J-1062D01*
G01Y540916D01*
X558502Y540176D01*
Y539245D01*
X558572Y539185D01*
G02X559361Y531645I-3572J-4185D01*
G03X559678Y531002I317J-243D01*
G01X580756D01*
G02Y523998I4244J-3502D01*
G01X451450D01*
X443496Y516044D01*
G03X443692Y515371I283J-283D01*
G02X446861Y506645I-1192J-5371D01*
G03X447178Y506002I317J-243D01*
G01X449498D01*
Y508002D01*
X460502D01*
Y496998D01*
X449498D01*
Y498998D01*
X439419D01*
G03X439136Y498316I0J-400D01*
G01X458950Y478502D01*
X465125D01*
G02X473748Y470312I4874J-3502D01*
G03Y469688I250J-312D01*
G02Y460312I-3748J-4688D01*
G03Y459688I250J-312D01*
G02X465125Y451498I-3749J-4688D01*
G01X460014D01*
X428137Y483375D01*
G03X427454Y483092I-283J-283D01*
G01Y480716D01*
X419284D01*
Y477497D01*
X423502Y473280D01*
Y466450D01*
X428502Y461450D01*
Y444875D01*
G02X420312Y436252I-3502J-4874D01*
G03X419688I-312J-250D01*
G02X410312I-4688J3748D01*
G03X409688I-312J-250D01*
G02X400312I-4688J3748D01*
G03X399688I-312J-250D01*
G02X391498Y444875I-4688J3749D01*
G01Y450581D01*
G03X390816Y450864I-400J0D01*
G01X388502Y448550D01*
Y426050D01*
X381636Y419184D01*
G03X381919Y418502I283J-282D01*
G01X473550D01*
X498550Y443502D01*
X641450D01*
X668950Y416002D01*
X736050D01*
X743364Y423316D01*
G03X743081Y423998I-283J282D01*
G01X721450D01*
X720478Y423026D01*
X720485Y422934D01*
G02X715434Y427985I-5485J-434D01*
G01X715526Y427978D01*
G37*
G36*
G01X560434Y785485D02*
X560526Y785478D01*
X561498Y786450D01*
Y825125D01*
G02X560312Y826252I3503J4874D01*
G03X559688I-312J-250D01*
G02X550312I-4688J3748D01*
G03X549688I-312J-250D01*
G02X548502Y825125I-4689J3747D01*
G01Y759244D01*
G02X541498I-3502J-4244D01*
G01Y778550D01*
X526050Y793998D01*
X349244D01*
G02Y801002I-4244J3502D01*
G01X528950D01*
X540816Y789136D01*
G03X541498Y789419I282J283D01*
G01Y825125D01*
G02X540312Y826252I3503J4874D01*
G03X539688I-312J-250D01*
G02Y833748I-4688J3748D01*
G03X540312I312J250D01*
G02X549688I4688J-3748D01*
G03X550312I312J250D01*
G02X559688I4688J-3748D01*
G03X560312I312J250D01*
G02X569688I4688J-3748D01*
G03X570312I312J250D01*
G02X579688I4688J-3748D01*
G03X580312I312J250D01*
G02Y826252I4688J-3748D01*
G03X579688I-312J-250D01*
G02X578502Y825125I-4689J3747D01*
G01Y768550D01*
X565478Y755526D01*
X565485Y755434D01*
G02X560434Y760485I-5485J-434D01*
G01X560526Y760478D01*
X571498Y771450D01*
Y825125D01*
G02X570312Y826252I3503J4874D01*
G03X569688I-312J-250D01*
G02X568502Y825125I-4689J3747D01*
G01Y783550D01*
X565478Y780526D01*
X565485Y780434D01*
G02X560434Y785485I-5485J-434D01*
G37*
G36*
G01X281450Y461498D02*
X276744D01*
G02Y468502I-4244J3502D01*
G01X278550D01*
X286498Y476450D01*
Y480076D01*
X287238Y480816D01*
Y481457D01*
G02X287403Y482516I3502J-3D01*
G01X287412Y482546D01*
Y484549D01*
X289097D01*
G02X292383I1643J-3092D01*
G01X294068D01*
Y482546D01*
X294077Y482516D01*
G02X294242Y481457I-3337J-1062D01*
G01Y477916D01*
X293502Y477176D01*
Y475025D01*
G02Y474975I-3502J-25D01*
G01Y473550D01*
X292494Y472542D01*
G02X292476Y472524I-2485J2467D01*
G01X281450Y461498D01*
G37*
G36*
G01X99474Y484522D02*
X36450Y421498D01*
X24875D01*
G02X23748Y420312I-4874J3503D01*
G03Y419688I250J-312D01*
G02X24875Y418502I-3747J-4689D01*
G01X61050D01*
X86050Y443502D01*
X211450D01*
X246450Y408502D01*
X478950D01*
X484474Y402978D01*
X484566Y402985D01*
G02X479515Y397934I434J-5485D01*
G01X479522Y398026D01*
X476050Y401498D01*
X243550D01*
X208550Y436498D01*
X88950D01*
X63950Y411498D01*
X24875D01*
G02X23748Y410312I-4874J3503D01*
G03Y409688I250J-312D01*
G02X24875Y408502I-3747J-4689D01*
G01X83256D01*
G02Y401498I4244J-3502D01*
G01X24875D01*
G02X23748Y400312I-4874J3503D01*
G03Y399688I250J-312D01*
G02X24875Y398502I-3747J-4689D01*
G01X51950D01*
X53840Y396612D01*
X53980Y396729D01*
G02X53256Y388998I3520J-4229D01*
G01X51550D01*
X49050Y391498D01*
X24875D01*
G02X23748Y390312I-4874J3503D01*
G03Y389688I250J-312D01*
G02X16252I-3748J-4688D01*
G03Y390312I-250J312D01*
G02Y399688I3748J4688D01*
G03Y400312I-250J312D01*
G02Y409688I3748J4688D01*
G03Y410312I-250J312D01*
G02Y419688I3748J4688D01*
G03Y420312I-250J312D01*
G02Y429688I3748J4688D01*
G03Y430312I-250J312D01*
G02X23748I3748J4688D01*
G03Y429688I250J-312D01*
G02X24875Y428502I-3747J-4689D01*
G01X33550D01*
X94522Y489474D01*
X94515Y489566D01*
G02X99566Y484515I5485J434D01*
G01X99474Y484522D01*
G37*
G36*
G01X530312Y16252D02*
G03X529688I-312J-250D01*
G02Y23748I-4688J3748D01*
G03X530312I312J250D01*
G02X531498Y24875I4689J-3747D01*
G01Y28550D01*
X465526Y94522D01*
X465434Y94515D01*
G02X470485Y99566I-434J5485D01*
G01X470478Y99474D01*
X538502Y31450D01*
Y30023D01*
G02Y29977I-3502J-23D01*
G01Y24875D01*
G02X539688Y23748I-3503J-4874D01*
G03X540312I312J250D01*
G02X541498Y24875I4689J-3747D01*
G01Y38550D01*
X453026Y127022D01*
X452934Y127015D01*
G02X457985Y132066I-434J5485D01*
G01X457978Y131974D01*
X548502Y41450D01*
Y24875D01*
G02X549688Y23748I-3503J-4874D01*
G03X550312I312J250D01*
G02X551498Y24875I4689J-3747D01*
G01Y48550D01*
X485526Y114522D01*
X485434Y114515D01*
G02X490485Y119566I-434J5485D01*
G01X490478Y119474D01*
X557476Y52476D01*
G02X557493Y52458I-2537J-2413D01*
G01X557494D01*
X558502Y51450D01*
Y50025D01*
G02Y49975I-3502J-25D01*
G01Y24875D01*
G02X559688Y23748I-3503J-4874D01*
G03X560312I312J250D01*
G02X561498Y24875I4689J-3747D01*
G01Y83256D01*
G02X568502I3502J4244D01*
G01Y24875D01*
G02X569688Y23748I-3503J-4874D01*
G03X570312I312J250D01*
G02X571498Y24875I4689J-3747D01*
G01Y95756D01*
G02X578502I3502J4244D01*
G01Y24875D01*
G02X570312Y16252I-3502J-4874D01*
G03X569688I-312J-250D01*
G02X560312I-4688J3748D01*
G03X559688I-312J-250D01*
G02X550312I-4688J3748D01*
G03X549688I-312J-250D01*
G02X540312I-4688J3748D01*
G03X539688I-312J-250D01*
G02X530312I-4688J3748D01*
G37*
G36*
G01X183950Y481498D02*
X182525D01*
G02X182475I-25J3502D01*
G01X146983D01*
X144116Y484365D01*
X142412D01*
Y486368D01*
X142403Y486398D01*
G02Y488516I3337J1059D01*
G01X142412Y488546D01*
Y490549D01*
X144097D01*
G02X145740Y490958I1642J-3092D01*
G01X147426D01*
X147836Y490549D01*
X149068D01*
Y489317D01*
X149883Y488502D01*
X181050D01*
X196498Y503950D01*
Y508256D01*
G02X203502I3502J4244D01*
G01Y501050D01*
X184976Y482524D01*
G02X184958Y482506I-2485J2467D01*
G01X183950Y481498D01*
G37*
G36*
G01X273000Y558226D02*
X298256D01*
G02Y551222I4244J-3502D01*
G01X273000D01*
G02X271357Y551632I1J3502D01*
G01X269672D01*
Y553637D01*
X269662Y553666D01*
G02Y555782I3338J1058D01*
G01X269672Y555811D01*
Y557816D01*
X271357D01*
G02X273000Y558226I1644J-3092D01*
G37*
G36*
G01X781824Y546498D02*
X739244D01*
G02Y553502I-4244J3502D01*
G01X778924D01*
X787104Y561682D01*
G03X786822Y562365I-283J283D01*
G01X782932D01*
Y568549D01*
X789588D01*
Y564649D01*
G03X789930Y564508I200J0D01*
G01X790238Y564816D01*
Y565457D01*
G02X790402Y566515I3502J-1D01*
G01X790412Y566544D01*
Y568549D01*
X792097D01*
G02X795383I1643J-3092D01*
G01X797068D01*
Y566544D01*
X797078Y566515D01*
G02X797242Y565457I-3338J-1059D01*
G01Y561916D01*
X781824Y546498D01*
G37*
G36*
G01X749993Y694958D02*
X751974Y692978D01*
X752066Y692985D01*
G02X746998Y687552I434J-5485D01*
G03X746598Y687956I-400J4D01*
G01X732740D01*
G02X731097Y688365I-1J3501D01*
G01X729412D01*
Y690370D01*
X729402Y690399D01*
G02Y692515I3338J1058D01*
G01X729412Y692544D01*
Y694549D01*
X731097D01*
G02X732740Y694958I1642J-3092D01*
G01X749993D01*
G37*
G36*
G01X729883Y513502D02*
X763256D01*
G02Y506498I4244J-3502D01*
G01X726983D01*
X724116Y509365D01*
X722412D01*
Y511370D01*
X722402Y511399D01*
G02Y513515I3338J1058D01*
G01X722412Y513544D01*
Y515549D01*
X724097D01*
G02X725740Y515958I1642J-3092D01*
G01X727426D01*
X727836Y515549D01*
X729068D01*
Y514316D01*
X729883Y513502D01*
G37*
G36*
G01X686450Y608998D02*
X669244D01*
G02Y616002I-4244J3502D01*
G01X683550D01*
X693550Y626002D01*
X778256D01*
G02Y618998I4244J-3502D01*
G01X696450D01*
X686450Y608998D01*
G37*
G36*
G01X828226Y674226D02*
X846974Y655478D01*
X847066Y655485D01*
G02X848623Y655386I433J-5485D01*
G03X848988Y656061I82J392D01*
G01X826050Y678998D01*
X786744D01*
G02Y686002I-4244J3502D01*
G01X828950D01*
X881450Y633502D01*
X981050D01*
X985238Y637690D01*
Y642457D01*
G02X985402Y643515I3502J-1D01*
G01X985412Y643544D01*
Y645549D01*
X987097D01*
G02X990383I1643J-3092D01*
G01X992068D01*
Y643544D01*
X992078Y643515D01*
G02X992242Y642457I-3338J-1059D01*
G01Y634790D01*
X983950Y626498D01*
X878550D01*
X853561Y651488D01*
G03X852886Y651123I-283J-283D01*
G02X842015Y650434I-5386J-1123D01*
G01X842022Y650526D01*
X825326Y667222D01*
X816000D01*
G02X814357Y667632I1J3502D01*
G01X812672D01*
Y669637D01*
X812662Y669666D01*
G02Y671782I3338J1058D01*
G01X812672Y671811D01*
Y673816D01*
X814357D01*
G02X816000Y674226I1644J-3092D01*
G01X828226D01*
G37*
G36*
G01X795756Y471498D02*
X559244D01*
G02Y478502I-4244J3502D01*
G01X795756D01*
G02Y471498I4244J-3502D01*
G37*
G36*
G01X610756Y511498D02*
X531744D01*
G02Y518502I-4244J3502D01*
G01X610756D01*
G02Y511498I4244J-3502D01*
G37*
G36*
G01X156002Y556744D02*
G02X148998I-3502J-4244D01*
G01Y564365D01*
X142932D01*
Y570549D01*
X149588D01*
Y566649D01*
G03X149930Y566508I200J0D01*
G01X150238Y566816D01*
Y567457D01*
G02X150402Y568515I3502J-1D01*
G01X150412Y568544D01*
Y570549D01*
X152097D01*
G02X155383I1643J-3092D01*
G01X157068D01*
Y568544D01*
X157078Y568515D01*
G02X157242Y567457I-3338J-1059D01*
G01Y563916D01*
X156002Y562676D01*
Y556744D01*
G37*
G36*
G01X134688Y838748D02*
G03X135312I312J250D01*
G02Y831252I4688J-3748D01*
G03X134688I-312J-250D01*
G02X125312I-4688J3748D01*
G03X124688I-312J-250D01*
G02X115312I-4688J3748D01*
G03X114688I-312J-250D01*
G02X105312I-4688J3748D01*
G03X104688I-312J-250D01*
G02X95312I-4688J3748D01*
G03X94688I-312J-250D01*
G02X85312I-4688J3748D01*
G03X84688I-312J-250D01*
G02X75312I-4688J3748D01*
G03X74688I-312J-250D01*
G02X65312I-4688J3748D01*
G03X64688I-312J-250D01*
G02X55312I-4688J3748D01*
G03X54688I-312J-250D01*
G02X45312I-4688J3748D01*
G03X44688I-312J-250D01*
G02X35312I-4688J3748D01*
G03X34688I-312J-250D01*
G02Y838748I-4688J3748D01*
G03X35312I312J250D01*
G02X44688I4688J-3748D01*
G03X45312I312J250D01*
G02X54688I4688J-3748D01*
G03X55312I312J250D01*
G02X64688I4688J-3748D01*
G03X65312I312J250D01*
G02X74688I4688J-3748D01*
G03X75312I312J250D01*
G02X84688I4688J-3748D01*
G03X85312I312J250D01*
G02X94688I4688J-3748D01*
G03X95312I312J250D01*
G02X104688I4688J-3748D01*
G03X105312I312J250D01*
G02X114688I4688J-3748D01*
G03X115312I312J250D01*
G02X124688I4688J-3748D01*
G03X125312I312J250D01*
G02X134688I4688J-3748D01*
G37*
G36*
G01X220312Y826252D02*
G03X219688I-312J-250D01*
G02Y833748I-4688J3748D01*
G03X220312I312J250D01*
G02Y826252I4688J-3748D01*
G37*
G36*
G01X333502Y783950D02*
X336450Y781002D01*
X378256D01*
G02Y773998I4244J-3502D01*
G01X333550D01*
X326498Y781050D01*
Y784498D01*
X324498D01*
Y795502D01*
X335502D01*
Y784498D01*
X333502D01*
Y783950D01*
G37*
G36*
G01X113502Y751450D02*
X119450Y745502D01*
X125502D01*
Y734498D01*
X114498D01*
Y740550D01*
X106498Y748550D01*
Y760125D01*
G02X105312Y761252I3503J4874D01*
G03X104688I-312J-250D01*
G02X95312I-4688J3748D01*
G03X94688I-312J-250D01*
G02X85312I-4688J3748D01*
G03X84688I-312J-250D01*
G02X75312I-4688J3748D01*
G03X74688I-312J-250D01*
G02X65312I-4688J3748D01*
G03X64688I-312J-250D01*
G02X55312I-4688J3748D01*
G03X54688I-312J-250D01*
G02X45312I-4688J3748D01*
G03X44688I-312J-250D01*
G02X35312I-4688J3748D01*
G03X34688I-312J-250D01*
G02Y768748I-4688J3748D01*
G03X35312I312J250D01*
G02X44688I4688J-3748D01*
G03X45312I312J250D01*
G02X54688I4688J-3748D01*
G03X55312I312J250D01*
G02X64688I4688J-3748D01*
G03X65312I312J250D01*
G02X74688I4688J-3748D01*
G03X75312I312J250D01*
G02X84688I4688J-3748D01*
G03X85312I312J250D01*
G02X94688I4688J-3748D01*
G03X95312I312J250D01*
G02X104688I4688J-3748D01*
G03X105312I312J250D01*
G02X114688I4688J-3748D01*
G03X115312I312J250D01*
G02X124688I4688J-3748D01*
G03X125312I312J250D01*
G02X134688I4688J-3748D01*
G03X135312I312J250D01*
G02Y761252I4688J-3748D01*
G03X134688I-312J-250D01*
G02X125312I-4688J3748D01*
G03X124688I-312J-250D01*
G02X115312I-4688J3748D01*
G03X114688I-312J-250D01*
G02X113502Y760125I-4689J3747D01*
G01Y751450D01*
G37*
G36*
G01X578883Y723502D02*
X623256D01*
G02Y716498I4244J-3502D01*
G01X575983D01*
X568116Y724365D01*
X566412D01*
Y726370D01*
X566402Y726399D01*
G02Y728515I3338J1058D01*
G01X566412Y728544D01*
Y730549D01*
X568097D01*
G02X569740Y730958I1642J-3092D01*
G01X571426D01*
X571836Y730549D01*
X573068D01*
Y729316D01*
X578883Y723502D01*
G37*
G36*
G01X648950Y706498D02*
X556744D01*
G02Y713502I-4244J3502D01*
G01X646050D01*
X648998Y716450D01*
Y717156D01*
X648238Y717916D01*
Y721457D01*
G02X648402Y722515I3502J-1D01*
G01X648412Y722544D01*
Y724549D01*
X650097D01*
G02X653383I1643J-3092D01*
G01X655068D01*
Y722544D01*
X655078Y722515D01*
G02X655242Y721457I-3338J-1059D01*
G01Y720816D01*
X656002Y720056D01*
Y713550D01*
X648950Y706498D01*
G37*
G36*
G01X917242Y716457D02*
Y706744D01*
G02X910238I-3502J-4244D01*
G01Y716457D01*
G02X910402Y717515I3502J-1D01*
G01X910412Y717544D01*
Y719549D01*
X912097D01*
G02X915383I1643J-3092D01*
G01X917068D01*
Y717544D01*
X917078Y717515D01*
G02X917242Y716457I-3338J-1059D01*
G37*
G36*
G01X513026Y737978D02*
X514274Y739226D01*
X600726D01*
X606726Y733226D01*
X709226D01*
X732502Y709950D01*
Y699724D01*
G02X732338Y698666I-3502J1D01*
G01X732328Y698637D01*
Y696632D01*
X730643D01*
G02X727357I-1643J3092D01*
G01X725672D01*
Y698637D01*
X725662Y698666D01*
G02X725498Y699724I3338J1059D01*
G01Y707050D01*
X706326Y726222D01*
X603826D01*
X597826Y732222D01*
X517998D01*
X517983Y732039D01*
G02X512934Y737985I-5483J461D01*
G01X513026Y737978D01*
G37*
G36*
G01X508840Y698388D02*
X505674Y695222D01*
X490000D01*
G02X488357Y695632I1J3502D01*
G01X486672D01*
Y697637D01*
X486662Y697666D01*
G02Y699782I3338J1058D01*
G01X486672Y699811D01*
Y701816D01*
X488357D01*
G02X490000Y702226I1644J-3092D01*
G01X502774D01*
X506550Y706002D01*
X508256D01*
G02X508980Y698271I4244J-3502D01*
G01X508840Y698388D01*
G37*
G36*
G01X333550Y691498D02*
X306498Y718550D01*
Y784498D01*
X304498D01*
Y795502D01*
X315502D01*
Y784498D01*
X313502D01*
Y721450D01*
X336450Y698502D01*
X390756D01*
G02Y691498I4244J-3502D01*
G01X333550D01*
G37*
G36*
G01X618256Y671498D02*
X546744D01*
G02Y678502I-4244J3502D01*
G01X618256D01*
G02Y671498I4244J-3502D01*
G37*
G36*
G01X445462Y653998D02*
X440328Y648865D01*
Y647632D01*
X439096D01*
X438686Y647222D01*
X437000D01*
G02X435357Y647632I1J3502D01*
G01X433672D01*
Y649637D01*
X433662Y649666D01*
G02Y651782I3338J1058D01*
G01X433672Y651811D01*
Y653816D01*
X435376D01*
X442562Y661002D01*
X508256D01*
G02Y653998I4244J-3502D01*
G01X445462D01*
G37*
G36*
G01X441660Y646002D02*
X448256D01*
G02Y638998I4244J-3502D01*
G01X444560D01*
X444517Y638956D01*
X440740D01*
G02X439097Y639365I-1J3501D01*
G01X437412D01*
Y641370D01*
X437402Y641399D01*
G02Y643515I3338J1058D01*
G01X437412Y643544D01*
Y645549D01*
X439097D01*
G02X440740Y645958I1642J-3092D01*
G01X441617D01*
X441660Y646002D01*
G37*
G36*
G01X908256Y606498D02*
X706744D01*
G02Y613502I-4244J3502D01*
G01X908256D01*
G02Y606498I4244J-3502D01*
G37*
G36*
G01X498674Y606222D02*
X356744D01*
G02X348256I-4244J3502D01*
G01X318686D01*
X318328Y605865D01*
Y604632D01*
X317096D01*
X316686Y604222D01*
X315000D01*
G02X313357Y604632I1J3502D01*
G01X311672D01*
Y606637D01*
X311662Y606666D01*
G02Y608782I3338J1058D01*
G01X311672Y608811D01*
Y610816D01*
X313376D01*
X315786Y613226D01*
X348256D01*
G02X356744I4244J-3502D01*
G01X495774D01*
X501050Y618502D01*
X508256D01*
G02Y611498I4244J-3502D01*
G01X503950D01*
X498674Y606222D01*
G37*
G36*
G01X404740Y604958D02*
X525756D01*
G02Y597956I4244J-3501D01*
G01X404740D01*
G02X403097Y598365I-1J3501D01*
G01X401412D01*
Y600370D01*
X401402Y600399D01*
G02Y602515I3338J1058D01*
G01X401412Y602544D01*
Y604549D01*
X403097D01*
G02X404740Y604958I1642J-3092D01*
G37*
G36*
G01X320160Y603502D02*
X325756D01*
G02Y596498I4244J-3502D01*
G01X323060D01*
X322517Y595956D01*
X318740D01*
G02X317097Y596365I-1J3501D01*
G01X315412D01*
Y598370D01*
X315402Y598399D01*
G02Y600515I3338J1058D01*
G01X315412Y600544D01*
Y602549D01*
X317097D01*
G02X318740Y602958I1642J-3092D01*
G01X319617D01*
X320160Y603502D01*
G37*
G36*
G01X281002Y545056D02*
Y536744D01*
G02X273998I-3502J-4244D01*
G01Y542156D01*
X273238Y542916D01*
Y546457D01*
G02X273402Y547515I3502J-1D01*
G01X273412Y547544D01*
Y549549D01*
X275097D01*
G02X278383I1643J-3092D01*
G01X280068D01*
Y547544D01*
X280078Y547515D01*
G02X280242Y546457I-3338J-1059D01*
G01Y545816D01*
X281002Y545056D01*
G37*
G36*
G01X953242Y546916D02*
X911852Y505526D01*
X911859Y505434D01*
G02X906808Y510485I-5485J-434D01*
G01X906900Y510478D01*
X943104Y546682D01*
G03X942822Y547365I-283J283D01*
G01X938932D01*
Y553549D01*
X945588D01*
Y549649D01*
G03X945930Y549508I200J0D01*
G01X946238Y549816D01*
Y550457D01*
G02X946402Y551515I3502J-1D01*
G01X946412Y551544D01*
Y553549D01*
X948097D01*
G02X951383I1643J-3092D01*
G01X953068D01*
Y551544D01*
X953078Y551515D01*
G02X953242Y550457I-3338J-1059D01*
G01Y546916D01*
G37*
G36*
G01X631050Y506002D02*
X633238Y508190D01*
Y513457D01*
G02X633402Y514515I3502J-1D01*
G01X633412Y514544D01*
Y516549D01*
X635097D01*
G02X638383I1643J-3092D01*
G01X640068D01*
Y514544D01*
X640078Y514515D01*
G02X640242Y513457I-3338J-1059D01*
G01Y505290D01*
X633950Y498998D01*
X609244D01*
G02Y506002I-4244J3502D01*
G01X631050D01*
G37*
G36*
G01X142000Y499226D02*
X171480D01*
G02Y492222I4244J-3502D01*
G01X142000D01*
G02X140357Y492632I1J3502D01*
G01X138672D01*
Y494637D01*
X138662Y494666D01*
G02Y496782I3338J1058D01*
G01X138672Y496811D01*
Y498816D01*
X140357D01*
G02X142000Y499226I1644J-3092D01*
G37*
G36*
G01X975756Y411498D02*
X884244D01*
G02Y418502I-4244J3502D01*
G01X975756D01*
G02Y411498I4244J-3502D01*
G37*
G36*
G01X118026Y420478D02*
X123550Y426002D01*
X166050D01*
X170246Y430198D01*
X170239Y430290D01*
G02X175290Y425239I5485J434D01*
G01X175198Y425246D01*
X168950Y418998D01*
X141502D01*
Y413724D01*
G02X141338Y412666I-3502J1D01*
G01X141328Y412637D01*
Y410632D01*
X139643D01*
G02X136357I-1643J3092D01*
G01X134672D01*
Y412637D01*
X134662Y412666D01*
G02X134498Y413724I3338J1059D01*
G01Y418998D01*
X126450D01*
X122978Y415526D01*
X122985Y415434D01*
G02X117934Y420485I-5485J-434D01*
G01X118026Y420478D01*
G37*
G36*
G01X145974Y408502D02*
X170756D01*
G02Y401498I4244J-3502D01*
G01X143074D01*
X142617Y401956D01*
X141740D01*
G02X140097Y402365I-1J3501D01*
G01X138412D01*
Y404370D01*
X138402Y404399D01*
G02Y406515I3338J1058D01*
G01X138412Y406544D01*
Y408549D01*
X140097D01*
G02X141740Y408958I1642J-3092D01*
G01X145517D01*
X145974Y408502D01*
G37*
G36*
G01X1083748Y400312D02*
G03Y399688I250J-312D01*
G02X1076252I-3748J-4688D01*
G03Y400312I-250J312D01*
G02Y409688I3748J4688D01*
G03Y410312I-250J312D01*
G02Y419688I3748J4688D01*
G03Y420312I-250J312D01*
G02Y429688I3748J4688D01*
G03Y430312I-250J312D01*
G02Y439688I3748J4688D01*
G03Y440312I-250J312D01*
G02X1083748I3748J4688D01*
G03Y439688I250J-312D01*
G02Y430312I-3748J-4688D01*
G03Y429688I250J-312D01*
G02Y420312I-3748J-4688D01*
G03Y419688I250J-312D01*
G02Y410312I-3748J-4688D01*
G03Y409688I250J-312D01*
G02Y400312I-3748J-4688D01*
G37*
G36*
G01X375328Y376632D02*
X373643D01*
G02X370357I-1643J3092D01*
G01X368672D01*
Y378637D01*
X368662Y378666D01*
G02X368498Y379724I3338J1059D01*
G01Y383256D01*
G02X375502I3502J4244D01*
G01Y379724D01*
G02X375338Y378666I-3502J1D01*
G01X375328Y378637D01*
Y376632D01*
G37*
G36*
G01X556050Y361498D02*
X546484Y371064D01*
Y375866D01*
X543984D01*
Y384366D01*
X512853D01*
X507807Y389413D01*
G02X506252Y399688I2193J5587D01*
G03Y400312I-250J312D01*
G02X507807Y410587I3748J4688D01*
G01X518991Y421772D01*
X544928D01*
Y430772D01*
X555678D01*
Y431220D01*
X560460Y436002D01*
X611450D01*
X616502Y430950D01*
Y425502D01*
X618502D01*
Y414498D01*
X616502D01*
Y395502D01*
X618502D01*
Y384498D01*
X607498D01*
Y395502D01*
X609498D01*
Y414498D01*
X607498D01*
Y425502D01*
X609498D01*
Y428050D01*
X608550Y428998D01*
X573432D01*
Y403870D01*
X574096D01*
Y375866D01*
X562094D01*
Y401768D01*
X555988D01*
Y375866D01*
X553488D01*
Y373964D01*
X558950Y368502D01*
X571050D01*
X581498Y378950D01*
Y401450D01*
X594498Y414450D01*
Y425502D01*
X605502D01*
Y414498D01*
X603502D01*
Y413550D01*
X588502Y398550D01*
Y376050D01*
X573950Y361498D01*
X556050D01*
G37*
G36*
G01X122978Y349474D02*
X129226Y343226D01*
X140000D01*
G02X141643Y342816I-1J-3502D01*
G01X143328D01*
Y340811D01*
X143338Y340782D01*
G02Y338666I-3338J-1058D01*
G01X143328Y338637D01*
Y336632D01*
X141643D01*
G02X140000Y336222I-1644J3092D01*
G01X126326D01*
X118026Y344522D01*
X117934Y344515D01*
G02X122985Y349566I-434J5485D01*
G01X122978Y349474D01*
G37*
G36*
G01X401048Y336500D02*
X395326Y342222D01*
X365000D01*
G02X363357Y342632I1J3502D01*
G01X361672D01*
Y344637D01*
X361662Y344666D01*
G02Y346782I3338J1058D01*
G01X361672Y346811D01*
Y348816D01*
X363357D01*
G02X365000Y349226I1644J-3092D01*
G01X398226D01*
X407450Y340002D01*
X416950D01*
X416974Y339978D01*
X417066Y339985D01*
G02X412207Y332998I434J-5485D01*
G01X407502D01*
Y327724D01*
G02X407338Y326666I-3502J1D01*
G01X407328Y326637D01*
Y324632D01*
X405643D01*
G02X402357I-1643J3092D01*
G01X400672D01*
Y326637D01*
X400662Y326666D01*
G02X400498Y327724I3338J1059D01*
G01Y335950D01*
X401048Y336500D01*
G37*
G36*
G01X373502Y328550D02*
X368950Y323998D01*
X353550D01*
X306050Y371498D01*
X194244D01*
G02Y378502I-4244J3502D01*
G01X308950D01*
X356450Y331002D01*
X366050D01*
X366498Y331450D01*
Y332656D01*
X365238Y333916D01*
Y337457D01*
G02X365402Y338515I3502J-1D01*
G01X365412Y338544D01*
Y340549D01*
X367097D01*
G02X370383I1643J-3092D01*
G01X372068D01*
Y338544D01*
X372078Y338515D01*
G02X372242Y337457I-3338J-1059D01*
G01Y336816D01*
X373502Y335556D01*
Y328550D01*
G37*
G36*
G01X858160Y293502D02*
X888256D01*
G02Y286498I4244J-3502D01*
G01X861060D01*
X859517Y284956D01*
X855740D01*
G02X854097Y285365I-1J3501D01*
G01X852412D01*
Y287370D01*
X852402Y287399D01*
G02Y289515I3338J1058D01*
G01X852412Y289544D01*
Y291549D01*
X854097D01*
G02X855740Y291958I1642J-3092D01*
G01X856617D01*
X858160Y293502D01*
G37*
G36*
G01X434974Y268502D02*
X438256D01*
G02Y261498I4244J-3502D01*
G01X432074D01*
X430617Y262956D01*
X429740D01*
G02X428097Y263365I-1J3501D01*
G01X426412D01*
Y265370D01*
X426402Y265399D01*
G02Y267515I3338J1058D01*
G01X426412Y267544D01*
Y269549D01*
X428097D01*
G02X429740Y269958I1642J-3092D01*
G01X433517D01*
X434974Y268502D01*
G37*
G36*
G01X976049Y263502D02*
X997022Y284475D01*
X997015Y284567D01*
G02X1002066Y279516I5485J434D01*
G01X1001974Y279523D01*
X978949Y256498D01*
X864244D01*
G02Y263502I-4244J3502D01*
G01X976049D01*
G37*
G36*
G01X171997Y249222D02*
G03X171692Y248563I0J-400D01*
G02X163256Y241498I-4191J-3564D01*
G01X158060D01*
X157517Y240956D01*
X153740D01*
G02X152097Y241365I-1J3501D01*
G01X150412D01*
Y243370D01*
X150402Y243399D01*
G02Y245515I3338J1058D01*
G01X150412Y245544D01*
Y247549D01*
X152097D01*
G02X153740Y247958I1642J-3092D01*
G01X154617D01*
X155160Y248502D01*
X163256D01*
G02X163600Y248881I4242J-3504D01*
G03X163459Y249222I-141J141D01*
G01X150000D01*
G02X148357Y249632I1J3502D01*
G01X146672D01*
Y251637D01*
X146662Y251666D01*
G02Y253782I3338J1058D01*
G01X146672Y253811D01*
Y255816D01*
X148357D01*
G02X150000Y256226I1644J-3092D01*
G01X180532D01*
G02Y249222I4244J-3502D01*
G01X171997D01*
G37*
G36*
G01X812116Y240549D02*
X816498Y244931D01*
Y248550D01*
X813026Y252022D01*
X812934Y252015D01*
G02X817985Y257066I-434J5485D01*
G01X817978Y256974D01*
X823502Y251450D01*
Y242031D01*
X817068Y235598D01*
Y234365D01*
X815836D01*
X815426Y233956D01*
X813740D01*
G02X812097Y234365I-1J3501D01*
G01X810412D01*
Y236370D01*
X810402Y236399D01*
G02Y238515I3338J1058D01*
G01X810412Y238544D01*
Y240549D01*
X812116D01*
G37*
G36*
G01X981974Y217022D02*
X978907Y213956D01*
X963740D01*
G02X962097Y214365I-1J3501D01*
G01X960412D01*
Y216370D01*
X960402Y216399D01*
G02Y218515I3338J1058D01*
G01X960412Y218544D01*
Y220549D01*
X962097D01*
G02X963740Y220958I1642J-3092D01*
G01X976007D01*
X977022Y221974D01*
X977015Y222066D01*
G02X982066Y217015I5485J434D01*
G01X981974Y217022D01*
G37*
G36*
G01X801050Y221002D02*
X895756D01*
G02Y213998I4244J-3502D01*
G01X803950D01*
X802907Y212956D01*
X667740D01*
G02X666097Y213365I-1J3501D01*
G01X664412D01*
Y215370D01*
X664402Y215399D01*
G02Y217515I3338J1058D01*
G01X664412Y217544D01*
Y219549D01*
X666097D01*
G02X667740Y219958I1642J-3092D01*
G01X800007D01*
X801050Y221002D01*
G37*
G36*
G01X401226Y206498D02*
X399520D01*
G02X398796Y214229I-4244J3502D01*
G01X398936Y214112D01*
X399050Y214226D01*
X429000D01*
G02X430643Y213816I-1J-3502D01*
G01X432328D01*
Y211811D01*
X432338Y211782D01*
G02Y209666I-3338J-1058D01*
G01X432328Y209637D01*
Y207632D01*
X430643D01*
G02X429000Y207222I-1644J3092D01*
G01X401950D01*
X401226Y206498D01*
G37*
G36*
G01X193643Y190632D02*
G02X192000Y190222I-1644J3092D01*
G01X190314D01*
X189904Y190632D01*
X188672D01*
Y191865D01*
X181274Y199262D01*
Y203256D01*
G02X189020Y211002I3502J4244D01*
G01X253256D01*
G02Y203998I4244J-3502D01*
G01X189020D01*
G02X188348Y203315I-4243J3503D01*
G01X188278Y203255D01*
Y202162D01*
X193624Y196816D01*
X195328D01*
Y194811D01*
X195338Y194782D01*
G02Y192666I-3338J-1058D01*
G01X195328Y192637D01*
Y190632D01*
X193643D01*
G37*
G36*
G01X426950Y188998D02*
X391744D01*
G02Y196002I-4244J3502D01*
G01X424050D01*
X426730Y198682D01*
G03X426448Y199365I-283J283D01*
G01X421932D01*
Y205549D01*
X428588D01*
Y201023D01*
G03X428930Y200882I200J0D01*
G01X429238Y201190D01*
Y202457D01*
G02X429402Y203515I3502J-1D01*
G01X429412Y203544D01*
Y205549D01*
X431097D01*
G02X434383I1643J-3092D01*
G01X436068D01*
Y203544D01*
X436078Y203515D01*
G02X436242Y202457I-3338J-1059D01*
G01Y198290D01*
X426950Y188998D01*
G37*
G36*
G01X339560Y183998D02*
X337517Y181956D01*
X333740D01*
G02X332097Y182365I-1J3501D01*
G01X330412D01*
Y184370D01*
X330402Y184399D01*
G02Y186515I3338J1058D01*
G01X330412Y186544D01*
Y188549D01*
X332097D01*
G02X333740Y188958I1642J-3092D01*
G01X334617D01*
X336660Y191002D01*
X350756D01*
G02Y183998I4244J-3502D01*
G01X339560D01*
G37*
G36*
G01X792507Y174958D02*
X801050Y183502D01*
X908550D01*
X909522Y184474D01*
X909515Y184566D01*
G02X914566Y179515I5485J434D01*
G01X914474Y179522D01*
X911450Y176498D01*
X803950D01*
X795407Y167956D01*
X782740D01*
G02X781097Y168365I-1J3501D01*
G01X779412D01*
Y170370D01*
X779402Y170399D01*
G02Y172515I3338J1058D01*
G01X779412Y172544D01*
Y174549D01*
X781097D01*
G02X782740Y174958I1642J-3092D01*
G01X792507D01*
G37*
G36*
G01X433550Y173502D02*
X437022Y176974D01*
X437015Y177066D01*
G02X442066Y172015I5485J434D01*
G01X441974Y172022D01*
X436450Y166498D01*
X156744D01*
G02Y173502I-4244J3502D01*
G01X433550D01*
G37*
G36*
G01X845498Y142050D02*
X829277Y158271D01*
X829185Y158264D01*
G02X828317I-434J5485D01*
G01X828225Y158271D01*
X821452Y151498D01*
X754244D01*
G02X746498Y159244I-4244J3502D01*
G01Y168550D01*
X733550Y181498D01*
X726450D01*
X721502Y176550D01*
Y169436D01*
G03X721843Y169295I200J0D01*
G01X722022Y169474D01*
X722015Y169566D01*
G02X727066Y164515I5485J434D01*
G01X726974Y164522D01*
X725242Y162790D01*
Y160457D01*
G02X725078Y159399I-3502J1D01*
G01X725068Y159370D01*
Y157365D01*
X723383D01*
G02X720097I-1643J3092D01*
G01X718412D01*
Y159370D01*
X718402Y159399D01*
G02X718238Y160457I3338J1059D01*
G01Y165023D01*
G03X718036Y165223I-200J0D01*
G02X716357Y165632I-36J3501D01*
G01X714672D01*
Y167637D01*
X714662Y167666D01*
G02X714498Y168724I3338J1059D01*
G01Y179450D01*
X723550Y188502D01*
X774938D01*
X780624Y182816D01*
X782328D01*
Y180811D01*
X782338Y180782D01*
G02Y178666I-3338J-1058D01*
G01X782328Y178637D01*
Y176632D01*
X780643D01*
G02X779000Y176222I-1644J3092D01*
G01X777314D01*
X776904Y176632D01*
X775672D01*
Y177865D01*
X772038Y181498D01*
X744419D01*
G03X744136Y180816I0J-400D01*
G01X753502Y171450D01*
Y159244D01*
G02X754244Y158502I-3502J-4244D01*
G01X818552D01*
X823273Y163223D01*
X823266Y163315D01*
G02X829185Y169234I5485J434D01*
G01X829277Y169227D01*
X832276Y172226D01*
X934774D01*
X939722Y177174D01*
Y222174D01*
X946774Y229226D01*
X960000D01*
G02X961643Y228816I-1J-3502D01*
G01X963328D01*
Y226811D01*
X963338Y226782D01*
G02Y224666I-3338J-1058D01*
G01X963328Y224637D01*
Y222632D01*
X961643D01*
G02X960000Y222222I-1644J3092D01*
G01X949674D01*
X946726Y219274D01*
Y174274D01*
X937674Y165222D01*
X835176D01*
X834229Y164275D01*
X834236Y164183D01*
G02Y163315I-5485J-434D01*
G01X834229Y163223D01*
X852502Y144950D01*
Y138724D01*
G02X852338Y137666I-3502J1D01*
G01X852328Y137637D01*
Y135632D01*
X850643D01*
G02X847357I-1643J3092D01*
G01X845672D01*
Y137637D01*
X845662Y137666D01*
G02X845498Y138724I3338J1059D01*
G01Y142050D01*
G37*
G36*
G01X261502Y155756D02*
Y151724D01*
G02X261338Y150666I-3502J1D01*
G01X261328Y150637D01*
Y148632D01*
X259643D01*
G02X256357I-1643J3092D01*
G01X254672D01*
Y150637D01*
X254662Y150666D01*
G02X254498Y151724I3338J1059D01*
G01Y155756D01*
G02X262244Y163502I3502J4244D01*
G01X278950D01*
X295001Y147451D01*
X300776Y153226D01*
X390000D01*
G02X391643Y152816I-1J-3502D01*
G01X393328D01*
Y150811D01*
X393338Y150782D01*
G02Y148666I-3338J-1058D01*
G01X393328Y148637D01*
Y146632D01*
X391643D01*
G02X390000Y146222I-1644J3092D01*
G01X303676D01*
X299953Y142499D01*
X302226Y140226D01*
X328000D01*
G02X329643Y139816I-1J-3502D01*
G01X331328D01*
Y137811D01*
X331338Y137782D01*
G02Y135666I-3338J-1058D01*
G01X331328Y135637D01*
Y133632D01*
X329643D01*
G02X328000Y133222I-1644J3092D01*
G01X299326D01*
X276050Y156498D01*
X262244D01*
G02X261502Y155756I-4244J3502D01*
G37*
G36*
G01X266002Y136050D02*
X258950Y128998D01*
X251050D01*
X241050Y138998D01*
X146744D01*
G02Y146002I-4244J3502D01*
G01X243950D01*
X253950Y136002D01*
X256050D01*
X258998Y138950D01*
Y139156D01*
X258238Y139916D01*
Y143457D01*
G02X258402Y144515I3502J-1D01*
G01X258412Y144544D01*
Y146549D01*
X260097D01*
G02X263383I1643J-3092D01*
G01X265068D01*
Y144544D01*
X265078Y144515D01*
G02X265242Y143457I-3338J-1059D01*
G01Y142816D01*
X266002Y142056D01*
Y136050D01*
G37*
G36*
G01X851116Y133549D02*
X856498Y138931D01*
Y150756D01*
G02X863502I3502J4244D01*
G01Y136031D01*
X856068Y128598D01*
Y127365D01*
X854836D01*
X854426Y126956D01*
X852740D01*
G02X851097Y127365I-1J3501D01*
G01X849412D01*
Y129370D01*
X849402Y129399D01*
G02Y131515I3338J1058D01*
G01X849412Y131544D01*
Y133549D01*
X851116D01*
G37*
G36*
G01X334160Y133502D02*
X363256D01*
G02Y126498I4244J-3502D01*
G01X337060D01*
X335517Y124956D01*
X331740D01*
G02X330097Y125365I-1J3501D01*
G01X328412D01*
Y127370D01*
X328402Y127399D01*
G02Y129515I3338J1058D01*
G01X328412Y129544D01*
Y131549D01*
X330097D01*
G02X331740Y131958I1642J-3092D01*
G01X332617D01*
X334160Y133502D01*
G37*
G36*
G01X378950Y113998D02*
X179244D01*
G02Y121002I-4244J3502D01*
G01X376050D01*
X390238Y135190D01*
Y141457D01*
G02X390402Y142515I3502J-1D01*
G01X390412Y142544D01*
Y144549D01*
X392097D01*
G02X395383I1643J-3092D01*
G01X397068D01*
Y142544D01*
X397078Y142515D01*
G02X397242Y141457I-3338J-1059D01*
G01Y132290D01*
X378950Y113998D01*
G37*
G36*
G01X888550Y118502D02*
X918998Y148950D01*
Y155156D01*
X917238Y156916D01*
Y160457D01*
G02X917402Y161515I3502J-1D01*
G01X917412Y161544D01*
Y163549D01*
X919097D01*
G02X922383I1643J-3092D01*
G01X924068D01*
Y161544D01*
X924078Y161515D01*
G02X924242Y160457I-3338J-1059D01*
G01Y159816D01*
X926002Y158056D01*
Y146050D01*
X891450Y111498D01*
X744244D01*
G02Y118502I-4244J3502D01*
G01X888550D01*
G37*
G36*
G01X553686Y549222D02*
X550314D01*
X549904Y549632D01*
X548672D01*
Y550865D01*
X526314Y573222D01*
X497550D01*
G03X497377Y572462I1J-400D01*
G02X490756Y563998I-2377J-4962D01*
G01X484574D01*
X483617Y564956D01*
X482740D01*
G02X481097Y565365I-1J3501D01*
G01X479412D01*
Y567370D01*
X479402Y567399D01*
G02Y569515I3338J1058D01*
G01X479412Y569544D01*
Y571549D01*
X481097D01*
G02X482740Y571958I1642J-3092D01*
G01X486517D01*
X487474Y571002D01*
X490756D01*
G02X492623Y572462I4243J-3502D01*
G03X492450Y573222I-174J360D01*
G01X479000D01*
G02X477357Y573632I1J3502D01*
G01X475672D01*
Y575637D01*
X475662Y575666D01*
G02Y577782I3338J1058D01*
G01X475672Y577811D01*
Y579816D01*
X477357D01*
G02X479000Y580226I1644J-3092D01*
G01X529214D01*
X552000Y557440D01*
X553394Y558834D01*
X553276Y558974D01*
G02X561002Y558256I4224J3526D01*
G01Y556538D01*
X555328Y550865D01*
Y549632D01*
X554096D01*
X553686Y549222D01*
G37*
G36*
G01X858950Y496002D02*
X874474Y480478D01*
X874566Y480485D01*
G02X869515Y475434I434J-5485D01*
G01X869522Y475526D01*
X856050Y488998D01*
X846919D01*
G03X846636Y488316I0J-400D01*
G01X864474Y470478D01*
X864566Y470485D01*
G02X859515Y465434I434J-5485D01*
G01X859522Y465526D01*
X841050Y483998D01*
X473050D01*
X468998Y488050D01*
Y513256D01*
G02X476002I3502J4244D01*
G01Y491002D01*
X592581D01*
G03X592864Y491684I0J400D01*
G01X588660Y495888D01*
X588520Y495771D01*
G02X589244Y503502I-3520J4229D01*
G01X590950D01*
X598450Y496002D01*
X858950D01*
G37*
G36*
G01X170726Y579226D02*
X175198Y574754D01*
X175290Y574761D01*
G02X170239Y569710I434J-5485D01*
G01X170246Y569802D01*
X167826Y572222D01*
X150000D01*
G02X148357Y572632I1J3502D01*
G01X146671D01*
Y574637D01*
X146662Y574666D01*
G02Y576782I3338J1058D01*
G01X146672Y576811D01*
Y578816D01*
X148357D01*
G02X150000Y579226I1644J-3092D01*
G01X170726D01*
G37*
G36*
G01X275502Y687550D02*
Y681498D01*
X264498D01*
Y692502D01*
X270550D01*
X271864Y693816D01*
G03X271581Y694498I-283J282D01*
G01X264498D01*
Y705502D01*
X266498D01*
Y710125D01*
G02X266252Y719688I3502J4875D01*
G03Y720312I-250J312D01*
G02X270872Y730938I3748J4688D01*
G01X270972Y730924D01*
X271950Y731902D01*
Y744498D01*
X264498D01*
Y755502D01*
X271950D01*
Y756098D01*
X270550Y757498D01*
X264498D01*
Y768502D01*
X266498D01*
Y781498D01*
X264498D01*
Y792502D01*
X275502D01*
Y781498D01*
X273502D01*
Y768502D01*
X275501D01*
Y762450D01*
X278954Y758998D01*
Y729002D01*
X275924Y725972D01*
X275938Y725872D01*
Y725871D01*
G02X273748Y720312I-5938J-871D01*
G03Y719688I250J-312D01*
G02X273502Y710125I-3748J-4688D01*
G01Y705502D01*
X275502D01*
Y698419D01*
G03X276184Y698136I400J0D01*
G01X296498Y718450D01*
Y823693D01*
G03X296030Y824087I-400J0D01*
G02X290312Y826252I-1030J5913D01*
G03X289688I-312J-250D01*
G02X288502Y825125I-4689J3747D01*
G01Y813550D01*
X275502Y800550D01*
Y794498D01*
X264498D01*
Y796498D01*
X263950D01*
X256002Y788550D01*
Y786744D01*
G02X248998I-3502J-4244D01*
G01Y791450D01*
X260024Y802476D01*
G02X260042Y802494I2485J-2467D01*
G01X261050Y803502D01*
X262475D01*
G02X262525I25J-3502D01*
G01X264498D01*
Y805502D01*
X270550D01*
X281498Y816450D01*
Y825125D01*
G02X289688Y833748I3502J4874D01*
G03X290312I312J250D01*
G02X299688I4688J-3748D01*
G03X300312I312J250D01*
G02X309688I4688J-3748D01*
G03X310312I312J250D01*
G02X319688I4688J-3748D01*
G03X320312I312J250D01*
G02X329688I4688J-3748D01*
G03X330312I312J250D01*
G02Y826252I4688J-3748D01*
G03X329688I-312J-250D01*
G02X328502Y825125I-4689J3747D01*
G01Y809450D01*
X329450Y808502D01*
X335502D01*
Y797498D01*
X324498D01*
Y803550D01*
X321498Y806550D01*
Y825125D01*
G02X320312Y826252I3503J4874D01*
G03X319688I-312J-250D01*
G02X318502Y825125I-4689J3747D01*
G01Y806550D01*
X315502Y803550D01*
Y797498D01*
X304498D01*
Y808502D01*
X310550D01*
X311498Y809450D01*
Y825125D01*
G02X310312Y826252I3503J4874D01*
G03X309688I-312J-250D01*
G02X304128Y824062I-4688J3748D01*
G01X304028Y824076D01*
X303502Y823550D01*
Y715550D01*
X275502Y687550D01*
G37*
G36*
G01X35526Y592978D02*
X63550Y621002D01*
X181450D01*
X208950Y593502D01*
X395756D01*
G02Y586498I4244J-3502D01*
G01X206050D01*
X178550Y613998D01*
X66450D01*
X40478Y588026D01*
X40485Y587934D01*
G02X35434Y592985I-5485J-434D01*
G01X35526Y592978D01*
G37*
G36*
G01X305299Y188958D02*
G02Y181956I4244J-3501D01*
G01X195738D01*
G02X194097Y182365I1J3501D01*
G01X192412D01*
Y184368D01*
X192403Y184397D01*
G02Y186517I3337J1060D01*
G01X192412Y186546D01*
Y188549D01*
X194097D01*
G02X195738Y188958I1642J-3092D01*
G01X305299D01*
G37*
G36*
G01X374244Y763502D02*
X438256D01*
G02Y756498I4244J-3502D01*
G01X374244D01*
G02Y763502I-4244J3502D01*
G37*
G36*
G01X718672Y518865D02*
X711038Y526498D01*
X698502D01*
Y524498D01*
X692450D01*
X686174Y518222D01*
X633000D01*
G02X631357Y518632I1J3502D01*
G01X629672D01*
Y520635D01*
X629663Y520664D01*
G02Y522784I3337J1060D01*
G01X629672Y522813D01*
Y524816D01*
X631357D01*
G02X633000Y525226I1644J-3092D01*
G01X674498D01*
Y530550D01*
X671550Y533498D01*
X665502D01*
Y531498D01*
X654498D01*
Y533498D01*
X629050D01*
X618998Y543550D01*
Y575706D01*
X632062Y588769D01*
Y603998D01*
X607938D01*
Y601002D01*
X620756D01*
G02Y593998I4244J-3502D01*
G01X616919D01*
G03X616636Y593316I0J-400D01*
G01X616974Y592978D01*
X617066Y592985D01*
G02X612015Y587934I434J-5485D01*
G01X612022Y588026D01*
X611050Y588998D01*
X607938D01*
Y583818D01*
X595062D01*
Y588998D01*
X590950D01*
X586002Y584050D01*
Y578050D01*
X575502Y567550D01*
Y561498D01*
X564498D01*
Y572502D01*
X570550D01*
X571864Y573816D01*
G03X571581Y574498I-283J282D01*
G01X564498D01*
Y583498D01*
X555502D01*
Y581498D01*
X544498D01*
Y583498D01*
X418450D01*
X415478Y580526D01*
X415485Y580434D01*
G02X405756Y576498I-5485J-434D01*
G01X216744D01*
G02X208256I-4244J3502D01*
G01X198550D01*
X173550Y601498D01*
X81744D01*
G02Y608502I-4244J3502D01*
G01X176450D01*
X201450Y583502D01*
X208256D01*
G02X216744I4244J-3502D01*
G01X405756D01*
G02X410434Y585485I4244J-3502D01*
G01X410526Y585478D01*
X415550Y590502D01*
X544498D01*
Y592502D01*
X555502D01*
Y590502D01*
X573050D01*
X573364Y590816D01*
G03X573081Y591498I-283J282D01*
G01X564498D01*
Y597550D01*
X558026Y604022D01*
X557934Y604015D01*
G02X556010Y604204I-432J5485D01*
G03X555502Y603819I-108J-385D01*
G01Y594498D01*
X544498D01*
Y605502D01*
X552822D01*
G03X553139Y606145I0J400D01*
G02X562985Y609066I4361J3355D01*
G01X562978Y608974D01*
X563816Y608136D01*
G03X564498Y608419I282J283D01*
G01Y615502D01*
X575502D01*
Y604498D01*
X568419D01*
G03X568136Y603816I0J-400D01*
G01X569450Y602502D01*
X575050D01*
X583550Y611002D01*
X595062D01*
Y618998D01*
X589244D01*
G02X583808Y627871I-4244J3502D01*
G03X584004Y628544I-87J390D01*
G01X583550Y628998D01*
X556744D01*
G02X548139Y635855I-4244J3502D01*
G03X547822Y636498I-317J243D01*
G01X496744D01*
G02X488139Y643355I-4244J3502D01*
G03X487822Y643998I-317J243D01*
G01X484244D01*
G02Y651002I-4244J3502D01*
G01X530581D01*
G03X530864Y651684I0J400D01*
G01X516050Y666498D01*
X334244D01*
G02Y673502I-4244J3502D01*
G01X487822D01*
G03X488139Y674145I0J400D01*
G02X488998Y681744I4361J3355D01*
G01Y687365D01*
X482932D01*
Y693549D01*
X489588D01*
Y689649D01*
G03X489930Y689508I200J0D01*
G01X490238Y689816D01*
Y690457D01*
G02X490403Y691517I3502J-2D01*
G01X490412Y691546D01*
Y693549D01*
X492097D01*
G02X495383I1643J-3092D01*
G01X497068D01*
Y691546D01*
X497077Y691517D01*
G02X497242Y690457I-3337J-1062D01*
G01Y686916D01*
X496002Y685676D01*
Y681744D01*
G02X496861Y674145I-3502J-4244D01*
G03X497178Y673502I317J-243D01*
G01X518950D01*
X536450Y656002D01*
X595062D01*
Y656182D01*
X607938D01*
Y649419D01*
G03X608621Y649136I400J0D01*
G01X608998Y649513D01*
Y656050D01*
X605526Y659522D01*
X605434Y659515D01*
G02X610485Y664566I-434J5485D01*
G01X610478Y664474D01*
X616002Y658950D01*
Y651919D01*
G03X616684Y651636I400J0D01*
G01X636732Y671684D01*
X718256D01*
G02X722885Y673671I4244J-3502D01*
G03X723196Y674352I28J399D01*
G01X711050Y686498D01*
X631919D01*
G03X631636Y685816I0J-400D01*
G01X633950Y683502D01*
X640756D01*
G02Y676498I4244J-3502D01*
G01X631050D01*
X623550Y683998D01*
X608950D01*
X603950Y678998D01*
X551050D01*
X521050Y708998D01*
X446450D01*
X416450Y678998D01*
X291744D01*
G02Y686002I-4244J3502D01*
G01X413550D01*
X443550Y716002D01*
X523563D01*
G03X523705Y716343I0J200D01*
G01X523550Y716498D01*
X456050D01*
X453026Y719522D01*
X452934Y719515D01*
G02X457985Y724566I-434J5485D01*
G01X457978Y724474D01*
X458950Y723502D01*
X526450D01*
X546450Y703502D01*
X608256D01*
G02Y696498I4244J-3502D01*
G01X544419D01*
G03X544136Y695816I0J-400D01*
G01X553950Y686002D01*
X580322D01*
G03X580639Y686645I0J400D01*
G02X589244Y693502I4361J3355D01*
G01X713950D01*
X733950Y673502D01*
X791450D01*
X808950Y656002D01*
X813550D01*
X816351Y658803D01*
X816238Y658916D01*
Y662457D01*
G02X816403Y663517I3502J-2D01*
G01X816412Y663546D01*
Y665549D01*
X818097D01*
G02X821383I1643J-3092D01*
G01X823068D01*
Y663546D01*
X823077Y663517D01*
G02X823242Y662457I-3337J-1062D01*
G01Y661816D01*
X823502Y661556D01*
Y656050D01*
X816450Y648998D01*
X806050D01*
X788550Y666498D01*
X731050D01*
X728670Y668878D01*
G03X727989Y668567I-282J-283D01*
G02X718256Y664680I-5489J-385D01*
G01X639632D01*
X608950Y633998D01*
X607938D01*
Y631685D01*
G03X608620Y631401I400J0D01*
G02X616744Y631002I3880J-3901D01*
G01X621050D01*
X621504Y631456D01*
G03X621308Y632129I-283J283D01*
G02X622934Y642985I1192J5371D01*
G01X623026Y642978D01*
X631050Y651002D01*
X632062D01*
Y656182D01*
X644938D01*
Y656002D01*
X652088D01*
X652122Y656160D01*
G02X657066Y649515I5378J-1160D01*
G01X656974Y649522D01*
X656450Y648998D01*
X644938D01*
Y646002D01*
X663550D01*
X676050Y658502D01*
X791450D01*
X799475Y650477D01*
G02X794523Y645525I525J-5477D01*
G01X788550Y651498D01*
X678950D01*
X676636Y649184D01*
G03X676919Y648502I283J-282D01*
G01X763256D01*
G02Y641498I4244J-3502D01*
G01X676450D01*
X668950Y633998D01*
X644938D01*
Y631002D01*
X671050D01*
X674522Y634474D01*
X674515Y634566D01*
G02X679566Y629515I5485J434D01*
G01X679474Y629522D01*
X676636Y626684D01*
G03X676919Y626002I283J-282D01*
G01X681050D01*
X690368Y635320D01*
X747004D01*
X747021Y635502D01*
G02X752066Y629515I5479J-502D01*
G01X751974Y629522D01*
X750768Y628316D01*
X693268D01*
X683950Y618998D01*
X649419D01*
G03X649136Y618316I0J-400D01*
G01X651974Y615478D01*
X652066Y615485D01*
G02X656861Y606645I434J-5485D01*
G03X657178Y606002I317J-243D01*
G01X681950D01*
X692450Y595502D01*
X698502D01*
Y584498D01*
X696502D01*
Y565502D01*
X698502D01*
Y554498D01*
X696502D01*
Y535502D01*
X698502D01*
Y533502D01*
X713938D01*
X723214Y524226D01*
X826774D01*
X843998Y541450D01*
Y560756D01*
G02X842023Y565525I3502J4244D01*
G01X837326Y570222D01*
X790000D01*
G02X788357Y570632I1J3502D01*
G01X786672D01*
Y572635D01*
X786663Y572664D01*
G02Y574784I3337J1060D01*
G01X786672Y574813D01*
Y576816D01*
X788357D01*
G02X790000Y577226I1644J-3092D01*
G01X840226D01*
X846975Y570477D01*
G02X851744Y568502I525J-5477D01*
G01X876450D01*
X882726Y562226D01*
X927274D01*
X996498Y631450D01*
Y646050D01*
X995326Y647222D01*
X985000D01*
G02X983357Y647632I1J3502D01*
G01X981672D01*
Y649635D01*
X981663Y649664D01*
G02Y651784I3337J1060D01*
G01X981672Y651813D01*
Y653816D01*
X983357D01*
G02X985000Y654226I1644J-3092D01*
G01X987357D01*
G03X987640Y654908I0J400D01*
G01X921326Y721222D01*
X910000D01*
G02X908357Y721632I1J3502D01*
G01X906672D01*
Y723635D01*
X906663Y723664D01*
G02Y725784I3337J1060D01*
G01X906672Y725813D01*
Y727816D01*
X908357D01*
G02X910000Y728226I1644J-3092D01*
G01X924226D01*
X1003502Y648950D01*
Y628550D01*
X937860Y562908D01*
G03X938143Y562226I283J-282D01*
G01X946000D01*
G02X947643Y561816I-1J-3502D01*
G01X949328D01*
Y559813D01*
X949337Y559784D01*
G02Y557664I-3337J-1060D01*
G01X949328Y557635D01*
Y555632D01*
X947643D01*
G02X946000Y555222I-1644J3092D01*
G01X879826D01*
X873550Y561498D01*
X851744D01*
G02X851002Y560756I-4244J3502D01*
G01Y541450D01*
X898502Y493950D01*
Y466724D01*
G02X898337Y465664I-3502J2D01*
G01X898328Y465635D01*
Y463632D01*
X896643D01*
G02X893357I-1643J3092D01*
G01X891672D01*
Y465635D01*
X891663Y465664D01*
G02X891498Y466724I3337J1062D01*
G01Y491050D01*
X847500Y535048D01*
X829674Y517222D01*
X720314D01*
X719904Y517632D01*
X718672D01*
Y518865D01*
G37*
G54D23*
X133000Y740000D03*
X200000Y270000D03*
X220000Y250000D03*
X455000Y515500D03*
X600000Y390000D03*
X740000Y400000D03*
G54D22*
X146260Y244457D03*
X136260Y331457D03*
X134260Y405457D03*
X138260Y487457D03*
X188260Y185457D03*
X254260Y143457D03*
X269260Y546457D03*
X283260Y481457D03*
X324260Y128457D03*
X326260Y185457D03*
X320260Y427457D03*
X311260Y599457D03*
X386260Y141457D03*
X361260Y337457D03*
X397260Y601457D03*
X422260Y266457D03*
X433260Y642457D03*
X475260Y568457D03*
X562260Y727457D03*
X626260Y277457D03*
X629260Y513457D03*
X660260Y216457D03*
X644260Y721457D03*
X714260Y160457D03*
X718260Y512457D03*
X746260Y340457D03*
X725260Y691457D03*
X775260Y171457D03*
X806260Y237457D03*
X808260Y336457D03*
X812260Y662457D03*
X845260Y130457D03*
X848260Y288457D03*
X913260Y160457D03*
X906260Y716457D03*
X956260Y217457D03*
X950260Y375457D03*
X984260Y296457D03*
X981260Y642457D03*
%LPD*%
G75*
G36*
G01X225502Y266419D02*
Y267550D01*
X228316Y270364D01*
G02X228998Y270081I282J-283D01*
G01Y268950D01*
X226184Y266136D01*
G02X225502Y266419I-282J283D01*
G37*
G36*
G01X247938Y303856D02*
Y333315D01*
G02X248620Y333599I400J0D01*
G03X248998Y333256I3882J3899D01*
G01Y303950D01*
X248621Y303573D01*
G02X247938Y303856I-283J283D01*
G37*
G36*
G01X335502Y208419D02*
Y215502D01*
X324498D01*
Y213502D01*
X316050D01*
X315050Y212502D01*
X304498D01*
Y211002D01*
X301450D01*
X296002Y216450D01*
Y238950D01*
X282002Y252950D01*
Y263818D01*
X284938D01*
Y268998D01*
X286050D01*
X293998Y261050D01*
Y243550D01*
X304050Y233498D01*
X304498D01*
Y231498D01*
X310550D01*
X315550Y226498D01*
X324498D01*
Y224498D01*
X335502D01*
Y235502D01*
X324498D01*
Y233502D01*
X318450D01*
X315502Y236450D01*
Y242502D01*
X304950D01*
X301002Y246450D01*
Y263950D01*
X291636Y273316D01*
G02X291919Y273998I283J282D01*
G01X298050D01*
X304498Y267550D01*
Y261498D01*
X310550D01*
X315550Y256498D01*
X324498D01*
Y254498D01*
X335502D01*
Y265502D01*
X324498D01*
Y263502D01*
X318450D01*
X315502Y266450D01*
Y272502D01*
X309450D01*
X308136Y273816D01*
G02X308419Y274498I283J282D01*
G01X315502D01*
Y285502D01*
X306419D01*
G02X306136Y286184I0J400D01*
G01X308950Y288998D01*
X358081D01*
G02X358364Y288316I0J-400D01*
G01X339498Y269450D01*
Y265502D01*
X337498D01*
Y254498D01*
X339498D01*
Y235502D01*
X337498D01*
Y224498D01*
X339498D01*
Y215502D01*
X337498D01*
Y209450D01*
X336184Y208136D01*
G02X335502Y208419I-282J283D01*
G37*
G36*
G01X303816Y278136D02*
X300952Y281000D01*
X303816Y283864D01*
G02X304498Y283581I282J-283D01*
G01Y278419D01*
G02X303816Y278136I-400J0D01*
G37*
G36*
G01X355502Y486419D02*
Y492502D01*
X348419D01*
G02X348136Y493184I0J400D01*
G01X349450Y494498D01*
X355502D01*
Y496498D01*
X372546D01*
Y494102D01*
X364150D01*
X356184Y486136D01*
G02X355502Y486419I-282J283D01*
G37*
G36*
G01X419688Y443748D02*
G03X418502Y444875I-4689J-3747D01*
G01Y460581D01*
G02X419184Y460864I400J0D01*
G01X421498Y458550D01*
Y444875D01*
G03X420312Y443748I3503J-4874D01*
G02X419688I-312J250D01*
G37*
G36*
G01X408502Y448550D02*
X410816Y450864D01*
G02X411498Y450581I282J-283D01*
G01Y444875D01*
G03X410312Y443748I3503J-4874D01*
G02X409688I-312J250D01*
G03X408502Y444875I-4689J-3747D01*
G01Y448550D01*
G37*
G36*
G01X401498Y450581D02*
Y444875D01*
G03X400312Y443748I3503J-4874D01*
G02X399688I-312J250D01*
G03X398502Y444875I-4689J-3747D01*
G01Y448550D01*
X400816Y450864D01*
G02X401498Y450581I282J-283D01*
G37*
G36*
G01X398450Y485855D02*
X395154Y489151D01*
X395161Y489243D01*
G03X392656Y494302I-5485J434D01*
G02X392706Y495002I217J336D01*
G02X397540Y494881I2293J-5002D01*
G03X398998Y488256I4960J-2381D01*
G01Y486403D01*
X398450Y485855D01*
G37*
G36*
G01X397201Y542893D02*
Y552250D01*
X401450Y556498D01*
X405322D01*
G02X405639Y555855I0J-400D01*
G03X404515Y552066I4361J-3355D01*
G01X404522Y551974D01*
X402798Y550250D01*
Y542893D01*
G02X402236Y542527I-400J-1D01*
G03X397764I-2236J-5027D01*
G02X397201Y542893I-163J366D01*
G37*
G36*
G01X427454Y500402D02*
Y502798D01*
X432250D01*
X433964Y501084D01*
G02X433681Y500402I-283J-282D01*
G01X427454D01*
G37*
G36*
G01X461451Y468502D02*
X459137Y470816D01*
G02X459420Y471498I283J282D01*
G01X465125D01*
G03X466252Y470312I4874J3503D01*
G02Y469688I-250J-312D01*
G03X465125Y468502I3747J-4689D01*
G01X461451D01*
G37*
G36*
G01X462914Y458502D02*
X460600Y460816D01*
G02X460883Y461498I283J282D01*
G01X465125D01*
G03X466252Y460312I4874J3503D01*
G02Y459688I-250J-312D01*
G03X465125Y458502I3747J-4689D01*
G01X462914D01*
G37*
G36*
G01X575502Y578419D02*
Y583498D01*
X575950D01*
X578316Y585864D01*
G02X578998Y585581I282J-283D01*
G01Y580950D01*
X576184Y578136D01*
G02X575502Y578419I-282J283D01*
G37*
G36*
G01X685502Y528419D02*
Y535502D01*
X679450D01*
X674450Y540502D01*
X665502D01*
Y542502D01*
X654498D01*
Y540502D01*
X631950D01*
X626002Y546450D01*
Y572806D01*
X637013Y583818D01*
X640400D01*
G02X640683Y583135I0J-400D01*
G01X626498Y568950D01*
Y551050D01*
X633550Y543998D01*
X641450D01*
X653502Y556050D01*
Y560424D01*
X658375D01*
X659450Y561498D01*
X665502D01*
Y563498D01*
X671550D01*
X674498Y560550D01*
Y554498D01*
X685502D01*
Y565502D01*
X679450D01*
X675502Y569450D01*
Y570998D01*
X675950D01*
X683502Y578550D01*
Y584498D01*
X685502D01*
Y591581D01*
G02X686184Y591864I400J0D01*
G01X687498Y590550D01*
Y584498D01*
X689498D01*
Y565502D01*
X687498D01*
Y554498D01*
X689498D01*
Y535502D01*
X687498D01*
Y529450D01*
X686184Y528136D01*
G02X685502Y528419I-282J283D01*
G37*
G36*
G01X607938Y611002D02*
Y613998D01*
X611550D01*
X614050Y611498D01*
X615756D01*
G03X615897Y611335I4231J3517D01*
G02X615747Y611002I-149J-133D01*
G01X607938D01*
G37*
G36*
G01X636450Y551002D02*
X633502Y553950D01*
Y566050D01*
X646450Y578998D01*
X646950D01*
X651002Y583050D01*
Y590387D01*
X648073Y593316D01*
G02X648356Y593998I283J282D01*
G01X671050D01*
X671364Y593684D01*
G02X671081Y593002I-283J-282D01*
G01X664498D01*
Y585502D01*
X654498D01*
Y574498D01*
X664498D01*
Y572502D01*
X654498D01*
Y567426D01*
X649626D01*
X646498Y564299D01*
Y558950D01*
X638550Y551002D01*
X636450D01*
G37*
G36*
G01X665502Y580002D02*
Y581998D01*
X675502D01*
Y584498D01*
X676498D01*
Y581450D01*
X675050Y580002D01*
X665502D01*
G37*
G36*
G01X765502Y408419D02*
Y414064D01*
G02X765843Y414205I200J0D01*
G01X766050Y413998D01*
X775062D01*
Y411002D01*
X769050D01*
X766184Y408136D01*
G02X765502Y408419I-282J283D01*
G37*
G36*
G01X787938Y411002D02*
Y423998D01*
X790756D01*
G03Y431002I4244J3502D01*
G01X787938D01*
Y443998D01*
X794050D01*
X796550Y441498D01*
X798256D01*
G03X798980Y449229I4244J3502D01*
G01X798840Y449112D01*
X796950Y451002D01*
X791919D01*
G02X791636Y451684I0J400D01*
G01X801450Y461498D01*
X838550D01*
X848364Y451684D01*
G02X848081Y451002I-283J-282D01*
G01X839678D01*
G02X839361Y451645I0J400D01*
G03X830756Y458502I-4361J3355D01*
G01X824987D01*
X822668Y456182D01*
X812062D01*
Y421002D01*
X809244D01*
G03Y413998I-4244J-3502D01*
G01X812062D01*
Y411002D01*
X787938D01*
G37*
%LPC*%
G75*
G54D23*
X310000Y220000D03*
Y250000D03*
X660000Y550000D03*
%LPD*%
G75*
G54D10*
X20000Y385000D03*
Y395000D03*
Y405000D03*
Y415000D03*
Y425000D03*
Y435000D03*
X30000Y765000D03*
Y835000D03*
X60000Y765000D03*
X50000D03*
X40000D03*
X60000Y835000D03*
X50000D03*
X40000D03*
X90000Y765000D03*
X80000D03*
X70000D03*
X90000Y835000D03*
X80000D03*
X70000D03*
X120000Y765000D03*
X110000D03*
X100000D03*
X120000Y835000D03*
X110000D03*
X100000D03*
X140000Y765000D03*
X130000D03*
X140000Y835000D03*
X130000D03*
X225000Y830000D03*
X215000D03*
X270000Y715000D03*
Y725000D03*
X295000Y830000D03*
X285000D03*
X325000D03*
X315000D03*
X305000D03*
X350000Y475000D03*
Y465000D03*
Y455000D03*
Y535000D03*
Y525000D03*
Y515000D03*
Y545000D03*
X335000Y830000D03*
X395000Y440000D03*
X405000D03*
X415000D03*
Y540000D03*
X425000Y440000D03*
X435000Y540000D03*
X425000D03*
X470000Y455000D03*
Y465000D03*
Y475000D03*
X510000Y405000D03*
Y395000D03*
X525000Y20000D03*
X535000D03*
Y830000D03*
X545000Y20000D03*
X555000D03*
X565000D03*
Y830000D03*
X555000D03*
X545000D03*
X575000Y20000D03*
X585000Y830000D03*
X575000D03*
X1080000Y415000D03*
Y405000D03*
Y395000D03*
Y445000D03*
Y435000D03*
Y425000D03*
G54D20*
G01X320000Y195000D02*
Y187500D01*
G01Y220000D02*
X327500D01*
G01X320000D02*
X315702D01*
G54D11*
G01X510000Y395000D02*
X515132Y389868D01*
X549986D01*
G01X510000Y405000D02*
X521270Y416270D01*
X559180D01*
X57500Y392500D03*
X35000Y587500D03*
X57500Y592500D03*
X87500Y405000D03*
X77500Y605000D03*
X117500Y350000D03*
Y415000D03*
X97500Y472500D03*
X100000Y490000D03*
X142500Y142500D03*
X152500Y170000D03*
Y297500D03*
X130000Y315000D03*
X127500Y452500D03*
X152500Y552500D03*
X175000Y117500D03*
X167500Y245000D03*
X180000Y305000D03*
X167500Y327500D03*
X175000Y340000D03*
Y405000D03*
X175724Y430724D03*
Y495724D03*
Y569276D03*
X184776Y207500D03*
Y252724D03*
X205000Y285000D03*
X190000Y315000D03*
X200000Y347500D03*
X190000Y375000D03*
X200000Y512500D03*
X212500Y580000D03*
X222500Y297500D03*
X232500Y385000D03*
X258000Y160000D03*
X257500Y207500D03*
X267500Y252500D03*
X252500Y337500D03*
X257500Y425000D03*
X272500Y465000D03*
X252500Y782500D03*
X292500Y292500D03*
X277500Y532500D03*
X302500Y554724D03*
X287500Y682500D03*
X309543Y185457D03*
X320000Y195000D03*
Y220000D03*
X315000Y330000D03*
X305000Y489724D03*
X330000Y557500D03*
Y600000D03*
Y670000D03*
X355000Y187500D03*
X340000Y322500D03*
X342500Y427500D03*
X352500Y609724D03*
X345000Y797500D03*
X367500Y130000D03*
X387500Y192500D03*
X367500Y317500D03*
X382500Y312500D03*
X372000Y387500D03*
Y442500D03*
X389676Y489677D03*
X372500Y557500D03*
X370000Y760000D03*
X382500Y777500D03*
X395276Y210000D03*
X417500Y292500D03*
Y334500D03*
X397500Y512500D03*
X410000D03*
X402500Y492500D03*
X400000Y537500D03*
X410000Y552500D03*
X400000Y590000D03*
X410000Y580000D03*
X395000Y695000D03*
X452500Y132500D03*
X442500Y177500D03*
Y265000D03*
Y510000D03*
X447500Y560000D03*
X452500Y642500D03*
Y725000D03*
X442500Y760000D03*
X465000Y100000D03*
X472500Y517500D03*
X480000Y647500D03*
X485000Y120000D03*
Y397500D03*
X495000Y567500D03*
X512500Y615000D03*
X492500Y640000D03*
X512500Y657500D03*
X492500Y677500D03*
X512500Y702500D03*
Y732500D03*
X527500Y515000D03*
Y557500D03*
X530000Y601457D03*
X542500Y675000D03*
X565000Y87500D03*
X555000Y475000D03*
Y535000D03*
X557500Y562500D03*
Y609500D03*
X552500Y632500D03*
Y710000D03*
X545000Y755000D03*
X560000Y780000D03*
Y755000D03*
X575000Y100000D03*
X585000Y500000D03*
Y527500D03*
Y622500D03*
Y690000D03*
X632500Y387500D03*
X622000Y367000D03*
X605000Y502500D03*
X615000Y515000D03*
X625000Y597500D03*
X617500Y587500D03*
X620000Y615000D03*
X612500Y627500D03*
X622500Y637500D03*
X605000Y665000D03*
X622500Y675000D03*
X627500Y720000D03*
X612500Y700000D03*
X640000Y560000D03*
X652500Y610000D03*
X657500Y655000D03*
X645000Y680000D03*
X680000Y277500D03*
X687500Y432500D03*
X680000Y512500D03*
Y545000D03*
X665000Y612500D03*
X680000Y635000D03*
X715000Y357500D03*
Y422500D03*
X702500Y442500D03*
Y610000D03*
X722500Y668182D03*
X740000Y115000D03*
X750000Y155000D03*
X727500Y170000D03*
X750000Y242500D03*
X753224Y285724D03*
X725000Y450000D03*
X735000Y550000D03*
X752500Y635000D03*
Y687500D03*
X767500Y510000D03*
X782500Y622500D03*
X767500Y645000D03*
X782500Y682500D03*
X812500Y257500D03*
Y352500D03*
X787500Y340000D03*
X812500Y377500D03*
X805000Y417500D03*
X795000Y427500D03*
X802500Y445000D03*
X800000Y475000D03*
Y645000D03*
X828751Y163749D03*
X835000Y455000D03*
X860000Y155000D03*
Y260000D03*
X865000Y465000D03*
X847500Y565000D03*
Y650000D03*
X900000Y217500D03*
X892500Y290000D03*
X880000Y415000D03*
X892500Y402500D03*
X902500Y432500D03*
X875000Y475000D03*
X915000Y185000D03*
Y425000D03*
X906374Y505000D03*
X912500Y610000D03*
X913740Y702500D03*
X982500Y222500D03*
X991740Y317500D03*
X980000Y415000D03*
X990000Y430000D03*
X1002500Y285001D03*
X1010000Y437500D03*
G54D21*
G01X146260Y241164D02*
Y244457D01*
G01D02*
Y247750D01*
G01X142731Y244457D02*
X146260D01*
G01D02*
X149789D01*
G01X136260Y328164D02*
Y331457D01*
G01D02*
Y334750D01*
G01X132731Y331457D02*
X136260D01*
G01D02*
X139789D01*
G01X134260Y402164D02*
Y405457D01*
G01D02*
Y408750D01*
G01X130731Y405457D02*
X134260D01*
G01D02*
X137789D01*
G01X138260Y484164D02*
Y487457D01*
G01D02*
Y490750D01*
G01X134731Y487457D02*
X138260D01*
G01D02*
X141789D01*
G01X146260Y564164D02*
Y567457D01*
G01D02*
Y570750D01*
G01X142731Y567457D02*
X146260D01*
G01D02*
X149789D01*
G01X133000Y734298D02*
Y740000D01*
G01D02*
Y745702D01*
G01X127298Y740000D02*
X133000D01*
G01D02*
X138702D01*
G01X140000Y828798D02*
Y835000D01*
G01D02*
Y841202D01*
G01Y835000D02*
X146202D01*
G01X188260Y182164D02*
Y185457D01*
G01D02*
Y188750D01*
G01X184731Y185457D02*
X188260D01*
G01D02*
X191789D01*
G01X200000Y264298D02*
Y270000D01*
G01D02*
Y275702D01*
G01X194298Y270000D02*
X200000D01*
G01D02*
X205702D01*
G01X208798Y830000D02*
X215000D01*
G01X220000Y244298D02*
Y250000D01*
G01D02*
Y255702D01*
G01X214298Y250000D02*
X220000D01*
G01D02*
X225702D01*
G01X220000Y274298D02*
Y280000D01*
G01D02*
Y285702D01*
G01X214298Y280000D02*
X220000D01*
G01D02*
X225702D01*
G01X234861Y292500D02*
X241500D01*
G01X215000Y823798D02*
Y830000D01*
G01D02*
Y836202D01*
G01X254260Y140164D02*
Y143457D01*
G01D02*
Y146750D01*
G01X250731Y143457D02*
X254260D01*
G01D02*
X257789D01*
G01X241500Y292500D02*
X248139D01*
G01X269260Y543164D02*
Y546457D01*
G01D02*
Y549750D01*
G01X265731Y546457D02*
X269260D01*
G01D02*
X272789D01*
G01X270000Y744298D02*
Y750000D01*
G01D02*
Y755702D01*
G01X264298Y750000D02*
X270000D01*
G01X283260Y478164D02*
Y481457D01*
G01D02*
Y484750D01*
G01X279731Y481457D02*
X283260D01*
G01D02*
X286789D01*
G01X295000Y823798D02*
Y830000D01*
G01D02*
Y836202D01*
G01X324260Y125164D02*
Y128457D01*
G01D02*
Y131750D01*
G01X320731Y128457D02*
X324260D01*
G01D02*
X327789D01*
G01X326260Y182164D02*
Y185457D01*
G01D02*
Y188750D01*
G01X322731Y185457D02*
X326260D01*
G01D02*
X329789D01*
G01X310000Y214298D02*
Y220000D01*
G01D02*
Y225702D01*
G01X304298Y220000D02*
X310000D01*
G01D02*
X315702D01*
G01X310000Y244298D02*
Y250000D01*
G01D02*
Y255702D01*
G01X304298Y250000D02*
X310000D01*
G01D02*
X315702D01*
G01X310000Y274298D02*
Y280000D01*
G01D02*
Y285702D01*
G01X304298Y280000D02*
X310000D01*
G01D02*
X315702D01*
G01X320260Y424164D02*
Y427457D01*
G01D02*
Y430750D01*
G01X316731Y427457D02*
X320260D01*
G01D02*
X323789D01*
G01X311260Y596164D02*
Y599457D01*
G01D02*
Y602750D01*
G01X307731Y599457D02*
X311260D01*
G01D02*
X314789D01*
G01X357731Y337457D02*
X361260D01*
G01X350000Y481298D02*
Y487000D01*
G01D02*
Y492702D01*
G01X344298Y487000D02*
X350000D01*
G01D02*
X355702D01*
G01X386260Y138164D02*
Y141457D01*
G01D02*
Y144750D01*
G01X382731Y141457D02*
X386260D01*
G01D02*
X389789D01*
G01X361260Y334164D02*
Y337457D01*
G01D02*
Y340750D01*
G01Y337457D02*
X364789D01*
G01X368260Y368164D02*
Y371457D01*
G01D02*
Y374750D01*
G01X364731Y371457D02*
X368260D01*
G01D02*
X371789D01*
G01X418731Y266457D02*
X422260D01*
G01X400260Y316164D02*
Y319457D01*
G01D02*
Y322750D01*
G01X396731Y319457D02*
X400260D01*
G01D02*
X403789D01*
G01X397260Y598164D02*
Y601457D01*
G01D02*
Y604750D01*
G01X393731Y601457D02*
X397260D01*
G01D02*
X400789D01*
G01X425260Y199164D02*
Y202457D01*
G01D02*
Y205750D01*
G01X421731Y202457D02*
X425260D01*
G01D02*
X428789D01*
G01X422260Y263164D02*
Y266457D01*
G01D02*
Y269750D01*
G01Y266457D02*
X425789D01*
G01X449298Y515500D02*
X455000D01*
G01X433260Y639164D02*
Y642457D01*
G01D02*
Y645750D01*
G01X429731Y642457D02*
X433260D01*
G01D02*
X436789D01*
G01X455000Y509798D02*
Y515500D01*
G01D02*
Y521202D01*
G01Y515500D02*
X460702D01*
G01X475260Y565164D02*
Y568457D01*
G01D02*
Y571750D01*
G01X471731Y568457D02*
X475260D01*
G01D02*
X478789D01*
G01X486260Y687164D02*
Y690457D01*
G01D02*
Y693750D01*
G01X482731Y690457D02*
X486260D01*
G01D02*
X489789D01*
G01X568095Y375666D02*
Y389868D01*
G01X561893D02*
X568095D01*
G01D02*
X574297D01*
G01X548260Y541164D02*
Y544457D01*
G01D02*
Y547750D01*
G01X544731Y544457D02*
X548260D01*
G01D02*
X551789D01*
G01X550000Y594298D02*
Y600000D01*
G01D02*
Y605702D01*
G01X544298Y600000D02*
X550000D01*
G01D02*
X555702D01*
G01X570000Y574298D02*
Y580000D01*
G01X564298D02*
X570000D01*
G01D02*
X575702D01*
G01X570000Y604298D02*
Y610000D01*
G01D02*
Y615702D01*
G01X564298Y610000D02*
X570000D01*
G01D02*
X575702D01*
G01X562260Y724164D02*
Y727457D01*
G01D02*
Y730750D01*
G01X558731Y727457D02*
X562260D01*
G01D02*
X565789D01*
G01X600000Y384298D02*
Y390000D01*
G01D02*
Y395702D01*
G01X594298Y390000D02*
X600000D01*
G01D02*
X605702D01*
G01X594861Y612500D02*
X601500D01*
G01X626260Y274164D02*
Y277457D01*
G01D02*
Y280750D01*
G01X622731Y277457D02*
X626260D01*
G01D02*
X629789D01*
G01X629260Y510164D02*
Y513457D01*
G01D02*
Y516750D01*
G01X625731Y513457D02*
X629260D01*
G01D02*
X632789D01*
G01X601500Y612500D02*
X608139D01*
G01X660260Y213164D02*
Y216457D01*
G01D02*
Y219750D01*
G01X656731Y216457D02*
X660260D01*
G01D02*
X663789D01*
G01X655000Y580000D02*
X660000D01*
G01Y544298D02*
Y550000D01*
G01D02*
Y555702D01*
G01X654298Y550000D02*
X660000D01*
G01D02*
X665702D01*
G01X660000Y574298D02*
Y580000D01*
G01D02*
Y585702D01*
G01X644260Y718164D02*
Y721457D01*
G01D02*
Y724750D01*
G01X640731Y721457D02*
X644260D01*
G01D02*
X647789D01*
G01X670000Y581798D02*
Y587500D01*
G01D02*
Y593202D01*
G01X664298Y587500D02*
X670000D01*
G01X714260Y157164D02*
Y160457D01*
G01D02*
Y163750D01*
G01X710731Y160457D02*
X714260D01*
G01D02*
X717789D01*
G01X718260Y509164D02*
Y512457D01*
G01D02*
Y515750D01*
G01X714731Y512457D02*
X718260D01*
G01D02*
X721789D01*
G01X746260Y337164D02*
Y340457D01*
G01D02*
Y343750D01*
G01X742731Y340457D02*
X746260D01*
G01D02*
X749789D01*
G01X740000Y394298D02*
Y400000D01*
G01D02*
Y405702D01*
G01X734298Y400000D02*
X740000D01*
G01D02*
X745702D01*
G01X725260Y688164D02*
Y691457D01*
G01D02*
Y694750D01*
G01X721731Y691457D02*
X725260D01*
G01D02*
X728789D01*
G01X775260Y168164D02*
Y171457D01*
G01D02*
Y174750D01*
G01X771731Y171457D02*
X775260D01*
G01D02*
X778789D01*
G01X760000Y374298D02*
Y380000D01*
G01D02*
Y385702D01*
G01X754298Y380000D02*
X760000D01*
G01D02*
X765702D01*
G01X774861Y412500D02*
X781500D01*
G01X760000Y404298D02*
Y410000D01*
G01D02*
Y415702D01*
G01X754298Y410000D02*
X760000D01*
G01D02*
X765702D01*
G01X806260Y234164D02*
Y237457D01*
G01D02*
Y240750D01*
G01X802731Y237457D02*
X806260D01*
G01D02*
X809789D01*
G01X808260Y333164D02*
Y336457D01*
G01D02*
Y339750D01*
G01X804731Y336457D02*
X808260D01*
G01D02*
X811789D01*
G01X781500Y412500D02*
X788139D01*
G01X786260Y562164D02*
Y565457D01*
G01D02*
Y568750D01*
G01X782731Y565457D02*
X786260D01*
G01D02*
X789789D01*
G01X808731Y662457D02*
X812260D01*
G01Y659164D02*
Y662457D01*
G01D02*
Y665750D01*
G01Y662457D02*
X815789D01*
G01X845260Y127164D02*
Y130457D01*
G01D02*
Y133750D01*
G01X841731Y130457D02*
X845260D01*
G01D02*
X848789D01*
G01X848260Y285164D02*
Y288457D01*
G01D02*
Y291750D01*
G01X844731Y288457D02*
X848260D01*
G01D02*
X851789D01*
G01X850000Y324298D02*
Y330000D01*
G01D02*
Y335702D01*
G01X844298Y330000D02*
X850000D01*
G01D02*
X855702D01*
G01X850000Y354298D02*
Y360000D01*
G01D02*
Y365702D01*
G01X844298Y360000D02*
X850000D01*
G01D02*
X855702D01*
G01X850000Y384298D02*
Y390000D01*
G01D02*
Y395702D01*
G01X844298Y390000D02*
X850000D01*
G01D02*
X855702D01*
G01X891260Y458457D02*
Y461750D01*
G01X887731Y458457D02*
X891260D01*
G01D02*
X894789D01*
G01X913260Y157164D02*
Y160457D01*
G01D02*
Y163750D01*
G01X909731Y160457D02*
X913260D01*
G01D02*
X916789D01*
G01X906260Y713164D02*
Y716457D01*
G01D02*
Y719750D01*
G01X902731Y716457D02*
X906260D01*
G01D02*
X909789D01*
G01X956260Y214164D02*
Y217457D01*
G01D02*
Y220750D01*
G01X952731Y217457D02*
X956260D01*
G01D02*
X959789D01*
G01X950260Y372164D02*
Y375457D01*
G01D02*
Y378750D01*
G01X946731Y375457D02*
X950260D01*
G01D02*
X953789D01*
G01X942260Y547164D02*
Y550457D01*
G01D02*
Y553750D01*
G01X938731Y550457D02*
X942260D01*
G01D02*
X945789D01*
G01X984260Y293164D02*
Y296457D01*
G01D02*
Y299750D01*
G01X980731Y296457D02*
X984260D01*
G01D02*
X987789D01*
G01X981260Y639164D02*
Y642457D01*
G01D02*
Y645750D01*
G01X977731Y642457D02*
X981260D01*
G01D02*
X984789D01*
G54D12*
X120000Y740000D03*
X133000D03*
X200000Y270000D03*
Y257000D03*
X220000Y237000D03*
Y250000D03*
Y267000D03*
Y280000D03*
X270000Y687000D03*
Y700000D03*
Y750000D03*
Y763000D03*
Y800000D03*
Y787000D03*
X310000Y207000D03*
X330000Y210000D03*
X310000Y237000D03*
X330000Y230000D03*
X310000Y220000D03*
Y267000D03*
X330000Y260000D03*
X310000Y250000D03*
Y280000D03*
X330000Y790000D03*
Y803000D03*
X310000Y790000D03*
Y803000D03*
X343000Y210000D03*
Y230000D03*
Y260000D03*
X350000Y500000D03*
Y487000D03*
X455000Y502500D03*
Y515500D03*
X570000Y567000D03*
X550000Y600000D03*
Y587000D03*
X570000Y580000D03*
Y597000D03*
Y610000D03*
X600000Y390000D03*
Y420000D03*
X613000Y390000D03*
Y420000D03*
X660000Y537000D03*
Y567000D03*
Y550000D03*
Y580000D03*
X680000Y530000D03*
Y560000D03*
X670000Y587500D03*
Y574500D03*
X680000Y590000D03*
X693000Y530000D03*
Y560000D03*
Y590000D03*
X740000Y387000D03*
Y400000D03*
X760000Y380000D03*
Y367000D03*
Y410000D03*
Y397000D03*
X850000Y330000D03*
Y317000D03*
X870000Y310000D03*
X850000Y360000D03*
Y347000D03*
X870000Y340000D03*
X850000Y390000D03*
Y377000D03*
X870000Y370000D03*
X883000Y310000D03*
Y340000D03*
Y370000D03*
G54D13*
X150000Y252724D03*
X146260Y244457D03*
X140000Y339724D03*
X143740Y331457D03*
X136260D03*
X138000Y413724D03*
X141740Y405457D03*
X134260D03*
X142000Y495724D03*
X145740Y487457D03*
X138260D03*
X146260Y567457D03*
X150000Y575724D03*
X153740Y244457D03*
Y567457D03*
X192000Y193724D03*
X195740Y185457D03*
X188260D03*
X261740Y143457D03*
X254260D03*
X258000Y151724D03*
X269260Y546457D03*
X287000Y489724D03*
X290740Y481457D03*
X283260D03*
X273000Y554724D03*
X276740Y546457D03*
X328000Y136724D03*
X324260Y128457D03*
X330000Y193724D03*
X326260Y185457D03*
X324000Y435724D03*
X327740Y427457D03*
X320260D03*
X318740Y599457D03*
X311260D03*
X315000Y607724D03*
X331740Y128457D03*
X333740Y185457D03*
X390000Y149724D03*
X386260Y141457D03*
X365000Y345724D03*
X368740Y337457D03*
X361260D03*
X372000Y379724D03*
X375740Y371457D03*
X368260D03*
X393740Y141457D03*
X404000Y327724D03*
X407740Y319457D03*
X400260D03*
X401000Y609724D03*
X404740Y601457D03*
X397260D03*
X429000Y210724D03*
X432740Y202457D03*
X425260D03*
X429740Y266457D03*
X422260D03*
X426000Y274724D03*
X437000Y650724D03*
X440740Y642457D03*
X433260D03*
X475260Y568457D03*
X479000Y576724D03*
X482740Y568457D03*
X493740Y690457D03*
X486260D03*
X490000Y698724D03*
X552000Y552724D03*
X555740Y544457D03*
X548260D03*
X566000Y735724D03*
X569740Y727457D03*
X562260D03*
X630000Y285724D03*
X626260Y277457D03*
X629260Y513457D03*
X660260Y216457D03*
X633740Y277457D03*
X633000Y521724D03*
X636740Y513457D03*
X648000Y729724D03*
X651740Y721457D03*
X644260D03*
X664000Y224724D03*
X667740Y216457D03*
X718000Y168724D03*
X714260Y160457D03*
X718260Y512457D03*
X721740Y160457D03*
X750000Y348724D03*
X746260Y340457D03*
X722000Y520724D03*
X725740Y512457D03*
X729000Y699724D03*
X732740Y691457D03*
X725260D03*
X779000Y179724D03*
X775260Y171457D03*
X753740Y340457D03*
X782740Y171457D03*
X806260Y237457D03*
X810000Y245724D03*
X808260Y336457D03*
X793740Y565457D03*
X786260D03*
X790000Y573724D03*
X813740Y237457D03*
X812000Y344724D03*
X815740Y336457D03*
X816000Y670724D03*
X819740Y662457D03*
X812260D03*
X849000Y138724D03*
X852740Y130457D03*
X845260D03*
X852000Y296724D03*
X855740Y288457D03*
X848260D03*
X895000Y466724D03*
X898740Y458457D03*
X891260D03*
X917000Y168724D03*
X920740Y160457D03*
X913260D03*
X913740Y716457D03*
X906260D03*
X910000Y724724D03*
X960000Y225724D03*
X956260Y217457D03*
X954000Y383724D03*
X957740Y375457D03*
X950260D03*
X946000Y558724D03*
X949740Y550457D03*
X942260D03*
X963740Y217457D03*
X984260Y296457D03*
X988000Y304724D03*
X985000Y650724D03*
X988740Y642457D03*
X981260D03*
X991740Y296457D03*
G54D14*
X241500Y267500D03*
Y272500D03*
Y277500D03*
Y282500D03*
Y287500D03*
Y292500D03*
Y297500D03*
Y302500D03*
Y307500D03*
Y312500D03*
Y317500D03*
Y322500D03*
Y327500D03*
Y332500D03*
X278500Y267500D03*
Y297500D03*
Y292500D03*
Y287500D03*
Y282500D03*
Y277500D03*
Y272500D03*
Y327500D03*
Y322500D03*
Y317500D03*
Y312500D03*
Y307500D03*
Y302500D03*
Y332500D03*
X601500Y587500D03*
Y592500D03*
Y597500D03*
Y602500D03*
Y607500D03*
Y612500D03*
Y617500D03*
Y622500D03*
Y627500D03*
Y632500D03*
Y637500D03*
Y642500D03*
Y647500D03*
Y652500D03*
X638500Y597500D03*
Y592500D03*
Y587500D03*
Y627500D03*
Y622500D03*
Y617500D03*
Y612500D03*
Y607500D03*
Y602500D03*
Y652500D03*
Y647500D03*
Y642500D03*
Y637500D03*
Y632500D03*
X781500Y387500D03*
Y392500D03*
Y397500D03*
Y402500D03*
Y407500D03*
Y412500D03*
Y417500D03*
Y422500D03*
Y427500D03*
Y432500D03*
Y437500D03*
Y442500D03*
Y447500D03*
Y452500D03*
X818500Y387500D03*
Y417500D03*
Y412500D03*
Y407500D03*
Y402500D03*
Y397500D03*
Y392500D03*
Y447500D03*
Y442500D03*
Y437500D03*
Y432500D03*
Y427500D03*
Y422500D03*
Y452500D03*
G54D15*
X390600Y478000D03*
X387400D03*
X384300D03*
Y522000D03*
X387400D03*
X390600D03*
X415700Y478000D03*
X412600D03*
X409400D03*
X406300D03*
X403100D03*
X400000D03*
X396900D03*
X393700D03*
Y522000D03*
X396900D03*
X400000D03*
X403100D03*
X406300D03*
X409400D03*
X412600D03*
X415700D03*
G54D16*
X378000Y484300D03*
Y487400D03*
Y490600D03*
Y493700D03*
Y496900D03*
Y500000D03*
Y503100D03*
Y506300D03*
Y509400D03*
Y512600D03*
Y515700D03*
X422000Y509400D03*
Y506300D03*
Y503100D03*
Y500000D03*
Y496900D03*
Y493700D03*
Y490600D03*
Y487400D03*
Y484300D03*
Y515700D03*
Y512600D03*
G54D17*
X568095Y389868D03*
X549986D03*
G54D18*
X559180Y416270D03*
G54D19*
G01X485000Y397500D02*
X477500Y405000D01*
X245000D01*
X210000Y440000D01*
X87500D01*
X62500Y415000D01*
X20000D01*
G01X87500Y405000D02*
X20000D01*
G01Y395000D02*
X50500D01*
X53000Y392500D01*
X57500D01*
G01X20000Y425000D02*
X35000D01*
X100000Y490000D01*
G01X35000Y587500D02*
X65000Y617500D01*
X180000D01*
X207500Y590000D01*
X400000D01*
G01X342500Y570000D02*
X195000D01*
X172500Y592500D01*
X57500D01*
G01X212500Y580000D02*
X200000D01*
X175000Y605000D01*
X77500D01*
G01X140000Y339724D02*
X127776D01*
X117500Y350000D01*
G01Y415000D02*
X125000Y422500D01*
X138000D01*
G01X97500Y472500D02*
X102500Y477500D01*
X185000D01*
X207500Y500000D01*
X290000D01*
X345000Y555000D01*
X360000D01*
X384300Y530700D01*
Y522000D01*
G01X110000Y765000D02*
Y750000D01*
X120000Y740000D01*
G01X261740Y143457D02*
Y141366D01*
X262500Y140606D01*
Y137500D01*
X257500Y132500D01*
X252500D01*
X242500Y142500D01*
X142500D01*
G01X150000Y252724D02*
X184776D01*
G01X130000Y315000D02*
X177500D01*
X185000Y322500D01*
X241500D01*
G01X143740Y331457D02*
X143976D01*
X177519Y365000D01*
X292500D01*
X299836Y357664D01*
Y334836D01*
X292500Y327500D01*
X278500D01*
G01X138000Y422500D02*
Y413724D01*
G01X175000Y405000D02*
X144524D01*
X144067Y405457D01*
X141740D01*
G01X138000Y422500D02*
X167500D01*
X175724Y430724D01*
G01X127500Y452500D02*
X210000D01*
X247500Y415000D01*
X475000D01*
X500000Y440000D01*
X640000D01*
X667500Y412500D01*
X737500D01*
X747500Y422500D01*
X762500D01*
X767500Y417500D01*
X781500D01*
G01X175724Y495724D02*
X142000D01*
G01X145740Y487457D02*
X145976D01*
X148433Y485000D01*
X182500D01*
X200000Y502500D01*
Y512500D01*
G01X150000Y575724D02*
X169276D01*
X175724Y569276D01*
G01X393740Y141457D02*
Y133740D01*
X377500Y117500D01*
X175000D01*
G01X152500Y170000D02*
X435000D01*
X442500Y177500D01*
G01X167500Y245000D02*
X156610D01*
X156067Y244457D01*
X153740D01*
G01X152500Y297500D02*
X195000D01*
X205000Y307500D01*
X241500D01*
G01X180000Y305000D02*
X182500Y307500D01*
X195000D01*
X200000Y312500D01*
X241500D01*
G01Y327500D02*
X167500D01*
G01X241500Y332500D02*
X182500D01*
X175000Y340000D01*
G01X152500Y552500D02*
Y564126D01*
X153740Y565366D01*
Y567457D01*
G01X195740Y185457D02*
X309543D01*
G01X184776Y207500D02*
Y200712D01*
X191764Y193724D01*
X192000D01*
G01X257500Y207500D02*
X184776D01*
G01X200000Y257000D02*
X203000Y260000D01*
X210000D01*
G01D02*
X225000D01*
X232500Y267500D01*
Y273937D01*
X236063Y277500D01*
X241500D01*
G01X210000Y260000D02*
Y280000D01*
X205000Y285000D01*
G01X241500Y317500D02*
X192500D01*
X190000Y315000D01*
G01X278500Y332500D02*
Y345500D01*
X276500Y347500D01*
X200000D01*
G01X190000Y375000D02*
X307500D01*
X355000Y327500D01*
X367500D01*
X370000Y330000D01*
Y334106D01*
X368740Y335366D01*
Y337457D01*
G01X260000Y252500D02*
X244500Y237000D01*
X220000D01*
G01Y267000D02*
X230000Y277000D01*
Y282500D01*
X235000Y287500D01*
X241500D01*
G01X222500Y297500D02*
X227500D01*
X232500Y302500D01*
X241500D01*
G01X232500Y385000D02*
X337500D01*
X362500Y360000D01*
X370000D01*
X375000Y365000D01*
Y368626D01*
X375740Y369366D01*
Y371457D01*
G01X410000Y580000D02*
X212500D01*
G01X258000Y151724D02*
Y160000D01*
G01D02*
X277500D01*
X295001Y142499D01*
G01X241500Y272500D02*
X252500D01*
X260000Y265000D01*
Y252500D01*
G01X267500D02*
X260000D01*
G01X278500Y287500D02*
X241500D01*
G01X252500Y337500D02*
Y302500D01*
X247500Y297500D01*
X241500D01*
G01X257500Y425000D02*
X262500Y420000D01*
X377500D01*
X385000Y427500D01*
Y450000D01*
X403100Y468100D01*
Y478000D01*
G01X305000Y830000D02*
X300000Y825000D01*
Y717000D01*
X270000Y687000D01*
G01Y715000D02*
Y700000D01*
G01Y763000D02*
X275452Y757548D01*
Y730452D01*
X270000Y725000D01*
G01Y787000D02*
Y763000D01*
G01X285000Y830000D02*
Y815000D01*
X270000Y800000D01*
G01D02*
X262500D01*
X252500Y790000D01*
Y782500D01*
G01X390000Y149724D02*
X302226D01*
X295001Y142499D01*
G01D02*
X300776Y136724D01*
X328000D01*
G01X310000Y207000D02*
X305500D01*
X305000Y207500D01*
X300000D01*
X292500Y215000D01*
Y237500D01*
X278500Y251500D01*
Y267500D01*
G01X310000Y237000D02*
X305500D01*
X297500Y245000D01*
Y262500D01*
X287500Y272500D01*
X278500D01*
G01Y297500D02*
X287500D01*
X292500Y292500D01*
G01X278500Y282500D02*
Y287500D01*
G01D02*
Y292500D01*
G01Y282500D02*
X297500D01*
X307500Y292500D01*
X367500D01*
G01X278500Y277500D02*
X299500D01*
X310000Y267000D01*
G01X278500Y322500D02*
X297500D01*
X305000Y330000D01*
X315000D01*
G01X278500Y302500D02*
X392874D01*
X407740Y317366D01*
Y319457D01*
G01X278500Y317500D02*
X335000D01*
X340000Y322500D01*
G01X278500Y312500D02*
X362500D01*
X367500Y317500D01*
G01X278500Y307500D02*
X377500D01*
X382500Y312500D01*
G01X290740Y481457D02*
Y479366D01*
X290000Y478626D01*
Y475000D01*
X280000Y465000D01*
X272500D01*
G01X287000Y489724D02*
X305000D01*
G01X277500Y532500D02*
Y543606D01*
X276740Y544366D01*
Y546457D01*
G01X302500Y554724D02*
X273000D01*
G01X287500Y682500D02*
X415000D01*
X445000Y712500D01*
X522500D01*
X552500Y682500D01*
X602500D01*
X607500Y687500D01*
X625000D01*
X632500Y680000D01*
X645000D01*
G01X330000Y210000D02*
X317500D01*
X314500Y207000D01*
X310000D01*
G01X330000Y193724D02*
Y197000D01*
X343000Y210000D01*
G01X330000Y230000D02*
X317000D01*
X310000Y237000D01*
G01X330000Y260000D02*
X317000D01*
X310000Y267000D01*
G01X342500Y427500D02*
X330110D01*
X330067Y427457D01*
X327740D01*
G01X324000Y435724D02*
Y437815D01*
X323994Y437821D01*
Y442500D01*
G01D02*
Y473994D01*
X338751Y488751D01*
G01X323994Y442500D02*
X372000D01*
G01X305000Y489724D02*
X337778D01*
X338751Y488751D01*
G01X342500Y570000D02*
X330000Y557500D01*
G01Y600000D02*
X321610D01*
X321067Y599457D01*
X318740D01*
G01X352500Y609724D02*
X317236D01*
X315236Y607724D01*
X315000D01*
G01X330000Y670000D02*
X517500D01*
X535000Y652500D01*
X601500D01*
G01X395000Y695000D02*
X335000D01*
X310000Y720000D01*
Y790000D01*
G01X315000Y830000D02*
Y808000D01*
X310000Y803000D01*
G01X325000Y830000D02*
Y808000D01*
X330000Y803000D01*
G01X382500Y777500D02*
X335000D01*
X330000Y782500D01*
Y790000D01*
G01X367500Y130000D02*
X335610D01*
X334067Y128457D01*
X331740D01*
G01X355000Y187500D02*
X338110D01*
X336067Y185457D01*
X333740D01*
G01X343000Y210000D02*
Y230000D01*
G01D02*
Y260000D01*
G01X367500Y292500D02*
X343000Y268000D01*
Y260000D01*
G01X378000Y490600D02*
X365600D01*
X350000Y475000D01*
G01X378000Y487400D02*
X372400D01*
X350000Y465000D01*
G01Y455000D02*
X360000D01*
X378000Y473000D01*
Y484300D01*
G01Y496900D02*
X359900D01*
X350000Y487000D01*
G01Y515000D02*
X361900Y503100D01*
X378000D01*
G01Y500000D02*
X350000D01*
G01X338751Y488751D02*
X350000Y500000D01*
G01X378000Y512600D02*
X374942D01*
X370000Y517542D01*
Y525000D01*
X350000Y545000D01*
G01Y535000D02*
X355000D01*
X365000Y525000D01*
Y517000D01*
X372600Y509400D01*
X378000D01*
G01X350000Y525000D02*
X358000D01*
X360000Y523000D01*
Y515000D01*
X368700Y506300D01*
X378000D01*
G01X342500Y570000D02*
X390600D01*
G01X401000Y609724D02*
X352500D01*
G01X545000Y780000D02*
X527500Y797500D01*
X345000D01*
G01X387500Y192500D02*
X425500D01*
X432740Y199740D01*
Y202457D01*
G01X367500Y292500D02*
X417500D01*
G01X365000Y345724D02*
X396776D01*
X406000Y336500D01*
G01X372000Y379724D02*
Y387500D01*
G01X422000Y500000D02*
X390001D01*
X386901Y496900D01*
X378000D01*
G01X422000Y506300D02*
X388753D01*
X382453Y500000D01*
X378000D01*
G01X389676Y489677D02*
X396900Y482453D01*
Y478000D01*
G01X372500Y557500D02*
Y552500D01*
X387500Y537500D01*
Y526553D01*
X387400Y526453D01*
Y522000D01*
G01X390600D02*
Y570000D01*
G01D02*
X455000D01*
X467500Y557500D01*
X527500D01*
G01X442500Y760000D02*
X370000D01*
G01X429000Y210724D02*
X400500D01*
X399776Y210000D01*
X395276D01*
G01X417500Y292500D02*
Y282988D01*
X425764Y274724D01*
X426000D01*
G01X406000Y336500D02*
X404000Y334500D01*
Y327724D01*
G01X417500Y334500D02*
X415500Y336500D01*
X406000D01*
G01X395000Y440000D02*
Y450000D01*
X406300Y461300D01*
Y478000D01*
G01X415000Y440000D02*
Y471147D01*
X412600Y473547D01*
Y478000D01*
G01X405000Y440000D02*
Y450000D01*
X409400Y454400D01*
Y478000D01*
G01X425000Y440000D02*
Y460000D01*
X420000Y465000D01*
Y471830D01*
X415700Y476130D01*
Y478000D01*
G01X402500Y492500D02*
Y484953D01*
X400000Y482453D01*
Y478000D01*
G01X415000Y540000D02*
X409400Y534400D01*
Y522000D01*
G01X425000Y540000D02*
X412600Y527600D01*
Y522000D01*
G01X435000Y540000D02*
Y535000D01*
X432500Y532500D01*
X424330D01*
X415700Y523870D01*
Y522000D01*
G01X393700D02*
Y553700D01*
X400000Y560000D01*
X447500D01*
G01X396900Y522000D02*
Y513100D01*
X397500Y512500D01*
G01X400000Y522000D02*
Y537500D01*
G01X403100Y522000D02*
Y517547D01*
X408147Y512500D01*
X410000D01*
G01Y552500D02*
X406300Y548800D01*
Y522000D01*
G01X550000Y587000D02*
X417000D01*
X410000Y580000D01*
G01X530000Y601457D02*
X404740D01*
G01X512500Y615000D02*
X502500D01*
X497224Y609724D01*
X401000D01*
G01X442500Y265000D02*
X433524D01*
X432067Y266457D01*
X429740D01*
G01X470000Y465000D02*
X460001D01*
X431301Y493700D01*
X422000D01*
G01X470000Y455000D02*
X461464D01*
X425864Y490600D01*
X422000D01*
G01X470000Y475000D02*
X457500D01*
X435600Y496900D01*
X422000D01*
G01Y512600D02*
X439900D01*
X442500Y510000D01*
G01X455000Y502500D02*
X437500D01*
X433700Y506300D01*
X422000D01*
G01X585000Y527500D02*
X450000D01*
X438200Y515700D01*
X422000D01*
G01X437000Y650724D02*
X437236D01*
X444012Y657500D01*
X512500D01*
G01X452500Y642500D02*
X443110D01*
X443067Y642457D01*
X440740D01*
G01X535000Y20000D02*
Y30000D01*
X465000Y100000D01*
G01X545000Y20000D02*
Y40000D01*
X452500Y132500D01*
G01X472500Y517500D02*
Y489500D01*
X474500Y487500D01*
X842500D01*
X865000Y465000D01*
G01X479000Y576724D02*
X527764D01*
X551764Y552724D01*
X552000D01*
G01X601500Y647500D02*
X480000D01*
G01X452500Y725000D02*
X457500Y720000D01*
X525000D01*
X545000Y700000D01*
X612500D01*
G01X555000Y20000D02*
Y50000D01*
X485000Y120000D01*
G01X495000Y567500D02*
X486024D01*
X485067Y568457D01*
X482740D01*
G01X492500Y640000D02*
X585000D01*
X592500Y632500D01*
X601500D01*
G01X492500Y677500D02*
Y687126D01*
X493740Y688366D01*
Y690457D01*
G01X490000Y698724D02*
X504224D01*
X508000Y702500D01*
X512500D01*
G01X527500Y515000D02*
X615000D01*
G01X512500Y732500D02*
X515724Y735724D01*
X566000D01*
G01X565000Y20000D02*
Y87500D01*
G01X549986Y389868D02*
Y372514D01*
X557500Y365000D01*
X572500D01*
X585000Y377500D01*
Y400000D01*
X600000Y415000D01*
Y420000D01*
G01X613000D02*
Y429500D01*
X610000Y432500D01*
X561910D01*
X559180Y429770D01*
Y416270D01*
G01X800000Y475000D02*
X555000D01*
G01Y535000D02*
Y541626D01*
X555740Y542366D01*
Y544457D01*
G01X552000Y552724D02*
X552236D01*
X557500Y557988D01*
Y562500D01*
G01X601500Y592500D02*
X589500D01*
X582500Y585500D01*
Y579500D01*
X570000Y567000D01*
G01X601500Y607500D02*
X585000D01*
X574500Y597000D01*
X570000D01*
G01D02*
X557500Y609500D01*
G01X601500Y597500D02*
X585000D01*
X574500Y587000D01*
X550000D01*
G01X552500Y632500D02*
X585000D01*
X590000Y627500D01*
X601500D01*
G01X622500Y675000D02*
X542500D01*
G01X651740Y721457D02*
Y719366D01*
X652500Y718606D01*
Y715000D01*
X647500Y710000D01*
X552500D01*
G01X627500Y720000D02*
X577433D01*
X569976Y727457D01*
X569740D01*
G01X566000Y735724D02*
X599276D01*
X605276Y729724D01*
X648000D01*
G01X545000Y830000D02*
Y780000D01*
G01Y755000D02*
Y780000D01*
G01X565000Y830000D02*
Y785000D01*
X560000Y780000D01*
G01Y755000D02*
X575000Y770000D01*
Y830000D01*
G01Y20000D02*
Y100000D01*
G01X585000Y500000D02*
X589500D01*
X597000Y492500D01*
X857500D01*
X875000Y475000D01*
G01X601500Y622500D02*
X585000D01*
G01Y690000D02*
X712500D01*
X732500Y670000D01*
X790000D01*
X807500Y652500D01*
X815000D01*
X820000Y657500D01*
Y660106D01*
X819740Y660366D01*
Y662457D01*
G01X630000Y285724D02*
X753224D01*
G01X613000Y390000D02*
Y420000D01*
G01X760000Y367000D02*
X622000D01*
G01X636740Y513457D02*
Y506740D01*
X632500Y502500D01*
X605000D01*
G01X638500Y587500D02*
X635744D01*
X622500Y574256D01*
Y545000D01*
X630500Y537000D01*
X660000D01*
G01Y567000D02*
X656925Y563925D01*
X651076D01*
X650000Y562849D01*
Y557500D01*
X640000Y547500D01*
X635000D01*
X630000Y552500D01*
Y567500D01*
X645000Y582500D01*
X645500D01*
X647500Y584500D01*
Y588937D01*
X643937Y592500D01*
X638500D01*
G01X601500Y597500D02*
X625000D01*
G01X601500Y592500D02*
X612500D01*
X617500Y587500D01*
G01X620000Y615000D02*
X615500D01*
X613000Y617500D01*
X601500D01*
G01Y607500D02*
X638500D01*
G01X612500Y627500D02*
X622500D01*
X627500Y632500D01*
X638500D01*
G01X605000Y665000D02*
X612500Y657500D01*
Y648063D01*
X606937Y642500D01*
X601500D01*
G01X622500Y637500D02*
X632500Y647500D01*
X638500D01*
G01X722500Y668182D02*
X638182D01*
X607500Y637500D01*
X601500D01*
G01X680000Y277500D02*
X636110D01*
X636067Y277457D01*
X633740D01*
G01X632500Y387500D02*
X735000D01*
X735500Y387000D01*
X740000D01*
G01X633000Y521724D02*
X684724D01*
X693000Y530000D01*
G01X660000Y537000D02*
X673000D01*
X680000Y530000D01*
G01Y545000D02*
X665000D01*
X660000Y550000D01*
G01X640000Y560000D02*
X642500Y562500D01*
Y567500D01*
G01D02*
X655000Y580000D01*
G01X660000Y567000D02*
X673000D01*
X680000Y560000D01*
G01Y590000D02*
X672500Y597500D01*
X638500D01*
G01X680000Y635000D02*
X672500Y627500D01*
X638500D01*
G01X652500Y610000D02*
X645000Y617500D01*
X638500D01*
G01Y602500D02*
X680500D01*
X693000Y590000D01*
G01X638500Y607500D02*
Y602500D01*
G01Y607500D02*
Y612500D01*
G01X752500Y635000D02*
X749318Y631818D01*
X691818D01*
X682500Y622500D01*
X638500D01*
G01Y652500D02*
X655000D01*
X657500Y655000D01*
G01X767500Y645000D02*
X675000D01*
X667500Y637500D01*
X638500D01*
G01X800000Y645000D02*
X790000Y655000D01*
X677500D01*
X665000Y642500D01*
X638500D01*
G01X648000Y729724D02*
X707776D01*
X729000Y708500D01*
Y699724D01*
G01X664000Y224724D02*
X692224D01*
X750000Y282500D01*
G01X667740Y216457D02*
X801457D01*
X802500Y217500D01*
X900000D01*
G01X781500Y432500D02*
X687500D01*
G01X680000Y512500D02*
Y505000D01*
G01Y512500D02*
X672500D01*
G01X680000D02*
X687500D01*
G01X670000Y574500D02*
X674500D01*
X680000Y580000D01*
Y590000D01*
G01X782500Y622500D02*
X695000D01*
X685000Y612500D01*
X665000D01*
G01X735000Y185000D02*
X725000D01*
X718000Y178000D01*
Y168724D01*
G01X715000Y357500D02*
X772500D01*
X780000Y365000D01*
X812500D01*
X822500Y355000D01*
Y342981D01*
X815976Y336457D01*
X815740D01*
G01X715000Y422500D02*
X720000Y427500D01*
X764999D01*
X769999Y422500D01*
X781500D01*
G01Y437500D02*
X707500D01*
X702500Y442500D01*
G01X693000Y530000D02*
X712488D01*
X721764Y520724D01*
X722000D01*
G01X693000Y560000D02*
Y530000D01*
G01Y590000D02*
Y560000D01*
G01X912500Y610000D02*
X702500D01*
G01X920740Y160457D02*
Y158366D01*
X922500Y156606D01*
Y147500D01*
X890000Y115000D01*
X740000D01*
G01X735000Y185000D02*
X750000Y170000D01*
Y155000D01*
G01D02*
X820002D01*
X828751Y163749D01*
G01X727500Y170000D02*
X721740Y164240D01*
Y160457D01*
G01X779000Y179724D02*
X778764D01*
X773488Y185000D01*
X735000D01*
G01X750000Y282500D02*
Y242500D01*
G01Y282500D02*
X753224Y285724D01*
G01X750000Y348724D02*
X793490D01*
X799857Y342357D01*
G01X740000Y387000D02*
X752000D01*
X755000Y390000D01*
X767500D01*
X775000Y397500D01*
X781500D01*
G01Y442500D02*
X732500D01*
X725000Y450000D01*
G01X767500Y510000D02*
X728433D01*
X725976Y512457D01*
X725740D01*
G01X722000Y520724D02*
X828224D01*
X847500Y540000D01*
G01X735000Y550000D02*
X780374D01*
X793740Y563366D01*
Y565457D01*
G01X732740Y691457D02*
X748543D01*
X752500Y687500D01*
G01X810000Y245724D02*
X793224D01*
X768948Y270000D01*
G01D02*
X753224Y285724D01*
G01X768948Y270000D02*
X937500D01*
X972224Y304724D01*
X988000D01*
G01X840000Y296724D02*
X777500D01*
G01D02*
X764224D01*
X753224Y285724D01*
G01X799857Y342357D02*
Y331435D01*
X777500Y309078D01*
Y296724D01*
G01X787500Y340000D02*
X756524D01*
X756067Y340457D01*
X753740D01*
G01X781500Y392500D02*
X776063D01*
X772500Y388937D01*
Y375000D01*
X764500Y367000D01*
X760000D01*
G01X781500Y407500D02*
X770500D01*
X760000Y397000D01*
G01X915000Y185000D02*
X910000Y180000D01*
X802500D01*
X793957Y171457D01*
X782740D01*
G01X812000Y344724D02*
X807500D01*
G01D02*
X802224D01*
X799857Y342357D01*
G01X807500Y344724D02*
Y347500D01*
X812500Y352500D01*
G01Y377500D02*
X809318Y380682D01*
Y396074D01*
X815744Y402500D01*
X818500D01*
G01Y407500D02*
X781500D01*
G01X818500Y417500D02*
X805000D01*
G01X781500Y427500D02*
X795000D01*
G01X802500Y445000D02*
X798000D01*
X795500Y447500D01*
X781500D01*
G01X898740Y458457D02*
Y456366D01*
X894874Y452500D01*
X852500D01*
X840000Y465000D01*
X800000D01*
X787500Y452500D01*
X781500D01*
G01X790000Y573724D02*
X838776D01*
X847500Y565000D01*
G01X782500Y682500D02*
X827500D01*
X880000Y630000D01*
X982500D01*
X988740Y636240D01*
Y642457D01*
G01X917000Y168724D02*
X833726D01*
X828751Y163749D01*
G01D02*
X849000Y143500D01*
Y138724D01*
G01X813740Y237457D02*
X813976D01*
X820000Y243481D01*
Y250000D01*
X812500Y257500D01*
G01X852000Y296724D02*
X840000D01*
G01D02*
X848776Y305500D01*
X878500D01*
X883000Y310000D01*
G01X850000Y317000D02*
X832500Y334500D01*
Y378937D01*
X823937Y387500D01*
X818500D01*
G01Y392500D02*
X827500D01*
X837500Y382500D01*
Y359500D01*
X850000Y347000D01*
G01X818500Y397500D02*
X829500D01*
X850000Y377000D01*
G01X818500Y412500D02*
Y407500D01*
G01D02*
Y402500D01*
G01X990000Y430000D02*
X982500Y437500D01*
X818500D01*
G01Y432500D02*
X902500D01*
G01X957740Y375457D02*
X1015456D01*
X1028585Y388586D01*
Y433916D01*
X1015001Y447500D01*
X818500D01*
G01X1010000Y437500D02*
X1005000Y442500D01*
X818500D01*
G01X915000Y425000D02*
X860001D01*
X857501Y427500D01*
X818500D01*
G01X892500Y402500D02*
X867500D01*
X847500Y422500D01*
X818500D01*
G01X835000Y455000D02*
X826437D01*
X823937Y452500D01*
X818500D01*
G01X847500Y650000D02*
X826776Y670724D01*
X816000D01*
G01X860000Y155000D02*
Y137481D01*
X852976Y130457D01*
X852740D01*
G01X1002500Y285001D02*
X977499Y260000D01*
X860000D01*
G01X892500Y290000D02*
X859610D01*
X858067Y288457D01*
X855740D01*
G01X850000Y317000D02*
X863000D01*
X870000Y310000D01*
G01X850000Y347000D02*
X863000D01*
X870000Y340000D01*
G01Y370000D02*
X857000D01*
X850000Y377000D01*
G01X847500Y540000D02*
X895000Y492500D01*
Y466724D01*
G01X847500Y565000D02*
Y540000D01*
G01Y565000D02*
X875000D01*
X881276Y558724D01*
X928724D01*
G01X883000Y310000D02*
Y340000D01*
G01Y370000D02*
Y340000D01*
G01X954000Y383724D02*
X896724D01*
X883000Y370000D01*
G01X980000Y415000D02*
X880000D01*
G01X960000Y225724D02*
X948224D01*
X943224Y220724D01*
Y175724D01*
X936224Y168724D01*
X917000D01*
G01X949740Y550457D02*
Y548366D01*
X906374Y505000D01*
G01X946000Y558724D02*
X928724D01*
G01D02*
X1000000Y630000D01*
Y647500D01*
X996776Y650724D01*
G01X913740Y716457D02*
Y702500D01*
G01X910000Y724724D02*
X922776D01*
X996776Y650724D01*
G01X963740Y217457D02*
X977457D01*
X982500Y222500D01*
G01X996776Y650724D02*
X985000D01*
G01X991740Y296457D02*
Y317500D01*
M02*
