999
last saved by ezdxf 0.7.7 on 2017-12-05 18:24:37
  0
SECTION
  2
HEADER
  9
$ACADVER
  1
AC1015
  9
$ACADMAINTVER
 70
20
  9
$DWGCODEPAGE
  3
ANSI_1252
  9
$LASTSAVEDBY
  1
unknown
  9
$INSBASE
 10
0.0
 20
0.0
 30
0.0
  9
$EXTMIN
 10
1e+20
 20
1e+20
 30
1e+20
  9
$EXTMAX
 10
-1e+20
 20
-1e+20
 30
-1e+20
  9
$LIMMIN
 10
0.0
 20
0.0
  9
$LIMMAX
 10
12.0
 20
9.0
  9
$ORTHOMODE
 70
0
  9
$REGENMODE
 70
1
  9
$FILLMODE
 70
1
  9
$QTEXTMODE
 70
0
  9
$MIRRTEXT
 70
0
  9
$LTSCALE
 40
1.0
  9
$ATTMODE
 70
1
  9
$TEXTSIZE
 40
0.2
  9
$TRACEWID
 40
0.05
  9
$TEXTSTYLE
  7
Notes
  9
$CLAYER
  8
0
  9
$CELTYPE
  6
ByLayer
  9
$CECOLOR
 62
256
  9
$CELTSCALE
 40
1.0
  9
$DISPSILH
 70
0
  9
$DIMSCALE
 40
1.0
  9
$DIMASZ
 40
3.0
  9
$DIMEXO
 40
1.5
  9
$DIMDLI
 40
6.0
  9
$DIMRND
 40
0.0
  9
$DIMDLE
 40
0.0
  9
$DIMEXE
 40
3.0
  9
$DIMTP
 40
0.0
  9
$DIMTM
 40
0.0
  9
$DIMTXT
 40
3.0
  9
$DIMCEN
 40
3.0
  9
$DIMTSZ
 40
0.0
  9
$DIMTOL
 70
0
  9
$DIMLIM
 70
0
  9
$DIMTIH
 70
0
  9
$DIMTOH
 70
0
  9
$DIMSE1
 70
0
  9
$DIMSE2
 70
0
  9
$DIMTAD
 70
1
  9
$DIMZIN
 70
3
  9
$DIMBLK
  1

  9
$DIMASO
 70
1
  9
$DIMSHO
 70
1
  9
$DIMPOST
  1

  9
$DIMAPOST
  1

  9
$DIMALT
 70
0
  9
$DIMALTD
 70
2
  9
$DIMALTF
 40
25.4
  9
$DIMLFAC
 40
1.0
  9
$DIMTOFL
 70
0
  9
$DIMTVP
 40
0.0
  9
$DIMTIX
 70
0
  9
$DIMSOXD
 70
0
  9
$DIMSAH
 70
0
  9
$DIMBLK1
  1

  9
$DIMBLK2
  1

  9
$DIMSTYLE
  2
Civil-Metric
  9
$DIMCLRD
 70
0
  9
$DIMCLRE
 70
0
  9
$DIMCLRT
 70
0
  9
$DIMTFAC
 40
1.0
  9
$DIMGAP
 40
2.0
  9
$DIMJUST
 70
0
  9
$DIMSD1
 70
0
  9
$DIMSD2
 70
0
  9
$DIMTOLJ
 70
1
  9
$DIMTZIN
 70
0
  9
$DIMALTZ
 70
0
  9
$DIMALTTZ
 70
0
  9
$DIMUPT
 70
0
  9
$DIMDEC
 70
2
  9
$DIMTDEC
 70
2
  9
$DIMALTU
 70
2
  9
$DIMALTTD
 70
2
  9
$DIMTXSTY
  7
Standard
  9
$DIMAUNIT
 70
0
  9
$DIMADEC
 70
2
  9
$DIMALTRND
 40
0.0
  9
$DIMAZIN
 70
2
  9
$DIMDSEP
 70
46
  9
$DIMATFIT
 70
3
  9
$DIMFRAC
 70
1
  9
$DIMLDRBLK
  1

  9
$DIMLUNIT
 70
2
  9
$DIMLWD
 70
-2
  9
$DIMLWE
 70
-2
  9
$DIMTMOVE
 70
0
  9
$LUNITS
 70
2
  9
$LUPREC
 70
4
  9
$SKETCHINC
 40
0.1
  9
$FILLETRAD
 40
0.0
  9
$AUNITS
 70
4
  9
$AUPREC
 70
5
  9
$MENU
  1
.
  9
$ELEVATION
 40
0.0
  9
$PELEVATION
 40
0.0
  9
$THICKNESS
 40
0.0
  9
$LIMCHECK
 70
0
  9
$CHAMFERA
 40
0.0
  9
$CHAMFERB
 40
0.0
  9
$CHAMFERC
 40
0.0
  9
$CHAMFERD
 40
0.0
  9
$SKPOLY
 70
0
  9
$TDCREATE
 40
2458093.7670949074
  9
$TDUPDATE
 40
2458093.7670949074
  9
$TDINDWG
 40
0.0
  9
$TDUSRTIMER
 40
0.0
  9
$USRTIMER
 70
1
  9
$ANGBASE
 50
0.0
  9
$ANGDIR
 70
0
  9
$PDMODE
 70
0
  9
$PDSIZE
 40
0.0
  9
$PLINEWID
 40
0.0
  9
$SPLFRAME
 70
0
  9
$SPLINETYPE
 70
6
  9
$SPLINESEGS
 70
8
  9
$HANDSEED
  5
4C6
  9
$SURFTAB1
 70
6
  9
$SURFTAB2
 70
6
  9
$SURFTYPE
 70
6
  9
$SURFU
 70
6
  9
$SURFV
 70
6
  9
$UCSBASE
  2

  9
$UCSNAME
  2

  9
$UCSORG
 10
0.0
 20
0.0
 30
0.0
  9
$UCSXDIR
 10
1.0
 20
0.0
 30
0.0
  9
$UCSYDIR
 10
0.0
 20
1.0
 30
0.0
  9
$UCSORTHOREF
  2

  9
$UCSORTHOVIEW
 70
0
  9
$UCSORGTOP
 10
0.0
 20
0.0
 30
0.0
  9
$UCSORGBOTTOM
 10
0.0
 20
0.0
 30
0.0
  9
$UCSORGLEFT
 10
0.0
 20
0.0
 30
0.0
  9
$UCSORGRIGHT
 10
0.0
 20
0.0
 30
0.0
  9
$UCSORGFRONT
 10
0.0
 20
0.0
 30
0.0
  9
$UCSORGBACK
 10
0.0
 20
0.0
 30
0.0
  9
$PUCSBASE
  2

  9
$PUCSNAME
  2

  9
$PUCSORG
 10
0.0
 20
0.0
 30
0.0
  9
$PUCSXDIR
 10
1.0
 20
0.0
 30
0.0
  9
$PUCSYDIR
 10
0.0
 20
1.0
 30
0.0
  9
$PUCSORTHOREF
  2

  9
$PUCSORTHOVIEW
 70
0
  9
$PUCSORGTOP
 10
0.0
 20
0.0
 30
0.0
  9
$PUCSORGBOTTOM
 10
0.0
 20
0.0
 30
0.0
  9
$PUCSORGLEFT
 10
0.0
 20
0.0
 30
0.0
  9
$PUCSORGRIGHT
 10
0.0
 20
0.0
 30
0.0
  9
$PUCSORGFRONT
 10
0.0
 20
0.0
 30
0.0
  9
$PUCSORGBACK
 10
0.0
 20
0.0
 30
0.0
  9
$USERI1
 70
0
  9
$USERI2
 70
0
  9
$USERI3
 70
0
  9
$USERI4
 70
0
  9
$USERI5
 70
0
  9
$USERR1
 40
0.0
  9
$USERR2
 40
0.0
  9
$USERR3
 40
0.0
  9
$USERR4
 40
0.0
  9
$USERR5
 40
0.0
  9
$WORLDVIEW
 70
1
  9
$SHADEDGE
 70
3
  9
$SHADEDIF
 70
70
  9
$TILEMODE
 70
1
  9
$MAXACTVP
 70
64
  9
$PINSBASE
 10
0.0
 20
0.0
 30
0.0
  9
$PLIMCHECK
 70
0
  9
$PEXTMIN
 10
0.62886676639706
 20
0.7999999523162842
 30
0.0
  9
$PEXTMAX
 10
9.028866384927335
 20
7.199999570846558
 30
0.0
  9
$PLIMMIN
 10
-0.7005418191744587
 20
-0.2281003861915408
  9
$PLIMMAX
 10
10.29945794052965
 20
8.27189937351257
  9
$UNITMODE
 70
0
  9
$VISRETAIN
 70
1
  9
$PLINEGEN
 70
0
  9
$PSLTSCALE
 70
1
  9
$TREEDEPTH
 70
3020
  9
$CMLSTYLE
  2
Standard
  9
$CMLJUST
 70
0
  9
$CMLSCALE
 40
1.0
  9
$PROXYGRAPHICS
 70
1
  9
$MEASUREMENT
 70
1
  9
$CELWEIGHT
370
-1
  9
$ENDCAPS
280
0
  9
$JOINSTYLE
280
0
  9
$LWDISPLAY
290
0
  9
$INSUNITS
 70
4
  9
$HYPERLINKBASE
  1

  9
$STYLESHEET
  1

  9
$XEDIT
290
1
  9
$CEPSNTYPE
380
0
  9
$PSTYLEMODE
290
1
  9
$FINGERPRINTGUID
  2
{39DB1BDD-BC6C-46D3-A333-DFCC0DC4782D}
  9
$VERSIONGUID
  2
{69EEBB2D-7039-498F-9366-3F994E4A07E7}
  9
$EXTNAMES
290
1
  9
$PSVPSCALE
 40
0.0
  9
$OLESTARTUP
290
0
  0
ENDSEC
  0
SECTION
  2
CLASSES
  0
CLASS
  1
ACDBDICTIONARYWDFLT
  2
AcDbDictionaryWithDefault
  3
ObjectDBX Classes
 90
0
280
0
281
0
  0
CLASS
  1
ACDBPLACEHOLDER
  2
AcDbPlaceHolder
  3
ObjectDBX Classes
 90
0
280
0
281
0
  0
CLASS
  1
LAYOUT
  2
AcDbLayout
  3
ObjectDBX Classes
 90
0
280
0
281
0
  0
CLASS
  1
DICTIONARYVAR
  2
AcDbDictionaryVar
  3
ObjectDBX Classes
 90
0
280
0
281
0
  0
CLASS
  1
TABLESTYLE
  2
AcDbTableStyle
  3
ObjectDBX Classes
 90
4095
280
0
281
0
  0
CLASS
  1
MATERIAL
  2
AcDbMaterial
  3
ObjectDBX Classes
 90
1153
280
0
281
0
  0
CLASS
  1
VISUALSTYLE
  2
AcDbVisualStyle
  3
ObjectDBX Classes
 90
4095
280
0
281
0
  0
CLASS
  1
SCALE
  2
AcDbScale
  3
ObjectDBX Classes
 90
1153
280
0
281
0
  0
CLASS
  1
MLEADERSTYLE
  2
AcDbMLeaderStyle
  3
ACDB_MLEADERSTYLE_CLASS
 90
4095
280
0
281
0
  0
CLASS
  1
CELLSTYLEMAP
  2
AcDbCellStyleMap
  3
ObjectDBX Classes
 90
1152
280
0
281
0
  0
CLASS
  1
EXACXREFPANELOBJECT
  2
ExAcXREFPanelObject
  3
EXAC_ESW
 90
33793
280
0
281
0
  0
CLASS
  1
NPOCOLLECTION
  2
AcDbImpNonPersistentObjectsCollection
  3
ObjectDBX Classes
 90
33921
280
0
281
0
  0
CLASS
  1
LAYER_INDEX
  2
AcDbLayerIndex
  3
ObjectDBX Classes
 90
32768
280
0
281
0
  0
CLASS
  1
SPATIAL_INDEX
  2
AcDbSpatialIndex
  3
ObjectDBX Classes
 90
32768
280
0
281
0
  0
CLASS
  1
IDBUFFER
  2
AcDbIdBuffer
  3
ObjectDBX Classes
 90
32768
280
0
281
0
  0
CLASS
  1
DIMASSOC
  2
AcDbDimAssoc
  3
"AcDbDimAssoc|Product Desc:     AcDim ARX App For Dimension|Company:          Autodesk, Inc.|WEB Address:      www.autodesk.com"
 90
32768
280
0
281
0
  0
ENDSEC
  0
SECTION
  2
TABLES
  0
TABLE
  2
VPORT
  5
8
330
0
100
AcDbSymbolTable
 70
1
  0
VPORT
  5
94
330
8
100
AcDbSymbolTableRecord
100
AcDbViewportTableRecord
  2
*Active
 70
0
 10
0.0
 20
0.0
 11
1.0
 21
1.0
 12
68.7397286580374
 22
49.8327539171525
 13
0.0
 23
0.0
 14
0.5
 24
0.5
 15
0.5
 25
0.5
 16
0.0
 26
0.0
 36
1.0
 17
0.0
 27
0.0
 37
0.0
 40
69.03946035988814
 41
1.341176470588235
 42
50.0
 43
0.0
 44
0.0
 50
0.0
 51
0.0
 71
0
 72
1000
 73
1
 74
3
 75
0
 76
0
 77
0
 78
0
281
0
 65
1
110
0.0
120
0.0
130
0.0
111
1.0
121
0.0
131
0.0
112
0.0
122
1.0
132
0.0
 79
0
146
0.0
  0
ENDTAB
  0
TABLE
  2
LTYPE
  5
5
330
0
100
AcDbSymbolTable
 70
7
  0
LTYPE
  5
14
330
5
100
AcDbSymbolTableRecord
100
AcDbLinetypeTableRecord
  2
ByBlock
 70
0
  3

 72
65
 73
0
 40
0.0
  0
LTYPE
  5
15
330
5
100
AcDbSymbolTableRecord
100
AcDbLinetypeTableRecord
  2
ByLayer
 70
0
  3

 72
65
 73
0
 40
0.0
  0
LTYPE
  5
16
330
5
100
AcDbSymbolTableRecord
100
AcDbLinetypeTableRecord
  2
Continuous
 70
0
  3
Solid line
 72
65
 73
0
 40
0.0
  0
LTYPE
  5
1B1
330
5
100
AcDbSymbolTableRecord
100
AcDbLinetypeTableRecord
  2
CENTER
 70
0
  3
Center ____ _ ____ _ ____ _ ____ _ ____ _ ____
 72
65
 73
4
 40
2.0
 49
1.25
 74
0
 49
-0.25
 74
0
 49
0.25
 74
0
 49
-0.25
 74
0
  0
LTYPE
  5
1B2
330
5
100
AcDbSymbolTableRecord
100
AcDbLinetypeTableRecord
  2
DASHED
 70
0
  3
Dashed __ __ __ __ __ __ __ __ __ __ __ __ __ _
 72
65
 73
2
 40
0.75
 49
0.5
 74
0
 49
-0.25
 74
0
  0
LTYPE
  5
1B3
330
5
100
AcDbSymbolTableRecord
100
AcDbLinetypeTableRecord
  2
PHANTOM
 70
0
  3
Phantom ______  __  __  ______  __  __  ______
 72
65
 73
6
 40
2.5
 49
1.25
 74
0
 49
-0.25
 74
0
 49
0.25
 74
0
 49
-0.25
 74
0
 49
0.25
 74
0
 49
-0.25
 74
0
  0
LTYPE
  5
39E
330
5
100
AcDbSymbolTableRecord
100
AcDbLinetypeTableRecord
  2
HIDDEN
 70
0
  3
Hidden __ __ __ __ __ __ __ __ __ __ __ __ __ __
 72
65
 73
2
 40
9.524999999999999
 49
6.349999999999999
 74
0
 49
-3.174999999999999
 74
0
  0
ENDTAB
  0
TABLE
  2
LAYER
  5
2
102
{ACAD_XDICTIONARY
360
2A2
102
}
330
0
100
AcDbSymbolTable
 70
4
  0
LAYER
  5
10
102
{ACAD_XDICTIONARY
360
E6
102
}
330
2
100
AcDbSymbolTableRecord
100
AcDbLayerTableRecord
  2
0
 70
0
 62
7
  6
Continuous
370
-3
390
F
  0
LAYER
  5
1B4
330
2
100
AcDbSymbolTableRecord
100
AcDbLayerTableRecord
  2
View Port
 70
0
 62
7
  6
Continuous
290
0
370
-3
390
F
1001
AcAecLayerStandard
1000

1000
View Ports, set to Not Plot
  0
LAYER
  5
21D
330
2
100
AcDbSymbolTableRecord
100
AcDbLayerTableRecord
  2
Defpoints
 70
0
 62
7
  6
Continuous
290
0
370
-3
390
F
  0
LAYER
  5
482
330
2
100
AcDbSymbolTableRecord
100
AcDbLayerTableRecord
  2
004_rigid
 70
0
 62
7
  6
Continuous
290
1
390
E
  0
ENDTAB
  0
TABLE
  2
STYLE
  5
3
330
0
100
AcDbSymbolTable
 70
3
  0
STYLE
  5
11
330
3
100
AcDbSymbolTableRecord
100
AcDbTextStyleTableRecord
  2
Standard
 70
0
 40
0.0
 41
1.0
 50
0.0
 71
0
 42
0.2
  3
arial.ttf
  4

1001
ACAD
1000
Arial
1071
34
  0
STYLE
  5
DC
330
3
100
AcDbSymbolTableRecord
100
AcDbTextStyleTableRecord
  2
Annotative
 70
0
 40
0.0
 41
1.0
 50
0.0
 71
0
 42
0.2
  3
arial.ttf
  4

1001
AcadAnnotative
1000
AnnotativeData
1002
{
1070
1
1070
1
1002
}
1001
ACAD
1000
Arial
1071
34
  0
STYLE
  5
178
330
3
100
AcDbSymbolTableRecord
100
AcDbTextStyleTableRecord
  2
Notes
 70
0
 40
3.0
 41
1.0
 50
0.0
 71
0
 42
0.2
  3
arial.ttf
  4

1001
AcadAnnotative
1000
AnnotativeData
1002
{
1070
1
1070
1
1002
}
1001
AcadAnnoPO
1070
1
1001
ACAD
1000
Arial
1071
34
  0
ENDTAB
  0
TABLE
  2
VIEW
  5
6
330
0
100
AcDbSymbolTable
 70
0
  0
ENDTAB
  0
TABLE
  2
UCS
  5
7
330
0
100
AcDbSymbolTable
 70
0
  0
ENDTAB
  0
TABLE
  2
APPID
  5
9
330
0
100
AcDbSymbolTable
 70
11
  0
APPID
  5
12
330
9
100
AcDbSymbolTableRecord
100
AcDbRegAppTableRecord
  2
ACAD
 70
0
  0
APPID
  5
DD
330
9
100
AcDbSymbolTableRecord
100
AcDbRegAppTableRecord
  2
AcadAnnoPO
 70
0
  0
APPID
  5
DE
330
9
100
AcDbSymbolTableRecord
100
AcDbRegAppTableRecord
  2
AcadAnnotative
 70
0
  0
APPID
  5
DF
330
9
100
AcDbSymbolTableRecord
100
AcDbRegAppTableRecord
  2
ACAD_DSTYLE_DIMJAG
 70
0
  0
APPID
  5
E0
330
9
100
AcDbSymbolTableRecord
100
AcDbRegAppTableRecord
  2
ACAD_DSTYLE_DIMTALN
 70
0
  0
APPID
  5
107
330
9
100
AcDbSymbolTableRecord
100
AcDbRegAppTableRecord
  2
ACAD_MLEADERVER
 70
0
  0
APPID
  5
1B5
330
9
100
AcDbSymbolTableRecord
100
AcDbRegAppTableRecord
  2
AcAecLayerStandard
 70
0
  0
APPID
  5
1BA
330
9
100
AcDbSymbolTableRecord
100
AcDbRegAppTableRecord
  2
ACAD_EXEMPT_FROM_CAD_STANDARDS
 70
0
  0
APPID
  5
237
330
9
100
AcDbSymbolTableRecord
100
AcDbRegAppTableRecord
  2
ACAD_DSTYLE_DIMBREAK
 70
0
  0
APPID
  5
28E
330
9
100
AcDbSymbolTableRecord
100
AcDbRegAppTableRecord
  2
ACAD_PSEXT
 70
0
  0
APPID
  5
4C5
330
9
100
AcDbSymbolTableRecord
100
AcDbRegAppTableRecord
  2
HATCHBACKGROUNDCOLOR
 70
0
  0
ENDTAB
  0
TABLE
  2
DIMSTYLE
  5
A
330
0
100
AcDbSymbolTable
 70
3
100
AcDbDimStyleTable
 71
3
340
242
340
27
340
E1
  0
DIMSTYLE
105
27
330
A
100
AcDbSymbolTableRecord
100
AcDbDimStyleTableRecord
  2
Standard
 70
0
 41
3.0
 42
2.0
 43
9.0
 44
5.0
140
3.0
141
2.0
147
2.0
340
11
1001
ACAD_DSTYLE_DIMJAG
1070
388
1040
38.0
1001
ACAD_DSTYLE_DIMBREAK
1070
391
1040
90.0
1001
ACAD_DSTYLE_DIMTALN
1070
392
1070
0
  0
DIMSTYLE
105
E1
330
A
100
AcDbSymbolTableRecord
100
AcDbDimStyleTableRecord
  2
Annotative
 70
0
 40
0.0
 41
3.0
 42
2.5
 43
10.0
 44
5.0
140
3.0
141
2.0
147
2.0
340
11
1001
AcadAnnotative
1000
AnnotativeData
1002
{
1070
1
1070
1
1002
}
1001
ACAD_DSTYLE_DIMJAG
1070
388
1040
38.0
1001
ACAD_DSTYLE_DIMBREAK
1070
391
1040
90.0
1001
ACAD_DSTYLE_DIMTALN
1070
392
1070
0
  0
DIMSTYLE
105
242
330
A
100
AcDbSymbolTableRecord
100
AcDbDimStyleTableRecord
  2
Civil-Metric
 70
0
 41
3.0
 42
1.5
 43
6.0
 44
3.0
 73
0
 74
0
 77
1
 78
3
 79
2
140
3.0
141
3.0
147
2.0
179
2
271
2
272
2
276
1
340
11
1001
ACAD_DSTYLE_DIMBREAK
1070
391
1040
3.0
1001
ACAD_DSTYLE_DIMJAG
1070
388
1040
38.0
1001
ACAD_DSTYLE_DIMTALN
1070
392
1070
0
  0
ENDTAB
  0
TABLE
  2
BLOCK_RECORD
  5
1
330
0
100
AcDbSymbolTable
 70
4
  0
BLOCK_RECORD
  5
1F
102
{ACAD_XDICTIONARY
360
15D
102
}
330
1
100
AcDbSymbolTableRecord
100
AcDbBlockTableRecord
  2
*Model_Space
340
22
  0
BLOCK_RECORD
  5
58
330
1
100
AcDbSymbolTableRecord
100
AcDbBlockTableRecord
  2
*Paper_Space
340
59
  0
BLOCK_RECORD
  5
238
330
1
100
AcDbSymbolTableRecord
100
AcDbBlockTableRecord
  2
_ArchTick
340
0
  0
BLOCK_RECORD
  5
23C
330
1
100
AcDbSymbolTableRecord
100
AcDbBlockTableRecord
  2
_Open30
340
0
  0
ENDTAB
  0
ENDSEC
  0
SECTION
  2
BLOCKS
  0
BLOCK
  5
5A
330
58
100
AcDbEntity
 67
1
  8
0
100
AcDbBlockBegin
  2
*Paper_Space
 70
0
 10
0.0
 20
0.0
 30
0.0
  3
*Paper_Space
  1

  0
ENDBLK
  5
5B
330
58
100
AcDbEntity
 67
1
  8
0
100
AcDbBlockEnd
  0
BLOCK
  5
23A
330
238
100
AcDbEntity
  8
0
100
AcDbBlockBegin
  2
_ArchTick
 70
0
 10
0.0
 20
0.0
 30
0.0
  3
_ArchTick
  1

  0
LWPOLYLINE
  5
239
330
238
100
AcDbEntity
  8
0
  6
ByBlock
 62
0
100
AcDbPolyline
 90
2
 70
0
 43
0.15
 10
-0.5
 20
-0.5
 10
0.5
 20
0.5
  0
ENDBLK
  5
23B
330
238
100
AcDbEntity
  8
0
100
AcDbBlockEnd
  0
BLOCK
  5
240
330
23C
100
AcDbEntity
  8
0
100
AcDbBlockBegin
  2
_Open30
 70
0
 10
0.0
 20
0.0
 30
0.0
  3
_Open30
  1

  0
LINE
  5
23D
330
23C
100
AcDbEntity
  8
0
  6
ByBlock
 62
0
370
-2
100
AcDbLine
 10
-1.0
 20
0.26794919
 30
0.0
 11
0.0
 21
0.0
 31
0.0
  0
LINE
  5
23E
330
23C
100
AcDbEntity
  8
0
  6
ByBlock
 62
0
370
-2
100
AcDbLine
 10
0.0
 20
0.0
 30
0.0
 11
-1.0
 21
-0.26794919
 31
0.0
  0
LINE
  5
23F
330
23C
100
AcDbEntity
  8
0
  6
ByBlock
 62
0
370
-2
100
AcDbLine
 10
0.0
 20
0.0
 30
0.0
 11
-1.0
 21
0.0
 31
0.0
  0
ENDBLK
  5
241
330
23C
100
AcDbEntity
  8
0
100
AcDbBlockEnd
  0
BLOCK
  5
20
330
1F
100
AcDbEntity
  8
0
100
AcDbBlockBegin
  2
*Model_Space
 70
0
 10
0.0
 20
0.0
 30
0.0
  3
*Model_Space
  1

  0
ENDBLK
  5
21
330
1F
100
AcDbEntity
  8
0
100
AcDbBlockEnd
  0
ENDSEC
  0
SECTION
  2
ENTITIES
  0
LWPOLYLINE
  5
483
330
1F
100
AcDbEntity
  8
004_rigid
 67
0
100
AcDbPolyline
 90
27
 70
1
 10
-137.78544896483444
 20
92.49308114075922
 10
-137.77130682921072
 20
92.47893900513549
 10
-137.757164693587
 20
92.46479686951176
 10
-136.3570932668376
 20
91.06472544276238
 10
-136.35173513113492
 20
91.05925965646217
 10
-136.34730037361882
 20
91.05451833598121
 10
-136.34446414591997
 20
91.05122330438252
 10
-136.3436582379951
 20
91.04987620035747
 10
-137.05076501918163
 20
90.34276941917093
 10
-137.05211212320665
 20
90.34357532709582
 10
-137.05540715480535
 20
90.34641155479466
 10
-137.06014847528635
 20
90.35084631231075
 10
-137.06561426158655
 20
90.35620444801347
 10
-138.46568568833592
 20
91.75627587476284
 10
-138.47982782395965
 20
91.77041801038656
 10
-138.49396995958338
 20
91.78456014601029
 10
-139.89404138633273
 20
93.18463157275967
 10
-139.89939952203545
 20
93.19009735905988
 10
-139.90383427955155
 20
93.19483867954085
 10
-139.9066705072504
 20
93.19813371113955
 10
-139.90747641517527
 20
93.19948081516459
 10
-139.55392302458202
 20
93.55303420575785
 10
-139.20036963398874
 20
93.90658759635112
 10
-139.19902252996368
 20
93.90578168842623
 10
-139.19572749836502
 20
93.9029454607274
 10
-139.190986177884
 20
93.8985107032113
 10
-139.18552039158382
 20
93.8931525675086
  0
LWPOLYLINE
  5
484
330
1F
100
AcDbEntity
  8
004_rigid
 67
0
100
AcDbPolyline
 90
26
 70
1
 10
58.383177611739505
 20
90.18478848977762
 10
58.40317761173951
 20
90.18478848977762
 10
58.423177611739504
 20
90.18478848977762
 10
60.40317761173951
 20
90.18478848977762
 10
60.41083128038681
 20
90.18463624884264
 10
60.41731974736324
 20
90.18420270333998
 10
60.42165520238973
 20
90.18355385664233
 10
60.423177611739504
 20
90.18278848977761
 10
60.423177611739504
 20
88.18278848977761
 10
60.42165520238973
 20
88.18202312291288
 10
60.41731974736324
 20
88.18137427621524
 10
60.41083128038681
 20
88.18094073071258
 10
60.40317761173951
 20
88.18078848977761
 10
58.423177611739504
 20
88.18078848977761
 10
58.40317761173951
 20
88.18078848977761
 10
58.383177611739505
 20
88.18078848977761
 10
56.40317761173951
 20
88.18078848977761
 10
56.3955239430922
 20
88.18094073071258
 10
56.38903547611577
 20
88.18137427621524
 10
56.38470002108928
 20
88.18202312291288
 10
56.383177611739505
 20
88.18278848977761
 10
56.383177611739505
 20
90.18278848977761
 10
56.38470002108928
 20
90.18355385664233
 10
56.38903547611577
 20
90.18420270333998
 10
56.3955239430922
 20
90.18463624884264
 10
56.40317761173951
 20
90.18478848977762
  0
LWPOLYLINE
  5
485
330
1F
100
AcDbEntity
  8
004_rigid
 67
0
100
AcDbPolyline
 90
26
 70
1
 10
118.42317761173899
 20
88.18078848977761
 10
118.403177611739
 20
88.18078848977761
 10
118.383177611739
 20
88.18078848977761
 10
116.403177611739
 20
88.18078848977761
 10
116.3955239430917
 20
88.18094073071258
 10
116.38903547611527
 20
88.18137427621524
 10
116.38470002108876
 20
88.18202312291288
 10
116.383177611739
 20
88.18278848977761
 10
116.383177611739
 20
90.18278848977761
 10
116.38470002108878
 20
90.18355385664233
 10
116.38903547611527
 20
90.18420270333998
 10
116.3955239430917
 20
90.18463624884264
 10
116.403177611739
 20
90.18478848977762
 10
118.383177611739
 20
90.18478848977762
 10
118.403177611739
 20
90.18478848977762
 10
118.42317761173899
 20
90.18478848977762
 10
120.403177611739
 20
90.18478848977762
 10
120.41083128038629
 20
90.18463624884264
 10
120.41731974736273
 20
90.18420270333998
 10
120.42165520238923
 20
90.18355385664233
 10
120.42317761173899
 20
90.18278848977761
 10
120.42317761173899
 20
88.18278848977761
 10
120.42165520238923
 20
88.18202312291288
 10
120.41731974736273
 20
88.18137427621524
 10
120.41083128038629
 20
88.18094073071258
 10
120.403177611739
 20
88.18078848977761
  0
LWPOLYLINE
  5
486
330
1F
100
AcDbEntity
  8
004_rigid
 67
0
100
AcDbPolyline
 90
25
 70
1
 10
-128.5930608094091
 20
83.30069298533427
 10
-128.57891867378538
 20
83.28655084971054
 10
-127.1647051114123
 20
81.87233728733743
 10
-127.1593469757096
 20
81.86687150103722
 10
-127.15491221819349
 20
81.86213018055624
 10
-127.15207599049465
 20
81.85883514895755
 10
-127.15127008256975
 20
81.85748804493251
 10
-127.8583768637563
 20
81.15038126374597
 10
-127.85972396778135
 20
81.15118717167086
 10
-127.86301899938003
 20
81.1540233993697
 10
-127.86776031986102
 20
81.1584581568858
 10
-127.87322610616123
 20
81.1638162925885
 10
-129.2732975329106
 20
82.56388771933788
 10
-129.28743966853432
 20
82.57802985496161
 10
-129.30158180415805
 20
82.59217199058534
 10
-130.7016532309074
 20
83.99224341733472
 10
-130.70701136661012
 20
83.99770920363493
 10
-130.7114461241262
 20
84.0024505241159
 10
-130.71428235182506
 20
84.00574555571458
 10
-130.71508825974993
 20
84.00709265973963
 10
-130.0079814785634
 20
84.71419944092618
 10
-130.00663437453835
 20
84.7133935330013
 10
-130.00333934293968
 20
84.71055730530244
 10
-129.99859802245868
 20
84.70612254778635
 10
-129.9931322361585
 20
84.70076441208363
  0
LWPOLYLINE
  5
487
330
1F
100
AcDbEntity
  8
004_rigid
 67
0
100
AcDbPolyline
 90
26
 70
1
 10
-14.616822388260502
 20
90.18478848977762
 10
-14.596822388260502
 20
90.18478848977762
 10
-14.576822388260501
 20
90.18478848977762
 10
-12.596822388260502
 20
90.18478848977762
 10
-12.589168719613198
 20
90.18463624884264
 10
-12.58268025263677
 20
90.18420270333998
 10
-12.578344797610276
 20
90.18355385664233
 10
-12.576822388260501
 20
90.18278848977761
 10
-12.576822388260501
 20
88.18278848977761
 10
-12.578344797610276
 20
88.18202312291288
 10
-12.58268025263677
 20
88.18137427621524
 10
-12.589168719613198
 20
88.18094073071258
 10
-12.596822388260502
 20
88.18078848977761
 10
-14.576822388260501
 20
88.18078848977761
 10
-14.596822388260502
 20
88.18078848977761
 10
-14.616822388260502
 20
88.18078848977761
 10
-16.596822388260502
 20
88.18078848977761
 10
-16.604476056907803
 20
88.18094073071258
 10
-16.61096452388423
 20
88.18137427621524
 10
-16.615299978910727
 20
88.18202312291288
 10
-16.616822388260502
 20
88.18278848977761
 10
-16.616822388260502
 20
90.18278848977761
 10
-16.615299978910727
 20
90.18355385664233
 10
-16.61096452388423
 20
90.18420270333998
 10
-16.604476056907803
 20
90.18463624884264
 10
-16.596822388260502
 20
90.18478848977762
  0
LWPOLYLINE
  5
488
330
1F
100
AcDbEntity
  8
004_rigid
 67
0
100
AcDbPolyline
 90
26
 70
1
 10
45.42317761173949
 20
88.18078848977761
 10
45.403177611739494
 20
88.18078848977761
 10
45.38317761173949
 20
88.18078848977761
 10
43.403177611739494
 20
88.18078848977761
 10
43.395523943092186
 20
88.18094073071258
 10
43.38903547611576
 20
88.18137427621524
 10
43.384700021089266
 20
88.18202312291288
 10
43.38317761173949
 20
88.18278848977761
 10
43.38317761173949
 20
90.18278848977761
 10
43.384700021089266
 20
90.18355385664233
 10
43.38903547611576
 20
90.18420270333998
 10
43.395523943092186
 20
90.18463624884264
 10
43.403177611739494
 20
90.18478848977762
 10
45.38317761173949
 20
90.18478848977762
 10
45.403177611739494
 20
90.18478848977762
 10
45.42317761173949
 20
90.18478848977762
 10
47.403177611739494
 20
90.18478848977762
 10
47.410831280386795
 20
90.18463624884264
 10
47.41731974736322
 20
90.18420270333998
 10
47.421655202389715
 20
90.18355385664233
 10
47.42317761173949
 20
90.18278848977761
 10
47.42317761173949
 20
88.18278848977761
 10
47.421655202389715
 20
88.18202312291288
 10
47.41731974736322
 20
88.18137427621524
 10
47.410831280386795
 20
88.18094073071258
 10
47.403177611739494
 20
88.18078848977761
  0
LWPOLYLINE
  5
489
330
1F
100
AcDbEntity
  8
004_rigid
 67
0
100
AcDbPolyline
 90
26
 70
1
 10
160.23495430133198
 20
120.72070801766
 10
160.254954301332
 20
120.72070801766
 10
160.27495430133197
 20
120.72070801766
 10
162.254954301332
 20
120.72070801766
 10
162.26260796997929
 20
120.72055577672504
 10
162.26909643695572
 20
120.72012223122238
 10
162.27343189198223
 20
120.71947338452473
 10
162.27495430133197
 20
120.71870801766
 10
162.27495430133197
 20
118.71870801766
 10
162.27343189198223
 20
118.71794265079528
 10
162.26909643695572
 20
118.71729380409764
 10
162.26260796997929
 20
118.71686025859498
 10
162.254954301332
 20
118.71670801766
 10
160.27495430133197
 20
118.71670801766
 10
160.254954301332
 20
118.71670801766
 10
160.23495430133198
 20
118.71670801766
 10
158.254954301332
 20
118.71670801766
 10
158.24730063268467
 20
118.71686025859498
 10
158.24081216570826
 20
118.71729380409764
 10
158.23647671068176
 20
118.71794265079528
 10
158.23495430133198
 20
118.71870801766
 10
158.23495430133198
 20
120.71870801766
 10
158.23647671068176
 20
120.71947338452473
 10
158.24081216570826
 20
120.72012223122238
 10
158.24730063268467
 20
120.72055577672504
 10
158.254954301332
 20
120.72070801766
  0
LWPOLYLINE
  5
48A
330
1F
100
AcDbEntity
  8
004_rigid
 67
0
100
AcDbPolyline
 90
26
 70
1
 10
-12.725045698668001
 20
118.71670801766
 10
-12.745045698668003
 20
118.71670801766
 10
-12.765045698668002
 20
118.71670801766
 10
-14.745045698668003
 20
118.71670801766
 10
-14.752699367315303
 20
118.71686025859498
 10
-14.759187834291733
 20
118.71729380409764
 10
-14.763523289318227
 20
118.71794265079528
 10
-14.765045698668002
 20
118.71870801766
 10
-14.765045698668002
 20
120.71870801766
 10
-14.763523289318227
 20
120.71947338452473
 10
-14.759187834291732
 20
120.72012223122238
 10
-14.752699367315303
 20
120.72055577672504
 10
-14.745045698668003
 20
120.72070801766
 10
-12.765045698668002
 20
120.72070801766
 10
-12.745045698668003
 20
120.72070801766
 10
-12.725045698668001
 20
120.72070801766
 10
-10.745045698668003
 20
120.72070801766
 10
-10.737392030020699
 20
120.72055577672504
 10
-10.73090356304427
 20
120.72012223122238
 10
-10.726568108017776
 20
120.71947338452473
 10
-10.725045698668001
 20
120.71870801766
 10
-10.725045698668001
 20
118.71870801766
 10
-10.726568108017776
 20
118.71794265079528
 10
-10.73090356304427
 20
118.71729380409764
 10
-10.737392030020699
 20
118.71686025859498
 10
-10.745045698668003
 20
118.71670801766
  0
LWPOLYLINE
  5
48B
330
1F
100
AcDbEntity
  8
004_rigid
 67
0
100
AcDbPolyline
 90
26
 70
1
 10
67.234954301332
 20
120.72070801766
 10
67.25495430133199
 20
120.72070801766
 10
67.27495430133199
 20
120.72070801766
 10
69.25495430133199
 20
120.72070801766
 10
69.26260796997929
 20
120.72055577672504
 10
69.26909643695572
 20
120.72012223122238
 10
69.27343189198223
 20
120.71947338452473
 10
69.27495430133199
 20
120.71870801766
 10
69.27495430133199
 20
118.71870801766
 10
69.27343189198223
 20
118.71794265079528
 10
69.26909643695572
 20
118.71729380409764
 10
69.26260796997929
 20
118.71686025859498
 10
69.25495430133199
 20
118.71670801766
 10
67.27495430133199
 20
118.71670801766
 10
67.25495430133199
 20
118.71670801766
 10
67.234954301332
 20
118.71670801766
 10
65.25495430133199
 20
118.71670801766
 10
65.24730063268468
 20
118.71686025859498
 10
65.24081216570826
 20
118.71729380409764
 10
65.23647671068177
 20
118.71794265079528
 10
65.234954301332
 20
118.71870801766
 10
65.234954301332
 20
120.71870801766
 10
65.23647671068177
 20
120.71947338452473
 10
65.24081216570826
 20
120.72012223122238
 10
65.24730063268468
 20
120.72055577672504
 10
65.25495430133199
 20
120.72070801766
  0
LWPOLYLINE
  5
48C
330
1F
100
AcDbEntity
  8
004_rigid
 67
0
100
AcDbPolyline
 90
26
 70
1
 10
80.274954301332
 20
118.71670801766
 10
80.254954301332
 20
118.71670801766
 10
80.23495430133201
 20
118.71670801766
 10
78.254954301332
 20
118.71670801766
 10
78.24730063268471
 20
118.71686025859498
 10
78.24081216570828
 20
118.71729380409764
 10
78.23647671068177
 20
118.71794265079528
 10
78.23495430133201
 20
118.71870801766
 10
78.23495430133201
 20
120.71870801766
 10
78.23647671068179
 20
120.71947338452473
 10
78.24081216570828
 20
120.72012223122238
 10
78.24730063268471
 20
120.72055577672504
 10
78.254954301332
 20
120.72070801766
 10
80.23495430133201
 20
120.72070801766
 10
80.254954301332
 20
120.72070801766
 10
80.274954301332
 20
120.72070801766
 10
82.254954301332
 20
120.72070801766
 10
82.2626079699793
 20
120.72055577672504
 10
82.26909643695573
 20
120.72012223122238
 10
82.27343189198224
 20
120.71947338452473
 10
82.274954301332
 20
120.71870801766
 10
82.274954301332
 20
118.71870801766
 10
82.27343189198224
 20
118.71794265079528
 10
82.26909643695573
 20
118.71729380409764
 10
82.2626079699793
 20
118.71686025859498
 10
82.254954301332
 20
118.71670801766
  0
LWPOLYLINE
  5
48D
330
1F
100
AcDbEntity
  8
004_rigid
 67
0
100
AcDbPolyline
 90
25
 70
1
 10
-195.0342281832597
 20
148.32481836968685
 10
-195.04837031888343
 20
148.33896050531055
 10
-195.06251245450716
 20
148.35310264093428
 10
-196.4625838812566
 20
149.7531740676836
 10
-196.46794201695928
 20
149.7586398539838
 10
-196.47237677447538
 20
149.76338117446477
 10
-196.47521300217423
 20
149.7666762060635
 10
-196.47601891009913
 20
149.76802331008852
 10
-195.76891212891263
 20
150.47513009127508
 10
-195.7675650248876
 20
150.47432418335018
 10
-195.76426999328888
 20
150.47148795565133
 10
-195.7595286728079
 20
150.46705319813523
 10
-195.7540628865077
 20
150.46169506243254
 10
-194.33984932413455
 20
149.0474815000595
 10
-194.32570718851085
 20
149.03333936443576
 10
-192.9256357617614
 20
147.63326793768644
 10
-192.92027762605866
 20
147.62780215138625
 10
-192.9158428685426
 20
147.62306083090527
 10
-192.91300664084375
 20
147.61976579930658
 10
-192.91220073291888
 20
147.61841869528152
 10
-193.61930751410534
 20
146.911311914095
 10
-193.6206546181304
 20
146.9121178220199
 10
-193.6239496497291
 20
146.91495404971872
 10
-193.62869097021007
 20
146.9193888072348
 10
-193.63415675651027
 20
146.92474694293753
  0
LWPOLYLINE
  5
48E
330
1F
100
AcDbEntity
  8
004_rigid
 67
0
100
AcDbPolyline
 90
26
 70
1
 10
59.248515811055
 20
150.26336135660503
 10
59.228515811055
 20
150.26336135660503
 10
59.208515811055
 20
150.26336135660503
 10
57.228515811055
 20
150.26336135660503
 10
57.22086214240769
 20
150.26351359754
 10
57.21437367543126
 20
150.26394714304263
 10
57.21003822040477
 20
150.2645959897403
 10
57.208515811055
 20
150.265361356605
 10
57.208515811055
 20
152.265361356605
 10
57.21003822040477
 20
152.26612672346977
 10
57.21437367543126
 20
152.2667755701674
 10
57.22086214240769
 20
152.26720911567003
 10
57.228515811055
 20
152.26736135660502
 10
59.208515811055
 20
152.26736135660502
 10
59.228515811055
 20
152.26736135660502
 10
59.248515811055
 20
152.26736135660502
 10
61.228515811055
 20
152.26736135660502
 10
61.236169479702305
 20
152.26720911567003
 10
61.24265794667873
 20
152.2667755701674
 10
61.246993401705225
 20
152.26612672346977
 10
61.248515811055
 20
152.265361356605
 10
61.248515811055
 20
150.265361356605
 10
61.246993401705225
 20
150.2645959897403
 10
61.24265794667873
 20
150.26394714304263
 10
61.236169479702305
 20
150.26351359754
 10
61.228515811055
 20
150.26336135660503
  0
LWPOLYLINE
  5
48F
330
1F
100
AcDbEntity
  8
004_rigid
 67
0
100
AcDbPolyline
 90
26
 70
1
 10
-53.791484188945
 20
152.26736135660502
 10
-53.771484188944996
 20
152.26736135660502
 10
-53.751484188945
 20
152.26736135660502
 10
-51.771484188944996
 20
152.26736135660502
 10
-51.763830520297695
 20
152.26720911567003
 10
-51.75734205332127
 20
152.2667755701674
 10
-51.753006598294775
 20
152.26612672346977
 10
-51.751484188945
 20
152.265361356605
 10
-51.751484188945
 20
150.265361356605
 10
-51.753006598294775
 20
150.2645959897403
 10
-51.75734205332127
 20
150.26394714304263
 10
-51.763830520297695
 20
150.26351359754
 10
-51.771484188944996
 20
150.26336135660503
 10
-53.751484188945
 20
150.26336135660503
 10
-53.771484188944996
 20
150.26336135660503
 10
-53.791484188945
 20
150.26336135660503
 10
-55.771484188944996
 20
150.26336135660503
 10
-55.7791378575923
 20
150.26351359754
 10
-55.78562632456873
 20
150.26394714304263
 10
-55.789961779595224
 20
150.2645959897403
 10
-55.791484188945
 20
150.265361356605
 10
-55.791484188945
 20
152.265361356605
 10
-55.789961779595224
 20
152.26612672346977
 10
-55.78562632456873
 20
152.2667755701674
 10
-55.7791378575923
 20
152.26720911567003
 10
-55.771484188944996
 20
152.26736135660502
  0
LWPOLYLINE
  5
490
330
1F
100
AcDbEntity
  8
004_rigid
 67
0
100
AcDbPolyline
 90
26
 70
1
 10
159.65137516023412
 20
183.26342894605398
 10
159.6713751602341
 20
183.26342894605398
 10
159.69137516023412
 20
183.26342894605398
 10
161.6713751602341
 20
183.26342894605398
 10
161.67902882888143
 20
183.263276705119
 10
161.68551729585784
 20
183.26284315961638
 10
161.68985275088434
 20
183.26219431291872
 10
161.69137516023412
 20
183.261428946054
 10
161.69137516023412
 20
181.261428946054
 10
161.68985275088434
 20
181.26066357918924
 10
161.68551729585784
 20
181.2600147324916
 10
161.67902882888143
 20
181.25958118698898
 10
161.6713751602341
 20
181.259428946054
 10
159.69137516023412
 20
181.259428946054
 10
159.6713751602341
 20
181.259428946054
 10
159.65137516023412
 20
181.259428946054
 10
157.6713751602341
 20
181.259428946054
 10
157.66372149158678
 20
181.25958118698898
 10
157.65723302461038
 20
181.2600147324916
 10
157.65289756958387
 20
181.26066357918924
 10
157.65137516023412
 20
181.261428946054
 10
157.65137516023412
 20
183.261428946054
 10
157.65289756958387
 20
183.26219431291872
 10
157.65723302461038
 20
183.26284315961638
 10
157.66372149158678
 20
183.263276705119
 10
157.6713751602341
 20
183.26342894605398
  0
LWPOLYLINE
  5
491
330
1F
100
AcDbEntity
  8
004_rigid
 67
0
100
AcDbPolyline
 90
26
 70
1
 10
159.24851581105503
 20
150.26336135660503
 10
159.22851581105502
 20
150.26336135660503
 10
159.20851581105504
 20
150.26336135660503
 10
157.22851581105502
 20
150.26336135660503
 10
157.22086214240773
 20
150.26351359754
 10
157.2143736754313
 20
150.26394714304263
 10
157.21003822040478
 20
150.2645959897403
 10
157.20851581105504
 20
150.265361356605
 10
157.20851581105504
 20
152.265361356605
 10
157.21003822040478
 20
152.26612672346977
 10
157.2143736754313
 20
152.2667755701674
 10
157.22086214240773
 20
152.26720911567003
 10
157.22851581105502
 20
152.26736135660502
 10
159.20851581105504
 20
152.26736135660502
 10
159.22851581105502
 20
152.26736135660502
 10
159.24851581105503
 20
152.26736135660502
 10
161.22851581105502
 20
152.26736135660502
 10
161.23616947970234
 20
152.26720911567003
 10
161.24265794667875
 20
152.2667755701674
 10
161.24699340170525
 20
152.26612672346977
 10
161.24851581105503
 20
152.265361356605
 10
161.24851581105503
 20
150.265361356605
 10
161.24699340170525
 20
150.2645959897403
 10
161.24265794667875
 20
150.26394714304263
 10
161.23616947970234
 20
150.26351359754
 10
161.22851581105502
 20
150.26336135660503
  0
LWPOLYLINE
  5
492
330
1F
100
AcDbEntity
  8
004_rigid
 67
0
100
AcDbPolyline
 90
26
 70
1
 10
46.24851581105474
 20
150.26336135660503
 10
46.228515811054734
 20
150.26336135660503
 10
46.20851581105474
 20
150.26336135660503
 10
44.228515811054734
 20
150.26336135660503
 10
44.220862142407434
 20
150.26351359754
 10
44.214373675431005
 20
150.26394714304263
 10
44.21003822040451
 20
150.2645959897403
 10
44.20851581105474
 20
150.265361356605
 10
44.20851581105474
 20
152.265361356605
 10
44.21003822040451
 20
152.26612672346977
 10
44.214373675431005
 20
152.2667755701674
 10
44.220862142407434
 20
152.26720911567003
 10
44.228515811054734
 20
152.26736135660502
 10
46.20851581105474
 20
152.26736135660502
 10
46.228515811054734
 20
152.26736135660502
 10
46.24851581105474
 20
152.26736135660502
 10
48.228515811054734
 20
152.26736135660502
 10
48.23616947970204
 20
152.26720911567003
 10
48.24265794667847
 20
152.2667755701674
 10
48.24699340170496
 20
152.26612672346977
 10
48.24851581105474
 20
152.265361356605
 10
48.24851581105474
 20
150.265361356605
 10
48.24699340170496
 20
150.2645959897403
 10
48.24265794667847
 20
150.26394714304263
 10
48.23616947970204
 20
150.26351359754
 10
48.228515811054734
 20
150.26336135660503
  0
LWPOLYLINE
  5
493
330
1F
100
AcDbEntity
  8
004_rigid
 67
0
100
AcDbPolyline
 90
26
 70
1
 10
-109.898911996874
 20
214.10581705359596
 10
-109.878911996874
 20
214.10581705359596
 10
-109.858911996874
 20
214.10581705359596
 10
-107.878911996874
 20
214.10581705359596
 10
-107.8712583282267
 20
214.1057409331285
 10
-107.86476986125028
 20
214.10552416037717
 10
-107.86043440622377
 20
214.10519973702833
 10
-107.858911996874
 20
214.10481705359598
 10
-107.858911996874
 20
213.10481705359598
 10
-107.86043440622377
 20
213.1044343701636
 10
-107.86476986125028
 20
213.1041099468148
 10
-107.8712583282267
 20
213.10389317406344
 10
-107.878911996874
 20
213.10381705359598
 10
-109.858911996874
 20
213.10381705359598
 10
-109.878911996874
 20
213.10381705359598
 10
-109.898911996874
 20
213.10381705359598
 10
-111.878911996874
 20
213.10381705359598
 10
-111.8865656655213
 20
213.10389317406344
 10
-111.89305413249772
 20
213.1041099468148
 10
-111.89738958752423
 20
213.1044343701636
 10
-111.898911996874
 20
213.10481705359598
 10
-111.898911996874
 20
214.10481705359598
 10
-111.89738958752423
 20
214.10519973702833
 10
-111.89305413249772
 20
214.10552416037717
 10
-111.8865656655213
 20
214.1057409331285
 10
-111.878911996874
 20
214.10581705359596
  0
LWPOLYLINE
  5
494
330
1F
100
AcDbEntity
  8
004_rigid
 67
0
100
AcDbPolyline
 90
26
 70
1
 10
-93.3086248397659
 20
181.259428946054
 10
-93.3286248397659
 20
181.259428946054
 10
-93.34862483976589
 20
181.259428946054
 10
-95.3286248397659
 20
181.259428946054
 10
-95.33627850841319
 20
181.25958118698898
 10
-95.34276697538962
 20
181.2600147324916
 10
-95.34710243041613
 20
181.26066357918924
 10
-95.34862483976589
 20
181.261428946054
 10
-95.34862483976589
 20
183.261428946054
 10
-95.34710243041611
 20
183.26219431291872
 10
-95.34276697538962
 20
183.26284315961638
 10
-95.33627850841319
 20
183.263276705119
 10
-95.3286248397659
 20
183.26342894605398
 10
-93.34862483976589
 20
183.26342894605398
 10
-93.3286248397659
 20
183.26342894605398
 10
-93.3086248397659
 20
183.26342894605398
 10
-91.3286248397659
 20
183.26342894605398
 10
-91.3209711711186
 20
183.263276705119
 10
-91.31448270414216
 20
183.26284315961638
 10
-91.31014724911566
 20
183.26219431291872
 10
-91.3086248397659
 20
183.261428946054
 10
-91.3086248397659
 20
181.261428946054
 10
-91.31014724911566
 20
181.26066357918924
 10
-91.31448270414216
 20
181.2600147324916
 10
-91.3209711711186
 20
181.25958118698898
 10
-91.3286248397659
 20
181.259428946054
  0
LWPOLYLINE
  5
495
330
1F
100
AcDbEntity
  8
004_rigid
 67
0
100
AcDbPolyline
 90
26
 70
1
 10
143.1010880031263
 20
214.10581705359596
 10
143.1210880031263
 20
214.10581705359596
 10
143.1410880031263
 20
214.10581705359596
 10
145.1210880031263
 20
214.10581705359596
 10
145.1287416717736
 20
214.1057409331285
 10
145.13523013875002
 20
214.10552416037717
 10
145.13956559377652
 20
214.10519973702833
 10
145.1410880031263
 20
214.10481705359598
 10
145.1410880031263
 20
213.10481705359598
 10
145.13956559377652
 20
213.1044343701636
 10
145.13523013875002
 20
213.1041099468148
 10
145.1287416717736
 20
213.10389317406344
 10
145.1210880031263
 20
213.10381705359598
 10
143.1410880031263
 20
213.10381705359598
 10
143.1210880031263
 20
213.10381705359598
 10
143.1010880031263
 20
213.10381705359598
 10
141.1210880031263
 20
213.10381705359598
 10
141.113434334479
 20
213.10389317406344
 10
141.10694586750256
 20
213.1041099468148
 10
141.10261041247605
 20
213.1044343701636
 10
141.1010880031263
 20
213.10481705359598
 10
141.1010880031263
 20
214.10481705359598
 10
141.10261041247605
 20
214.10519973702833
 10
141.10694586750256
 20
214.10552416037717
 10
141.113434334479
 20
214.1057409331285
 10
141.1210880031263
 20
214.10581705359596
  0
LWPOLYLINE
  5
496
330
1F
100
AcDbEntity
  8
004_rigid
 67
0
100
AcDbPolyline
 90
26
 70
1
 10
10.141088003126299
 20
213.10381705359598
 10
10.1210880031263
 20
213.10381705359598
 10
10.101088003126298
 20
213.10381705359598
 10
8.1210880031263
 20
213.10381705359598
 10
8.113434334478997
 20
213.10389317406344
 10
8.106945867502569
 20
213.1041099468148
 10
8.102610412476073
 20
213.1044343701636
 10
8.101088003126298
 20
213.10481705359598
 10
8.101088003126298
 20
214.10481705359598
 10
8.102610412476073
 20
214.10519973702833
 10
8.106945867502569
 20
214.10552416037717
 10
8.113434334478997
 20
214.1057409331285
 10
8.1210880031263
 20
214.10581705359596
 10
10.101088003126298
 20
214.10581705359596
 10
10.1210880031263
 20
214.10581705359596
 10
10.141088003126299
 20
214.10581705359596
 10
12.1210880031263
 20
214.10581705359596
 10
12.128741671773602
 20
214.1057409331285
 10
12.13523013875003
 20
214.10552416037717
 10
12.139565593776524
 20
214.10519973702833
 10
12.141088003126299
 20
214.10481705359598
 10
12.141088003126299
 20
213.10481705359598
 10
12.139565593776524
 20
213.1044343701636
 10
12.13523013875003
 20
213.1041099468148
 10
12.128741671773602
 20
213.10389317406344
 10
12.1210880031263
 20
213.10381705359598
  0
LWPOLYLINE
  5
497
330
1F
100
AcDbEntity
  8
004_rigid
 67
0
100
AcDbPolyline
 90
26
 70
1
 10
23.141088003126306
 20
213.10381705359598
 10
23.121088003126303
 20
213.10381705359598
 10
23.101088003126304
 20
213.10381705359598
 10
21.121088003126303
 20
213.10381705359598
 10
21.113434334479003
 20
213.10389317406344
 10
21.106945867502574
 20
213.1041099468148
 10
21.10261041247608
 20
213.1044343701636
 10
21.101088003126304
 20
213.10481705359598
 10
21.101088003126304
 20
214.10481705359598
 10
21.10261041247608
 20
214.10519973702833
 10
21.106945867502574
 20
214.10552416037717
 10
21.113434334479003
 20
214.1057409331285
 10
21.121088003126303
 20
214.10581705359596
 10
23.101088003126304
 20
214.10581705359596
 10
23.121088003126303
 20
214.10581705359596
 10
23.141088003126306
 20
214.10581705359596
 10
25.121088003126303
 20
214.10581705359596
 10
25.128741671773607
 20
214.1057409331285
 10
25.135230138750035
 20
214.10552416037717
 10
25.13956559377653
 20
214.10519973702833
 10
25.141088003126306
 20
214.10481705359598
 10
25.141088003126306
 20
213.10481705359598
 10
25.13956559377653
 20
213.1044343701636
 10
25.135230138750035
 20
213.1041099468148
 10
25.128741671773607
 20
213.10389317406344
 10
25.121088003126303
 20
213.10381705359598
  0
LWPOLYLINE
  5
498
330
1F
100
AcDbEntity
  8
004_rigid
 67
0
100
AcDbPolyline
 90
26
 70
1
 10
39.6513751602341
 20
183.26342894605398
 10
39.6713751602341
 20
183.26342894605398
 10
39.6913751602341
 20
183.26342894605398
 10
41.6713751602341
 20
183.26342894605398
 10
41.67902882888141
 20
183.263276705119
 10
41.685517295857835
 20
183.26284315961638
 10
41.68985275088433
 20
183.26219431291872
 10
41.6913751602341
 20
183.261428946054
 10
41.6913751602341
 20
181.261428946054
 10
41.68985275088433
 20
181.26066357918924
 10
41.685517295857835
 20
181.2600147324916
 10
41.67902882888141
 20
181.25958118698898
 10
41.6713751602341
 20
181.259428946054
 10
39.6913751602341
 20
181.259428946054
 10
39.6713751602341
 20
181.259428946054
 10
39.6513751602341
 20
181.259428946054
 10
37.6713751602341
 20
181.259428946054
 10
37.6637214915868
 20
181.25958118698898
 10
37.65723302461037
 20
181.2600147324916
 10
37.65289756958388
 20
181.26066357918924
 10
37.6513751602341
 20
181.261428946054
 10
37.6513751602341
 20
183.261428946054
 10
37.65289756958388
 20
183.26219431291872
 10
37.65723302461037
 20
183.26284315961638
 10
37.6637214915868
 20
183.263276705119
 10
37.6713751602341
 20
183.26342894605398
  0
LWPOLYLINE
  5
499
330
1F
100
AcDbEntity
  8
004_rigid
 67
0
100
AcDbPolyline
 90
26
 70
1
 10
26.6513751602341
 20
183.26342894605398
 10
26.6713751602341
 20
183.26342894605398
 10
26.6913751602341
 20
183.26342894605398
 10
28.6713751602341
 20
183.26342894605398
 10
28.6790288288814
 20
183.263276705119
 10
28.68551729585783
 20
183.26284315961638
 10
28.689852750884327
 20
183.26219431291872
 10
28.6913751602341
 20
183.261428946054
 10
28.6913751602341
 20
181.261428946054
 10
28.689852750884327
 20
181.26066357918924
 10
28.68551729585783
 20
181.2600147324916
 10
28.6790288288814
 20
181.25958118698898
 10
28.6713751602341
 20
181.259428946054
 10
26.6913751602341
 20
181.259428946054
 10
26.6713751602341
 20
181.259428946054
 10
26.6513751602341
 20
181.259428946054
 10
24.6713751602341
 20
181.259428946054
 10
24.6637214915868
 20
181.25958118698898
 10
24.65723302461037
 20
181.2600147324916
 10
24.652897569583875
 20
181.26066357918924
 10
24.6513751602341
 20
181.261428946054
 10
24.6513751602341
 20
183.261428946054
 10
24.652897569583875
 20
183.26219431291872
 10
24.65723302461037
 20
183.26284315961638
 10
24.6637214915868
 20
183.263276705119
 10
24.6713751602341
 20
183.26342894605398
  0
LWPOLYLINE
  5
49A
330
1F
100
AcDbEntity
  8
004_rigid
 67
0
100
AcDbPolyline
 90
26
 70
1
 10
-1.24102795461604
 20
-29.9469077222743
 10
-1.22102795461604
 20
-29.9469077222743
 10
-1.20102795461604
 20
-29.9469077222743
 10
0.77897204538396
 20
-29.9469077222743
 10
0.7866257140312619
 20
-29.947059963209277
 10
0.793114181007691
 20
-29.947493508711926
 10
0.7974496360341857
 20
-29.948142355409573
 10
0.79897204538396
 20
-29.9489077222743
 10
0.7989720453839603
 20
-31.9489077222743
 10
0.797449636034186
 20
-31.949673089139033
 10
0.793114181007691
 20
-31.950321935836673
 10
0.7866257140312621
 20
-31.95075548133932
 10
0.7789720453839603
 20
-31.9509077222743
 10
-1.2010279546160398
 20
-31.9509077222743
 10
-1.2210279546160399
 20
-31.9509077222743
 10
-1.2410279546160399
 20
-31.9509077222743
 10
-3.22102795461604
 20
-31.9509077222743
 10
-3.2286816232633417
 20
-31.95075548133932
 10
-3.235170090239771
 20
-31.950321935836673
 10
-3.2395055452662653
 20
-31.949673089139033
 10
-3.24102795461604
 20
-31.9489077222743
 10
-3.24102795461604
 20
-29.9489077222743
 10
-3.2395055452662653
 20
-29.948142355409573
 10
-3.2351700902397713
 20
-29.947493508711926
 10
-3.2286816232633417
 20
-29.947059963209277
 10
-3.22102795461604
 20
-29.9469077222743
  0
LWPOLYLINE
  5
49B
330
1F
100
AcDbEntity
  8
004_rigid
 67
0
100
AcDbPolyline
 90
26
 70
1
 10
31.758972045383977
 20
-29.9469077222743
 10
31.778972045383977
 20
-29.9469077222743
 10
31.798972045383977
 20
-29.9469077222743
 10
33.77897204538398
 20
-29.9469077222743
 10
33.78662571403128
 20
-29.947059963209277
 10
33.79311418100771
 20
-29.947493508711926
 10
33.7974496360342
 20
-29.948142355409573
 10
33.79897204538398
 20
-29.9489077222743
 10
33.79897204538398
 20
-31.9489077222743
 10
33.7974496360342
 20
-31.949673089139033
 10
33.79311418100771
 20
-31.950321935836673
 10
33.78662571403128
 20
-31.95075548133932
 10
33.77897204538398
 20
-31.9509077222743
 10
31.798972045383977
 20
-31.9509077222743
 10
31.778972045383977
 20
-31.9509077222743
 10
31.758972045383977
 20
-31.9509077222743
 10
29.778972045383977
 20
-31.9509077222743
 10
29.771318376736676
 20
-31.95075548133932
 10
29.76482990976025
 20
-31.950321935836673
 10
29.760494454733752
 20
-31.949673089139033
 10
29.758972045383977
 20
-31.9489077222743
 10
29.758972045383977
 20
-29.9489077222743
 10
29.760494454733752
 20
-29.948142355409573
 10
29.76482990976025
 20
-29.947493508711926
 10
29.771318376736676
 20
-29.947059963209277
 10
29.778972045383977
 20
-29.9469077222743
  0
LWPOLYLINE
  5
49C
330
1F
100
AcDbEntity
  8
004_rigid
 67
0
100
AcDbPolyline
 90
26
 70
1
 10
8.798972045383962
 20
-31.9509077222743
 10
8.778972045383963
 20
-31.9509077222743
 10
8.758972045383961
 20
-31.9509077222743
 10
6.778972045383962
 20
-31.9509077222743
 10
6.7713183767366605
 20
-31.95075548133932
 10
6.764829909760231
 20
-31.950321935836673
 10
6.7604944547337364
 20
-31.94967308913903
 10
6.758972045383962
 20
-31.9489077222743
 10
6.758972045383962
 20
-29.9489077222743
 10
6.7604944547337364
 20
-29.94814235540957
 10
6.764829909760231
 20
-29.947493508711926
 10
6.771318376736661
 20
-29.947059963209277
 10
6.778972045383962
 20
-29.9469077222743
 10
8.758972045383961
 20
-29.9469077222743
 10
8.778972045383963
 20
-29.9469077222743
 10
8.798972045383962
 20
-29.9469077222743
 10
10.778972045383963
 20
-29.9469077222743
 10
10.786625714031265
 20
-29.947059963209277
 10
10.793114181007693
 20
-29.947493508711926
 10
10.797449636034187
 20
-29.94814235540957
 10
10.798972045383962
 20
-29.9489077222743
 10
10.798972045383962
 20
-31.9489077222743
 10
10.797449636034187
 20
-31.94967308913903
 10
10.793114181007693
 20
-31.950321935836673
 10
10.786625714031265
 20
-31.95075548133932
 10
10.778972045383963
 20
-31.9509077222743
  0
LWPOLYLINE
  5
49D
330
1F
100
AcDbEntity
  8
004_rigid
 67
0
100
AcDbPolyline
 90
26
 70
1
 10
21.79897204538397
 20
-31.9509077222743
 10
21.77897204538397
 20
-31.9509077222743
 10
21.75897204538397
 20
-31.9509077222743
 10
19.77897204538397
 20
-31.9509077222743
 10
19.77131837673667
 20
-31.95075548133932
 10
19.76482990976024
 20
-31.950321935836673
 10
19.760494454733745
 20
-31.94967308913903
 10
19.75897204538397
 20
-31.9489077222743
 10
19.75897204538397
 20
-29.9489077222743
 10
19.760494454733745
 20
-29.94814235540957
 10
19.76482990976024
 20
-29.947493508711926
 10
19.77131837673667
 20
-29.947059963209277
 10
19.77897204538397
 20
-29.9469077222743
 10
21.75897204538397
 20
-29.9469077222743
 10
21.77897204538397
 20
-29.9469077222743
 10
21.79897204538397
 20
-29.9469077222743
 10
23.77897204538397
 20
-29.9469077222743
 10
23.78662571403127
 20
-29.947059963209277
 10
23.7931141810077
 20
-29.947493508711926
 10
23.797449636034194
 20
-29.94814235540957
 10
23.79897204538397
 20
-29.9489077222743
 10
23.79897204538397
 20
-31.9489077222743
 10
23.797449636034194
 20
-31.94967308913903
 10
23.7931141810077
 20
-31.950321935836673
 10
23.78662571403127
 20
-31.95075548133932
 10
23.77897204538397
 20
-31.9509077222743
  0
LWPOLYLINE
  5
49E
330
1F
100
AcDbEntity
  8
004_rigid
 67
0
100
AcDbPolyline
 90
26
 70
1
 10
67.57323266456609
 20
-15.037373787053701
 10
67.5532326645661
 20
-15.037373787053701
 10
67.5332326645661
 20
-15.037373787053701
 10
65.5532326645661
 20
-15.037373787053701
 10
65.5455789959188
 20
-15.037343338866705
 10
65.53909052894237
 20
-15.037256629766174
 10
65.53475507391587
 20
-15.037126860426646
 10
65.5332326645661
 20
-15.036973787053702
 10
65.5332326645661
 20
-14.6369737870537
 10
65.53475507391587
 20
-14.636820713680754
 10
65.53909052894237
 20
-14.636690944341225
 10
65.5455789959188
 20
-14.636604235240695
 10
65.5532326645661
 20
-14.6365737870537
 10
67.5332326645661
 20
-14.6365737870537
 10
67.5532326645661
 20
-14.6365737870537
 10
67.57323266456609
 20
-14.6365737870537
 10
69.5532326645661
 20
-14.6365737870537
 10
69.56088633321339
 20
-14.636604235240695
 10
69.56737480018982
 20
-14.636690944341225
 10
69.57171025521633
 20
-14.636820713680754
 10
69.57323266456609
 20
-14.6369737870537
 10
69.57323266456609
 20
-15.036973787053702
 10
69.57171025521633
 20
-15.037126860426646
 10
69.56737480018982
 20
-15.037256629766176
 10
69.56088633321339
 20
-15.037343338866705
 10
69.5532326645661
 20
-15.037373787053701
  0
LWPOLYLINE
  5
49F
330
1F
100
AcDbEntity
  8
004_rigid
 67
0
100
AcDbPolyline
 90
26
 70
1
 10
120.573232664566
 20
-15.037373787053701
 10
120.55323266456601
 20
-15.037373787053701
 10
120.53323266456601
 20
-15.037373787053701
 10
118.55323266456601
 20
-15.037373787053701
 10
118.54557899591872
 20
-15.037343338866705
 10
118.53909052894228
 20
-15.037256629766174
 10
118.53475507391578
 20
-15.037126860426646
 10
118.53323266456601
 20
-15.036973787053702
 10
118.53323266456601
 20
-14.6369737870537
 10
118.53475507391578
 20
-14.636820713680754
 10
118.53909052894228
 20
-14.636690944341225
 10
118.54557899591872
 20
-14.636604235240695
 10
118.55323266456601
 20
-14.6365737870537
 10
120.53323266456601
 20
-14.6365737870537
 10
120.55323266456601
 20
-14.6365737870537
 10
120.573232664566
 20
-14.6365737870537
 10
122.55323266456601
 20
-14.6365737870537
 10
122.5608863332133
 20
-14.636604235240695
 10
122.56737480018974
 20
-14.636690944341225
 10
122.57171025521625
 20
-14.636820713680754
 10
122.573232664566
 20
-14.6369737870537
 10
122.573232664566
 20
-15.036973787053702
 10
122.57171025521625
 20
-15.037126860426646
 10
122.56737480018974
 20
-15.037256629766176
 10
122.5608863332133
 20
-15.037343338866705
 10
122.55323266456601
 20
-15.037373787053701
  0
LWPOLYLINE
  5
4A0
330
1F
100
AcDbEntity
  8
004_rigid
 67
0
100
AcDbPolyline
 90
26
 70
1
 10
100.53323266456601
 20
-14.6365737870537
 10
100.55323266456601
 20
-14.6365737870537
 10
100.573232664566
 20
-14.6365737870537
 10
102.55323266456601
 20
-14.6365737870537
 10
102.5608863332133
 20
-14.636604235240695
 10
102.56737480018974
 20
-14.636690944341225
 10
102.57171025521625
 20
-14.636820713680754
 10
102.573232664566
 20
-14.6369737870537
 10
102.573232664566
 20
-15.0369737870537
 10
102.57171025521625
 20
-15.037126860426646
 10
102.56737480018974
 20
-15.037256629766174
 10
102.5608863332133
 20
-15.037343338866703
 10
102.55323266456601
 20
-15.037373787053701
 10
100.573232664566
 20
-15.037373787053701
 10
100.55323266456601
 20
-15.037373787053701
 10
100.53323266456601
 20
-15.037373787053701
 10
98.55323266456601
 20
-15.037373787053701
 10
98.54557899591872
 20
-15.037343338866705
 10
98.53909052894228
 20
-15.037256629766176
 10
98.53475507391578
 20
-15.037126860426646
 10
98.53323266456601
 20
-15.036973787053702
 10
98.53323266456601
 20
-14.6369737870537
 10
98.53475507391578
 20
-14.636820713680754
 10
98.53909052894228
 20
-14.636690944341225
 10
98.54557899591872
 20
-14.636604235240695
 10
98.55323266456601
 20
-14.6365737870537
  0
LWPOLYLINE
  5
4A1
330
1F
100
AcDbEntity
  8
004_rigid
 67
0
100
AcDbPolyline
 90
26
 70
1
 10
87.5332326645661
 20
-14.6365737870537
 10
87.5532326645661
 20
-14.6365737870537
 10
87.57323266456609
 20
-14.6365737870537
 10
89.5532326645661
 20
-14.6365737870537
 10
89.56088633321339
 20
-14.636604235240695
 10
89.56737480018982
 20
-14.636690944341225
 10
89.57171025521633
 20
-14.636820713680754
 10
89.57323266456609
 20
-14.6369737870537
 10
89.57323266456609
 20
-15.0369737870537
 10
89.57171025521633
 20
-15.037126860426646
 10
89.56737480018982
 20
-15.037256629766174
 10
89.56088633321339
 20
-15.037343338866703
 10
89.5532326645661
 20
-15.037373787053701
 10
87.57323266456609
 20
-15.037373787053701
 10
87.5532326645661
 20
-15.037373787053701
 10
87.5332326645661
 20
-15.037373787053701
 10
85.5532326645661
 20
-15.037373787053701
 10
85.5455789959188
 20
-15.037343338866705
 10
85.53909052894237
 20
-15.037256629766176
 10
85.53475507391586
 20
-15.037126860426646
 10
85.5332326645661
 20
-15.036973787053702
 10
85.5332326645661
 20
-14.6369737870537
 10
85.53475507391586
 20
-14.636820713680754
 10
85.53909052894237
 20
-14.636690944341225
 10
85.5455789959188
 20
-14.636604235240695
 10
85.5532326645661
 20
-14.6365737870537
  0
LWPOLYLINE
  5
4A2
330
1F
100
AcDbEntity
  8
004_rigid
 67
0
100
AcDbPolyline
 90
26
 70
1
 10
5.537026572180201
 20
-0.7525192114125202
 10
5.5170265721802005
 20
-0.7525192114125202
 10
5.497026572180201
 20
-0.7525192114125202
 10
3.5170265721802005
 20
-0.7525192114125202
 10
3.509372903532899
 20
-0.7523669704775425
 10
3.50288443655647
 20
-0.7519334249748936
 10
3.498548981529975
 20
-0.7512845782772506
 10
3.497026572180201
 20
-0.7505192114125202
 10
3.4970265721802014
 20
1.2494807885874797
 10
3.498548981529975
 20
1.2502461554522106
 10
3.50288443655647
 20
1.250895002149853
 10
3.5093729035328995
 20
1.2513285476525025
 10
3.517026572180201
 20
1.2514807885874797
 10
5.497026572180201
 20
1.2514807885874797
 10
5.5170265721802005
 20
1.2514807885874797
 10
5.537026572180201
 20
1.2514807885874797
 10
7.5170265721802005
 20
1.2514807885874797
 10
7.524680240827504
 20
1.2513285476525025
 10
7.531168707803932
 20
1.250895002149853
 10
7.535504162830427
 20
1.2502461554522106
 10
7.537026572180201
 20
1.2494807885874797
 10
7.537026572180201
 20
-0.7505192114125202
 10
7.535504162830426
 20
-0.7512845782772506
 10
7.531168707803932
 20
-0.7519334249748936
 10
7.524680240827503
 20
-0.7523669704775425
 10
7.5170265721802005
 20
-0.7525192114125202
  0
LWPOLYLINE
  5
4A3
330
1F
100
AcDbEntity
  8
004_rigid
 67
0
100
AcDbPolyline
 90
26
 70
1
 10
58.4970265721802
 20
1.2514807885874797
 10
58.5170265721802
 20
1.2514807885874797
 10
58.5370265721802
 20
1.2514807885874797
 10
60.5170265721802
 20
1.2514807885874797
 10
60.52468024082751
 20
1.251328547652502
 10
60.531168707803936
 20
1.250895002149853
 10
60.53550416283043
 20
1.2502461554522102
 10
60.5370265721802
 20
1.2494807885874797
 10
60.5370265721802
 20
-0.7505192114125202
 10
60.53550416283043
 20
-0.751284578277251
 10
60.531168707803936
 20
-0.7519334249748936
 10
60.52468024082751
 20
-0.752366970477543
 10
60.5170265721802
 20
-0.7525192114125202
 10
58.5370265721802
 20
-0.7525192114125202
 10
58.5170265721802
 20
-0.7525192114125202
 10
58.4970265721802
 20
-0.7525192114125202
 10
56.5170265721802
 20
-0.7525192114125202
 10
56.50937290353289
 20
-0.752366970477543
 10
56.502884436556464
 20
-0.7519334249748936
 10
56.49854898152997
 20
-0.751284578277251
 10
56.4970265721802
 20
-0.7505192114125202
 10
56.4970265721802
 20
1.2494807885874797
 10
56.49854898152997
 20
1.2502461554522102
 10
56.502884436556464
 20
1.250895002149853
 10
56.50937290353289
 20
1.251328547652502
 10
56.5170265721802
 20
1.2514807885874797
  0
LWPOLYLINE
  5
4A4
330
1F
100
AcDbEntity
  8
004_rigid
 67
0
100
AcDbPolyline
 90
26
 70
1
 10
25.5370265721802
 20
-0.7525192114125202
 10
25.5170265721802
 20
-0.7525192114125202
 10
25.4970265721802
 20
-0.7525192114125202
 10
23.5170265721802
 20
-0.7525192114125202
 10
23.5093729035329
 20
-0.7523669704775425
 10
23.50288443655647
 20
-0.7519334249748936
 10
23.498548981529975
 20
-0.7512845782772506
 10
23.4970265721802
 20
-0.7505192114125202
 10
23.4970265721802
 20
1.2494807885874797
 10
23.498548981529975
 20
1.2502461554522106
 10
23.50288443655647
 20
1.250895002149853
 10
23.5093729035329
 20
1.2513285476525025
 10
23.5170265721802
 20
1.2514807885874797
 10
25.4970265721802
 20
1.2514807885874797
 10
25.5170265721802
 20
1.2514807885874797
 10
25.5370265721802
 20
1.2514807885874797
 10
27.5170265721802
 20
1.2514807885874797
 10
27.5246802408275
 20
1.2513285476525025
 10
27.53116870780393
 20
1.250895002149853
 10
27.535504162830424
 20
1.2502461554522106
 10
27.5370265721802
 20
1.2494807885874797
 10
27.5370265721802
 20
-0.7505192114125202
 10
27.535504162830424
 20
-0.7512845782772506
 10
27.53116870780393
 20
-0.7519334249748936
 10
27.5246802408275
 20
-0.7523669704775425
 10
27.5170265721802
 20
-0.7525192114125202
  0
LWPOLYLINE
  5
4A5
330
1F
100
AcDbEntity
  8
004_rigid
 67
0
100
AcDbPolyline
 90
26
 70
1
 10
38.537026572180196
 20
-0.7525192114125202
 10
38.51702657218019
 20
-0.7525192114125202
 10
38.49702657218019
 20
-0.7525192114125202
 10
36.51702657218019
 20
-0.7525192114125202
 10
36.509372903532885
 20
-0.7523669704775425
 10
36.50288443655646
 20
-0.7519334249748936
 10
36.498548981529964
 20
-0.7512845782772506
 10
36.49702657218019
 20
-0.7505192114125202
 10
36.49702657218019
 20
1.2494807885874797
 10
36.498548981529964
 20
1.2502461554522106
 10
36.50288443655646
 20
1.250895002149853
 10
36.509372903532885
 20
1.2513285476525025
 10
36.51702657218019
 20
1.2514807885874797
 10
38.49702657218019
 20
1.2514807885874797
 10
38.51702657218019
 20
1.2514807885874797
 10
38.537026572180196
 20
1.2514807885874797
 10
40.51702657218019
 20
1.2514807885874797
 10
40.5246802408275
 20
1.2513285476525025
 10
40.53116870780393
 20
1.250895002149853
 10
40.53550416283042
 20
1.2502461554522106
 10
40.537026572180196
 20
1.2494807885874797
 10
40.537026572180196
 20
-0.7505192114125202
 10
40.53550416283042
 20
-0.7512845782772506
 10
40.53116870780393
 20
-0.7519334249748936
 10
40.5246802408275
 20
-0.7523669704775425
 10
40.51702657218019
 20
-0.7525192114125202
  0
LWPOLYLINE
  5
4A6
330
1F
100
AcDbEntity
  8
004_rigid
 67
0
100
AcDbPolyline
 90
26
 70
1
 10
152.34062383562002
 20
16.163261781902698
 10
152.36062383562
 20
16.163261781902698
 10
152.38062383562
 20
16.163261781902698
 10
154.36062383562
 20
16.163261781902698
 10
154.36827750426733
 20
16.16318566143521
 10
154.37476597124373
 20
16.162968888683885
 10
154.37910142627024
 20
16.162644465335063
 10
154.38062383562
 20
16.162261781902696
 10
154.38062383562
 20
15.162261781902696
 10
154.37910142627024
 20
15.161879098470331
 10
154.37476597124373
 20
15.161554675121511
 10
154.36827750426733
 20
15.161337902370185
 10
154.36062383562
 20
15.161261781902697
 10
152.38062383562
 20
15.161261781902697
 10
152.36062383562
 20
15.161261781902697
 10
152.34062383562002
 20
15.161261781902697
 10
150.36062383562
 20
15.161261781902697
 10
150.35297016697268
 20
15.161337902370185
 10
150.34648169999627
 20
15.161554675121511
 10
150.34214624496977
 20
15.161879098470331
 10
150.34062383562002
 20
15.162261781902696
 10
150.34062383562002
 20
16.162261781902696
 10
150.34214624496977
 20
16.162644465335063
 10
150.34648169999627
 20
16.162968888683885
 10
150.35297016697268
 20
16.163185661435207
 10
150.36062383562
 20
16.163261781902698
  0
LWPOLYLINE
  5
4A7
330
1F
100
AcDbEntity
  8
004_rigid
 67
0
100
AcDbPolyline
 90
24
 70
1
 10
-72.70475503798704
 20
25.995345224413942
 10
-72.71889717361077
 20
26.00948736003767
 10
-74.13311073598392
 20
27.423700922410703
 10
-74.13846887168664
 20
27.429166708710916
 10
-74.14290362920273
 20
27.43390802919189
 10
-74.14573985690159
 20
27.43720306079058
 10
-74.14654576482647
 20
27.43855016481562
 10
-73.43943898363999
 20
28.145656946002163
 10
-73.43809187961494
 20
28.14485103807727
 10
-73.43479684801625
 20
28.14201481037843
 10
-73.43005552753529
 20
28.137580052862333
 10
-73.42458974123508
 20
28.13222191715962
 10
-72.01037617886192
 20
26.718008354786587
 10
-71.99623404323818
 20
26.703866219162858
 10
-70.59616261648875
 20
25.30379479241355
 10
-70.59080448078605
 20
25.298329006113345
 10
-70.58636972326995
 20
25.293587685632367
 10
-70.5835334955711
 20
25.290292654033678
 10
-70.5827275876462
 20
25.28894555000864
 10
-71.28983436883269
 20
24.581838768822102
 10
-71.29118147285773
 20
24.58264467674699
 10
-71.29447650445643
 20
24.585480904445824
 10
-71.2992178249374
 20
24.589915661961925
 10
-71.3046836112376
 20
24.59527379766464
  0
LWPOLYLINE
  5
4A8
330
1F
100
AcDbEntity
  8
004_rigid
 67
0
100
AcDbPolyline
 90
26
 70
1
 10
51.221797751356206
 20
28.501617399523802
 10
51.20179775135621
 20
28.501617399523802
 10
51.18179775135621
 20
28.501617399523802
 10
49.20179775135621
 20
28.501617399523802
 10
49.1941440827089
 20
28.50176964045878
 10
49.187655615732474
 20
28.50220318596143
 10
49.18332016070598
 20
28.50285203265907
 10
49.18179775135621
 20
28.503617399523804
 10
49.18179775135621
 20
30.5036173995238
 10
49.18332016070598
 20
30.50438276638853
 10
49.187655615732474
 20
30.505031613086175
 10
49.1941440827089
 20
30.50546515858882
 10
49.20179775135621
 20
30.5056173995238
 10
51.18179775135621
 20
30.5056173995238
 10
51.20179775135621
 20
30.5056173995238
 10
51.221797751356206
 20
30.5056173995238
 10
53.20179775135621
 20
30.5056173995238
 10
53.20945142000351
 20
30.50546515858882
 10
53.21593988697994
 20
30.505031613086175
 10
53.22027534200643
 20
30.50438276638853
 10
53.221797751356206
 20
30.5036173995238
 10
53.221797751356206
 20
28.503617399523804
 10
53.22027534200643
 20
28.50285203265907
 10
53.21593988697994
 20
28.50220318596143
 10
53.20945142000351
 20
28.50176964045878
 10
53.20179775135621
 20
28.501617399523802
  0
LWPOLYLINE
  5
4A9
330
1F
100
AcDbEntity
  8
004_rigid
 67
0
100
AcDbPolyline
 90
26
 70
1
 10
-21.818202248643804
 20
30.5056173995238
 10
-21.798202248643804
 20
30.5056173995238
 10
-21.778202248643804
 20
30.5056173995238
 10
-19.798202248643804
 20
30.5056173995238
 10
-19.790548579996504
 20
30.505465158588823
 10
-19.784060113020075
 20
30.50503161308617
 10
-19.77972465799358
 20
30.50438276638853
 10
-19.778202248643804
 20
30.5036173995238
 10
-19.778202248643804
 20
28.5036173995238
 10
-19.77972465799358
 20
28.50285203265907
 10
-19.784060113020075
 20
28.50220318596143
 10
-19.790548579996504
 20
28.50176964045878
 10
-19.798202248643804
 20
28.5016173995238
 10
-21.778202248643804
 20
28.5016173995238
 10
-21.798202248643804
 20
28.5016173995238
 10
-21.818202248643804
 20
28.5016173995238
 10
-23.798202248643804
 20
28.5016173995238
 10
-23.805855917291105
 20
28.50176964045878
 10
-23.812344384267533
 20
28.50220318596143
 10
-23.81667983929403
 20
28.50285203265907
 10
-23.818202248643804
 20
28.5036173995238
 10
-23.818202248643804
 20
30.5036173995238
 10
-23.81667983929403
 20
30.50438276638853
 10
-23.812344384267533
 20
30.50503161308617
 10
-23.805855917291105
 20
30.505465158588823
 10
-23.798202248643804
 20
30.5056173995238
  0
LWPOLYLINE
  5
4AA
330
1F
100
AcDbEntity
  8
004_rigid
 67
0
100
AcDbPolyline
 90
26
 70
1
 10
21.1817977513562
 20
30.5056173995238
 10
21.2017977513562
 20
30.5056173995238
 10
21.2217977513562
 20
30.5056173995238
 10
23.2017977513562
 20
30.5056173995238
 10
23.2094514200035
 20
30.505465158588823
 10
23.215939886979932
 20
30.50503161308617
 10
23.220275342006428
 20
30.50438276638853
 10
23.2217977513562
 20
30.5036173995238
 10
23.2217977513562
 20
28.5036173995238
 10
23.220275342006428
 20
28.50285203265907
 10
23.215939886979932
 20
28.50220318596143
 10
23.2094514200035
 20
28.50176964045878
 10
23.2017977513562
 20
28.5016173995238
 10
21.2217977513562
 20
28.5016173995238
 10
21.2017977513562
 20
28.5016173995238
 10
21.1817977513562
 20
28.5016173995238
 10
19.2017977513562
 20
28.5016173995238
 10
19.1941440827089
 20
28.50176964045878
 10
19.18765561573247
 20
28.50220318596143
 10
19.183320160705975
 20
28.50285203265907
 10
19.1817977513562
 20
28.5036173995238
 10
19.1817977513562
 20
30.5036173995238
 10
19.183320160705975
 20
30.50438276638853
 10
19.18765561573247
 20
30.50503161308617
 10
19.1941440827089
 20
30.505465158588823
 10
19.2017977513562
 20
30.5056173995238
  0
LWPOLYLINE
  5
4AB
330
1F
100
AcDbEntity
  8
004_rigid
 67
0
100
AcDbPolyline
 90
26
 70
1
 10
8.221797751356188
 20
28.501617399523802
 10
8.201797751356189
 20
28.501617399523802
 10
8.18179775135619
 20
28.501617399523802
 10
6.201797751356189
 20
28.501617399523802
 10
6.194144082708887
 20
28.50176964045878
 10
6.187655615732458
 20
28.50220318596143
 10
6.183320160705963
 20
28.50285203265907
 10
6.181797751356189
 20
28.503617399523804
 10
6.181797751356189
 20
30.5036173995238
 10
6.183320160705963
 20
30.50438276638853
 10
6.187655615732458
 20
30.505031613086175
 10
6.194144082708888
 20
30.50546515858882
 10
6.201797751356189
 20
30.5056173995238
 10
8.18179775135619
 20
30.5056173995238
 10
8.201797751356189
 20
30.5056173995238
 10
8.221797751356188
 20
30.5056173995238
 10
10.201797751356189
 20
30.5056173995238
 10
10.209451420003493
 20
30.50546515858882
 10
10.215939886979921
 20
30.505031613086175
 10
10.220275342006415
 20
30.50438276638853
 10
10.22179775135619
 20
30.5036173995238
 10
10.22179775135619
 20
28.503617399523804
 10
10.220275342006415
 20
28.50285203265907
 10
10.215939886979921
 20
28.50220318596143
 10
10.209451420003493
 20
28.50176964045878
 10
10.201797751356189
 20
28.501617399523802
  0
LWPOLYLINE
  5
4AC
330
1F
100
AcDbEntity
  8
004_rigid
 67
0
100
AcDbPolyline
 90
26
 70
1
 10
206.65778053589298
 20
44.7911540347607
 10
206.677780535893
 20
44.7911540347607
 10
206.697780535893
 20
44.7911540347607
 10
208.677780535893
 20
44.7911540347607
 10
208.68543420454031
 20
44.79107791429321
 10
208.69192267151672
 20
44.79086114154189
 10
208.69625812654323
 20
44.79053671819307
 10
208.697780535893
 20
44.790154034760704
 10
208.697780535893
 20
43.7901540347607
 10
208.69625812654323
 20
43.78977135132833
 10
208.69192267151672
 20
43.78944692797951
 10
208.68543420454031
 20
43.78923015522819
 10
208.677780535893
 20
43.78915403476069
 10
206.697780535893
 20
43.78915403476069
 10
206.677780535893
 20
43.78915403476069
 10
206.65778053589298
 20
43.78915403476069
 10
204.677780535893
 20
43.78915403476069
 10
204.67012686724567
 20
43.78923015522819
 10
204.66363840026926
 20
43.78944692797951
 10
204.65930294524276
 20
43.78977135132833
 10
204.65778053589298
 20
43.7901540347607
 10
204.65778053589298
 20
44.790154034760704
 10
204.65930294524276
 20
44.79053671819307
 10
204.66363840026926
 20
44.79086114154189
 10
204.67012686724567
 20
44.79107791429321
 10
204.677780535893
 20
44.7911540347607
  0
LWPOLYLINE
  5
4AD
330
1F
100
AcDbEntity
  8
004_rigid
 67
0
100
AcDbPolyline
 90
26
 70
1
 10
156.69778053589303
 20
43.78915403476069
 10
156.67778053589302
 20
43.78915403476069
 10
156.657780535893
 20
43.78915403476069
 10
154.67778053589302
 20
43.78915403476069
 10
154.6701268672457
 20
43.78923015522819
 10
154.6636384002693
 20
43.78944692797951
 10
154.65930294524279
 20
43.78977135132833
 10
154.657780535893
 20
43.7901540347607
 10
154.657780535893
 20
44.790154034760704
 10
154.65930294524279
 20
44.79053671819307
 10
154.6636384002693
 20
44.79086114154189
 10
154.6701268672457
 20
44.79107791429321
 10
154.67778053589302
 20
44.7911540347607
 10
156.657780535893
 20
44.7911540347607
 10
156.67778053589302
 20
44.7911540347607
 10
156.69778053589303
 20
44.7911540347607
 10
158.67778053589302
 20
44.7911540347607
 10
158.68543420454034
 20
44.79107791429321
 10
158.69192267151675
 20
44.79086114154189
 10
158.69625812654326
 20
44.79053671819307
 10
158.69778053589303
 20
44.790154034760704
 10
158.69778053589303
 20
43.7901540347607
 10
158.69625812654326
 20
43.78977135132833
 10
158.69192267151675
 20
43.78944692797951
 10
158.68543420454034
 20
43.78923015522819
 10
158.67778053589302
 20
43.78915403476069
  0
LWPOLYLINE
  5
4AE
330
1F
100
AcDbEntity
  8
004_rigid
 67
0
100
AcDbPolyline
 90
26
 70
1
 10
-25.040147721847582
 20
58.3112395134967
 10
-25.06014772184758
 20
58.3112395134967
 10
-25.08014772184758
 20
58.3112395134967
 10
-27.06014772184758
 20
58.3112395134967
 10
-27.067801390494882
 20
58.31139175443168
 10
-27.07428985747131
 20
58.31182529993433
 10
-27.078625312497806
 20
58.31247414663197
 10
-27.08014772184758
 20
58.313239513496704
 10
-27.08014772184758
 20
60.3132395134967
 10
-27.078625312497806
 20
60.31400488036143
 10
-27.07428985747131
 20
60.314653727059074
 10
-27.067801390494882
 20
60.315087272561726
 10
-27.06014772184758
 20
60.31523951349669
 10
-25.08014772184758
 20
60.31523951349669
 10
-25.06014772184758
 20
60.31523951349669
 10
-25.040147721847582
 20
60.31523951349669
 10
-23.06014772184758
 20
60.31523951349669
 10
-23.05249405320028
 20
60.315087272561726
 10
-23.046005586223853
 20
60.314653727059074
 10
-23.041670131197357
 20
60.31400488036143
 10
-23.040147721847582
 20
60.3132395134967
 10
-23.040147721847582
 20
58.313239513496704
 10
-23.041670131197357
 20
58.31247414663197
 10
-23.046005586223853
 20
58.31182529993433
 10
-23.05249405320028
 20
58.31139175443168
 10
-23.06014772184758
 20
58.3112395134967
  0
LWPOLYLINE
  5
4AF
330
1F
100
AcDbEntity
  8
004_rigid
 67
0
100
AcDbPolyline
 90
26
 70
1
 10
37.9198522781524
 20
60.31523951349669
 10
37.939852278152394
 20
60.31523951349669
 10
37.9598522781524
 20
60.31523951349669
 10
39.939852278152394
 20
60.31523951349669
 10
39.9475059467997
 20
60.315087272561726
 10
39.95399441377613
 20
60.314653727059074
 10
39.95832986880262
 20
60.31400488036143
 10
39.9598522781524
 20
60.3132395134967
 10
39.9598522781524
 20
58.313239513496704
 10
39.95832986880262
 20
58.31247414663197
 10
39.95399441377613
 20
58.31182529993433
 10
39.9475059467997
 20
58.31139175443168
 10
39.939852278152394
 20
58.3112395134967
 10
37.9598522781524
 20
58.3112395134967
 10
37.939852278152394
 20
58.3112395134967
 10
37.9198522781524
 20
58.3112395134967
 10
35.939852278152394
 20
58.3112395134967
 10
35.932198609505086
 20
58.31139175443168
 10
35.92571014252866
 20
58.31182529993433
 10
35.921374687502166
 20
58.31247414663197
 10
35.9198522781524
 20
58.313239513496704
 10
35.9198522781524
 20
60.3132395134967
 10
35.921374687502166
 20
60.31400488036143
 10
35.92571014252866
 20
60.314653727059074
 10
35.932198609505086
 20
60.315087272561726
 10
35.939852278152394
 20
60.31523951349669
  0
LWPOLYLINE
  5
4B0
330
1F
100
AcDbEntity
  8
004_rigid
 67
0
100
AcDbPolyline
 90
26
 70
1
 10
87.95985227815198
 20
58.3112395134967
 10
87.93985227815199
 20
58.3112395134967
 10
87.91985227815199
 20
58.3112395134967
 10
85.93985227815199
 20
58.3112395134967
 10
85.9321986095047
 20
58.31139175443168
 10
85.92571014252826
 20
58.31182529993433
 10
85.92137468750175
 20
58.31247414663197
 10
85.91985227815199
 20
58.313239513496704
 10
85.91985227815199
 20
60.3132395134967
 10
85.92137468750177
 20
60.31400488036143
 10
85.92571014252826
 20
60.314653727059074
 10
85.9321986095047
 20
60.315087272561726
 10
85.93985227815199
 20
60.31523951349669
 10
87.91985227815199
 20
60.31523951349669
 10
87.93985227815199
 20
60.31523951349669
 10
87.95985227815198
 20
60.31523951349669
 10
89.93985227815199
 20
60.31523951349669
 10
89.94750594679928
 20
60.315087272561726
 10
89.95399441377572
 20
60.314653727059074
 10
89.95832986880222
 20
60.31400488036143
 10
89.95985227815198
 20
60.3132395134967
 10
89.95985227815198
 20
58.313239513496704
 10
89.95832986880222
 20
58.31247414663197
 10
89.95399441377572
 20
58.31182529993433
 10
89.94750594679928
 20
58.31139175443168
 10
89.93985227815199
 20
58.3112395134967
  0
LWPOLYLINE
  5
4B1
330
1F
100
AcDbEntity
  8
004_rigid
 67
0
100
AcDbPolyline
 90
26
 70
1
 10
93.69778053589297
 20
43.78915403476069
 10
93.67778053589298
 20
43.78915403476069
 10
93.65778053589298
 20
43.78915403476069
 10
91.67778053589298
 20
43.78915403476069
 10
91.67012686724568
 20
43.78923015522819
 10
91.66363840026925
 20
43.78944692797951
 10
91.65930294524276
 20
43.78977135132833
 10
91.65778053589298
 20
43.7901540347607
 10
91.65778053589298
 20
44.790154034760704
 10
91.65930294524276
 20
44.79053671819307
 10
91.66363840026925
 20
44.79086114154189
 10
91.67012686724568
 20
44.79107791429321
 10
91.67778053589298
 20
44.7911540347607
 10
93.65778053589298
 20
44.7911540347607
 10
93.67778053589298
 20
44.7911540347607
 10
93.69778053589297
 20
44.7911540347607
 10
95.67778053589298
 20
44.7911540347607
 10
95.68543420454027
 20
44.79107791429321
 10
95.6919226715167
 20
44.79086114154189
 10
95.69625812654321
 20
44.79053671819307
 10
95.69778053589297
 20
44.790154034760704
 10
95.69778053589297
 20
43.7901540347607
 10
95.69625812654321
 20
43.78977135132833
 10
95.6919226715167
 20
43.78944692797951
 10
95.68543420454027
 20
43.78923015522819
 10
95.67778053589298
 20
43.78915403476069
  0
LWPOLYLINE
  5
4B2
330
1F
100
AcDbEntity
  8
004_rigid
 67
0
100
AcDbPolyline
 90
26
 70
1
 10
143.65778053589298
 20
44.7911540347607
 10
143.677780535893
 20
44.7911540347607
 10
143.697780535893
 20
44.7911540347607
 10
145.677780535893
 20
44.7911540347607
 10
145.68543420454031
 20
44.79107791429321
 10
145.69192267151672
 20
44.79086114154189
 10
145.69625812654323
 20
44.79053671819307
 10
145.697780535893
 20
44.790154034760704
 10
145.697780535893
 20
43.7901540347607
 10
145.69625812654323
 20
43.78977135132833
 10
145.69192267151672
 20
43.78944692797951
 10
145.68543420454031
 20
43.78923015522819
 10
145.677780535893
 20
43.78915403476069
 10
143.697780535893
 20
43.78915403476069
 10
143.677780535893
 20
43.78915403476069
 10
143.65778053589298
 20
43.78915403476069
 10
141.677780535893
 20
43.78915403476069
 10
141.67012686724567
 20
43.78923015522819
 10
141.66363840026926
 20
43.78944692797951
 10
141.65930294524276
 20
43.78977135132833
 10
141.65778053589298
 20
43.7901540347607
 10
141.65778053589298
 20
44.790154034760704
 10
141.65930294524276
 20
44.79053671819307
 10
141.66363840026926
 20
44.79086114154189
 10
141.67012686724567
 20
44.79107791429321
 10
141.677780535893
 20
44.7911540347607
  0
LWPOLYLINE
  5
4B3
330
1F
100
AcDbEntity
  8
004_rigid
 67
0
100
AcDbPolyline
 90
26
 70
1
 10
109.3806238356198
 20
15.161261781902699
 10
109.3606238356198
 20
15.161261781902699
 10
109.34062383561981
 20
15.161261781902699
 10
107.3606238356198
 20
15.161261781902699
 10
107.35297016697251
 20
15.161337902370185
 10
107.34648169999608
 20
15.161554675121511
 10
107.34214624496957
 20
15.161879098470331
 10
107.34062383561981
 20
15.162261781902698
 10
107.34062383561981
 20
16.162261781902696
 10
107.34214624496957
 20
16.162644465335063
 10
107.34648169999608
 20
16.162968888683885
 10
107.35297016697251
 20
16.163185661435207
 10
107.3606238356198
 20
16.163261781902698
 10
109.34062383561981
 20
16.163261781902698
 10
109.3606238356198
 20
16.163261781902698
 10
109.3806238356198
 20
16.163261781902698
 10
111.3606238356198
 20
16.163261781902698
 10
111.3682775042671
 20
16.163185661435207
 10
111.37476597124353
 20
16.162968888683885
 10
111.37910142627004
 20
16.162644465335063
 10
111.3806238356198
 20
16.162261781902696
 10
111.3806238356198
 20
15.162261781902696
 10
111.37910142627004
 20
15.161879098470331
 10
111.37476597124353
 20
15.161554675121511
 10
111.3682775042671
 20
15.161337902370185
 10
111.3606238356198
 20
15.161261781902697
  0
LWPOLYLINE
  5
4B4
330
1F
100
AcDbEntity
  8
004_rigid
 67
0
100
AcDbPolyline
 90
26
 70
1
 10
79.34062383561981
 20
16.163261781902698
 10
79.3606238356198
 20
16.163261781902698
 10
79.3806238356198
 20
16.163261781902698
 10
81.3606238356198
 20
16.163261781902698
 10
81.3682775042671
 20
16.16318566143521
 10
81.37476597124353
 20
16.162968888683885
 10
81.37910142627004
 20
16.162644465335063
 10
81.3806238356198
 20
16.162261781902696
 10
81.3806238356198
 20
15.162261781902696
 10
81.37910142627004
 20
15.161879098470331
 10
81.37476597124353
 20
15.161554675121511
 10
81.3682775042671
 20
15.161337902370185
 10
81.3606238356198
 20
15.161261781902697
 10
79.3806238356198
 20
15.161261781902697
 10
79.3606238356198
 20
15.161261781902697
 10
79.34062383561981
 20
15.161261781902697
 10
77.3606238356198
 20
15.161261781902697
 10
77.35297016697251
 20
15.161337902370185
 10
77.34648169999608
 20
15.161554675121511
 10
77.34214624496957
 20
15.161879098470331
 10
77.34062383561981
 20
15.162261781902696
 10
77.34062383561981
 20
16.162261781902696
 10
77.34214624496957
 20
16.162644465335063
 10
77.34648169999608
 20
16.162968888683885
 10
77.35297016697251
 20
16.163185661435207
 10
77.3606238356198
 20
16.163261781902698
  0
LWPOLYLINE
  5
4B5
330
1F
100
AcDbEntity
  8
004_rigid
 67
0
100
AcDbPolyline
 90
26
 70
1
 10
122.38062383562001
 20
15.161261781902699
 10
122.36062383562
 20
15.161261781902699
 10
122.34062383562001
 20
15.161261781902699
 10
120.36062383562
 20
15.161261781902699
 10
120.35297016697271
 20
15.161337902370185
 10
120.34648169999627
 20
15.161554675121511
 10
120.34214624496977
 20
15.161879098470331
 10
120.34062383562001
 20
15.162261781902698
 10
120.34062383562001
 20
16.162261781902696
 10
120.34214624496977
 20
16.162644465335063
 10
120.34648169999627
 20
16.162968888683885
 10
120.35297016697271
 20
16.163185661435207
 10
120.36062383562
 20
16.163261781902698
 10
122.34062383562001
 20
16.163261781902698
 10
122.36062383562
 20
16.163261781902698
 10
122.38062383562001
 20
16.163261781902698
 10
124.36062383562
 20
16.163261781902698
 10
124.36827750426731
 20
16.163185661435207
 10
124.37476597124373
 20
16.162968888683885
 10
124.37910142627024
 20
16.162644465335063
 10
124.38062383562001
 20
16.162261781902696
 10
124.38062383562001
 20
15.162261781902696
 10
124.37910142627024
 20
15.161879098470331
 10
124.37476597124373
 20
15.161554675121511
 10
124.36827750426731
 20
15.161337902370185
 10
124.36062383562
 20
15.161261781902697
  0
LWPOLYLINE
  5
4B6
330
1F
100
AcDbEntity
  8
004_rigid
 67
0
100
AcDbPolyline
 90
26
 70
1
 10
24.959852278152418
 20
58.3112395134967
 10
24.93985227815242
 20
58.3112395134967
 10
24.91985227815242
 20
58.3112395134967
 10
22.93985227815242
 20
58.3112395134967
 10
22.932198609505118
 20
58.31139175443168
 10
22.92571014252869
 20
58.31182529993433
 10
22.921374687502194
 20
58.31247414663197
 10
22.91985227815242
 20
58.313239513496704
 10
22.91985227815242
 20
60.3132395134967
 10
22.921374687502194
 20
60.31400488036143
 10
22.92571014252869
 20
60.314653727059074
 10
22.932198609505118
 20
60.315087272561726
 10
22.93985227815242
 20
60.31523951349669
 10
24.91985227815242
 20
60.31523951349669
 10
24.93985227815242
 20
60.31523951349669
 10
24.959852278152418
 20
60.31523951349669
 10
26.93985227815242
 20
60.31523951349669
 10
26.94750594679972
 20
60.315087272561726
 10
26.95399441377615
 20
60.314653727059074
 10
26.958329868802643
 20
60.31400488036143
 10
26.959852278152418
 20
60.3132395134967
 10
26.959852278152418
 20
58.313239513496704
 10
26.958329868802643
 20
58.31247414663197
 10
26.95399441377615
 20
58.31182529993433
 10
26.94750594679972
 20
58.31139175443168
 10
26.93985227815242
 20
58.3112395134967
  0
LWPOLYLINE
  5
4B7
330
1F
100
AcDbEntity
  8
004_rigid
 67
0
100
AcDbPolyline
 90
4
 70
1
 10
-263.1304192693993
 20
-61.0489077222743
 10
-263.1304192693993
 20
243.70481705359597
 10
289.771375160234
 20
243.70481705359597
 10
289.771375160234
 20
-61.0489077222743
  0
LWPOLYLINE
  5
4B8
330
1F
100
AcDbEntity
  8
004_rigid
 67
0
100
AcDbPolyline
 90
44
 70
1
 10
-92.74504569866801
 20
114.61870801766
 10
67.15495430133203
 20
114.61870801766
 10
67.15495430133203
 20
99.71870801766
 10
67.16256634808089
 20
99.68043967442348
 10
67.18424362321336
 20
99.64799733954135
 10
67.21668595809551
 20
99.62632006440887
 10
67.25495430133202
 20
99.61870801766
 10
80.254954301332
 20
99.61870801766
 10
80.29322264456853
 20
99.62632006440887
 10
80.32566497945066
 20
99.64799733954135
 10
80.34734225458314
 20
99.68043967442348
 10
80.35495430133201
 20
99.71870801766
 10
80.35495430133201
 20
114.61870801766
 10
240.25495430133202
 20
114.61870801766
 10
240.29322264456852
 20
114.62632006440887
 10
240.32566497945066
 20
114.64799733954135
 10
240.34734225458314
 20
114.68043967442348
 10
240.35495430133201
 20
114.71870801766
 10
240.35495430133201
 20
124.71870801766
 10
240.34734225458314
 20
124.75697636089652
 10
240.32566497945066
 20
124.78941869577866
 10
240.29322264456852
 20
124.81109597091114
 10
240.25495430133202
 20
124.81870801766
 10
80.35495430133201
 20
124.81870801766
 10
80.35495430133201
 20
139.71870801766002
 10
80.34734225458314
 20
139.75697636089652
 10
80.32566497945066
 20
139.78941869577866
 10
80.29322264456853
 20
139.81109597091114
 10
80.254954301332
 20
139.81870801766001
 10
67.25495430133202
 20
139.81870801766001
 10
67.21668595809551
 20
139.81109597091114
 10
67.18424362321336
 20
139.78941869577866
 10
67.16256634808089
 20
139.75697636089652
 10
67.15495430133203
 20
139.71870801766002
 10
67.15495430133203
 20
124.81870801766
 10
-92.74504569866801
 20
124.81870801766
 10
-92.78331404190452
 20
124.81109597091114
 10
-92.81575637678667
 20
124.78941869577866
 10
-92.83743365191914
 20
124.75697636089652
 10
-92.845045698668
 20
124.71870801766
 10
-92.845045698668
 20
114.71870801766
 10
-92.83743365191914
 20
114.68043967442348
 10
-92.81575637678667
 20
114.64799733954135
 10
-92.78331404190452
 20
114.62632006440887
  0
LWPOLYLINE
  5
4B9
330
1F
100
AcDbEntity
  8
004_rigid
 67
0
100
AcDbPolyline
 90
44
 70
1
 10
46.12851581105472
 20
146.16536135660502
 10
46.12851581105472
 20
131.265361356605
 10
46.136127857803594
 20
131.22709301336852
 10
46.15780513293607
 20
131.19465067848637
 10
46.19024746781821
 20
131.1729734033539
 10
46.22851581105472
 20
131.16536135660502
 10
59.22851581105471
 20
131.16536135660502
 10
59.26678415429122
 20
131.1729734033539
 10
59.299226489173364
 20
131.19465067848637
 10
59.32090376430584
 20
131.22709301336852
 10
59.328515811054714
 20
131.265361356605
 10
59.328515811054714
 20
146.16536135660502
 10
259.228515811055
 20
146.16536135660502
 10
259.2667841542915
 20
146.1729734033539
 10
259.29922648917363
 20
146.19465067848637
 10
259.32090376430614
 20
146.22709301336852
 10
259.328515811055
 20
146.265361356605
 10
259.328515811055
 20
156.265361356605
 10
259.32090376430614
 20
156.30362969984154
 10
259.29922648917363
 20
156.33607203472368
 10
259.2667841542915
 20
156.35774930985616
 10
259.228515811055
 20
156.36536135660504
 10
59.328515811054714
 20
156.36536135660504
 10
59.328515811054714
 20
171.265361356605
 10
59.32090376430584
 20
171.30362969984154
 10
59.299226489173364
 20
171.33607203472368
 10
59.26678415429122
 20
171.35774930985616
 10
59.22851581105471
 20
171.36536135660504
 10
46.22851581105472
 20
171.36536135660504
 10
46.19024746781821
 20
171.35774930985616
 10
46.15780513293607
 20
171.33607203472368
 10
46.136127857803594
 20
171.30362969984154
 10
46.12851581105472
 20
171.265361356605
 10
46.12851581105472
 20
156.36536135660504
 10
-153.77148418894498
 20
156.36536135660504
 10
-153.80975253218148
 20
156.35774930985616
 10
-153.84219486706363
 20
156.33607203472368
 10
-153.8638721421961
 20
156.30362969984154
 10
-153.87148418894498
 20
156.265361356605
 10
-153.87148418894498
 20
146.265361356605
 10
-153.8638721421961
 20
146.22709301336852
 10
-153.84219486706363
 20
146.19465067848637
 10
-153.80975253218148
 20
146.1729734033539
 10
-153.77148418894498
 20
146.16536135660502
  0
LWPOLYLINE
  5
4BA
330
1F
100
AcDbEntity
  8
004_rigid
 67
0
100
AcDbPolyline
 90
47
 70
1
 10
-93.32862483976595
 20
177.161428946054
 10
26.571375160234126
 20
177.161428946054
 10
26.571375160234126
 20
162.261428946054
 10
26.578987206982998
 20
162.2231606028175
 10
26.60066448211547
 20
162.19071826793532
 10
26.633106816997618
 20
162.16904099280285
 10
26.671375160234128
 20
162.161428946054
 10
39.67137516023411
 20
162.161428946054
 10
39.70964350347062
 20
162.16904099280285
 10
39.742085838352764
 20
162.19071826793532
 10
39.76376311348524
 20
162.2231606028175
 10
39.771375160234115
 20
162.261428946054
 10
39.771375160234115
 20
177.161428946054
 10
279.671375160234
 20
177.161428946054
 10
279.70964350347055
 20
177.16904099280285
 10
279.74208583835264
 20
177.19071826793532
 10
279.76376311348514
 20
177.2231606028175
 10
279.771375160234
 20
177.261428946054
 10
279.771375160234
 20
187.261428946054
 10
279.76376311348514
 20
187.2996972892905
 10
279.74208583835264
 20
187.33213962417264
 10
279.70964350347055
 20
187.35381689930512
 10
279.671375160234
 20
187.361428946054
 10
39.771375160234115
 20
187.361428946054
 10
39.771375160234115
 20
202.26142894605397
 10
39.76376311348524
 20
202.29969728929046
 10
39.742085838352764
 20
202.3321396241726
 10
39.70964350347062
 20
202.3538168993051
 10
39.67137516023411
 20
202.36142894605396
 10
26.671375160234128
 20
202.36142894605396
 10
26.633106816997618
 20
202.3538168993051
 10
26.60066448211547
 20
202.3321396241726
 10
26.578987206982998
 20
202.29969728929046
 10
26.571375160234126
 20
202.26142894605397
 10
26.571375160234126
 20
187.361428946054
 10
-93.3286248397659
 20
187.361428946054
 10
-213.328624839766
 20
187.361428946054
 10
-213.3668931830025
 20
187.35381689930512
 10
-213.39933551788468
 20
187.33213962417264
 10
-213.42101279301716
 20
187.2996972892905
 10
-213.428624839766
 20
187.261428946054
 10
-213.428624839766
 20
177.261428946054
 10
-213.42101279301716
 20
177.2231606028175
 10
-213.39933551788468
 20
177.19071826793532
 10
-213.3668931830025
 20
177.16904099280285
 10
-213.328624839766
 20
177.161428946054
 10
-93.32862483976601
 20
177.161428946054
  0
LWPOLYLINE
  5
4BB
330
1F
100
AcDbEntity
  8
004_rigid
 67
0
100
AcDbPolyline
 90
47
 70
1
 10
-109.87891199687384
 20
211.00481705359599
 10
10.021088003126321
 20
211.00481705359596
 10
10.021088003126321
 20
193.604817053596
 10
10.02870004987519
 20
193.56654871035948
 10
10.050377325007664
 20
193.53410637547734
 10
10.082819659889811
 20
193.51242910034486
 10
10.12108800312632
 20
193.50481705359599
 10
23.12108800312631
 20
193.50481705359599
 10
23.15935634636282
 20
193.51242910034486
 10
23.19179868124497
 20
193.53410637547734
 10
23.21347595637744
 20
193.56654871035948
 10
23.22108800312631
 20
193.604817053596
 10
23.22108800312631
 20
211.00481705359596
 10
263.121088003126
 20
211.00481705359596
 10
263.15935634636253
 20
211.01242910034483
 10
263.1917986812446
 20
211.0341063754773
 10
263.2134759563771
 20
211.06654871035946
 10
263.221088003126
 20
211.10481705359598
 10
263.221088003126
 20
216.10481705359598
 10
263.2134759563771
 20
216.14308539683248
 10
263.1917986812446
 20
216.17552773171462
 10
263.15935634636253
 20
216.1972050068471
 10
263.121088003126
 20
216.20481705359597
 10
23.22108800312631
 20
216.20481705359597
 10
23.22108800312631
 20
233.60481705359598
 10
23.21347595637744
 20
233.64308539683248
 10
23.19179868124497
 20
233.67552773171462
 10
23.15935634636282
 20
233.6972050068471
 10
23.12108800312631
 20
233.70481705359597
 10
10.12108800312632
 20
233.70481705359597
 10
10.082819659889813
 20
233.6972050068471
 10
10.050377325007666
 20
233.67552773171462
 10
10.02870004987519
 20
233.64308539683248
 10
10.021088003126321
 20
233.60481705359598
 10
10.021088003126321
 20
216.20481705359597
 10
-109.8789119968737
 20
216.20481705359597
 10
-229.878911996874
 20
216.20481705359597
 10
-229.9171803401105
 20
216.1972050068471
 10
-229.94962267499267
 20
216.17552773171462
 10
-229.97129995012514
 20
216.14308539683248
 10
-229.978911996874
 20
216.10481705359598
 10
-229.978911996874
 20
211.10481705359598
 10
-229.97129995012514
 20
211.06654871035946
 10
-229.94962267499267
 20
211.0341063754773
 10
-229.9171803401105
 20
211.01242910034483
 10
-229.878911996874
 20
211.00481705359596
 10
-109.878911996874
 20
211.00481705359596
  0
LWPOLYLINE
  5
4BC
330
1F
100
AcDbEntity
  8
004_rigid
 67
0
100
AcDbPolyline
 90
44
 70
1
 10
21.878972045383914
 20
-50.9489077222743
 10
21.878972045383914
 20
-36.0489077222743
 10
41.778972045384
 20
-36.0489077222743
 10
41.817240388620505
 20
-36.041295675525426
 10
41.84968272350265
 20
-36.01961840039295
 10
41.87135999863513
 20
-35.98717606551081
 10
41.878972045383996
 20
-35.9489077222743
 10
41.878972045383996
 20
-25.9489077222743
 10
41.87135999863513
 20
-25.910639379037793
 10
41.84968272350265
 20
-25.878197044155645
 10
41.817240388620505
 20
-25.856519769023173
 10
41.778972045384
 20
-25.8489077222743
 10
21.878972045383914
 20
-25.8489077222743
 10
21.878972045383914
 20
-10.948907722274305
 10
21.871359998635043
 20
-10.910639379037795
 10
21.84968272350257
 20
-10.87819704415565
 10
21.817240388620423
 20
-10.856519769023175
 10
21.778972045383917
 20
-10.848907722274303
 10
8.77897204538392
 20
-10.848907722274303
 10
8.740703702147412
 20
-10.856519769023175
 10
8.708261367265266
 20
-10.87819704415565
 10
8.68658409213279
 20
-10.910639379037795
 10
8.67897204538392
 20
-10.948907722274305
 10
8.67897204538392
 20
-25.8489077222743
 10
-11.221027954616051
 20
-25.8489077222743
 10
-11.25929629785256
 20
-25.856519769023173
 10
-11.291738632734704
 20
-25.878197044155645
 10
-11.31341590786718
 20
-25.910639379037793
 10
-11.321027954616051
 20
-25.9489077222743
 10
-11.321027954616051
 20
-35.9489077222743
 10
-11.31341590786718
 20
-35.98717606551081
 10
-11.291738632734708
 20
-36.01961840039295
 10
-11.259296297852561
 20
-36.041295675525426
 10
-11.221027954616051
 20
-36.0489077222743
 10
8.67897204538392
 20
-36.0489077222743
 10
8.67897204538392
 20
-50.9489077222743
 10
8.68658409213279
 20
-50.98717606551081
 10
8.708261367265264
 20
-51.01961840039295
 10
8.74070370214741
 20
-51.041295675525426
 10
8.77897204538392
 20
-51.0489077222743
 10
21.778972045383917
 20
-51.0489077222743
 10
21.817240388620423
 20
-51.041295675525426
 10
21.84968272350257
 20
-51.01961840039295
 10
21.871359998635043
 20
-50.98717606551081
  0
LWPOLYLINE
  5
4BD
330
1F
100
AcDbEntity
  8
004_rigid
 67
0
100
AcDbPolyline
 90
46
 70
1
 10
87.45323266456613
 20
-15.9369737870537
 10
87.45323266456613
 20
-34.8369737870537
 10
87.46084471131499
 20
-34.87524213029021
 10
87.48252198644747
 20
-34.90768446517235
 10
87.51496432132961
 20
-34.92936174030483
 10
87.55323266456612
 20
-34.9369737870537
 10
100.5532326645661
 20
-34.9369737870537
 10
100.5915010078026
 20
-34.92936174030483
 10
100.62394334268475
 20
-34.90768446517235
 10
100.64562061781723
 20
-34.87524213029021
 10
100.65323266456609
 20
-34.8369737870537
 10
100.65323266456609
 20
-15.9369737870537
 10
120.553232664566
 20
-15.9369737870537
 10
140.55323266456602
 20
-15.9369737870537
 10
140.59150100780252
 20
-15.92936174030483
 10
140.6239433426847
 20
-15.907684465172355
 10
140.64562061781717
 20
-15.875242130290209
 10
140.65323266456602
 20
-15.8369737870537
 10
140.65323266456602
 20
-13.836973787053699
 10
140.64562061781717
 20
-13.798705443817191
 10
140.6239433426847
 20
-13.766263108935046
 10
140.59150100780252
 20
-13.74458583380257
 10
140.55323266456602
 20
-13.7369737870537
 10
120.55323266456601
 20
-13.7369737870537
 10
100.65323266456609
 20
-13.7369737870537
 10
100.65323266456609
 20
5.163026212946301
 10
100.64562061781723
 20
5.20129455618281
 10
100.62394334268475
 20
5.2337368910649555
 10
100.5915010078026
 20
5.255414166197429
 10
100.5532326645661
 20
5.263026212946301
 10
87.55323266456612
 20
5.263026212946301
 10
87.51496432132961
 20
5.255414166197429
 10
87.48252198644747
 20
5.2337368910649555
 10
87.46084471131499
 20
5.20129455618281
 10
87.45323266456613
 20
5.163026212946301
 10
87.45323266456613
 20
-13.7369737870537
 10
47.55323266456611
 20
-13.7369737870537
 10
47.5149643213296
 20
-13.74458583380257
 10
47.48252198644746
 20
-13.766263108935046
 10
47.460844711314984
 20
-13.798705443817191
 10
47.45323266456611
 20
-13.836973787053699
 10
47.45323266456611
 20
-15.8369737870537
 10
47.460844711314984
 20
-15.875242130290209
 10
47.48252198644746
 20
-15.907684465172355
 10
47.5149643213296
 20
-15.92936174030483
 10
47.55323266456611
 20
-15.9369737870537
  0
LWPOLYLINE
  5
4BE
330
1F
100
AcDbEntity
  8
004_rigid
 67
0
100
AcDbPolyline
 90
47
 70
1
 10
-25.06014772184759
 20
54.2132395134967
 10
24.839852278152424
 20
54.2132395134967
 10
24.839852278152424
 20
39.313239513496704
 10
24.847464324901296
 20
39.274971170260194
 10
24.869141600033768
 20
39.24252883537805
 10
24.901583934915916
 20
39.22085156024558
 10
24.939852278152422
 20
39.2132395134967
 10
37.939852278152415
 20
39.2132395134967
 10
37.978120621388925
 20
39.22085156024558
 10
38.010562956271066
 20
39.24252883537805
 10
38.03224023140354
 20
39.274971170260194
 10
38.039852278152416
 20
39.313239513496704
 10
38.039852278152416
 20
54.2132395134967
 10
137.93985227815202
 20
54.2132395134967
 10
137.9781206213885
 20
54.22085156024558
 10
138.0105629562707
 20
54.24252883537805
 10
138.03224023140316
 20
54.274971170260194
 10
138.039852278152
 20
54.313239513496704
 10
138.039852278152
 20
64.3132395134967
 10
138.03224023140316
 20
64.3515078567332
 10
138.0105629562707
 20
64.38395019161534
 10
137.9781206213885
 20
64.40562746674782
 10
137.93985227815202
 20
64.41323951349669
 10
38.039852278152416
 20
64.41323951349669
 10
38.039852278152416
 20
79.3132395134967
 10
38.03224023140354
 20
79.3515078567332
 10
38.010562956271066
 20
79.38395019161536
 10
37.978120621388925
 20
79.40562746674783
 10
37.939852278152415
 20
79.41323951349669
 10
24.939852278152422
 20
79.41323951349669
 10
24.901583934915916
 20
79.40562746674783
 10
24.869141600033768
 20
79.38395019161536
 10
24.847464324901296
 20
79.3515078567332
 10
24.839852278152424
 20
79.3132395134967
 10
24.839852278152424
 20
64.41323951349669
 10
-25.06014772184758
 20
64.41323951349669
 10
-75.0601477218476
 20
64.41323951349669
 10
-75.09841606508411
 20
64.40562746674782
 10
-75.13085839996626
 20
64.38395019161534
 10
-75.15253567509873
 20
64.3515078567332
 10
-75.1601477218476
 20
64.3132395134967
 10
-75.1601477218476
 20
54.313239513496704
 10
-75.15253567509873
 20
54.274971170260194
 10
-75.13085839996626
 20
54.24252883537805
 10
-75.09841606508411
 20
54.22085156024558
 10
-75.0601477218476
 20
54.2132395134967
 10
-25.0601477218476
 20
54.2132395134967
  0
LWPOLYLINE
  5
4BF
330
1F
100
AcDbEntity
  8
004_rigid
 67
0
100
AcDbPolyline
 90
44
 70
1
 10
25.417026572180223
 20
-4.850519211412521
 10
25.417026572180223
 20
-19.75051921141252
 10
25.424638618929098
 20
-19.78878755464903
 10
25.44631589406157
 20
-19.821229889531175
 10
25.478758228943718
 20
-19.842907164663647
 10
25.517026572180225
 20
-19.85051921141252
 10
38.517026572180214
 20
-19.85051921141252
 10
38.555294915416724
 20
-19.842907164663647
 10
38.587737250298865
 20
-19.821229889531175
 10
38.60941452543134
 20
-19.78878755464903
 10
38.617026572180215
 20
-19.75051921141252
 10
38.617026572180215
 20
-4.850519211412521
 10
78.5170265721802
 20
-4.850519211412521
 10
78.55529491541671
 20
-4.842907164663648
 10
78.58773725029886
 20
-4.821229889531176
 10
78.60941452543133
 20
-4.78878755464903
 10
78.6170265721802
 20
-4.75051921141252
 10
78.6170265721802
 20
5.24948078858748
 10
78.60941452543133
 20
5.287749131823989
 10
78.58773725029886
 20
5.3201914667061345
 10
78.55529491541671
 20
5.341868741838608
 10
78.5170265721802
 20
5.3494807885874796
 10
38.617026572180215
 20
5.3494807885874796
 10
38.617026572180215
 20
20.24948078858748
 10
38.60941452543134
 20
20.28774913182399
 10
38.587737250298865
 20
20.320191466706135
 10
38.555294915416724
 20
20.341868741838606
 10
38.517026572180214
 20
20.34948078858748
 10
25.517026572180225
 20
20.34948078858748
 10
25.478758228943718
 20
20.341868741838606
 10
25.44631589406157
 20
20.320191466706135
 10
25.424638618929098
 20
20.28774913182399
 10
25.417026572180223
 20
20.24948078858748
 10
25.417026572180223
 20
5.3494807885874796
 10
-14.48297342781976
 20
5.3494807885874796
 10
-14.521241771056268
 20
5.341868741838608
 10
-14.553684105938414
 20
5.3201914667061345
 10
-14.57536138107089
 20
5.287749131823989
 10
-14.58297342781976
 20
5.24948078858748
 10
-14.58297342781976
 20
-4.75051921141252
 10
-14.57536138107089
 20
-4.78878755464903
 10
-14.553684105938416
 20
-4.821229889531176
 10
-14.52124177105627
 20
-4.842907164663648
 10
-14.48297342781976
 20
-4.850519211412521
  0
LWPOLYLINE
  5
4C0
330
1F
100
AcDbEntity
  8
004_rigid
 67
0
100
AcDbPolyline
 90
44
 70
1
 10
109.26062383562002
 20
13.062261781902698
 10
109.26062383562002
 20
-4.337738218097301
 10
109.26823588236888
 20
-4.37600656133381
 10
109.28991315750136
 20
-4.408448896215956
 10
109.32235549238351
 20
-4.430126171348429
 10
109.36062383562002
 20
-4.437738218097301
 10
122.36062383562
 20
-4.437738218097301
 10
122.39889217885653
 20
-4.430126171348429
 10
122.43133451373866
 20
-4.408448896215956
 10
122.45301178887114
 20
-4.37600656133381
 10
122.46062383562001
 20
-4.337738218097301
 10
122.46062383562001
 20
13.062261781902698
 10
182.36062383562
 20
13.062261781902698
 10
182.3988921788565
 20
13.06987382865157
 10
182.43133451373868
 20
13.091551103784045
 10
182.45301178887115
 20
13.12399343866619
 10
182.46062383562
 20
13.162261781902698
 10
182.46062383562
 20
18.162261781902696
 10
182.45301178887115
 20
18.200530125139206
 10
182.43133451373868
 20
18.23297246002135
 10
182.3988921788565
 20
18.254649735153823
 10
182.36062383562
 20
18.262261781902698
 10
122.46062383562001
 20
18.262261781902698
 10
122.46062383562001
 20
35.66226178190269
 10
122.45301178887114
 20
35.7005301251392
 10
122.43133451373866
 20
35.732972460021344
 10
122.39889217885653
 20
35.75464973515382
 10
122.36062383562
 20
35.762261781902694
 10
109.36062383562002
 20
35.762261781902694
 10
109.32235549238351
 20
35.75464973515382
 10
109.28991315750136
 20
35.732972460021344
 10
109.26823588236888
 20
35.7005301251392
 10
109.26062383562002
 20
35.66226178190269
 10
109.26062383562002
 20
18.262261781902698
 10
49.36062383561982
 20
18.262261781902698
 10
49.32235549238331
 20
18.254649735153823
 10
49.28991315750116
 20
18.23297246002135
 10
49.26823588236869
 20
18.200530125139206
 10
49.26062383561982
 20
18.162261781902696
 10
49.26062383561982
 20
13.162261781902698
 10
49.26823588236869
 20
13.12399343866619
 10
49.28991315750116
 20
13.091551103784045
 10
49.32235549238331
 20
13.06987382865157
 10
49.36062383561982
 20
13.062261781902698
  0
LWPOLYLINE
  5
4C1
330
1F
100
AcDbEntity
  8
004_rigid
 67
0
100
AcDbPolyline
 90
46
 70
1
 10
8.10179775135622
 20
24.403617399523803
 10
8.10179775135622
 20
9.5036173995238
 10
8.10940979810509
 20
9.465349056287291
 10
8.131087073237566
 20
9.432906721405145
 10
8.163529408119711
 20
9.411229446272669
 10
8.20179775135622
 20
9.4036173995238
 10
21.20179775135621
 20
9.4036173995238
 10
21.24006609459272
 20
9.411229446272669
 10
21.27250842947487
 20
9.432906721405145
 10
21.29418570460734
 20
9.465349056287291
 10
21.30179775135621
 20
9.5036173995238
 10
21.30179775135621
 20
24.403617399523803
 10
51.2017977513562
 20
24.403617399523803
 10
81.20179775135621
 20
24.403617399523803
 10
81.24006609459272
 20
24.411229446272674
 10
81.27250842947487
 20
24.432906721405146
 10
81.29418570460734
 20
24.465349056287295
 10
81.3017977513562
 20
24.503617399523804
 10
81.3017977513562
 20
34.5036173995238
 10
81.29418570460734
 20
34.54188574276031
 10
81.27250842947487
 20
34.57432807764245
 10
81.24006609459272
 20
34.596005352774924
 10
81.20179775135621
 20
34.6036173995238
 10
51.20179775135621
 20
34.6036173995238
 10
21.30179775135621
 20
34.6036173995238
 10
21.30179775135621
 20
49.503617399523804
 10
21.29418570460734
 20
49.541885742760314
 10
21.27250842947487
 20
49.57432807764246
 10
21.24006609459272
 20
49.59600535277493
 10
21.20179775135621
 20
49.603617399523806
 10
8.20179775135622
 20
49.603617399523806
 10
8.163529408119711
 20
49.59600535277493
 10
8.131087073237566
 20
49.57432807764246
 10
8.109409798105093
 20
49.541885742760314
 10
8.10179775135622
 20
49.503617399523804
 10
8.10179775135622
 20
34.6036173995238
 10
-51.79820224864382
 20
34.6036173995238
 10
-51.83647059188032
 20
34.596005352774924
 10
-51.86891292676247
 20
34.57432807764245
 10
-51.890590201894945
 20
34.54188574276031
 10
-51.89820224864381
 20
34.5036173995238
 10
-51.89820224864381
 20
24.503617399523804
 10
-51.890590201894945
 20
24.465349056287295
 10
-51.86891292676247
 20
24.432906721405146
 10
-51.83647059188032
 20
24.411229446272674
 10
-51.79820224864382
 20
24.403617399523803
  0
LWPOLYLINE
  5
4C2
330
1F
100
AcDbEntity
  8
004_rigid
 67
0
100
AcDbPolyline
 90
44
 70
1
 10
143.57778053589303
 20
41.690154034760695
 10
143.57778053589303
 20
24.2901540347607
 10
143.5853925826419
 20
24.251885691524194
 10
143.60706985777438
 20
24.219443356642046
 10
143.63951219265653
 20
24.197766081509574
 10
143.67778053589302
 20
24.190154034760702
 10
156.67778053589302
 20
24.190154034760702
 10
156.71604887912952
 20
24.197766081509574
 10
156.7484912140117
 20
24.219443356642046
 10
156.77016848914417
 20
24.251885691524194
 10
156.77778053589302
 20
24.2901540347607
 10
156.77778053589302
 20
41.690154034760695
 10
256.677780535893
 20
41.690154034760695
 10
256.7160488791295
 20
41.69776608150957
 10
256.74849121401166
 20
41.71944335664204
 10
256.77016848914417
 20
41.75188569152419
 10
256.77778053589304
 20
41.7901540347607
 10
256.77778053589304
 20
46.790154034760704
 10
256.77016848914417
 20
46.82842237799721
 10
256.74849121401166
 20
46.860864712879355
 10
256.7160488791295
 20
46.88254198801183
 10
256.677780535893
 20
46.8901540347607
 10
156.77778053589302
 20
46.8901540347607
 10
156.77778053589302
 20
64.29015403476069
 10
156.77016848914417
 20
64.3284223779972
 10
156.7484912140117
 20
64.36086471287935
 10
156.71604887912952
 20
64.38254198801182
 10
156.67778053589302
 20
64.3901540347607
 10
143.67778053589302
 20
64.3901540347607
 10
143.63951219265653
 20
64.38254198801182
 10
143.60706985777438
 20
64.36086471287935
 10
143.5853925826419
 20
64.3284223779972
 10
143.57778053589303
 20
64.29015403476069
 10
143.57778053589303
 20
46.8901540347607
 10
43.677780535893405
 20
46.8901540347607
 10
43.639512192656895
 20
46.88254198801183
 10
43.60706985777475
 20
46.860864712879355
 10
43.58539258264228
 20
46.82842237799721
 10
43.5777805358934
 20
46.790154034760704
 10
43.5777805358934
 20
41.7901540347607
 10
43.58539258264228
 20
41.75188569152419
 10
43.60706985777475
 20
41.71944335664204
 10
43.639512192656895
 20
41.69776608150957
 10
43.677780535893405
 20
41.690154034760695
  0
LWPOLYLINE
  5
4C3
330
1F
100
AcDbEntity
  8
004_rigid
 67
0
100
AcDbPolyline
 90
47
 70
1
 10
-14.5968223882605
 20
84.08278848977761
 10
45.30317761173952
 20
84.08278848977761
 10
45.30317761173952
 20
69.18278848977761
 10
45.310789658488396
 20
69.1445201465411
 10
45.33246693362087
 20
69.11207781165895
 10
45.36490926850301
 20
69.09040053652647
 10
45.40317761173952
 20
69.08278848977761
 10
58.403177611739515
 20
69.08278848977761
 10
58.441445954976025
 20
69.09040053652647
 10
58.473888289858166
 20
69.11207781165895
 10
58.49556556499064
 20
69.1445201465411
 10
58.50317761173952
 20
69.18278848977761
 10
58.50317761173952
 20
84.08278848977761
 10
178.40317761173904
 20
84.08278848977761
 10
178.44144595497553
 20
84.09040053652647
 10
178.47388828985768
 20
84.11207781165895
 10
178.49556556499016
 20
84.1445201465411
 10
178.50317761173903
 20
84.18278848977761
 10
178.50317761173903
 20
94.18278848977761
 10
178.49556556499016
 20
94.22105683301413
 10
178.47388828985768
 20
94.25349916789627
 10
178.44144595497553
 20
94.27517644302874
 10
178.40317761173904
 20
94.28278848977762
 10
58.50317761173952
 20
94.28278848977762
 10
58.50317761173952
 20
109.18278848977761
 10
58.49556556499064
 20
109.22105683301413
 10
58.473888289858166
 20
109.25349916789627
 10
58.441445954976025
 20
109.27517644302874
 10
58.403177611739515
 20
109.28278848977762
 10
45.40317761173952
 20
109.28278848977762
 10
45.36490926850301
 20
109.27517644302874
 10
45.33246693362087
 20
109.25349916789627
 10
45.310789658488396
 20
109.22105683301413
 10
45.30317761173952
 20
109.18278848977761
 10
45.30317761173952
 20
94.28278848977762
 10
-14.596822388260499
 20
94.28278848977762
 10
-74.5968223882605
 20
94.28278848977762
 10
-74.63509073149703
 20
94.27517644302874
 10
-74.66753306637916
 20
94.25349916789627
 10
-74.68921034151164
 20
94.22105683301413
 10
-74.69682238826051
 20
94.18278848977761
 10
-74.69682238826051
 20
84.18278848977761
 10
-74.68921034151164
 20
84.1445201465411
 10
-74.66753306637916
 20
84.11207781165895
 10
-74.63509073149703
 20
84.09040053652647
 10
-74.5968223882605
 20
84.08278848977761
 10
-14.596822388260502
 20
84.08278848977761
  0
LWPOLYLINE
  5
4C4
330
1F
100
AcDbEntity
  8
004_rigid
 67
0
100
AcDbPolyline
 90
49
 70
1
 10
-196.5325874525937
 20
146.85474337159977
 10
-140.03475563578914
 20
90.3569115547949
 10
-152.3384136284352
 20
78.05325356214888
 10
-152.36009090356768
 20
78.02081122726673
 10
-152.36770295031656
 20
77.98254288403022
 10
-152.36009090356768
 20
77.9442745407937
 10
-152.3384136284352
 20
77.91183220591157
 10
-143.1460254730101
 20
68.71944405048644
 10
-143.11358313812792
 20
68.69776677535397
 10
-143.07531479489143
 20
68.69015472860511
 10
-143.03704645165493
 20
68.69776677535397
 10
-143.00460411677278
 20
68.71944405048644
 10
-130.70094612412652
 20
81.02310204313267
 10
-74.20311430732154
 20
24.52527022632709
 10
-17.634571812397745
 20
-32.04327226859676
 10
-17.6021294775156
 20
-32.06494954372923
 10
-17.56386113427909
 20
-32.0725615904781
 10
-17.52559279104258
 20
-32.06494954372923
 10
-17.493150456160436
 20
-32.04327226859676
 10
-13.957616550227698
 20
-28.50773836266402
 10
-13.935939275095222
 20
-28.475296027781877
 10
-13.928327228346353
 20
-28.437027684545367
 10
-13.935939275095222
 20
-28.398759341308857
 10
-13.957616550227696
 20
-28.366317006426712
 10
-70.52615904515113
 20
28.202225488497163
 10
-127.02399086195642
 20
84.70005730530272
 10
-114.72033286931081
 20
97.00371529794829
 10
-114.69865559417833
 20
97.03615763283044
 10
-114.69104354742947
 20
97.07442597606695
 10
-114.69865559417833
 20
97.11269431930347
 10
-114.72033286931081
 20
97.14513665418562
 10
-123.91272102473592
 20
106.33752480961073
 10
-123.94516335961806
 20
106.3592020847432
 10
-123.98343170285457
 20
106.36681413149206
 10
-124.0217000460911
 20
106.3592020847432
 10
-124.05414238097325
 20
106.33752480961073
 10
-136.35780037361906
 20
94.03386681696496
 10
-192.85563219042388
 20
150.53169863377
 10
-249.42417468534782
 20
207.10024112869394
 10
-249.45661702023
 20
207.1219184038264
 10
-249.4948853634665
 20
207.1295304505753
 10
-249.533153706703
 20
207.1219184038264
 10
-249.56559604158514
 20
207.10024112869394
 10
-253.10112994751788
 20
203.5647072227612
 10
-253.12280722265035
 20
203.53226488787905
 10
-253.13041926939923
 20
203.49399654464256
 10
-253.12280722265035
 20
203.45572820140606
 10
-253.10112994751788
 20
203.42328586652388
 10
-196.53258745259413
 20
146.85474337160005
  0
ENDSEC
  0
SECTION
  2
OBJECTS
  0
DICTIONARY
  5
C
330
0
100
AcDbDictionary
281
1
  3
ACAD_COLOR
350
73
  3
ACAD_GROUP
350
D
  3
ACAD_LAYOUT
350
1A
  3
ACAD_MATERIAL
350
72
  3
ACAD_MLEADERSTYLE
350
D7
  3
ACAD_MLINESTYLE
350
17
  3
ACAD_PLOTSETTINGS
350
19
  3
ACAD_PLOTSTYLENAME
350
E
  3
ACAD_SCALELIST
350
B6
  3
ACAD_TABLESTYLE
350
86
  3
ACAD_VISUALSTYLE
350
99
  3
ACDB_RECOMPOSE_DATA
350
40F
  3
AcDbVariableDictionary
350
66
  3
DWGPROPS
350
410
  0
DICTIONARY
  5
2A2
330
2
100
AcDbDictionary
280
1
281
1
  3
ACAD_LAYERSTATES
360
2A3
  0
DICTIONARY
  5
E6
330
10
100
AcDbDictionary
280
1
281
1
  0
DICTIONARY
  5
15D
330
1F
100
AcDbDictionary
280
1
281
1
  0
DICTIONARY
  5
28C
330
28B
100
AcDbDictionary
280
1
281
1
  3
ACAD_XREC_ROUNDTRIP
360
43A
  3
ASDK_XREC_ANNOTATION_SCALE_INFO
360
28D
  0
DICTIONARY
  5
291
330
290
100
AcDbDictionary
280
1
281
1
  3
ACAD_XREC_ROUNDTRIP
360
43B
  3
ASDK_XREC_ANNOTATION_SCALE_INFO
360
292
  0
DICTIONARY
  5
73
102
{ACAD_REACTORS
330
C
102
}
330
C
100
AcDbDictionary
281
1
  0
DICTIONARY
  5
D
102
{ACAD_REACTORS
330
C
102
}
330
C
100
AcDbDictionary
281
1
  0
DICTIONARY
  5
1A
102
{ACAD_REACTORS
330
C
102
}
330
C
100
AcDbDictionary
281
1
  3
Layout1
350
59
  3
Model
350
22
  0
DICTIONARY
  5
72
102
{ACAD_REACTORS
330
C
102
}
330
C
100
AcDbDictionary
281
1
  3
ByBlock
350
97
  3
ByLayer
350
96
  3
Global
350
98
  0
DICTIONARY
  5
D7
102
{ACAD_REACTORS
330
C
102
}
330
C
100
AcDbDictionary
281
1
  3
Annotative
350
E5
  3
Civil-Metric
350
288
  3
Standard
350
D8
  0
DICTIONARY
  5
17
102
{ACAD_REACTORS
330
C
102
}
330
C
100
AcDbDictionary
281
1
  3
Standard
350
18
  0
DICTIONARY
  5
19
102
{ACAD_REACTORS
330
C
102
}
330
C
100
AcDbDictionary
281
1
  0
ACDBDICTIONARYWDFLT
  5
E
102
{ACAD_REACTORS
330
C
102
}
330
C
100
AcDbDictionary
281
1
  3
Normal
350
F
100
AcDbDictionaryWithDefault
340
F
  0
DICTIONARY
  5
B6
102
{ACAD_REACTORS
330
C
102
}
330
C
100
AcDbDictionary
281
1
  3
A0
350
B7
  3
A1
350
347
  3
A2
350
348
  3
A3
350
349
  3
A4
350
34A
  3
A5
350
34B
  3
A6
350
34C
  3
A7
350
34D
  3
A8
350
34E
  3
A9
350
34F
  3
B0
350
350
  3
B1
350
351
  3
B2
350
352
  3
B3
350
353
  3
B4
350
354
  3
B5
350
355
  3
B6
350
356
  0
DICTIONARY
  5
86
102
{ACAD_REACTORS
330
C
102
}
330
C
100
AcDbDictionary
281
1
  3
Standard
350
87
  0
DICTIONARY
  5
99
102
{ACAD_REACTORS
330
C
102
}
330
C
100
AcDbDictionary
281
1
  3
2dWireframe
350
9F
  3
3D Hidden
350
A1
  3
3dWireframe
350
A0
  3
Basic
350
9E
  3
Brighten
350
A5
  3
ColorChange
350
A9
  3
Conceptual
350
A2
  3
Dim
350
A4
  3
EdgeColorOff
350
3B8
  3
Facepattern
350
A8
  3
Flat
350
9A
  3
FlatWithEdges
350
9B
  3
Gouraud
350
9C
  3
GouraudWithEdges
350
9D
  3
JitterOff
350
3B6
  3
Linepattern
350
A7
  3
OverhangOff
350
3B7
  3
Realistic
350
A3
  3
Thicken
350
A6
  0
XRECORD
  5
40F
102
{ACAD_REACTORS
330
C
102
}
330
C
100
AcDbXrecord
280
1
 90
1
330
87
  0
DICTIONARY
  5
66
102
{ACAD_REACTORS
330
C
102
}
330
C
100
AcDbDictionary
281
1
  3
ANNOALLVISIBLE
350
38E
  3
CANNOSCALE
350
F0
  3
CMLEADERSTYLE
350
EF
  3
CTABLESTYLE
350
89
  3
DIMASSOC
350
67
  3
HIDETEXT
350
6B
  3
INDEXCTL
350
3D2
  3
LAYEREVAL
350
14D
  3
LAYERNOTIFY
350
14E
  3
LIGHTINGUNITS
350
38F
  3
MSLTSCALE
350
3D0
  3
SORTENTS
350
3D1
  3
XCLIPFRAME
350
3D3
  0
XRECORD
  5
410
102
{ACAD_REACTORS
330
C
102
}
330
C
100
AcDbXrecord
280
1
  1
DWGPROPS COOKIE
  2

  3

  4

  6

  7

  8

  9

300
=
301
=
302
=
303
=
304
=
305
=
306
=
307
=
308
=
309
=
 40
0.0010436111111111
 41
2455631.34653463
 42
2455631.347576296
  1

 90
0
  0
DICTIONARY
  5
2A3
102
{ACAD_REACTORS
330
2A2
102
}
330
2A2
100
AcDbDictionary
281
1
  0
XRECORD
  5
43A
102
{ACAD_REACTORS
330
28C
102
}
330
28C
100
AcDbXrecord
280
1
102
SHADEPLOT
 70
0
  0
XRECORD
  5
28D
102
{ACAD_REACTORS
330
28C
102
}
330
28C
100
AcDbXrecord
280
1
 90
1
340
B7
  0
XRECORD
  5
43B
102
{ACAD_REACTORS
330
291
102
}
330
291
100
AcDbXrecord
280
1
102
SHADEPLOT
 70
0
  0
XRECORD
  5
292
102
{ACAD_REACTORS
330
291
102
}
330
291
100
AcDbXrecord
280
1
 90
1
340
B7
  0
LAYOUT
  5
59
102
{ACAD_XDICTIONARY
360
2A7
102
}
102
{ACAD_REACTORS
330
1A
102
}
330
1A
100
AcDbPlotSettings
  1

  2
DWFx ePlot (XPS Compatible).pc3
  4
ANSI_A_(8.50_x_11.00_Inches)
  6

 40
5.793749809265136
 41
17.79375076293945
 42
5.793746948242187
 43
17.79376220703125
 44
215.8999938964844
 45
279.3999938964844
 46
0.0
 47
0.0
 48
0.0
 49
0.0
140
0.0
141
0.0
142
1.0
143
1.0
 70
688
 72
0
 73
1
 74
5
  7
acad.ctb
 75
16
147
1.0
148
0.0
149
0.0
100
AcDbLayout
  1
Layout1
 70
1
 71
1
 10
-0.7005418191744587
 20
-0.2281003861915408
 11
10.29945794052965
 21
8.27189937351257
 12
0.0
 22
0.0
 32
0.0
 14
0.62886676639706
 24
0.7999999523162842
 34
0.0
 15
9.028866384927335
 25
7.199999570846558
 35
0.0
146
0.0
 13
0.0
 23
0.0
 33
0.0
 16
1.0
 26
0.0
 36
0.0
 17
0.0
 27
1.0
 37
0.0
 76
0
330
58
331
28B
1001
ACAD_PSEXT
1000
DWFx ePlot (XPS Compatible).pc3
1000
DWFx ePlot (XPS Compatible)
1000
File
1000

1070
0
  0
LAYOUT
  5
22
102
{ACAD_XDICTIONARY
360
411
102
}
102
{ACAD_REACTORS
330
1A
102
}
330
1A
100
AcDbPlotSettings
  1

  2
DWFx ePlot (XPS Compatible).pc3
  4
ANSI_A_(8.50_x_11.00_Inches)
  6

 40
5.793749809265136
 41
17.79375076293945
 42
5.793746948242187
 43
17.79376220703125
 44
215.8999938964844
 45
279.3999938964844
 46
0.0
 47
0.0
 48
0.0
 49
0.0
140
0.0
141
0.0
142
1.0
143
14.5331733075991
 70
11952
 72
0
 73
1
 74
0
  7

 75
0
147
0.068808097091715
148
114.9814160680965
149
300.291024640228
100
AcDbLayout
  1
Model
 70
1
 71
0
 10
0.0
 20
0.0
 11
12.0
 21
9.0
 12
0.0
 22
0.0
 32
0.0
 14
0.0
 24
0.0
 34
0.0
 15
0.0
 25
0.0
 35
0.0
146
0.0
 13
0.0
 23
0.0
 33
0.0
 16
1.0
 26
0.0
 36
0.0
 17
0.0
 27
1.0
 37
0.0
 76
0
330
1F
331
94
1001
ACAD_PSEXT
1000
DWFx ePlot (XPS Compatible).pc3
1000
DWFx ePlot (XPS Compatible)
1000
File
1000

1070
0
  0
MATERIAL
  5
97
102
{ACAD_XDICTIONARY
360
417
102
}
102
{ACAD_REACTORS
330
72
102
}
330
72
100
AcDbMaterial
  1
ByBlock
  0
MATERIAL
  5
96
102
{ACAD_XDICTIONARY
360
415
102
}
102
{ACAD_REACTORS
330
72
102
}
330
72
100
AcDbMaterial
  1
ByLayer
  0
MATERIAL
  5
98
102
{ACAD_XDICTIONARY
360
110
102
}
102
{ACAD_REACTORS
330
72
102
}
330
72
100
AcDbMaterial
  1
Global
 43
0.0208000000566244
 43
0.0
 43
0.0
 43
0.0
 43
0.0
 43
0.0208000000566244
 43
0.0
 43
0.0
 43
0.0
 43
0.0
 43
1.0
 43
0.0
 43
0.0
 43
0.0
 43
0.0
 43
1.0
 49
0.0208000000566244
 49
0.0
 49
0.0
 49
0.0
 49
0.0
 49
0.0208000000566244
 49
0.0
 49
0.0
 49
0.0
 49
0.0
 49
1.0
 49
0.0
 49
0.0
 49
0.0
 49
0.0
 49
1.0
142
0.0208000000566244
142
0.0
142
0.0
142
0.0
142
0.0
142
0.0208000000566244
142
0.0
142
0.0
142
0.0
142
0.0
142
1.0
142
0.0
142
0.0
142
0.0
142
0.0
142
1.0
144
0.0208000000566244
144
0.0
144
0.0
144
0.0
144
0.0
144
0.0208000000566244
144
0.0
144
0.0
144
0.0
144
0.0
144
1.0
144
0.0
144
0.0
144
0.0
144
0.0
144
1.0
1001
ACAD
1070
-1
1070
3
1070
0
1000

1071
0
1070
0
  0
MLEADERSTYLE
  5
E5
102
{ACAD_REACTORS
330
D7
102
}
330
D7
100
AcDbMLeaderStyle
170
2
171
1
172
0
 90
2
 40
0.0
 41
0.0
173
1
 91
-1056964608
340
14
 92
-2
290
1
 42
2.0
291
1
 43
9.0
  3
Standard
 44
4.0
300

342
11
174
1
178
1
175
1
176
0
 93
-1056964608
 45
4.0
292
0
297
0
 46
0.18
 94
-1056964608
 47
1.0
 49
1.0
140
1.0
293
1
141
0.0
294
1
177
0
142
1.0
295
0
296
1
143
3.0
1001
ACAD_MLEADERVER
1070
2
  0
MLEADERSTYLE
  5
288
102
{ACAD_REACTORS
330
D7
102
}
330
D7
100
AcDbMLeaderStyle
170
2
171
1
172
0
 90
2
 40
0.0
 41
0.0
173
1
 91
-1056964608
340
14
 92
-2
290
1
 42
2.0
291
1
 43
7.0
  3
Standard
 44
3.0
300

342
178
174
1
178
1
175
1
176
0
 93
-1056964608
 45
3.0
292
0
297
1
 46
0.18
 94
-1056964608
 47
1.0
 49
1.0
140
1.0
293
1
141
0.0
294
1
177
0
142
1.0
295
0
296
1
143
3.0
1001
ACAD_MLEADERVER
1070
2
  0
MLEADERSTYLE
  5
D8
102
{ACAD_REACTORS
330
D7
102
}
330
D7
100
AcDbMLeaderStyle
170
2
171
1
172
0
 90
2
 40
0.0
 41
0.0
173
1
 91
-1056964608
340
14
 92
-2
290
1
 42
2.0
291
1
 43
9.0
  3
Standard
 44
4.0
300

342
11
174
1
178
1
175
1
176
0
 93
-1056964608
 45
4.0
292
0
297
0
 46
0.18
 94
-1056964608
 47
1.0
 49
1.0
140
1.0
293
1
141
0.0
294
1
177
0
142
1.0
295
0
296
0
143
3.0
1001
ACAD_MLEADERVER
1070
2
  0
MLINESTYLE
  5
18
102
{ACAD_REACTORS
330
17
102
}
330
17
100
AcDbMlineStyle
  2
STANDARD
 70
0
  3

 62
256
 51
90.0
 52
90.0
 71
2
 49
0.5
 62
256
  6
BYLAYER
 49
-0.5
 62
256
  6
BYLAYER
  0
ACDBPLACEHOLDER
  5
F
102
{ACAD_REACTORS
330
E
102
}
330
E
  0
SCALE
  5
B7
102
{ACAD_REACTORS
330
B6
102
}
330
B6
100
AcDbScale
 70
0
300
1:1
140
1.0
141
1.0
290
1
  0
SCALE
  5
347
102
{ACAD_REACTORS
330
B6
102
}
330
B6
100
AcDbScale
 70
0
300
1:2
140
1.0
141
2.0
290
0
  0
SCALE
  5
348
102
{ACAD_REACTORS
330
B6
102
}
330
B6
100
AcDbScale
 70
0
300
1:4
140
1.0
141
4.0
290
0
  0
SCALE
  5
349
102
{ACAD_REACTORS
330
B6
102
}
330
B6
100
AcDbScale
 70
0
300
1:5
140
1.0
141
5.0
290
0
  0
SCALE
  5
34A
102
{ACAD_REACTORS
330
B6
102
}
330
B6
100
AcDbScale
 70
0
300
1:8
140
1.0
141
8.0
290
0
  0
SCALE
  5
34B
102
{ACAD_REACTORS
330
B6
102
}
330
B6
100
AcDbScale
 70
0
300
1:10
140
1.0
141
10.0
290
0
  0
SCALE
  5
34C
102
{ACAD_REACTORS
330
B6
102
}
330
B6
100
AcDbScale
 70
0
300
1:16
140
1.0
141
16.0
290
0
  0
SCALE
  5
34D
102
{ACAD_REACTORS
330
B6
102
}
330
B6
100
AcDbScale
 70
0
300
1:20
140
1.0
141
20.0
290
0
  0
SCALE
  5
34E
102
{ACAD_REACTORS
330
B6
102
}
330
B6
100
AcDbScale
 70
0
300
1:30
140
1.0
141
30.0
290
0
  0
SCALE
  5
34F
102
{ACAD_REACTORS
330
B6
102
}
330
B6
100
AcDbScale
 70
0
300
1:40
140
1.0
141
40.0
290
0
  0
SCALE
  5
350
102
{ACAD_REACTORS
330
B6
102
}
330
B6
100
AcDbScale
 70
0
300
1:50
140
1.0
141
50.0
290
0
  0
SCALE
  5
351
102
{ACAD_REACTORS
330
B6
102
}
330
B6
100
AcDbScale
 70
0
300
1:100
140
1.0
141
100.0
290
0
  0
SCALE
  5
352
102
{ACAD_REACTORS
330
B6
102
}
330
B6
100
AcDbScale
 70
0
300
2:1
140
2.0
141
1.0
290
0
  0
SCALE
  5
353
102
{ACAD_REACTORS
330
B6
102
}
330
B6
100
AcDbScale
 70
0
300
4:1
140
4.0
141
1.0
290
0
  0
SCALE
  5
354
102
{ACAD_REACTORS
330
B6
102
}
330
B6
100
AcDbScale
 70
0
300
8:1
140
8.0
141
1.0
290
0
  0
SCALE
  5
355
102
{ACAD_REACTORS
330
B6
102
}
330
B6
100
AcDbScale
 70
0
300
10:1
140
10.0
141
1.0
290
0
  0
SCALE
  5
356
102
{ACAD_REACTORS
330
B6
102
}
330
B6
100
AcDbScale
 70
0
300
100:1
140
100.0
141
1.0
290
0
  0
TABLESTYLE
  5
87
102
{ACAD_XDICTIONARY
360
104
102
}
102
{ACAD_REACTORS
330
86
102
}
330
86
100
AcDbTableStyle
  3
Standard
 70
0
 71
0
 40
0.06
 41
0.06
280
0
281
0
  7
Standard
140
0.18
170
2
 62
0
 63
7
283
0
274
-2
284
1
 64
0
275
-2
285
1
 65
0
276
-2
286
1
 66
0
277
-2
287
1
 67
0
278
-2
288
1
 68
0
279
-2
289
1
 69
0
  7
Standard
140
0.25
170
5
 62
0
 63
7
283
0
274
-2
284
1
 64
0
275
-2
285
1
 65
0
276
-2
286
1
 66
0
277
-2
287
1
 67
0
278
-2
288
1
 68
0
279
-2
289
1
 69
0
  7
Standard
140
0.18
170
5
 62
0
 63
7
283
0
274
-2
284
1
 64
0
275
-2
285
1
 65
0
276
-2
286
1
 66
0
277
-2
287
1
 67
0
278
-2
288
1
 68
0
279
-2
289
1
 69
0
  0
VISUALSTYLE
  5
9F
102
{ACAD_XDICTIONARY
360
424
102
}
102
{ACAD_REACTORS
330
99
102
}
330
99
100
AcDbVisualStyle
  2
2dWireframe
 70
4
 71
0
 72
2
 73
1
 90
0
 40
-0.6
 41
-30.0
 62
5
 63
7
 74
1
 91
4
 64
7
 65
257
 75
1
175
1
 42
1.0
 92
0
 66
257
 43
1.0
 76
1
 77
6
 78
2
 67
7
 79
5
170
0
171
0
290
0
174
0
 93
1
 44
0.0
173
0
291
0
 45
0.0
1001
ACAD
1000
AcDbSavedByObjectVersion
1070
0
  0
VISUALSTYLE
  5
A1
102
{ACAD_XDICTIONARY
360
428
102
}
102
{ACAD_REACTORS
330
99
102
}
330
99
100
AcDbVisualStyle
  2
3D Hidden
 70
6
 71
1
 72
2
 73
2
 90
0
 40
-0.6
 41
-30.0
 62
5
 63
7
 74
2
 91
2
 64
7
 65
257
 75
2
175
1
 42
40.0
 92
0
 66
257
 43
1.0
 76
1
 77
6
 78
2
 67
7
 79
3
170
0
171
0
290
0
174
0
 93
1
 44
0.0
173
0
291
0
 45
0.0
1001
ACAD
1000
AcDbSavedByObjectVersion
1070
0
  0
VISUALSTYLE
  5
A0
102
{ACAD_XDICTIONARY
360
426
102
}
102
{ACAD_REACTORS
330
99
102
}
330
99
100
AcDbVisualStyle
  2
3dWireframe
 70
5
 71
0
 72
2
 73
1
 90
0
 40
-0.6
 41
-30.0
 62
5
 63
7
 74
1
 91
4
 64
7
 65
257
 75
1
175
1
 42
1.0
 92
0
 66
257
 43
1.0
 76
1
 77
6
 78
2
 67
7
 79
5
170
0
171
0
290
0
174
0
 93
1
 44
0.0
173
0
291
0
 45
0.0
1001
ACAD
1000
AcDbSavedByObjectVersion
1070
0
  0
VISUALSTYLE
  5
9E
102
{ACAD_XDICTIONARY
360
422
102
}
102
{ACAD_REACTORS
330
99
102
}
330
99
100
AcDbVisualStyle
  2
Basic
 70
7
 71
1
 72
0
 73
1
 90
0
 40
-0.6
 41
-30.0
 62
5
 63
7
 74
0
 91
4
 64
7
 65
257
 75
1
175
1
 42
1.0
 92
8
 66
7
 43
1.0
 76
1
 77
6
 78
2
 67
7
 79
5
170
0
171
0
290
0
174
0
 93
1
 44
0.0
173
0
291
1
 45
0.0
1001
ACAD
1000
AcDbSavedByObjectVersion
1070
0
  0
VISUALSTYLE
  5
A5
102
{ACAD_XDICTIONARY
360
430
102
}
102
{ACAD_REACTORS
330
99
102
}
330
99
100
AcDbVisualStyle
  2
Brighten
 70
12
 71
2
 72
2
 73
1
 90
0
 40
-0.6
 41
-30.0
 62
5
 63
7
 74
1
 91
4
 64
7
 65
257
 75
1
175
1
 42
1.0
 92
8
 66
7
 43
1.0
 76
1
 77
6
 78
2
 67
7
 79
5
170
0
171
0
290
0
174
0
 93
1
 44
50.0
173
0
291
1
 45
0.0
1001
ACAD
1000
AcDbSavedByObjectVersion
1070
0
  0
VISUALSTYLE
  5
A9
102
{ACAD_XDICTIONARY
360
438
102
}
102
{ACAD_REACTORS
330
99
102
}
330
99
100
AcDbVisualStyle
  2
ColorChange
 70
16
 71
2
 72
2
 73
3
 90
0
 40
-0.6
 41
-30.0
 62
5
 63
8
 74
1
 91
4
 64
7
 65
257
 75
1
175
1
 42
1.0
 92
8
 66
8
 43
1.0
 76
1
 77
6
 78
2
 67
7
 79
5
170
0
171
0
290
0
174
0
 93
1
 44
0.0
173
0
291
1
 45
0.0
1001
ACAD
1000
AcDbSavedByObjectVersion
1070
0
  0
VISUALSTYLE
  5
A2
102
{ACAD_XDICTIONARY
360
42A
102
}
102
{ACAD_REACTORS
330
99
102
}
330
99
100
AcDbVisualStyle
  2
Conceptual
 70
9
 71
3
 72
2
 73
1
 90
0
 40
-0.6
 41
-30.0
 62
5
 63
7
 74
2
 91
2
 64
7
 65
257
 75
1
175
1
 42
40.0
 92
8
 66
7
 43
1.0
 76
1
 77
6
 78
2
 67
7
 79
3
170
0
171
0
290
0
174
0
 93
1
 44
0.0
173
0
291
0
 45
0.0
1001
ACAD
1000
AcDbSavedByObjectVersion
1070
0
  0
VISUALSTYLE
  5
A4
102
{ACAD_XDICTIONARY
360
42E
102
}
102
{ACAD_REACTORS
330
99
102
}
330
99
100
AcDbVisualStyle
  2
Dim
 70
11
 71
2
 72
2
 73
1
 90
0
 40
-0.6
 41
-30.0
 62
5
 63
7
 74
1
 91
4
 64
7
 65
257
 75
1
175
1
 42
1.0
 92
8
 66
7
 43
1.0
 76
1
 77
6
 78
2
 67
7
 79
5
170
0
171
0
290
0
174
0
 93
1
 44
-50.0
173
0
291
1
 45
0.0
1001
ACAD
1000
AcDbSavedByObjectVersion
1070
0
  0
VISUALSTYLE
  5
3B8
102
{ACAD_XDICTIONARY
360
440
102
}
102
{ACAD_REACTORS
330
99
102
}
330
99
100
AcDbVisualStyle
  2
EdgeColorOff
 70
22
 71
2
 72
2
 73
0
 90
0
 40
-0.6
 41
-30.0
 62
5
 63
7
 74
1
 91
4
 64
7
 65
257
 75
1
175
1
 42
1.0
 92
8
 66
7
 43
1.0
 76
1
 77
6
 78
2
 67
7
 79
5
170
0
171
0
290
0
174
0
 93
1
 44
0.0
173
0
291
1
 45
0.0
1001
ACAD
1000
AcDbSavedByObjectVersion
1070
0
  0
VISUALSTYLE
  5
A8
102
{ACAD_XDICTIONARY
360
436
102
}
102
{ACAD_REACTORS
330
99
102
}
330
99
100
AcDbVisualStyle
  2
Facepattern
 70
15
 71
2
 72
2
 73
1
 90
0
 40
-0.6
 41
-30.0
 62
5
 63
7
 74
1
 91
4
 64
7
 65
257
 75
1
175
1
 42
1.0
 92
8
 66
7
 43
1.0
 76
1
 77
6
 78
2
 67
7
 79
5
170
0
171
0
290
0
174
0
 93
1
 44
0.0
173
0
291
1
 45
0.0
1001
ACAD
1000
AcDbSavedByObjectVersion
1070
0
  0
VISUALSTYLE
  5
9A
102
{ACAD_XDICTIONARY
360
41A
102
}
102
{ACAD_REACTORS
330
99
102
}
330
99
100
AcDbVisualStyle
  2
Flat
 70
0
 71
2
 72
1
 73
1
 90
2
 40
-0.6
 41
30.0
 62
5
 63
7
 74
0
 91
4
 64
7
 65
257
 75
1
175
1
 42
1.0
 92
8
 66
7
 43
1.0
 76
1
 77
6
 78
2
 67
7
 79
5
170
0
171
0
290
0
174
0
 93
1
 44
0.0
173
0
291
1
 45
0.0
1001
ACAD
1000
AcDbSavedByObjectVersion
1070
0
  0
VISUALSTYLE
  5
9B
102
{ACAD_XDICTIONARY
360
41C
102
}
102
{ACAD_REACTORS
330
99
102
}
330
99
100
AcDbVisualStyle
  2
FlatWithEdges
 70
1
 71
2
 72
1
 73
1
 90
2
 40
-0.6
 41
30.0
 62
5
 63
7
 74
1
 91
4
 64
7
 65
257
 75
1
175
1
 42
1.0
 92
0
 66
257
 43
1.0
 76
1
 77
6
 78
2
 67
7
 79
5
170
0
171
0
290
0
174
0
 93
1
 44
0.0
173
0
291
1
 45
0.0
1001
ACAD
1000
AcDbSavedByObjectVersion
1070
0
  0
VISUALSTYLE
  5
9C
102
{ACAD_XDICTIONARY
360
41E
102
}
102
{ACAD_REACTORS
330
99
102
}
330
99
100
AcDbVisualStyle
  2
Gouraud
 70
2
 71
2
 72
2
 73
1
 90
2
 40
-0.6
 41
30.0
 62
5
 63
7
 74
0
 91
4
 64
7
 65
257
 75
1
175
1
 42
1.0
 92
0
 66
7
 43
1.0
 76
1
 77
6
 78
2
 67
7
 79
5
170
0
171
0
290
0
174
0
 93
1
 44
0.0
173
0
291
1
 45
0.0
1001
ACAD
1000
AcDbSavedByObjectVersion
1070
0
  0
VISUALSTYLE
  5
9D
102
{ACAD_XDICTIONARY
360
420
102
}
102
{ACAD_REACTORS
330
99
102
}
330
99
100
AcDbVisualStyle
  2
GouraudWithEdges
 70
3
 71
2
 72
2
 73
1
 90
2
 40
-0.6
 41
30.0
 62
5
 63
7
 74
1
 91
4
 64
7
 65
257
 75
1
175
1
 42
1.0
 92
0
 66
257
 43
1.0
 76
1
 77
6
 78
2
 67
7
 79
5
170
0
171
0
290
0
174
0
 93
1
 44
0.0
173
0
291
1
 45
0.0
1001
ACAD
1000
AcDbSavedByObjectVersion
1070
0
  0
VISUALSTYLE
  5
3B6
102
{ACAD_XDICTIONARY
360
43C
102
}
102
{ACAD_REACTORS
330
99
102
}
330
99
100
AcDbVisualStyle
  2
JitterOff
 70
20
 71
2
 72
2
 73
0
 90
0
 40
-0.6
 41
-30.0
 62
5
 63
7
 74
1
 91
4
 64
7
 65
257
 75
1
175
1
 42
1.0
 92
10
 66
7
 43
1.0
 76
1
 77
6
 78
2
 67
7
 79
5
170
0
171
0
290
0
174
0
 93
1
 44
0.0
173
0
291
1
 45
0.0
1001
ACAD
1000
AcDbSavedByObjectVersion
1070
0
  0
VISUALSTYLE
  5
A7
102
{ACAD_XDICTIONARY
360
434
102
}
102
{ACAD_REACTORS
330
99
102
}
330
99
100
AcDbVisualStyle
  2
Linepattern
 70
14
 71
2
 72
2
 73
1
 90
0
 40
-0.6
 41
-30.0
 62
5
 63
7
 74
1
 91
4
 64
7
 65
257
 75
7
175
7
 42
1.0
 92
8
 66
7
 43
1.0
 76
1
 77
6
 78
2
 67
7
 79
5
170
0
171
0
290
0
174
0
 93
1
 44
0.0
173
0
291
1
 45
0.0
1001
ACAD
1000
AcDbSavedByObjectVersion
1070
0
  0
VISUALSTYLE
  5
3B7
102
{ACAD_XDICTIONARY
360
43E
102
}
102
{ACAD_REACTORS
330
99
102
}
330
99
100
AcDbVisualStyle
  2
OverhangOff
 70
21
 71
2
 72
2
 73
0
 90
0
 40
-0.6
 41
-30.0
 62
5
 63
7
 74
1
 91
4
 64
7
 65
257
 75
1
175
1
 42
1.0
 92
9
 66
7
 43
1.0
 76
1
 77
6
 78
2
 67
7
 79
5
170
0
171
0
290
0
174
0
 93
1
 44
0.0
173
0
291
1
 45
0.0
1001
ACAD
1000
AcDbSavedByObjectVersion
1070
0
  0
VISUALSTYLE
  5
A3
102
{ACAD_XDICTIONARY
360
42C
102
}
102
{ACAD_REACTORS
330
99
102
}
330
99
100
AcDbVisualStyle
  2
Realistic
 70
8
 71
2
 72
2
 73
1
 90
0
 40
-0.6
 41
-30.0
 62
5
 63
7
 74
1
 91
0
 64
7
 65
257
 75
1
175
1
 42
1.0
 92
8
 66
8
 43
1.0
 76
1
 77
6
 78
2
 67
7
 79
5
170
0
171
0
290
0
174
0
 93
13
 44
0.0
173
0
291
0
 45
0.0
1001
ACAD
1000
AcDbSavedByObjectVersion
1070
0
  0
VISUALSTYLE
  5
A6
102
{ACAD_XDICTIONARY
360
432
102
}
102
{ACAD_REACTORS
330
99
102
}
330
99
100
AcDbVisualStyle
  2
Thicken
 70
13
 71
2
 72
2
 73
1
 90
0
 40
-0.6
 41
-30.0
 62
5
 63
7
 74
1
 91
4
 64
7
 65
257
 75
1
175
1
 42
1.0
 92
12
 66
7
 43
1.0
 76
1
 77
6
 78
2
 67
7
 79
5
170
0
171
0
290
0
174
0
 93
1
 44
0.0
173
0
291
1
 45
0.0
1001
ACAD
1000
AcDbSavedByObjectVersion
1070
0
  0
DICTIONARYVAR
  5
38E
102
{ACAD_REACTORS
330
66
102
}
330
66
100
DictionaryVariables
280
0
  1
0
  0
DICTIONARYVAR
  5
F0
102
{ACAD_REACTORS
330
66
102
}
330
66
100
DictionaryVariables
280
0
  1
1:1
  0
DICTIONARYVAR
  5
EF
102
{ACAD_REACTORS
330
66
102
}
330
66
100
DictionaryVariables
280
0
  1
Civil-Metric
  0
DICTIONARYVAR
  5
89
102
{ACAD_REACTORS
330
66
102
}
330
66
100
DictionaryVariables
280
0
  1
STANDARD
  0
DICTIONARYVAR
  5
67
102
{ACAD_REACTORS
330
66
102
}
330
66
100
DictionaryVariables
280
0
  1
2
  0
DICTIONARYVAR
  5
6B
102
{ACAD_REACTORS
330
66
102
}
330
66
100
DictionaryVariables
280
0
  1
1
  0
DICTIONARYVAR
  5
3D2
102
{ACAD_REACTORS
330
66
102
}
330
66
100
DictionaryVariables
280
0
  1
0
  0
DICTIONARYVAR
  5
14D
102
{ACAD_REACTORS
330
66
102
}
330
66
100
DictionaryVariables
280
0
  1
0
  0
DICTIONARYVAR
  5
14E
102
{ACAD_REACTORS
330
66
102
}
330
66
100
DictionaryVariables
280
0
  1
0
  0
DICTIONARYVAR
  5
38F
102
{ACAD_REACTORS
330
66
102
}
330
66
100
DictionaryVariables
280
0
  1
1
  0
DICTIONARYVAR
  5
3D0
102
{ACAD_REACTORS
330
66
102
}
330
66
100
DictionaryVariables
280
0
  1
1
  0
DICTIONARYVAR
  5
3D1
102
{ACAD_REACTORS
330
66
102
}
330
66
100
DictionaryVariables
280
0
  1
127
  0
DICTIONARYVAR
  5
3D3
102
{ACAD_REACTORS
330
66
102
}
330
66
100
DictionaryVariables
280
0
  1
0
  0
DICTIONARY
  5
2A7
330
59
100
AcDbDictionary
280
1
281
1
  3
ACAD_XREC_ROUNDTRIP
360
413
  3
ADSK_XREC_LAYOUTTHUMBNAIL
360
2A8
  0
DICTIONARY
  5
411
330
22
100
AcDbDictionary
280
1
281
1
  3
ACAD_XREC_ROUNDTRIP
360
412
  0
DICTIONARY
  5
417
330
97
100
AcDbDictionary
280
1
281
1
  3
ACAD_XREC_ROUNDTRIP
360
418
  0
DICTIONARY
  5
415
330
96
100
AcDbDictionary
280
1
281
1
  3
ACAD_XREC_ROUNDTRIP
360
416
  0
DICTIONARY
  5
110
330
98
100
AcDbDictionary
280
1
281
1
  3
ACAD_XREC_ROUNDTRIP
360
419
  3
BUMPTILE
360
112
  3
DIFFUSETILE
360
111
  3
OPACITYTILE
360
113
  3
REFLECTIONTILE
360
114
  0
DICTIONARY
  5
104
330
87
100
AcDbDictionary
280
1
281
1
  3
ACAD_ROUNDTRIP_2008_TABLESTYLE_CELLSTYLEMAP
360
40E
  3
ACAD_XREC_ROUNDTRIP
360
414
  0
DICTIONARY
  5
424
330
9F
100
AcDbDictionary
280
1
281
1
  3
ACAD_XREC_ROUNDTRIP
360
425
  0
DICTIONARY
  5
428
330
A1
100
AcDbDictionary
280
1
281
1
  3
ACAD_XREC_ROUNDTRIP
360
429
  0
DICTIONARY
  5
426
330
A0
100
AcDbDictionary
280
1
281
1
  3
ACAD_XREC_ROUNDTRIP
360
427
  0
DICTIONARY
  5
422
330
9E
100
AcDbDictionary
280
1
281
1
  3
ACAD_XREC_ROUNDTRIP
360
423
  0
DICTIONARY
  5
430
330
A5
100
AcDbDictionary
280
1
281
1
  3
ACAD_XREC_ROUNDTRIP
360
431
  0
DICTIONARY
  5
438
330
A9
100
AcDbDictionary
280
1
281
1
  3
ACAD_XREC_ROUNDTRIP
360
439
  0
DICTIONARY
  5
42A
330
A2
100
AcDbDictionary
280
1
281
1
  3
ACAD_XREC_ROUNDTRIP
360
42B
  0
DICTIONARY
  5
42E
330
A4
100
AcDbDictionary
280
1
281
1
  3
ACAD_XREC_ROUNDTRIP
360
42F
  0
DICTIONARY
  5
440
330
3B8
100
AcDbDictionary
280
1
281
1
  3
ACAD_XREC_ROUNDTRIP
360
441
  0
DICTIONARY
  5
436
330
A8
100
AcDbDictionary
280
1
281
1
  3
ACAD_XREC_ROUNDTRIP
360
437
  0
DICTIONARY
  5
41A
330
9A
100
AcDbDictionary
280
1
281
1
  3
ACAD_XREC_ROUNDTRIP
360
41B
  0
DICTIONARY
  5
41C
330
9B
100
AcDbDictionary
280
1
281
1
  3
ACAD_XREC_ROUNDTRIP
360
41D
  0
DICTIONARY
  5
41E
330
9C
100
AcDbDictionary
280
1
281
1
  3
ACAD_XREC_ROUNDTRIP
360
41F
  0
DICTIONARY
  5
420
330
9D
100
AcDbDictionary
280
1
281
1
  3
ACAD_XREC_ROUNDTRIP
360
421
  0
DICTIONARY
  5
43C
330
3B6
100
AcDbDictionary
280
1
281
1
  3
ACAD_XREC_ROUNDTRIP
360
43D
  0
DICTIONARY
  5
434
330
A7
100
AcDbDictionary
280
1
281
1
  3
ACAD_XREC_ROUNDTRIP
360
435
  0
DICTIONARY
  5
43E
330
3B7
100
AcDbDictionary
280
1
281
1
  3
ACAD_XREC_ROUNDTRIP
360
43F
  0
DICTIONARY
  5
42C
330
A3
100
AcDbDictionary
280
1
281
1
  3
ACAD_XREC_ROUNDTRIP
360
42D
  0
DICTIONARY
  5
432
330
A6
100
AcDbDictionary
280
1
281
1
  3
ACAD_XREC_ROUNDTRIP
360
433
  0
XRECORD
  5
413
102
{ACAD_REACTORS
330
2A7
102
}
330
2A7
100
AcDbXrecord
280
1
102
SHADEPLOT
 70
0
102
SHADEPLOTRESLEVEL
 70
2
102
SHADEPLOTCUSTOMDPI
 70
300
  0
XRECORD
  5
412
102
{ACAD_REACTORS
330
411
102
}
330
411
100
AcDbXrecord
280
1
102
SHADEPLOT
 70
0
102
SHADEPLOTRESLEVEL
 70
2
102
SHADEPLOTCUSTOMDPI
 70
300
  0
XRECORD
  5
418
102
{ACAD_REACTORS
330
417
102
}
330
417
100
AcDbXrecord
280
1
102
MATERIAL
148
0.0
149
0.0
149
0.0
 93
0
 94
63
282
0
 72
1
 77
1
171
1
175
1
179
1
273
0
  0
XRECORD
  5
416
102
{ACAD_REACTORS
330
415
102
}
330
415
100
AcDbXrecord
280
1
102
MATERIAL
148
0.0
149
0.0
149
0.0
 93
0
 94
63
282
0
 72
1
 77
1
171
1
175
1
179
1
273
0
  0
XRECORD
  5
419
102
{ACAD_REACTORS
330
110
102
}
330
110
100
AcDbXrecord
280
1
102
MATERIAL
148
0.0
149
0.0
149
0.0
 93
0
 94
63
282
0
 72
1
 77
1
171
1
175
1
179
1
273
0
  0
XRECORD
  5
112
102
{ACAD_REACTORS
330
110
102
}
330
110
100
AcDbXrecord
280
1
270
1
271
1
  0
XRECORD
  5
111
102
{ACAD_REACTORS
330
110
102
}
330
110
100
AcDbXrecord
280
1
270
1
271
1
  0
XRECORD
  5
113
102
{ACAD_REACTORS
330
110
102
}
330
110
100
AcDbXrecord
280
1
270
1
271
1
  0
XRECORD
  5
114
102
{ACAD_REACTORS
330
110
102
}
330
110
100
AcDbXrecord
280
1
270
1
271
1
  0
CELLSTYLEMAP
  5
40E
102
{ACAD_REACTORS
330
104
102
}
330
104
100
AcDbCellStyleMap
 90
3
300
CELLSTYLE
  1
TABLEFORMAT_BEGIN
 90
5
170
1
 91
0
 92
32768
 62
257
 93
1
300
CONTENTFORMAT
  1
CONTENTFORMAT_BEGIN
 90
0
 91
0
 92
512
 93
0
300

 40
0.0
140
1.0
 94
5
 62
0
340
11
144
0.25
309
CONTENTFORMAT_END
171
1
301
MARGIN
  1
CELLMARGIN_BEGIN
 40
0.06
 40
0.06
 40
0.06
 40
0.06
 40
0.18
 40
0.18
309
CELLMARGIN_END
 94
6
 95
1
302
GRIDFORMAT
  1
GRIDFORMAT_BEGIN
 90
0
 91
1
 62
0
 92
-2
340
0
 93
0
 40
0.045
309
GRIDFORMAT_END
 95
2
302
GRIDFORMAT
  1
GRIDFORMAT_BEGIN
 90
0
 91
1
 62
0
 92
-2
340
0
 93
0
 40
0.045
309
GRIDFORMAT_END
 95
4
302
GRIDFORMAT
  1
GRIDFORMAT_BEGIN
 90
0
 91
1
 62
0
 92
-2
340
0
 93
0
 40
0.045
309
GRIDFORMAT_END
 95
8
302
GRIDFORMAT
  1
GRIDFORMAT_BEGIN
 90
0
 91
1
 62
0
 92
-2
340
0
 93
0
 40
0.045
309
GRIDFORMAT_END
 95
16
302
GRIDFORMAT
  1
GRIDFORMAT_BEGIN
 90
0
 91
1
 62
0
 92
-2
340
0
 93
0
 40
0.045
309
GRIDFORMAT_END
 95
32
302
GRIDFORMAT
  1
GRIDFORMAT_BEGIN
 90
0
 91
1
 62
0
 92
-2
340
0
 93
0
 40
0.045
309
GRIDFORMAT_END
309
TABLEFORMAT_END
  1
CELLSTYLE_BEGIN
 90
1
 91
1
300
_TITLE
309
CELLSTYLE_END
300
CELLSTYLE
  1
TABLEFORMAT_BEGIN
 90
5
170
1
 91
0
 92
0
 62
257
 93
1
300
CONTENTFORMAT
  1
CONTENTFORMAT_BEGIN
 90
0
 91
0
 92
512
 93
0
300

 40
0.0
140
1.0
 94
5
 62
0
340
11
144
0.18
309
CONTENTFORMAT_END
171
1
301
MARGIN
  1
CELLMARGIN_BEGIN
 40
0.06
 40
0.06
 40
0.06
 40
0.06
 40
0.18
 40
0.18
309
CELLMARGIN_END
 94
6
 95
1
302
GRIDFORMAT
  1
GRIDFORMAT_BEGIN
 90
0
 91
1
 62
0
 92
-2
340
0
 93
0
 40
0.045
309
GRIDFORMAT_END
 95
2
302
GRIDFORMAT
  1
GRIDFORMAT_BEGIN
 90
0
 91
1
 62
0
 92
-2
340
0
 93
0
 40
0.045
309
GRIDFORMAT_END
 95
4
302
GRIDFORMAT
  1
GRIDFORMAT_BEGIN
 90
0
 91
1
 62
0
 92
-2
340
0
 93
0
 40
0.045
309
GRIDFORMAT_END
 95
8
302
GRIDFORMAT
  1
GRIDFORMAT_BEGIN
 90
0
 91
1
 62
0
 92
-2
340
0
 93
0
 40
0.045
309
GRIDFORMAT_END
 95
16
302
GRIDFORMAT
  1
GRIDFORMAT_BEGIN
 90
0
 91
1
 62
0
 92
-2
340
0
 93
0
 40
0.045
309
GRIDFORMAT_END
 95
32
302
GRIDFORMAT
  1
GRIDFORMAT_BEGIN
 90
0
 91
1
 62
0
 92
-2
340
0
 93
0
 40
0.045
309
GRIDFORMAT_END
309
TABLEFORMAT_END
  1
CELLSTYLE_BEGIN
 90
2
 91
1
300
_HEADER
309
CELLSTYLE_END
300
CELLSTYLE
  1
TABLEFORMAT_BEGIN
 90
5
170
1
 91
0
 92
0
 62
257
 93
1
300
CONTENTFORMAT
  1
CONTENTFORMAT_BEGIN
 90
0
 91
0
 92
512
 93
0
300

 40
0.0
140
1.0
 94
2
 62
0
340
11
144
0.18
309
CONTENTFORMAT_END
171
1
301
MARGIN
  1
CELLMARGIN_BEGIN
 40
0.06
 40
0.06
 40
0.06
 40
0.06
 40
0.18
 40
0.18
309
CELLMARGIN_END
 94
6
 95
1
302
GRIDFORMAT
  1
GRIDFORMAT_BEGIN
 90
0
 91
1
 62
0
 92
-2
340
0
 93
0
 40
0.045
309
GRIDFORMAT_END
 95
2
302
GRIDFORMAT
  1
GRIDFORMAT_BEGIN
 90
0
 91
1
 62
0
 92
-2
340
0
 93
0
 40
0.045
309
GRIDFORMAT_END
 95
4
302
GRIDFORMAT
  1
GRIDFORMAT_BEGIN
 90
0
 91
1
 62
0
 92
-2
340
0
 93
0
 40
0.045
309
GRIDFORMAT_END
 95
8
302
GRIDFORMAT
  1
GRIDFORMAT_BEGIN
 90
0
 91
1
 62
0
 92
-2
340
0
 93
0
 40
0.045
309
GRIDFORMAT_END
 95
16
302
GRIDFORMAT
  1
GRIDFORMAT_BEGIN
 90
0
 91
1
 62
0
 92
-2
340
0
 93
0
 40
0.045
309
GRIDFORMAT_END
 95
32
302
GRIDFORMAT
  1
GRIDFORMAT_BEGIN
 90
0
 91
1
 62
0
 92
-2
340
0
 93
0
 40
0.045
309
GRIDFORMAT_END
309
TABLEFORMAT_END
  1
CELLSTYLE_BEGIN
 90
3
 91
2
300
_DATA
309
CELLSTYLE_END
  0
XRECORD
  5
414
102
{ACAD_REACTORS
330
104
102
}
330
104
100
AcDbXrecord
280
1
102
ACAD_ROUNDTRIP_PRE2007_TABLESTYLE
 90
512
 91
0
  1

 92
512
 93
0
  2

 94
512
 95
0
  3

  0
XRECORD
  5
425
102
{ACAD_REACTORS
330
424
102
}
330
424
100
AcDbXrecord
280
1
102
RTVSPropertyOp0
 70
1
102
RTVSPropertyOp1
 70
1
102
RTVSPropertyOp2
 70
1
102
RTVSPropertyOp3
 70
1
102
RTVSPropertyOp4
 70
1
102
RTVSPropertyOp5
 70
1
102
RTVSPropertyOp6
 70
1
102
RTVSPropertyOp7
 70
1
102
RTVSPropertyOp8
 70
1
102
RTVSPropertyOp9
 70
1
102
RTVSPropertyOp10
 70
1
102
RTVSPropertyOp11
 70
1
102
RTVSPropertyOp12
 70
1
102
RTVSPropertyOp13
 70
1
102
RTVSPropertyOp14
 70
1
102
RTVSPropertyOp15
 70
1
102
RTVSPropertyOp16
 70
1
102
RTVSPropertyOp17
 70
1
102
RTVSPropertyOp18
 70
1
102
RTVSPropertyOp19
 70
1
102
RTVSPropertyOp20
 70
1
102
RTVSPropertyOp21
 70
1
102
RTVSPropertyOp22
 70
1
102
RTVSPropertyOp23
 70
1
102
RTVSPropertyOp24
 70
1
102
RTVSPropertyOp25
 70
1
102
RTVSPropertyOp26
 70
1
102
RTVSPropertyOp27
 70
1
  0
XRECORD
  5
429
102
{ACAD_REACTORS
330
428
102
}
330
428
100
AcDbXrecord
280
1
102
RTVSPropertyOp0
 70
1
102
RTVSPropertyOp1
 70
1
102
RTVSPropertyOp2
 70
1
102
RTVSPropertyOp3
 70
1
102
RTVSPropertyOp4
 70
1
102
RTVSPropertyOp5
 70
1
102
RTVSPropertyOp6
 70
1
102
RTVSPropertyOp7
 70
1
102
RTVSPropertyOp8
 70
1
102
RTVSPropertyOp9
 70
1
102
RTVSPropertyOp10
 70
1
102
RTVSPropertyOp11
 70
1
102
RTVSPropertyOp12
 70
1
102
RTVSPropertyOp13
 70
1
102
RTVSPropertyOp14
 70
1
102
RTVSPropertyOp15
 70
1
102
RTVSPropertyOp16
 70
1
102
RTVSPropertyOp17
 70
1
102
RTVSPropertyOp18
 70
1
102
RTVSPropertyOp19
 70
1
102
RTVSPropertyOp20
 70
1
102
RTVSPropertyOp21
 70
1
102
RTVSPropertyOp22
 70
1
102
RTVSPropertyOp23
 70
1
102
RTVSPropertyOp24
 70
1
102
RTVSPropertyOp25
 70
1
102
RTVSPropertyOp26
 70
1
102
RTVSPropertyOp27
 70
1
  0
XRECORD
  5
427
102
{ACAD_REACTORS
330
426
102
}
330
426
100
AcDbXrecord
280
1
102
RTVSPropertyOp0
 70
1
102
RTVSPropertyOp1
 70
1
102
RTVSPropertyOp2
 70
1
102
RTVSPropertyOp3
 70
1
102
RTVSPropertyOp4
 70
1
102
RTVSPropertyOp5
 70
1
102
RTVSPropertyOp6
 70
1
102
RTVSPropertyOp7
 70
1
102
RTVSPropertyOp8
 70
1
102
RTVSPropertyOp9
 70
1
102
RTVSPropertyOp10
 70
1
102
RTVSPropertyOp11
 70
1
102
RTVSPropertyOp12
 70
1
102
RTVSPropertyOp13
 70
1
102
RTVSPropertyOp14
 70
1
102
RTVSPropertyOp15
 70
1
102
RTVSPropertyOp16
 70
1
102
RTVSPropertyOp17
 70
1
102
RTVSPropertyOp18
 70
1
102
RTVSPropertyOp19
 70
1
102
RTVSPropertyOp20
 70
1
102
RTVSPropertyOp21
 70
1
102
RTVSPropertyOp22
 70
1
102
RTVSPropertyOp23
 70
1
102
RTVSPropertyOp24
 70
1
102
RTVSPropertyOp25
 70
1
102
RTVSPropertyOp26
 70
1
102
RTVSPropertyOp27
 70
1
  0
XRECORD
  5
423
102
{ACAD_REACTORS
330
422
102
}
330
422
100
AcDbXrecord
280
1
102
RTVSPropertyOp0
 70
1
102
RTVSPropertyOp1
 70
1
102
RTVSPropertyOp2
 70
1
102
RTVSPropertyOp3
 70
1
102
RTVSPropertyOp4
 70
1
102
RTVSPropertyOp5
 70
1
102
RTVSPropertyOp6
 70
1
102
RTVSPropertyOp7
 70
1
102
RTVSPropertyOp8
 70
1
102
RTVSPropertyOp9
 70
1
102
RTVSPropertyOp10
 70
1
102
RTVSPropertyOp11
 70
1
102
RTVSPropertyOp12
 70
1
102
RTVSPropertyOp13
 70
1
102
RTVSPropertyOp14
 70
1
102
RTVSPropertyOp15
 70
1
102
RTVSPropertyOp16
 70
1
102
RTVSPropertyOp17
 70
1
102
RTVSPropertyOp18
 70
1
102
RTVSPropertyOp19
 70
1
102
RTVSPropertyOp20
 70
1
102
RTVSPropertyOp21
 70
1
102
RTVSPropertyOp22
 70
1
102
RTVSPropertyOp23
 70
1
102
RTVSPropertyOp24
 70
1
102
RTVSPropertyOp25
 70
1
102
RTVSPropertyOp26
 70
1
102
RTVSPropertyOp27
 70
1
  0
XRECORD
  5
431
102
{ACAD_REACTORS
330
430
102
}
330
430
100
AcDbXrecord
280
1
102
RTVSPropertyOp0
 70
1
102
RTVSPropertyOp1
 70
1
102
RTVSPropertyOp2
 70
1
102
RTVSPropertyOp3
 70
1
102
RTVSPropertyOp4
 70
1
102
RTVSPropertyOp5
 70
1
102
RTVSPropertyOp6
 70
1
102
RTVSPropertyOp7
 70
1
102
RTVSPropertyOp8
 70
1
102
RTVSPropertyOp9
 70
1
102
RTVSPropertyOp10
 70
1
102
RTVSPropertyOp11
 70
1
102
RTVSPropertyOp12
 70
1
102
RTVSPropertyOp13
 70
1
102
RTVSPropertyOp14
 70
1
102
RTVSPropertyOp15
 70
1
102
RTVSPropertyOp16
 70
1
102
RTVSPropertyOp17
 70
1
102
RTVSPropertyOp18
 70
1
102
RTVSPropertyOp19
 70
1
102
RTVSPropertyOp20
 70
1
102
RTVSPropertyOp21
 70
1
102
RTVSPropertyOp22
 70
1
102
RTVSPropertyOp23
 70
1
102
RTVSPropertyOp24
 70
1
102
RTVSPropertyOp25
 70
1
102
RTVSPropertyOp26
 70
1
102
RTVSPropertyOp27
 70
1
  0
XRECORD
  5
439
102
{ACAD_REACTORS
330
438
102
}
330
438
100
AcDbXrecord
280
1
102
RTVSPropertyOp0
 70
1
102
RTVSPropertyOp1
 70
1
102
RTVSPropertyOp2
 70
1
102
RTVSPropertyOp3
 70
1
102
RTVSPropertyOp4
 70
1
102
RTVSPropertyOp5
 70
1
102
RTVSPropertyOp6
 70
1
102
RTVSPropertyOp7
 70
1
102
RTVSPropertyOp8
 70
1
102
RTVSPropertyOp9
 70
1
102
RTVSPropertyOp10
 70
1
102
RTVSPropertyOp11
 70
1
102
RTVSPropertyOp12
 70
1
102
RTVSPropertyOp13
 70
1
102
RTVSPropertyOp14
 70
1
102
RTVSPropertyOp15
 70
1
102
RTVSPropertyOp16
 70
1
102
RTVSPropertyOp17
 70
1
102
RTVSPropertyOp18
 70
1
102
RTVSPropertyOp19
 70
1
102
RTVSPropertyOp20
 70
1
102
RTVSPropertyOp21
 70
1
102
RTVSPropertyOp22
 70
1
102
RTVSPropertyOp23
 70
1
102
RTVSPropertyOp24
 70
1
102
RTVSPropertyOp25
 70
1
102
RTVSPropertyOp26
 70
1
102
RTVSPropertyOp27
 70
1
  0
XRECORD
  5
42B
102
{ACAD_REACTORS
330
42A
102
}
330
42A
100
AcDbXrecord
280
1
102
RTVSPropertyOp0
 70
1
102
RTVSPropertyOp1
 70
1
102
RTVSPropertyOp2
 70
1
102
RTVSPropertyOp3
 70
1
102
RTVSPropertyOp4
 70
1
102
RTVSPropertyOp5
 70
1
102
RTVSPropertyOp6
 70
1
102
RTVSPropertyOp7
 70
1
102
RTVSPropertyOp8
 70
1
102
RTVSPropertyOp9
 70
1
102
RTVSPropertyOp10
 70
1
102
RTVSPropertyOp11
 70
1
102
RTVSPropertyOp12
 70
1
102
RTVSPropertyOp13
 70
1
102
RTVSPropertyOp14
 70
1
102
RTVSPropertyOp15
 70
1
102
RTVSPropertyOp16
 70
1
102
RTVSPropertyOp17
 70
1
102
RTVSPropertyOp18
 70
1
102
RTVSPropertyOp19
 70
1
102
RTVSPropertyOp20
 70
1
102
RTVSPropertyOp21
 70
1
102
RTVSPropertyOp22
 70
1
102
RTVSPropertyOp23
 70
1
102
RTVSPropertyOp24
 70
1
102
RTVSPropertyOp25
 70
1
102
RTVSPropertyOp26
 70
1
102
RTVSPropertyOp27
 70
1
  0
XRECORD
  5
42F
102
{ACAD_REACTORS
330
42E
102
}
330
42E
100
AcDbXrecord
280
1
102
RTVSPropertyOp0
 70
1
102
RTVSPropertyOp1
 70
1
102
RTVSPropertyOp2
 70
1
102
RTVSPropertyOp3
 70
1
102
RTVSPropertyOp4
 70
1
102
RTVSPropertyOp5
 70
1
102
RTVSPropertyOp6
 70
1
102
RTVSPropertyOp7
 70
1
102
RTVSPropertyOp8
 70
1
102
RTVSPropertyOp9
 70
1
102
RTVSPropertyOp10
 70
1
102
RTVSPropertyOp11
 70
1
102
RTVSPropertyOp12
 70
1
102
RTVSPropertyOp13
 70
1
102
RTVSPropertyOp14
 70
1
102
RTVSPropertyOp15
 70
1
102
RTVSPropertyOp16
 70
1
102
RTVSPropertyOp17
 70
1
102
RTVSPropertyOp18
 70
1
102
RTVSPropertyOp19
 70
1
102
RTVSPropertyOp20
 70
1
102
RTVSPropertyOp21
 70
1
102
RTVSPropertyOp22
 70
1
102
RTVSPropertyOp23
 70
1
102
RTVSPropertyOp24
 70
1
102
RTVSPropertyOp25
 70
1
102
RTVSPropertyOp26
 70
1
102
RTVSPropertyOp27
 70
1
  0
XRECORD
  5
441
102
{ACAD_REACTORS
330
440
102
}
330
440
100
AcDbXrecord
280
1
102
RTVSPropertyOp0
 70
0
102
RTVSPropertyOp1
 70
0
102
RTVSPropertyOp2
 70
0
102
RTVSPropertyOp3
 70
0
102
RTVSPropertyOp4
 70
0
102
RTVSPropertyOp5
 70
0
102
RTVSPropertyOp6
 70
0
102
RTVSPropertyOp7
 70
0
102
RTVSPropertyOp8
 70
0
102
RTVSPropertyOp9
 70
0
102
RTVSPropertyOp10
 70
0
102
RTVSPropertyOp11
 70
0
102
RTVSPropertyOp12
 70
0
102
RTVSPropertyOp13
 70
0
102
RTVSPropertyOp14
 70
2
102
RTVSPropertyOp15
 70
0
102
RTVSPropertyOp16
 70
0
102
RTVSPropertyOp17
 70
0
102
RTVSPropertyOp18
 70
0
102
RTVSPropertyOp19
 70
0
102
RTVSPropertyOp20
 70
0
102
RTVSPropertyOp21
 70
0
102
RTVSPropertyOp22
 70
0
102
RTVSPropertyOp23
 70
0
102
RTVSPropertyOp24
 70
0
102
RTVSPropertyOp25
 70
0
102
RTVSPropertyOp26
 70
0
102
RTVSPropertyOp27
 70
0
  0
XRECORD
  5
437
102
{ACAD_REACTORS
330
436
102
}
330
436
100
AcDbXrecord
280
1
102
RTVSPropertyOp0
 70
1
102
RTVSPropertyOp1
 70
1
102
RTVSPropertyOp2
 70
1
102
RTVSPropertyOp3
 70
1
102
RTVSPropertyOp4
 70
1
102
RTVSPropertyOp5
 70
1
102
RTVSPropertyOp6
 70
1
102
RTVSPropertyOp7
 70
1
102
RTVSPropertyOp8
 70
1
102
RTVSPropertyOp9
 70
1
102
RTVSPropertyOp10
 70
1
102
RTVSPropertyOp11
 70
1
102
RTVSPropertyOp12
 70
1
102
RTVSPropertyOp13
 70
1
102
RTVSPropertyOp14
 70
1
102
RTVSPropertyOp15
 70
1
102
RTVSPropertyOp16
 70
1
102
RTVSPropertyOp17
 70
1
102
RTVSPropertyOp18
 70
1
102
RTVSPropertyOp19
 70
1
102
RTVSPropertyOp20
 70
1
102
RTVSPropertyOp21
 70
1
102
RTVSPropertyOp22
 70
1
102
RTVSPropertyOp23
 70
1
102
RTVSPropertyOp24
 70
1
102
RTVSPropertyOp25
 70
1
102
RTVSPropertyOp26
 70
1
102
RTVSPropertyOp27
 70
1
  0
XRECORD
  5
41B
102
{ACAD_REACTORS
330
41A
102
}
330
41A
100
AcDbXrecord
280
1
102
RTVSPropertyOp0
 70
1
102
RTVSPropertyOp1
 70
1
102
RTVSPropertyOp2
 70
1
102
RTVSPropertyOp3
 70
1
102
RTVSPropertyOp4
 70
1
102
RTVSPropertyOp5
 70
1
102
RTVSPropertyOp6
 70
1
102
RTVSPropertyOp7
 70
1
102
RTVSPropertyOp8
 70
1
102
RTVSPropertyOp9
 70
1
102
RTVSPropertyOp10
 70
1
102
RTVSPropertyOp11
 70
1
102
RTVSPropertyOp12
 70
1
102
RTVSPropertyOp13
 70
1
102
RTVSPropertyOp14
 70
1
102
RTVSPropertyOp15
 70
1
102
RTVSPropertyOp16
 70
1
102
RTVSPropertyOp17
 70
1
102
RTVSPropertyOp18
 70
1
102
RTVSPropertyOp19
 70
1
102
RTVSPropertyOp20
 70
1
102
RTVSPropertyOp21
 70
1
102
RTVSPropertyOp22
 70
1
102
RTVSPropertyOp23
 70
1
102
RTVSPropertyOp24
 70
1
102
RTVSPropertyOp25
 70
1
102
RTVSPropertyOp26
 70
1
102
RTVSPropertyOp27
 70
1
  0
XRECORD
  5
41D
102
{ACAD_REACTORS
330
41C
102
}
330
41C
100
AcDbXrecord
280
1
102
RTVSPropertyOp0
 70
1
102
RTVSPropertyOp1
 70
1
102
RTVSPropertyOp2
 70
1
102
RTVSPropertyOp3
 70
1
102
RTVSPropertyOp4
 70
1
102
RTVSPropertyOp5
 70
1
102
RTVSPropertyOp6
 70
1
102
RTVSPropertyOp7
 70
1
102
RTVSPropertyOp8
 70
1
102
RTVSPropertyOp9
 70
1
102
RTVSPropertyOp10
 70
1
102
RTVSPropertyOp11
 70
1
102
RTVSPropertyOp12
 70
1
102
RTVSPropertyOp13
 70
1
102
RTVSPropertyOp14
 70
1
102
RTVSPropertyOp15
 70
1
102
RTVSPropertyOp16
 70
1
102
RTVSPropertyOp17
 70
1
102
RTVSPropertyOp18
 70
1
102
RTVSPropertyOp19
 70
1
102
RTVSPropertyOp20
 70
1
102
RTVSPropertyOp21
 70
1
102
RTVSPropertyOp22
 70
1
102
RTVSPropertyOp23
 70
1
102
RTVSPropertyOp24
 70
1
102
RTVSPropertyOp25
 70
1
102
RTVSPropertyOp26
 70
1
102
RTVSPropertyOp27
 70
1
  0
XRECORD
  5
41F
102
{ACAD_REACTORS
330
41E
102
}
330
41E
100
AcDbXrecord
280
1
102
RTVSPropertyOp0
 70
1
102
RTVSPropertyOp1
 70
1
102
RTVSPropertyOp2
 70
1
102
RTVSPropertyOp3
 70
1
102
RTVSPropertyOp4
 70
1
102
RTVSPropertyOp5
 70
1
102
RTVSPropertyOp6
 70
1
102
RTVSPropertyOp7
 70
1
102
RTVSPropertyOp8
 70
1
102
RTVSPropertyOp9
 70
1
102
RTVSPropertyOp10
 70
1
102
RTVSPropertyOp11
 70
1
102
RTVSPropertyOp12
 70
1
102
RTVSPropertyOp13
 70
1
102
RTVSPropertyOp14
 70
1
102
RTVSPropertyOp15
 70
1
102
RTVSPropertyOp16
 70
1
102
RTVSPropertyOp17
 70
1
102
RTVSPropertyOp18
 70
1
102
RTVSPropertyOp19
 70
1
102
RTVSPropertyOp20
 70
1
102
RTVSPropertyOp21
 70
1
102
RTVSPropertyOp22
 70
1
102
RTVSPropertyOp23
 70
1
102
RTVSPropertyOp24
 70
1
102
RTVSPropertyOp25
 70
1
102
RTVSPropertyOp26
 70
1
102
RTVSPropertyOp27
 70
1
  0
XRECORD
  5
421
102
{ACAD_REACTORS
330
420
102
}
330
420
100
AcDbXrecord
280
1
102
RTVSPropertyOp0
 70
1
102
RTVSPropertyOp1
 70
1
102
RTVSPropertyOp2
 70
1
102
RTVSPropertyOp3
 70
1
102
RTVSPropertyOp4
 70
1
102
RTVSPropertyOp5
 70
1
102
RTVSPropertyOp6
 70
1
102
RTVSPropertyOp7
 70
1
102
RTVSPropertyOp8
 70
1
102
RTVSPropertyOp9
 70
1
102
RTVSPropertyOp10
 70
1
102
RTVSPropertyOp11
 70
1
102
RTVSPropertyOp12
 70
1
102
RTVSPropertyOp13
 70
1
102
RTVSPropertyOp14
 70
1
102
RTVSPropertyOp15
 70
1
102
RTVSPropertyOp16
 70
1
102
RTVSPropertyOp17
 70
1
102
RTVSPropertyOp18
 70
1
102
RTVSPropertyOp19
 70
1
102
RTVSPropertyOp20
 70
1
102
RTVSPropertyOp21
 70
1
102
RTVSPropertyOp22
 70
1
102
RTVSPropertyOp23
 70
1
102
RTVSPropertyOp24
 70
1
102
RTVSPropertyOp25
 70
1
102
RTVSPropertyOp26
 70
1
102
RTVSPropertyOp27
 70
1
  0
XRECORD
  5
43D
102
{ACAD_REACTORS
330
43C
102
}
330
43C
100
AcDbXrecord
280
1
102
RTVSPropertyOp0
 70
0
102
RTVSPropertyOp1
 70
0
102
RTVSPropertyOp2
 70
0
102
RTVSPropertyOp3
 70
0
102
RTVSPropertyOp4
 70
0
102
RTVSPropertyOp5
 70
0
102
RTVSPropertyOp6
 70
0
102
RTVSPropertyOp7
 70
0
102
RTVSPropertyOp8
 70
0
102
RTVSPropertyOp9
 70
0
102
RTVSPropertyOp10
 70
0
102
RTVSPropertyOp11
 70
0
102
RTVSPropertyOp12
 70
0
102
RTVSPropertyOp13
 70
0
102
RTVSPropertyOp14
 70
2
102
RTVSPropertyOp15
 70
0
102
RTVSPropertyOp16
 70
0
102
RTVSPropertyOp17
 70
0
102
RTVSPropertyOp18
 70
0
102
RTVSPropertyOp19
 70
0
102
RTVSPropertyOp20
 70
0
102
RTVSPropertyOp21
 70
0
102
RTVSPropertyOp22
 70
0
102
RTVSPropertyOp23
 70
0
102
RTVSPropertyOp24
 70
0
102
RTVSPropertyOp25
 70
0
102
RTVSPropertyOp26
 70
0
102
RTVSPropertyOp27
 70
0
  0
XRECORD
  5
435
102
{ACAD_REACTORS
330
434
102
}
330
434
100
AcDbXrecord
280
1
102
RTVSPropertyOp0
 70
1
102
RTVSPropertyOp1
 70
1
102
RTVSPropertyOp2
 70
1
102
RTVSPropertyOp3
 70
1
102
RTVSPropertyOp4
 70
1
102
RTVSPropertyOp5
 70
1
102
RTVSPropertyOp6
 70
1
102
RTVSPropertyOp7
 70
1
102
RTVSPropertyOp8
 70
1
102
RTVSPropertyOp9
 70
1
102
RTVSPropertyOp10
 70
1
102
RTVSPropertyOp11
 70
1
102
RTVSPropertyOp12
 70
1
102
RTVSPropertyOp13
 70
1
102
RTVSPropertyOp14
 70
1
102
RTVSPropertyOp15
 70
1
102
RTVSPropertyOp16
 70
1
102
RTVSPropertyOp17
 70
1
102
RTVSPropertyOp18
 70
1
102
RTVSPropertyOp19
 70
1
102
RTVSPropertyOp20
 70
1
102
RTVSPropertyOp21
 70
1
102
RTVSPropertyOp22
 70
1
102
RTVSPropertyOp23
 70
1
102
RTVSPropertyOp24
 70
1
102
RTVSPropertyOp25
 70
1
102
RTVSPropertyOp26
 70
1
102
RTVSPropertyOp27
 70
1
  0
XRECORD
  5
43F
102
{ACAD_REACTORS
330
43E
102
}
330
43E
100
AcDbXrecord
280
1
102
RTVSPropertyOp0
 70
0
102
RTVSPropertyOp1
 70
0
102
RTVSPropertyOp2
 70
0
102
RTVSPropertyOp3
 70
0
102
RTVSPropertyOp4
 70
0
102
RTVSPropertyOp5
 70
0
102
RTVSPropertyOp6
 70
0
102
RTVSPropertyOp7
 70
0
102
RTVSPropertyOp8
 70
0
102
RTVSPropertyOp9
 70
0
102
RTVSPropertyOp10
 70
0
102
RTVSPropertyOp11
 70
0
102
RTVSPropertyOp12
 70
0
102
RTVSPropertyOp13
 70
0
102
RTVSPropertyOp14
 70
2
102
RTVSPropertyOp15
 70
0
102
RTVSPropertyOp16
 70
0
102
RTVSPropertyOp17
 70
0
102
RTVSPropertyOp18
 70
0
102
RTVSPropertyOp19
 70
0
102
RTVSPropertyOp20
 70
0
102
RTVSPropertyOp21
 70
0
102
RTVSPropertyOp22
 70
0
102
RTVSPropertyOp23
 70
0
102
RTVSPropertyOp24
 70
0
102
RTVSPropertyOp25
 70
0
102
RTVSPropertyOp26
 70
0
102
RTVSPropertyOp27
 70
0
  0
XRECORD
  5
42D
102
{ACAD_REACTORS
330
42C
102
}
330
42C
100
AcDbXrecord
280
1
102
RTVSPropertyOp0
 70
1
102
RTVSPropertyOp1
 70
1
102
RTVSPropertyOp2
 70
1
102
RTVSPropertyOp3
 70
1
102
RTVSPropertyOp4
 70
1
102
RTVSPropertyOp5
 70
1
102
RTVSPropertyOp6
 70
1
102
RTVSPropertyOp7
 70
1
102
RTVSPropertyOp8
 70
1
102
RTVSPropertyOp9
 70
1
102
RTVSPropertyOp10
 70
1
102
RTVSPropertyOp11
 70
1
102
RTVSPropertyOp12
 70
1
102
RTVSPropertyOp13
 70
1
102
RTVSPropertyOp14
 70
1
102
RTVSPropertyOp15
 70
1
102
RTVSPropertyOp16
 70
1
102
RTVSPropertyOp17
 70
1
102
RTVSPropertyOp18
 70
1
102
RTVSPropertyOp19
 70
1
102
RTVSPropertyOp20
 70
1
102
RTVSPropertyOp21
 70
1
102
RTVSPropertyOp22
 70
1
102
RTVSPropertyOp23
 70
1
102
RTVSPropertyOp24
 70
1
102
RTVSPropertyOp25
 70
1
102
RTVSPropertyOp26
 70
1
102
RTVSPropertyOp27
 70
1
  0
XRECORD
  5
433
102
{ACAD_REACTORS
330
432
102
}
330
432
100
AcDbXrecord
280
1
102
RTVSPropertyOp0
 70
1
102
RTVSPropertyOp1
 70
1
102
RTVSPropertyOp2
 70
1
102
RTVSPropertyOp3
 70
1
102
RTVSPropertyOp4
 70
1
102
RTVSPropertyOp5
 70
1
102
RTVSPropertyOp6
 70
1
102
RTVSPropertyOp7
 70
1
102
RTVSPropertyOp8
 70
1
102
RTVSPropertyOp9
 70
1
102
RTVSPropertyOp10
 70
1
102
RTVSPropertyOp11
 70
1
102
RTVSPropertyOp12
 70
1
102
RTVSPropertyOp13
 70
1
102
RTVSPropertyOp14
 70
1
102
RTVSPropertyOp15
 70
1
102
RTVSPropertyOp16
 70
1
102
RTVSPropertyOp17
 70
1
102
RTVSPropertyOp18
 70
1
102
RTVSPropertyOp19
 70
1
102
RTVSPropertyOp20
 70
1
102
RTVSPropertyOp21
 70
1
102
RTVSPropertyOp22
 70
1
102
RTVSPropertyOp23
 70
1
102
RTVSPropertyOp24
 70
1
102
RTVSPropertyOp25
 70
1
102
RTVSPropertyOp26
 70
1
102
RTVSPropertyOp27
 70
1
  0
ENDSEC
  0
EOF
