M48
INCH
T01C.0315
T02C.04
;LEADER: 12 
;HEADER: 
;CODE  : ASCII 
;FILE  : PPSENSOR4-1-2.drl for  ... layers TOP and BOTTOM
;DESIGN: PPSENSOR5.brd
;T01 Holesize 1. = 31.500000 Tolerance = +0.000000/-0.000000 PLATED MILS Quantity = 34
;T02 Holesize 2. = 40.000000 Tolerance = +0.000000/-0.000000 PLATED MILS Quantity = 50
%
G90
T01
X0040000Y0110000
X0140000Y0110000
X0099500Y0180000
X0040500Y0180000
X0160000Y0250000
X0200000Y0280000
X0312500Y0310000
X0222500Y0297500
X0370000Y0360000
X0140000Y0110000
X0040500Y0250000
X0099500Y0250000
X0099500Y0320000
X0040500Y0320000
X0130000Y0360000
X0230000Y0360000
X0185000Y0260000
R06Y-0010000
X0215000Y0200000
R06Y0010000
X0190000Y0110000
X0290000Y0110000
X0370000Y0360000
X0270000Y0360000
T02
X0030000Y0375000
X0030000Y0365000
X0350000Y0150000
X0340000Y0150000
X0350000Y0160000
X0340000Y0160000
X0350000Y0170000
X0340000Y0170000
X0350000Y0180000
X0340000Y0180000
X0350000Y0190000
X0340000Y0190000
X0350000Y0200000
X0340000Y0200000
X0350000Y0210000
X0340000Y0210000
X0350000Y0220000
X0340000Y0220000
X0350000Y0230000
X0340000Y0230000
X0350000Y0240000
X0340000Y0240000
X0424000Y0240000
X0434000Y0240000
X0424000Y0230000
X0434000Y0230000
X0424000Y0220000
X0434000Y0220000
X0424000Y0210000
X0434000Y0210000
X0424000Y0200000
X0434000Y0200000
X0424000Y0190000
X0434000Y0190000
X0424000Y0180000
X0434000Y0180000
X0424000Y0170000
X0434000Y0170000
X0424000Y0160000
X0434000Y0160000
X0424000Y0150000
X0434000Y0150000
X0424000Y0140000
X0434000Y0140000
X0424000Y0130000
X0434000Y0130000
X0440000Y0375000
X0440000Y0365000
X0440000Y0335000
X0440000Y0325000
M30
