G04 ================== begin FILE IDENTIFICATION RECORD ==================*
G04 Layout Name:  COMPLETE SCHEMATIC V4.brd*
G04 Film Name:    BOTTOM*
G04 File Format:  Gerber RS274X*
G04 File Origin:  Cadence Allegro 16.6-2015-S062*
G04 Origin Date:  Sat Oct 28 13:29:36 2017*
G04 *
G04 Layer:  ETCH/BOTTOM*
G04 Layer:  PIN/BOTTOM*
G04 Layer:  VIA CLASS/BOTTOM*
G04 *
G04 Offset:    (0.00 0.00)*
G04 Mirror:    No*
G04 Mode:      Positive*
G04 Rotation:  0*
G04 FullContactRelief:  No*
G04 UndefLineWidth:     0.00*
G04 ================== end FILE IDENTIFICATION RECORD ====================*
%FSLAX25Y25*MOIN*%
%IR0*IPPOS*OFA0.00000B0.00000*MIA0B0*SFA1.00000B1.00000*%
%ADD11C,.06*%
%ADD13C,.07*%
%ADD15C,.08*%
%ADD10C,.055*%
%ADD12C,.065*%
%ADD14R,.06X.06*%
%ADD16C,.11811*%
%ADD17C,.015*%
%ADD18C,.035*%
%ADD19C,.08204*%
%ADD22C,.09204*%
%ADD20C,.07704*%
%ADD21C,.08704*%
%ADD24C,.14014*%
%ADD23R,.08204X.08204*%
G75*
%LPD*%
G75*
G36*
G01X-65900Y-213000D02*
X-97200Y-181700D01*
Y23800D01*
X-43000Y78000D01*
Y181000D01*
X-26000Y198000D01*
X205000D01*
X206000Y197000D01*
Y-199000D01*
X192000Y-213000D01*
X-65900D01*
G37*
%LPC*%
G75*
G36*
G01X110760Y157838D02*
Y173661D01*
X116036Y178938D01*
X116010Y179046D01*
G02Y180954I3990J954D01*
G01X116036Y181062D01*
X113750Y183348D01*
X73402D01*
G03X73100Y182687I0J-400D01*
G02X66900I-3100J-2687D01*
G03X66598Y183348I-302J261D01*
G01X66250D01*
X63964Y181062D01*
X63990Y180954D01*
G02X62052Y176448I-3990J-954D01*
G01Y169150D01*
X43964Y151062D01*
X43990Y150954D01*
G02X40954Y153990I-3990J-954D01*
G01X41062Y153964D01*
X57948Y170850D01*
Y176448D01*
G02X60954Y183990I2051J3552D01*
G01X61062Y183964D01*
X64550Y187452D01*
X115450D01*
X118938Y183964D01*
X119046Y183990D01*
G02Y176010I954J-3990D01*
G01X118938Y176036D01*
X114862Y171961D01*
Y157838D01*
G02Y150162I-2051J-3838D01*
G01Y135918D01*
G03X115545Y135636I400J1D01*
G01X117461Y137552D01*
X161350D01*
X164144Y134757D01*
X164249Y134778D01*
G02X161222Y131751I751J-3778D01*
G01X161243Y131856D01*
X159650Y133448D01*
X141964D01*
G03X141685Y132762I0J-400D01*
G02X136315I-2685J-2762D01*
G03X136036Y133448I-279J286D01*
G01X119161D01*
X116977Y131265D01*
X117008Y131152D01*
G02X110759Y133838I-4197J-1152D01*
G01Y150162D01*
G02X110760Y157838I2052J3838D01*
G37*
G36*
G01X195052Y81850D02*
Y63260D01*
G02X190948I-2052J-3260D01*
G01Y80150D01*
X189948Y81150D01*
Y82740D01*
G02X194472Y83045I2053J3260D01*
G03X194445Y82456I256J-307D01*
G01X195052Y81850D01*
G37*
G36*
G01X85150Y-17948D02*
X125036Y21938D01*
X125010Y22046D01*
G02X126597Y26324I3990J953D01*
G03X126363Y27048I-234J324D01*
G01X125950D01*
X122964Y24062D01*
X122990Y23954D01*
G02X116948Y26552I-3990J-954D01*
G01Y43850D01*
X125036Y51938D01*
X125010Y52046D01*
G02X131348Y49636I3990J954D01*
G01X131333Y49626D01*
X131179Y49472D01*
X131500Y49152D01*
X136106D01*
G03X136363Y49858I0J400D01*
G02X136948Y56552I2637J3142D01*
G01Y74550D01*
X158750Y96352D01*
X179450D01*
X189948Y106850D01*
Y127740D01*
G02X194052I2052J3260D01*
G01Y105150D01*
X181150Y92248D01*
X160450D01*
X141052Y72850D01*
Y56552D01*
G02X141637Y49858I-2052J-3552D01*
G03X141894Y49152I257J-306D01*
G01X146500D01*
X146821Y49472D01*
X146667Y49626D01*
X146652Y49636D01*
G02X151840Y50040I2348J3364D01*
G03X152117Y49352I277J-288D01*
G01X160650D01*
X162948Y51650D01*
Y82740D01*
G02X167052I2052J3260D01*
G01Y49950D01*
X162350Y45248D01*
X149650D01*
X149025Y45874D01*
X148200Y45048D01*
X129800D01*
X126875Y47974D01*
X121052Y42150D01*
Y28918D01*
G03X121734Y28636I400J1D01*
G01X124250Y31152D01*
X138000D01*
X141052Y28100D01*
Y26552D01*
G02X136478Y26235I-2052J-3552D01*
G03X136515Y26834I-246J316D01*
G01X136300Y27048D01*
X131637D01*
G03X131403Y26324I0J-400D01*
G02X128046Y19010I-2403J-3324D01*
G01X127938Y19036D01*
X86850Y-22052D01*
X20260D01*
G02Y-17948I-3260J2052D01*
G01X85150D01*
G37*
G36*
G01X145350Y-72052D02*
X136448Y-63150D01*
Y-28950D01*
X152450Y-12948D01*
X185881D01*
G02Y-17052I4119J-2052D01*
G01X154150D01*
X140552Y-30650D01*
Y-51684D01*
G03X141261Y-51937I400J0D01*
G02X142348Y-51006I3138J-2564D01*
G01Y-45380D01*
X147880Y-39848D01*
X182250D01*
X185635Y-36463D01*
X185600Y-36349D01*
G02X188538Y-39364I4400J1349D01*
G01X183950Y-43952D01*
X149580D01*
X146452Y-47080D01*
Y-51006D01*
G02X141261Y-57063I-2052J-3494D01*
G03X140552Y-57316I-309J-253D01*
G01Y-61450D01*
X147050Y-67948D01*
X149881D01*
G02Y-72052I4119J-2052D01*
G01X145350D01*
G37*
G36*
G01X-21635Y-103466D02*
X-52004Y-73098D01*
Y54898D01*
X25150Y132052D01*
X36448D01*
G02Y127948I3552J-2052D01*
G01X26850D01*
X-47900Y53198D01*
Y-2975D01*
G03X-47206Y-3246I400J0D01*
G02Y-9132I3206J-2943D01*
G03X-47900Y-9403I-294J-271D01*
G01Y-26597D01*
G03X-47206Y-26868I400J0D01*
G02Y-32754I3206J-2943D01*
G03X-47900Y-33025I-294J-271D01*
G01Y-71398D01*
X-14750Y-104548D01*
X23550D01*
X24436Y-103663D01*
G03X24070Y-102989I-283J283D01*
G02X18363Y-100129I-1070J4989D01*
G03X17637I-363J-167D01*
G02Y-95871I-4637J2129D01*
G03X18363I363J167D01*
G02X27637I4637J-2129D01*
G03X28363I363J167D01*
G02X31266Y-102798I4637J-2129D01*
G01X31146Y-102755D01*
X25250Y-108652D01*
X-16450D01*
X-17466Y-107635D01*
G03X-18149Y-107926I-283J-283D01*
G02X-21926Y-104149I-3851J-74D01*
G03X-21635Y-103466I8J400D01*
G37*
G36*
G01X155463Y-115635D02*
X158150Y-112948D01*
X159696D01*
G03X160040Y-112345I0J400D01*
G02X160226Y-107366I3960J2345D01*
G01X160262Y-107314D01*
Y-107052D01*
X159850D01*
X158365Y-108537D01*
X158400Y-108651D01*
G02X155349Y-105600I-4400J-1349D01*
G01X155463Y-105635D01*
X158150Y-102948D01*
X159696D01*
G03X160040Y-102345I0J400D01*
G02X160295Y-97270I3960J2345D01*
G01X160334Y-97217D01*
Y-96952D01*
X159950D01*
X158365Y-98537D01*
X158400Y-98651D01*
G02X155349Y-95600I-4400J-1349D01*
G01X155463Y-95635D01*
X158250Y-92848D01*
X159638D01*
G03X159987Y-92253I0J400D01*
G02X160405Y-87126I4013J2253D01*
G01X160449Y-87072D01*
Y-86802D01*
X160100D01*
X158365Y-88537D01*
X158400Y-88651D01*
G02X155349Y-85600I-4400J-1349D01*
G01X155463Y-85635D01*
X158400Y-82698D01*
X159557D01*
G03X159913Y-82115I1J400D01*
G02X168087I4087J2115D01*
G03X168443Y-82698I355J-183D01*
G01X172800D01*
X180648Y-74850D01*
Y-61450D01*
X185635Y-56463D01*
X185600Y-56349D01*
G02X188538Y-59364I4400J1349D01*
G01X184752Y-63150D01*
Y-76550D01*
X174500Y-86802D01*
X168146D01*
G03X167814Y-87425I0J-400D01*
G02X168013Y-92253I-3814J-2575D01*
G03X168362Y-92848I349J-195D01*
G01X169250D01*
X185636Y-76462D01*
G02X188651Y-79400I4364J1462D01*
G01X188537Y-79365D01*
X170950Y-96952D01*
X168243D01*
G03X167904Y-97563I0J-400D01*
G02X167960Y-102345I-3904J-2437D01*
G03X168304Y-102948I344J-203D01*
G01X179150D01*
X185636Y-96462D01*
G02X188651Y-99400I4364J1462D01*
G01X188537Y-99365D01*
X180850Y-107052D01*
X168304D01*
G03X167960Y-107655I0J-400D01*
G02Y-112345I-3960J-2345D01*
G03X168304Y-112948I344J-203D01*
G01X185881D01*
G02Y-117052I4119J-2052D01*
G01X168304D01*
G03X167960Y-117655I0J-400D01*
G02X160226Y-117366I-3960J-2345D01*
G01X160262Y-117314D01*
Y-117052D01*
X159850D01*
X158365Y-118537D01*
X158400Y-118651D01*
G02X155349Y-115600I-4400J-1349D01*
G01X155463Y-115635D01*
G37*
G36*
G01X185635Y-153537D02*
X179150Y-147052D01*
X168304D01*
G03X167960Y-147655I0J-400D01*
G02X160040I-3960J-2345D01*
G03X159696Y-147052I-344J203D01*
G01X158150D01*
X155462Y-144364D01*
G02X158364Y-141462I-1462J4364D01*
G01X159850Y-142948D01*
X160262D01*
Y-142686D01*
X160226Y-142634D01*
G02X160040Y-137655I3774J2634D01*
G03X159696Y-137052I-344J203D01*
G01X158150D01*
X155462Y-134364D01*
G02X158364Y-131462I-1462J4364D01*
G01X159850Y-132948D01*
X160262D01*
Y-132686D01*
X160226Y-132634D01*
G02X167960Y-132345I3774J2634D01*
G03X168304Y-132948I344J-203D01*
G01X185881D01*
G02Y-137052I4119J-2052D01*
G01X168304D01*
G03X167960Y-137655I0J-400D01*
G02Y-142345I-3960J-2345D01*
G03X168304Y-142948I344J-203D01*
G01X180850D01*
X188538Y-150636D01*
G02X185600Y-153651I1462J-4364D01*
G01X185635Y-153537D01*
G37*
G36*
G01X151850Y-172948D02*
X185881D01*
G02Y-177052I4119J-2052D01*
G01X150150D01*
X142948Y-169850D01*
Y-153150D01*
X148150Y-147948D01*
X149881D01*
G02X150118Y-152472I4119J-2052D01*
G03X149498Y-152403I-338J-214D01*
G01X147052Y-154850D01*
Y-168150D01*
X151850Y-172948D01*
G37*
G36*
G01X-23052Y-187448D02*
Y-168821D01*
X57821Y-87948D01*
X65881D01*
G02X73595Y-92874I4119J-2053D01*
G01X73551Y-92928D01*
Y-93198D01*
X73900D01*
X75636Y-91462D01*
G02X78538Y-94364I4364J1462D01*
G01X75600Y-97302D01*
X74443D01*
G03X74087Y-97885I-1J-400D01*
G02X65913I-4087J-2115D01*
G03X65557Y-97302I-355J183D01*
G01X64000D01*
X-8948Y-170250D01*
Y-187448D01*
G02X-13052I-2052J-3552D01*
G01Y-168550D01*
X62300Y-93198D01*
X65854D01*
G03X66186Y-92575I0J400D01*
G02X65881Y-92052I3814J2575D01*
G01X59521D01*
X-18948Y-170521D01*
Y-187448D01*
G02X-23052I-2052J-3552D01*
G37*
G36*
G01X47350Y-205252D02*
X-51249D01*
X-85052Y-171449D01*
Y-65150D01*
X-80850Y-60948D01*
X-74260D01*
G02Y-65052I3260J-2052D01*
G01X-79150D01*
X-80948Y-66850D01*
Y-169749D01*
X-49549Y-201148D01*
X12704D01*
G03X12945Y-200429I0J400D01*
G02X18495I2775J3671D01*
G03X18736Y-201148I241J-319D01*
G01X40264D01*
G03X40505Y-200429I0J400D01*
G02X47701Y-198037I2775J3671D01*
G03X48368Y-198431I384J-111D01*
G01X85248Y-161550D01*
Y-108150D01*
X81462Y-104364D01*
G02X84364Y-101462I-1462J4364D01*
G01X89352Y-106450D01*
Y-163250D01*
X47350Y-205252D01*
G37*
G36*
G01X101052Y68650D02*
Y56552D01*
G02X96948I-2052J-3552D01*
G01Y70350D01*
X113650Y87052D01*
X135740D01*
G02Y82948I3260J-2052D01*
G01X115350D01*
X101052Y68650D01*
G37*
G54D19*
X109000Y53000D03*
X-51000Y-191000D03*
X-41000D03*
X-31000D03*
X50000Y150000D03*
Y130000D03*
X109000Y23000D03*
X99000D03*
X89000Y53000D03*
X119000D03*
X130000Y180000D03*
X149000Y23000D03*
G54D22*
X15720Y-179042D03*
X43280D03*
X70000Y-120000D03*
X80000D03*
X70000Y-130000D03*
X80000D03*
X70000Y-140000D03*
X80000D03*
X70000Y-110000D03*
X80000D03*
X70000Y-60000D03*
X80000D03*
X70000Y-70000D03*
X80000D03*
X70000Y-80000D03*
X80000D03*
X70000Y-50000D03*
X80000D03*
X164000Y-160000D03*
X154000D03*
Y-80000D03*
X164000Y-70000D03*
Y-60000D03*
X154000D03*
X164000Y-50000D03*
X154000D03*
X190000Y-185000D03*
Y-165000D03*
Y-145000D03*
Y-125000D03*
Y-105000D03*
Y-85000D03*
Y-65000D03*
Y-45000D03*
Y-25000D03*
G54D20*
X-69000Y-131000D03*
X-70000Y-81000D03*
X-67000Y-108000D03*
X-57000Y19000D03*
X-64000Y34000D03*
X-24000Y-131000D03*
X-25000Y-81000D03*
X-26000Y-63000D03*
X-13000Y-45000D03*
Y0D03*
X-12000Y19000D03*
X-19000Y34000D03*
X-20000Y75000D03*
Y120000D03*
Y140000D03*
Y185000D03*
X0Y-70000D03*
X17000Y25000D03*
X20000Y65000D03*
Y110000D03*
X10000Y135000D03*
Y180000D03*
X45000Y-70000D03*
X54000Y24000D03*
X70000Y65000D03*
X54000Y69000D03*
X70000Y110000D03*
X193000Y15000D03*
G54D21*
X-51000Y-178811D03*
Y-155189D03*
X10689Y-50000D03*
X47000Y-161811D03*
Y-138189D03*
X34311Y-50000D03*
X89189Y154000D03*
Y130000D03*
X155189Y-196000D03*
X178811D03*
X175100Y-54011D03*
Y-30389D03*
G54D24*
X170000Y160157D03*
Y179843D03*
G54D23*
X-1000Y-191000D03*
X89000Y23000D03*
%LPD*%
G75*
G54D10*
X-69000Y-131000D03*
X-70000Y-81000D03*
X-71000Y-63000D03*
X-72400Y-35400D03*
X-67000Y-108000D03*
X-57000Y19000D03*
X-64000Y34000D03*
X-24000Y-131000D03*
X-22000Y-108000D03*
X-25000Y-81000D03*
X-26000Y-63000D03*
X-13000Y-45000D03*
Y0D03*
X-12000Y19000D03*
X-19000Y34000D03*
X-20000Y75000D03*
Y120000D03*
Y140000D03*
Y185000D03*
X0Y-70000D03*
X17000Y-20000D03*
Y25000D03*
X20000Y65000D03*
Y110000D03*
X10000Y135000D03*
Y180000D03*
X45000Y-70000D03*
X54000Y24000D03*
X70000Y65000D03*
X54000Y69000D03*
X70000Y110000D03*
X139000Y85000D03*
Y130000D03*
X144400Y-54500D03*
X165000Y86000D03*
Y131000D03*
X193000Y15000D03*
Y60000D03*
X192000Y86000D03*
Y131000D03*
G54D11*
X-51000Y-191000D03*
X-41000D03*
X-31000D03*
X-21000D03*
X-11000D03*
X50000Y150000D03*
X40000D03*
X50000Y130000D03*
X40000D03*
X70000Y180000D03*
X60000D03*
X109000Y23000D03*
X99000D03*
X109000Y53000D03*
X99000D03*
X89000D03*
X139000Y23000D03*
X129000D03*
X119000D03*
X139000Y53000D03*
X129000D03*
X119000D03*
X130000Y180000D03*
X120000D03*
X149000Y23000D03*
Y53000D03*
G54D12*
X-51000Y-178811D03*
Y-155189D03*
X-44000Y-29811D03*
Y-6189D03*
X10689Y-50000D03*
X47000Y-161811D03*
Y-138189D03*
X34311Y-50000D03*
X89189Y154000D03*
X112811D03*
X89189Y130000D03*
X112811D03*
X155189Y-196000D03*
X178811D03*
X175100Y-54011D03*
Y-30389D03*
G54D13*
X15720Y-196758D03*
Y-179042D03*
X43280D03*
Y-196758D03*
X70000Y-120000D03*
X80000D03*
X70000Y-130000D03*
X80000D03*
X70000Y-140000D03*
X80000D03*
X70000Y-90000D03*
X80000D03*
X70000Y-100000D03*
X80000D03*
X70000Y-110000D03*
X80000D03*
X70000Y-60000D03*
X80000D03*
X70000Y-70000D03*
X80000D03*
X70000Y-80000D03*
X80000D03*
X70000Y-50000D03*
X80000D03*
X164000Y-160000D03*
X154000D03*
X164000Y-150000D03*
X154000D03*
X164000Y-140000D03*
X154000D03*
X164000Y-130000D03*
X154000D03*
X164000Y-120000D03*
X154000D03*
X164000Y-110000D03*
X154000D03*
X164000Y-100000D03*
X154000D03*
X164000Y-90000D03*
X154000D03*
X164000Y-80000D03*
X154000D03*
X164000Y-70000D03*
X154000D03*
X164000Y-60000D03*
X154000D03*
X164000Y-50000D03*
X154000D03*
X190000Y-185000D03*
Y-175000D03*
Y-165000D03*
Y-155000D03*
Y-145000D03*
Y-135000D03*
Y-125000D03*
Y-115000D03*
Y-105000D03*
Y-95000D03*
Y-85000D03*
Y-75000D03*
Y-65000D03*
Y-55000D03*
Y-45000D03*
Y-35000D03*
Y-25000D03*
Y-15000D03*
G54D14*
X-1000Y-191000D03*
X89000Y23000D03*
G54D15*
X23000Y-98000D03*
X13000D03*
X33000D03*
G54D16*
X170000Y160157D03*
Y179843D03*
G54D17*
G01X80000Y-100000D02*
X87300Y-107300D01*
Y-162400D01*
X46500Y-203200D01*
X-50399D01*
X-83000Y-170599D01*
Y-66000D01*
X-80000Y-63000D01*
X-71000D01*
G01X33000Y-98000D02*
X24400Y-106600D01*
X-15600D01*
X-49952Y-72248D01*
Y54048D01*
X26000Y130000D01*
X40000D01*
G01X-21000Y-191000D02*
Y-169671D01*
X58671Y-90000D01*
X70000D01*
G01X-11000Y-191000D02*
Y-169400D01*
X63150Y-95250D01*
X74750D01*
X80000Y-90000D01*
G01X17000Y-20000D02*
X86000D01*
X129000Y23000D01*
G01X60000Y180000D02*
Y170000D01*
X40000Y150000D01*
G01X60000Y180000D02*
X65400Y185400D01*
X114600D01*
X120000Y180000D01*
G01X139000Y85000D02*
X114500D01*
X99000Y69500D01*
Y53000D01*
G01X190000Y-15000D02*
X153300D01*
X138500Y-29800D01*
Y-62300D01*
X146200Y-70000D01*
X154000D01*
G01X139000Y23000D02*
Y27250D01*
X137150Y29100D01*
X125100D01*
X119000Y23000D01*
G01D02*
Y43000D01*
X129000Y53000D01*
G01X139000D02*
Y73700D01*
X159600Y94300D01*
X180300D01*
X192000Y106000D01*
Y131000D01*
G01X129000Y53000D02*
Y48750D01*
X130650Y47100D01*
X147350D01*
X149000Y48750D01*
Y48800D01*
G01X112811Y130000D02*
Y154000D01*
G01X165000Y131000D02*
X160500Y135500D01*
X118311D01*
X112811Y130000D01*
G01Y154000D02*
Y172811D01*
X120000Y180000D01*
G01X190000Y-175000D02*
X151000D01*
X145000Y-169000D01*
Y-154000D01*
X149000Y-150000D01*
X154000D01*
G01X190000Y-135000D02*
X159000D01*
X154000Y-130000D01*
G01X190000Y-115000D02*
X159000D01*
X154000Y-120000D01*
G01X190000Y-155000D02*
X180000Y-145000D01*
X159000D01*
X154000Y-140000D01*
G01Y-90000D02*
X159250Y-84750D01*
X173650D01*
X182700Y-75700D01*
Y-62300D01*
X190000Y-55000D01*
G01Y-95000D02*
X180000Y-105000D01*
X159000D01*
X154000Y-110000D01*
G01X190000Y-75000D02*
X170100Y-94900D01*
X159100D01*
X154000Y-100000D01*
G01X144400Y-54500D02*
Y-46230D01*
X148730Y-41900D01*
X183100D01*
X190000Y-35000D01*
G01X149000Y48800D02*
Y53000D01*
G01X165000Y86000D02*
Y50800D01*
X161500Y47300D01*
X150500D01*
X149000Y48800D01*
G01X193000Y60000D02*
Y81000D01*
X192000Y82000D01*
Y86000D01*
G54D18*
G01X-72065Y-134065D02*
X-69000Y-131000D01*
G01D02*
X-65935Y-127935D01*
G01X-72065D02*
X-69000Y-131000D01*
G01D02*
X-65935Y-134065D01*
G01X-70065Y-111065D02*
X-67000Y-108000D01*
G01X-70065Y-104935D02*
X-67000Y-108000D01*
G01X-44242Y-194242D02*
X-41000Y-191000D01*
G01D02*
X-37758Y-187758D01*
G01X-44242D02*
X-41000Y-191000D01*
G01D02*
X-37758Y-194242D01*
G01X-54419Y-158608D02*
X-51000Y-155189D01*
G01D02*
X-47581Y-151770D01*
G01X-54419D02*
X-51000Y-155189D01*
G01D02*
X-47581Y-158608D01*
G01X-67000Y-108000D02*
X-63935Y-104935D01*
G01X-67000Y-108000D02*
X-63935Y-111065D01*
G01X-44000Y-29811D02*
X-40581Y-26392D01*
G01X-44000Y-29811D02*
X-40581Y-33230D01*
G01X-25065Y-111065D02*
X-22000Y-108000D01*
G01X-25065Y-104935D02*
X-22000Y-108000D01*
G01D02*
X-18935Y-111065D01*
G01X-16065Y-48065D02*
X-13000Y-45000D01*
G01D02*
X-9935Y-41935D01*
G01X-16065D02*
X-13000Y-45000D01*
G01D02*
X-9935Y-48065D01*
G01X-23065Y181935D02*
X-20000Y185000D01*
G01D02*
X-16935Y181935D01*
G01X-20000Y185000D02*
X-16935Y188065D01*
G01X-23065D02*
X-20000Y185000D01*
G01X19051Y-101949D02*
X23000Y-98000D01*
G01X19051Y-94051D02*
X23000Y-98000D01*
G01X7270Y-53419D02*
X10689Y-50000D01*
G01D02*
X14108Y-46581D01*
G01X7270D02*
X10689Y-50000D01*
G01D02*
X14108Y-53419D01*
G01X43581Y-141608D02*
X47000Y-138189D01*
G01D02*
X50419Y-134770D01*
G01X43581D02*
X47000Y-138189D01*
G01D02*
X50419Y-141608D01*
G01X23000Y-98000D02*
X26949Y-94051D01*
G01X66404Y-133596D02*
X70000Y-130000D01*
G01D02*
X73596Y-126404D01*
G01X66404D02*
X70000Y-130000D01*
G01D02*
X73596Y-133596D01*
G01X105758Y49758D02*
X109000Y53000D01*
G01D02*
X112242Y56242D01*
G01X109000Y53000D02*
X112242Y49758D01*
G01X85770Y126581D02*
X89189Y130000D01*
G01D02*
X92608Y133419D01*
G01X85770D02*
X89189Y130000D01*
G01D02*
X92608Y126581D01*
G01X85770Y150581D02*
X89189Y154000D01*
G01D02*
X92608Y150581D01*
G01X89189Y154000D02*
X92608Y157419D01*
G01X85770D02*
X89189Y154000D01*
G01X151770Y-199419D02*
X155189Y-196000D01*
G01D02*
X158608Y-192581D01*
G01X151770D02*
X155189Y-196000D01*
G01D02*
X158608Y-199419D01*
G01X160404Y-163596D02*
X164000Y-160000D01*
G01D02*
X167596Y-156404D01*
G01X160404D02*
X164000Y-160000D01*
G01D02*
X167596Y-163596D01*
G01X171681Y-57430D02*
X175100Y-54011D01*
G01X171681Y-50592D02*
X175100Y-54011D01*
G01X150404Y-53596D02*
X154000Y-50000D01*
G01D02*
X157596Y-46404D01*
G01X150404D02*
X154000Y-50000D01*
G01D02*
X157596Y-53596D01*
G01X164703Y154860D02*
X170000Y160157D01*
G01D02*
X175297Y165454D01*
G01X164703D02*
X170000Y160157D01*
G01D02*
X175297Y154860D01*
G01X175100Y-54011D02*
X178519Y-50592D01*
G01X175100Y-54011D02*
X178519Y-57430D01*
G01X189935Y11935D02*
X193000Y15000D01*
G01D02*
X196065Y18065D01*
G01X189935D02*
X193000Y15000D01*
G01D02*
X196065Y11935D01*
M02*
