M48
INCH
T01C.025
T02C.034
T03C.035
T04C.036
T05C.04
T06C.055
T07C.05906
;LEADER: 12 
;HEADER: 
;CODE  : ASCII 
;FILE  : COMPLETE SCHEMATIC V4-1-2.drl for  ... layers TOP and BOTTOM
;DESIGN: COMPLETE SCHEMATIC V4.brd
;T01 Holesize 1. = 25.000000 Tolerance = +0.000000/-0.000000 PLATED MILS Quantity = 2
;T02 Holesize 2. = 34.000000 Tolerance = +0.000000/-0.000000 PLATED MILS Quantity = 38
;T03 Holesize 3. = 35.000000 Tolerance = +0.000000/-0.000000 PLATED MILS Quantity = 16
;T04 Holesize 4. = 36.000000 Tolerance = +0.000000/-0.000000 PLATED MILS Quantity = 28
;T05 Holesize 5. = 40.000000 Tolerance = +0.000000/-0.000000 PLATED MILS Quantity = 66
;T06 Holesize 6. = 55.000000 Tolerance = +0.000000/-0.000000 PLATED MILS Quantity = 3
;T07 Holesize 7. = 59.060000 Tolerance = +0.000000/-0.000000 PLATED MILS Quantity = 2
%
G90
T01
X0144400Y-0054500
X-0072400Y-0035400
T02
X-0067000Y-0108000
X-0022000Y-0108000
X-0024000Y-0131000
X-0069000Y-0131000
X-0025000Y-0081000
X-0070000Y-0081000
X-0026000Y-0063000
X-0071000Y-0063000
X0000000Y-0070000
X0045000Y-0070000
X-0013000Y0000000
X-0013000Y-0045000
X-0019000Y0034000
X-0064000Y0034000
X-0012000Y0019000
X-0057000Y0019000
X0017000Y0025000
X0017000Y-0020000
X-0020000Y0140000
X-0020000Y0185000
X-0020000Y0120000
X-0020000Y0075000
X0010000Y0180000
X0010000Y0135000
X0054000Y0069000
X0054000Y0024000
X0020000Y0110000
X0020000Y0065000
X0070000Y0110000
X0070000Y0065000
X0192000Y0131000
X0192000Y0086000
X0193000Y0060000
X0193000Y0015000
X0165000Y0131000
X0165000Y0086000
X0139000Y0130000
X0139000Y0085000
T03
X-0051000Y-0155189
X-0051000Y-0178811
X-0044000Y-0006189
X-0044000Y-0029811
X0112811Y0154000
X0089189Y0154000
X0112811Y0130000
X0089189Y0130000
X0034311Y-0050000
X0010689Y-0050000
X0047000Y-0161811
X0047000Y-0138189
X0178811Y-0196000
X0155189Y-0196000
X0175100Y-0030389
X0175100Y-0054011
T04
X-0001000Y-0191000
R05X-0010000
X0040000Y0150000
X0050000Y0150000
X0060000Y0180000
X0070000Y0180000
X0040000Y0130000
X0050000Y0130000
X0089000Y0023000
R06X0010000
X0149000Y0053000
R06X-0010000
X0120000Y0180000
X0130000Y0180000
T05
X0080000Y-0140000
X0070000Y-0140000
X0080000Y-0130000
X0070000Y-0130000
X0080000Y-0120000
X0070000Y-0120000
X0080000Y-0110000
X0070000Y-0110000
X0080000Y-0100000
X0070000Y-0100000
X0080000Y-0090000
X0070000Y-0090000
X0080000Y-0080000
X0070000Y-0080000
X0080000Y-0070000
X0070000Y-0070000
X0080000Y-0060000
X0070000Y-0060000
X0080000Y-0050000
X0070000Y-0050000
X0154000Y-0050000
X0164000Y-0050000
X0154000Y-0060000
X0164000Y-0060000
X0154000Y-0070000
X0164000Y-0070000
X0154000Y-0080000
X0164000Y-0080000
X0154000Y-0090000
X0164000Y-0090000
X0154000Y-0100000
X0164000Y-0100000
X0154000Y-0110000
X0164000Y-0110000
X0154000Y-0120000
X0164000Y-0120000
X0154000Y-0130000
X0164000Y-0130000
X0154000Y-0140000
X0164000Y-0140000
X0154000Y-0150000
X0164000Y-0150000
X0154000Y-0160000
X0164000Y-0160000
X0190000Y-0015000
R17Y-0010000
X0015720Y-0179042
X0015720Y-0196758
X0043280Y-0196758
X0043280Y-0179042
T06
X0033000Y-0098000
R02X-0010000
T07
X0170000Y0179843
X0170000Y0160157
M30
