M48
INCH
T01C.0315
T02C.034
T03C.035
T04C.036
T05C.04
T06C.055
T07C.05906
T08C.08
;LEADER: 12 
;HEADER: 
;CODE  : ASCII 
;FILE  : COMPLETE SCHEMATIC V6-1-2.drl for  ... layers TOP and BOTTOM
;DESIGN: COMPLETE SCHEMATIC V6.brd
;T01 Holesize 1. = 31.500000 Tolerance = +0.000000/-0.000000 PLATED MILS Quantity = 4
;T02 Holesize 2. = 34.000000 Tolerance = +0.000000/-0.000000 PLATED MILS Quantity = 8
;T03 Holesize 3. = 35.000000 Tolerance = +0.000000/-0.000000 PLATED MILS Quantity = 14
;T04 Holesize 4. = 36.000000 Tolerance = +0.000000/-0.000000 PLATED MILS Quantity = 6
;T05 Holesize 5. = 40.000000 Tolerance = +0.000000/-0.000000 PLATED MILS Quantity = 44
;T06 Holesize 6. = 55.000000 Tolerance = +0.000000/-0.000000 PLATED MILS Quantity = 3
;T07 Holesize 7. = 59.060000 Tolerance = +0.000000/-0.000000 PLATED MILS Quantity = 2
;T08 Holesize 8. = 80.000000 Tolerance = +0.000000/-0.000000 PLATED MILS Quantity = 2
%
G90
T01
X0996250Y1053750
X0975000Y1042500
X0930000Y1148189
X1002500Y1035000
T02
X0912500Y1037500
X0957500Y1037500
X0912500Y1057500
X0957500Y1057500
X1025000Y1025000
X1025000Y1070000
X0945000Y1020000
X0990000Y1020000
T03
X0840689Y1072500
X0864311Y1072500
X0920000Y1148189
X0920000Y1171811
X0980689Y1072500
X1004311Y1072500
X0982500Y0971811
X0982500Y0948189
X1000000Y0971811
X1000000Y0948189
X1045000Y1159311
X1045000Y1135689
X1045000Y1239311
X1045000Y1215689
T04
X0807500Y1057500
R05X0010000
T05
X0947500Y1160000
X0937500Y1160000
X0947500Y1170000
X0937500Y1170000
X0947500Y1180000
X0937500Y1180000
X0947500Y1190000
X0937500Y1190000
X0947500Y1200000
X0937500Y1200000
X0947500Y1210000
X0937500Y1210000
X0947500Y1220000
X0937500Y1220000
X0947500Y1230000
X0937500Y1230000
X0947500Y1240000
X0937500Y1240000
X0947500Y1250000
X0937500Y1250000
X1021500Y1250000
X1031500Y1250000
X1021500Y1240000
X1031500Y1240000
X1021500Y1230000
X1031500Y1230000
X1021500Y1220000
X1031500Y1220000
X1021500Y1210000
X1031500Y1210000
X1021500Y1200000
X1031500Y1200000
X1021500Y1190000
X1031500Y1190000
X1021500Y1180000
X1031500Y1180000
X1021500Y1170000
X1031500Y1170000
X1021500Y1160000
X1031500Y1160000
X1021500Y1150000
X1031500Y1150000
X1021500Y1140000
X1031500Y1140000
T06
X0982500Y0917500
R02X0010000
T07
X1040000Y0952343
X1040000Y0932657
T08
X0897500Y1211500
X0791500Y1211500
M30
