M48
INCH
T01C.0315
T02C.036
T03C.04
;LEADER: 12 
;HEADER: 
;CODE  : ASCII 
;FILE  : sensorsubsystem4-1-2.drl for  ... layers TOP and BOTTOM
;DESIGN: sensorsubsystem4.brd
;T01 Holesize 1. = 31.500000 Tolerance = +0.000000/-0.000000 PLATED MILS Quantity = 23
;T02 Holesize 2. = 36.000000 Tolerance = +0.000000/-0.000000 PLATED MILS Quantity = 6
;T03 Holesize 3. = 40.000000 Tolerance = +0.000000/-0.000000 PLATED MILS Quantity = 6
%
G90
T01
X0985000Y0845000
X1007063Y0778500
X1079751Y0788500
X1079751Y0773742
X1095000Y0873134
X1206250Y0710000
X1131703Y0666300
X0980563Y0662742
X1110000Y0885000
X1132292Y1026065
X1132292Y0958815
X1056187Y0760000
X1140000Y0755000
X1040000Y0772500
X1201500Y0675000
X1172492Y0774260
X1172492Y0867798
X1155000Y0955000
X1020000Y0772500
X1085000Y1000000
X1083739Y0804431
X1017500Y0795000
X1022500Y0812500
T02
X1210000Y0700000
X1220000Y0700000
X1210000Y0720000
X1220000Y0720000
X1220000Y0550000
X1230000Y0550000
T03
X1220000Y0685000
R05Y-0010000
M30
