G04 ================== begin FILE IDENTIFICATION RECORD ==================*
G04 Layout Name:  sensorsubsystem3.brd*
G04 Film Name:    SolermaskTop*
G04 File Format:  Gerber RS274X*
G04 File Origin:  Cadence Allegro 16.6-2015-S062*
G04 Origin Date:  Thu Feb 22 22:49:48 2018*
G04 *
G04 Layer:  VIA CLASS/SOLDERMASK_TOP*
G04 Layer:  PIN/SOLDERMASK_TOP*
G04 Layer:  DRC ERROR CLASS/SOLDERMASK_TOP*
G04 *
G04 Offset:    (0.00 0.00)*
G04 Mirror:    No*
G04 Mode:      Positive*
G04 Rotation:  0*
G04 FullContactRelief:  No*
G04 UndefLineWidth:     0.20*
G04 ================== end FILE IDENTIFICATION RECORD ====================*
%FSLAX25Y25*MOIN*%
%IR0*IPPOS*OFA0.00000B0.00000*MIA0B0*SFA1.00000B1.00000*%
%ADD11C,.08*%
%ADD17C,.09*%
%ADD16C,.075*%
%ADD12R,.04803X.06772*%
%ADD13R,.08661X.02756*%
%ADD15R,.02756X.06693*%
%ADD10R,.01969X.01575*%
%ADD14R,.06693X.02756*%
%LPD*%
G75*
G54D10*
X966260Y866457D03*
Y1016457D03*
X970000Y874724D03*
X973740Y866457D03*
Y1016457D03*
X970000Y1024724D03*
X1033740Y946457D03*
X1026260D03*
X1030000Y954724D03*
X1080000Y874724D03*
X1083740Y866457D03*
X1076260D03*
X1083740Y1016457D03*
X1076260D03*
X1080000Y1024724D03*
X1143740Y946457D03*
X1136260D03*
X1140000Y954724D03*
X1190000Y874724D03*
X1193740Y866457D03*
X1186260D03*
X1193740Y1016457D03*
X1186260D03*
X1190000Y1024724D03*
G54D11*
X980563Y662742D03*
X986313Y836492D03*
X1007063Y778500D03*
X1056187Y760000D03*
X1079751Y773742D03*
Y788500D03*
X1083739Y804431D03*
X1088490Y873134D03*
X1092500Y882500D03*
X1083740Y1012366D03*
X1131703Y666300D03*
X1128496Y760000D03*
X1132292Y958815D03*
Y1026065D03*
X1136260Y950548D03*
X1172492Y774260D03*
Y867798D03*
X1201500Y675000D03*
X1206250Y710000D03*
G54D12*
X980000Y750000D03*
Y760000D03*
Y830000D03*
X991988Y750000D03*
Y760000D03*
Y830000D03*
X1040000Y660000D03*
X1051988D03*
X1090000Y770000D03*
Y760000D03*
Y780000D03*
X1101988Y770000D03*
Y760000D03*
X1110000Y770000D03*
Y760000D03*
Y780000D03*
X1101988D03*
X1121988Y770000D03*
Y760000D03*
Y780000D03*
X1161988Y660000D03*
X1150000D03*
X1180000Y700000D03*
Y710000D03*
Y720000D03*
X1201988Y640000D03*
X1190000D03*
X1201988Y650000D03*
X1190000D03*
X1191988Y700000D03*
Y710000D03*
Y720000D03*
G54D13*
X1031500Y757500D03*
Y762500D03*
Y767500D03*
Y772500D03*
Y777500D03*
Y782500D03*
Y787500D03*
Y792500D03*
Y797500D03*
Y802500D03*
Y807500D03*
Y812500D03*
Y817500D03*
Y822500D03*
X1068500Y767500D03*
Y762500D03*
Y757500D03*
Y787500D03*
Y782500D03*
Y777500D03*
Y772500D03*
Y802500D03*
Y797500D03*
Y792500D03*
Y822500D03*
Y817500D03*
Y812500D03*
Y807500D03*
G54D14*
X1078000Y644300D03*
Y647400D03*
Y650600D03*
Y653700D03*
Y656900D03*
Y660000D03*
Y663100D03*
Y666300D03*
Y669400D03*
Y672600D03*
Y675700D03*
X1122000Y644300D03*
Y663100D03*
Y660000D03*
Y656900D03*
Y653700D03*
Y650600D03*
Y647400D03*
Y675700D03*
Y672600D03*
Y669400D03*
Y666300D03*
G54D15*
X1093700Y638000D03*
X1090600D03*
X1087400D03*
X1084300D03*
Y682000D03*
X1087400D03*
X1090600D03*
X1093700D03*
X1109400Y638000D03*
X1106300D03*
X1103100D03*
X1100000D03*
X1096900D03*
Y682000D03*
X1100000D03*
X1103100D03*
X1106300D03*
X1109400D03*
X1115700Y638000D03*
X1112600D03*
Y682000D03*
X1115700D03*
G54D16*
X1220000Y550000D03*
Y700000D03*
X1210000D03*
X1220000Y720000D03*
X1210000D03*
X1230000Y550000D03*
G54D17*
X1220000Y635000D03*
Y645000D03*
Y655000D03*
Y665000D03*
Y675000D03*
Y685000D03*
M02*
