G04 ================== begin FILE IDENTIFICATION RECORD ==================*
G04 Layout Name:  sensorsubsystem3.brd*
G04 Film Name:    TOP*
G04 File Format:  Gerber RS274X*
G04 File Origin:  Cadence Allegro 16.6-2015-S062*
G04 Origin Date:  Thu Feb 22 22:45:46 2018*
G04 *
G04 Layer:  ETCH/TOP*
G04 Layer:  PIN/TOP*
G04 Layer:  VIA CLASS/TOP*
G04 *
G04 Offset:    (0.00 0.00)*
G04 Mirror:    No*
G04 Mode:      Positive*
G04 Rotation:  0*
G04 FullContactRelief:  No*
G04 UndefLineWidth:     0.00*
G04 ================== end FILE IDENTIFICATION RECORD ====================*
%FSLAX25Y25*MOIN*%
%IR0*IPPOS*OFA0.00000B0.00000*MIA0B0*SFA1.00000B1.00000*%
%ADD11C,.06*%
%ADD16C,.07*%
%ADD10R,.01654X.01181*%
%ADD15R,.02165X.05906*%
%ADD14R,.05906X.02165*%
%ADD12R,.04016X.05984*%
%ADD13R,.07874X.02362*%
%ADD17C,.005*%
G75*
%LPD*%
G75*
G54D10*
X966260Y866457D03*
Y1016457D03*
X970000Y874724D03*
X973740Y866457D03*
Y1016457D03*
X970000Y1024724D03*
X1033740Y946457D03*
X1026260D03*
X1030000Y954724D03*
X1080000Y874724D03*
X1083740Y866457D03*
X1076260D03*
X1083740Y1016457D03*
X1076260D03*
X1080000Y1024724D03*
X1143740Y946457D03*
X1136260D03*
X1140000Y954724D03*
X1190000Y874724D03*
X1193740Y866457D03*
X1186260D03*
X1193740Y1016457D03*
X1186260D03*
X1190000Y1024724D03*
G54D11*
X980563Y662742D03*
X986313Y836492D03*
X1007063Y778500D03*
X1056187Y760000D03*
X1079751Y773742D03*
Y788500D03*
X1083739Y804431D03*
X1088490Y873134D03*
X1092500Y882500D03*
X1083740Y1012366D03*
X1131703Y666300D03*
X1128496Y760000D03*
X1132292Y958815D03*
Y1026065D03*
X1136260Y950548D03*
X1172492Y774260D03*
Y867798D03*
X1201500Y675000D03*
X1220000Y550000D03*
Y700000D03*
X1210000D03*
X1220000Y720000D03*
X1210000D03*
X1206250Y710000D03*
X1230000Y550000D03*
G54D12*
X980000Y750000D03*
Y760000D03*
Y830000D03*
X991988Y750000D03*
Y760000D03*
Y830000D03*
X1040000Y660000D03*
X1051988D03*
X1090000Y770000D03*
Y760000D03*
Y780000D03*
X1101988Y770000D03*
Y760000D03*
X1110000Y770000D03*
Y760000D03*
Y780000D03*
X1101988D03*
X1121988Y770000D03*
Y760000D03*
Y780000D03*
X1161988Y660000D03*
X1150000D03*
X1180000Y700000D03*
Y710000D03*
Y720000D03*
X1201988Y640000D03*
X1190000D03*
X1201988Y650000D03*
X1190000D03*
X1191988Y700000D03*
Y710000D03*
Y720000D03*
G54D13*
X1031500Y757500D03*
Y762500D03*
Y767500D03*
Y772500D03*
Y777500D03*
Y782500D03*
Y787500D03*
Y792500D03*
Y797500D03*
Y802500D03*
Y807500D03*
Y812500D03*
Y817500D03*
Y822500D03*
X1068500Y767500D03*
Y762500D03*
Y757500D03*
Y787500D03*
Y782500D03*
Y777500D03*
Y772500D03*
Y802500D03*
Y797500D03*
Y792500D03*
Y822500D03*
Y817500D03*
Y812500D03*
Y807500D03*
G54D14*
X1078000Y644300D03*
Y647400D03*
Y650600D03*
Y653700D03*
Y656900D03*
Y660000D03*
Y663100D03*
Y666300D03*
Y669400D03*
Y672600D03*
Y675700D03*
X1122000Y644300D03*
Y663100D03*
Y660000D03*
Y656900D03*
Y653700D03*
Y650600D03*
Y647400D03*
Y675700D03*
Y672600D03*
Y669400D03*
Y666300D03*
G54D15*
X1093700Y638000D03*
X1090600D03*
X1087400D03*
X1084300D03*
Y682000D03*
X1087400D03*
X1090600D03*
X1093700D03*
X1109400Y638000D03*
X1106300D03*
X1103100D03*
X1100000D03*
X1096900D03*
Y682000D03*
X1100000D03*
X1103100D03*
X1106300D03*
X1109400D03*
X1115700Y638000D03*
X1112600D03*
Y682000D03*
X1115700D03*
G54D16*
X1220000Y635000D03*
Y645000D03*
Y655000D03*
Y665000D03*
Y675000D03*
Y685000D03*
G54D17*
G01X980000Y830000D02*
X966260D01*
Y866457D01*
G01Y1016457D02*
Y1017798D01*
X1026260D01*
G01X980563Y662742D02*
X1037242D01*
Y660000D01*
X1040000D01*
G01X982758Y760000D02*
Y750000D01*
X980000D01*
G01X982758Y769431D02*
X1049187D01*
Y755569D01*
X1095758D01*
Y763742D01*
X1112801D01*
G01X982758Y769431D02*
Y760000D01*
G01X980000D02*
X982758D01*
G01Y782500D02*
Y769431D01*
G01X980000Y830000D02*
X982758D01*
Y782500D01*
G01X1031500D02*
X982758D01*
G01X986313Y836492D02*
X970000Y852805D01*
Y874724D01*
G01X1031500Y787500D02*
X1010178D01*
Y848310D01*
X1002208Y856280D01*
X978300D01*
X972163Y862417D01*
Y1016457D01*
X973740D01*
G01X1031500Y807500D02*
X1017178D01*
Y860540D01*
X1014463Y863255D01*
X973740D01*
Y866457D01*
G01X970000Y1024724D02*
Y1026065D01*
X1080000D01*
G01X1031500Y767500D02*
X988230D01*
Y750000D01*
X991988D01*
G01X1031500Y762500D02*
X994746D01*
Y760000D01*
X991988D01*
G01Y830000D02*
X986313D01*
Y836492D01*
G01X1031500Y777500D02*
X1008063D01*
X1007063Y778500D01*
G01X1106300Y682000D02*
Y731703D01*
X1045187D01*
Y767500D01*
X1031500D01*
G01X1090600Y682000D02*
Y708703D01*
X1040187D01*
Y762500D01*
X1031500D01*
G01X1068500Y777500D02*
X1031500D01*
G01Y792500D02*
X1025813D01*
Y805431D01*
X1037187D01*
Y810431D01*
X1023813D01*
Y915940D01*
X1028777Y920904D01*
X1033740D01*
Y946457D01*
G01X1031500Y797500D02*
X1050187D01*
Y800431D01*
X1193740D01*
Y866457D01*
G01X1031500Y802500D02*
X1043187D01*
Y804431D01*
X1083739D01*
G01X1031500Y812500D02*
X1036187D01*
Y815431D01*
X1083740D01*
Y866457D01*
G01X1031500Y817500D02*
X1025813D01*
Y887562D01*
X1049168Y910917D01*
X1143740D01*
Y946457D01*
G01X1193740Y1016457D02*
Y893498D01*
X1063962D01*
X1056659Y886195D01*
Y835080D01*
X1044079Y822500D01*
X1031500D01*
G01X1026260Y1017798D02*
Y946457D01*
G01X1132292Y958815D02*
X1030000D01*
Y954724D01*
G01X1026260Y1017798D02*
X1076260D01*
G01X1051988Y660000D02*
X1060746D01*
Y656900D01*
X1078000D01*
G01Y660000D02*
X1067746D01*
Y663742D01*
X1040000D01*
Y660000D01*
G01X1056187Y760000D02*
X1061064D01*
G01X1068500Y762500D02*
X1083484D01*
X1087242Y766258D01*
G01X1061064Y760000D02*
X1090000D01*
G01X1068500Y757500D02*
X1063564D01*
X1061064Y760000D01*
G01X1068500Y767500D02*
X1075187D01*
Y780000D01*
X1087242D01*
G01X1073187Y777500D02*
X1068500D01*
G01Y772500D02*
X1073187D01*
Y777500D01*
G01Y782500D02*
X1073751D01*
X1079751Y788500D01*
G01X1068500Y782500D02*
X1073187D01*
G01Y777500D02*
Y782500D01*
G01X1078000Y656900D02*
X1106703D01*
Y660000D01*
X1122000D01*
G01X1078000D02*
X1093703D01*
Y666300D01*
X1117533D01*
G01X1090000Y770000D02*
X1087242D01*
Y766258D01*
G01D02*
X1121988D01*
Y770000D01*
G01X1090000Y780000D02*
X1087242D01*
G01D02*
Y784742D01*
X1121988D01*
Y780000D01*
G01X1096975Y773742D02*
X1079751D01*
G01X1172492Y867798D02*
X1076260D01*
Y866457D01*
G01X1080000Y874724D02*
Y873134D01*
X1088490D01*
G01X1092500D02*
X1190000D01*
Y874724D01*
G01X1092500Y873134D02*
Y882500D01*
G01X1088490Y873134D02*
X1092500D01*
G01X1083740Y1016457D02*
Y1012366D01*
G01X1076260Y1017798D02*
X1141622D01*
G01X1076260Y1016457D02*
Y1017798D01*
G01X1080000Y1026065D02*
X1132292D01*
G01X1080000Y1024724D02*
Y1026065D01*
G01X1190000Y640000D02*
X1187242D01*
Y641703D01*
X1096900D01*
Y638000D01*
G01X1190000Y650000D02*
X1194758D01*
Y632297D01*
X1100000D01*
Y638000D01*
G01X1103100D02*
Y634297D01*
X1192758D01*
Y645568D01*
X1186242D01*
Y660250D01*
X1225250D01*
Y679750D01*
X1220000Y685000D01*
G01X1110000Y770000D02*
X1113758D01*
Y774260D01*
G01X1110000Y760000D02*
X1112801D01*
Y763742D01*
G01X1117533Y666300D02*
Y755570D01*
X1101988D01*
Y760000D01*
G01Y770000D02*
X1096975D01*
Y773742D01*
G01X1110000Y780000D02*
X1113758D01*
Y774260D01*
G01X1101988Y780000D02*
X1096975D01*
Y773742D01*
G01X1164746Y660000D02*
Y656258D01*
X1138269D01*
X1134527Y660000D01*
X1122000D01*
G01Y666300D02*
X1131703D01*
G01X1117533D02*
X1122000D01*
G01X1112801Y763742D02*
X1124746D01*
Y774260D01*
G01X1121988Y760000D02*
X1128496D01*
G01X1124746Y774260D02*
X1172492D01*
G01X1113758D02*
X1124746D01*
G01X1131703Y666300D02*
X1138792D01*
X1141942Y663150D01*
Y660000D01*
X1150000D01*
G01X1136260Y946457D02*
Y950548D01*
G01D02*
X1141622D01*
Y1017798D01*
G01X1140000Y954724D02*
Y958815D01*
X1132292D01*
G01X1186260Y1016457D02*
Y1017798D01*
X1141622D01*
G01X1132292Y1026065D02*
X1190000D01*
Y1024724D01*
G01X1161988Y660000D02*
X1164746D01*
G01D02*
X1177242Y672496D01*
Y675000D01*
G01Y720000D02*
Y675000D01*
G01X1201500D02*
X1177242D01*
G01X1180000Y700000D02*
Y685000D01*
X1220000D01*
G01X1210000Y700000D02*
X1205250Y695250D01*
X1185758D01*
Y710000D01*
X1180000D01*
G01Y720000D02*
X1177242D01*
G01X1172492Y774260D02*
X1177242Y769510D01*
Y720000D01*
G01X1186260Y866457D02*
Y867798D01*
X1172492D01*
G01X1191988Y710000D02*
X1206250D01*
G01X1191988Y700000D02*
Y703750D01*
X1216250D01*
X1220000Y700000D01*
G01X1191988Y720000D02*
X1203822D01*
X1207572Y716250D01*
X1216250D01*
X1220000Y720000D01*
G01Y645000D02*
X1215000Y640000D01*
X1201988D01*
G01X1220000Y655000D02*
X1215000Y650000D01*
X1201988D01*
G01X1220000Y675000D02*
X1201500D01*
M02*
