G04 ================== begin FILE IDENTIFICATION RECORD ==================*
G04 Layout Name:  sensorsubsystem4.brd*
G04 Film Name:    TOP*
G04 File Format:  Gerber RS274X*
G04 File Origin:  Cadence Allegro 16.6-2015-S062*
G04 Origin Date:  Fri Feb 23 16:14:22 2018*
G04 *
G04 Layer:  ETCH/TOP*
G04 Layer:  PIN/TOP*
G04 Layer:  VIA CLASS/TOP*
G04 *
G04 Offset:    (0.00 0.00)*
G04 Mirror:    No*
G04 Mode:      Positive*
G04 Rotation:  0*
G04 FullContactRelief:  No*
G04 UndefLineWidth:     0.00*
G04 ================== end FILE IDENTIFICATION RECORD ====================*
%FSLAX25Y25*MOIN*%
%IR0*IPPOS*OFA0.00000B0.00000*MIA0B0*SFA1.00000B1.00000*%
%ADD11C,.06*%
%ADD16C,.07*%
%ADD10R,.01654X.01181*%
%ADD15R,.02165X.05906*%
%ADD14R,.05906X.02165*%
%ADD12R,.04016X.05984*%
%ADD13R,.07874X.02362*%
%ADD17C,.02*%
%ADD18C,.012*%
%ADD19C,.005*%
G75*
%LPD*%
G75*
G54D10*
X966260Y866457D03*
Y1016457D03*
X970000Y874724D03*
X973740Y866457D03*
Y1016457D03*
X970000Y1024724D03*
X1033740Y946457D03*
X1026260D03*
X1030000Y954724D03*
X1080000Y874724D03*
X1083740Y866457D03*
X1076260D03*
X1083740Y1016457D03*
X1076260D03*
X1080000Y1024724D03*
X1143740Y946457D03*
X1136260D03*
X1140000Y954724D03*
X1190000Y874724D03*
X1193740Y866457D03*
X1186260D03*
X1193740Y1016457D03*
X1186260D03*
X1190000Y1024724D03*
G54D11*
X980563Y662742D03*
X985000Y845000D03*
X1007063Y778500D03*
X1020000Y772500D03*
X1017500Y795000D03*
X1022500Y812500D03*
X1040000Y772500D03*
X1056187Y760000D03*
X1079751Y773742D03*
Y788500D03*
X1083739Y804431D03*
X1095000Y873134D03*
X1085000Y1000000D03*
X1110000Y885000D03*
X1131703Y666300D03*
X1132292Y958815D03*
Y1026065D03*
X1140000Y755000D03*
X1155000Y955000D03*
X1172492Y774260D03*
Y867798D03*
X1201500Y675000D03*
X1220000Y550000D03*
Y700000D03*
X1210000D03*
X1220000Y720000D03*
X1210000D03*
X1206250Y710000D03*
X1230000Y550000D03*
G54D12*
X980000Y750000D03*
Y760000D03*
Y830000D03*
X991988Y750000D03*
Y760000D03*
Y830000D03*
X1040000Y660000D03*
X1051988D03*
X1090000Y770000D03*
Y760000D03*
Y780000D03*
X1101988Y770000D03*
Y760000D03*
X1110000Y770000D03*
Y760000D03*
Y780000D03*
X1101988D03*
X1121988Y770000D03*
Y760000D03*
Y780000D03*
X1161988Y660000D03*
X1150000D03*
X1180000Y700000D03*
Y710000D03*
Y720000D03*
X1201988Y640000D03*
X1190000D03*
X1201988Y650000D03*
X1190000D03*
X1191988Y700000D03*
Y710000D03*
Y720000D03*
G54D13*
X1031500Y757500D03*
Y762500D03*
Y767500D03*
Y772500D03*
Y777500D03*
Y782500D03*
Y787500D03*
Y792500D03*
Y797500D03*
Y802500D03*
Y807500D03*
Y812500D03*
Y817500D03*
Y822500D03*
X1068500Y767500D03*
Y762500D03*
Y757500D03*
Y787500D03*
Y782500D03*
Y777500D03*
Y772500D03*
Y802500D03*
Y797500D03*
Y792500D03*
Y822500D03*
Y817500D03*
Y812500D03*
Y807500D03*
G54D14*
X1078000Y644300D03*
Y647400D03*
Y650600D03*
Y653700D03*
Y656900D03*
Y660000D03*
Y663100D03*
Y666300D03*
Y669400D03*
Y672600D03*
Y675700D03*
X1122000Y644300D03*
Y663100D03*
Y660000D03*
Y656900D03*
Y653700D03*
Y650600D03*
Y647400D03*
Y675700D03*
Y672600D03*
Y669400D03*
Y666300D03*
G54D15*
X1093700Y638000D03*
X1090600D03*
X1087400D03*
X1084300D03*
Y682000D03*
X1087400D03*
X1090600D03*
X1093700D03*
X1109400Y638000D03*
X1106300D03*
X1103100D03*
X1100000D03*
X1096900D03*
Y682000D03*
X1100000D03*
X1103100D03*
X1106300D03*
X1109400D03*
X1115700Y638000D03*
X1112600D03*
Y682000D03*
X1115700D03*
G54D16*
X1220000Y635000D03*
Y645000D03*
Y655000D03*
Y665000D03*
Y675000D03*
Y685000D03*
G54D17*
G01X1031500Y787500D02*
X1010678D01*
X1010178Y788000D01*
Y806053D01*
X1008800Y807431D01*
Y812569D01*
X1010178Y813947D01*
Y848310D01*
X1002208Y856280D01*
X978300D01*
X970164Y864416D01*
G01X970000Y1016457D02*
X973740D01*
G01X1031500Y767500D02*
X988230D01*
Y750000D01*
X991988D01*
G01X1031500Y762500D02*
X994746D01*
Y760000D01*
X991988D01*
G01X1106300Y682000D02*
Y731703D01*
X1045187D01*
Y767500D01*
X1031500D01*
G01X1090600Y682000D02*
Y708703D01*
X1040187D01*
Y762500D01*
X1031500D01*
G01Y817500D02*
X1025813D01*
Y887562D01*
X1049168Y910917D01*
X1143740D01*
Y946457D01*
G01X1193740Y1016457D02*
Y893498D01*
X1063962D01*
X1056659Y886195D01*
Y835080D01*
X1044079Y822500D01*
X1031500D01*
G01X1190000Y650000D02*
X1193508D01*
X1196008Y647500D01*
Y635350D01*
X1194758Y634100D01*
Y629500D01*
X1192758Y627500D01*
X1102000D01*
X1100000Y629500D01*
Y638000D01*
G01X1190000Y640000D02*
X1119858D01*
X1117405Y642453D01*
X1098295D01*
X1097417Y641575D01*
Y640517D01*
X1096900Y640000D01*
Y638000D01*
G01X1220000Y685000D02*
X1230000Y675000D01*
Y662250D01*
X1228000Y660250D01*
X1222322D01*
X1222072Y660000D01*
X1188242D01*
X1186242Y658000D01*
Y646636D01*
X1187370Y645508D01*
X1191614D01*
X1193508Y643614D01*
Y636386D01*
X1192630Y635508D01*
X1192258D01*
X1191047Y634297D01*
X1118155D01*
X1117405Y633547D01*
X1104595D01*
X1103100Y635042D01*
Y638000D01*
G01X1180000Y700000D02*
Y685000D01*
X1220000D01*
G54D18*
G01X980000Y830000D02*
X966260D01*
Y866457D01*
G01X970000Y874724D02*
X969764D01*
X967500Y872460D01*
Y868191D01*
X968187Y867504D01*
Y865410D01*
X967960Y865183D01*
Y854845D01*
X977805Y845000D01*
X985000D01*
G01X966260Y1016457D02*
X966496D01*
X967865Y1017826D01*
X968398D01*
X969129Y1018557D01*
X974611D01*
X975020Y1018148D01*
X975023D01*
X975373Y1017798D01*
X1026260D01*
G01X980563Y662742D02*
X1037242D01*
Y660000D01*
X1040000D01*
G01X980000Y750000D02*
X982758D01*
Y760000D01*
G01D02*
X980000D01*
G01X982758Y769431D02*
X985827Y772500D01*
X1020000D01*
G01X982758Y760000D02*
Y769431D01*
G01Y782500D02*
Y769431D01*
G01X980000Y830000D02*
X982758D01*
Y782500D01*
G01D02*
X985258Y785000D01*
X1026244D01*
X1028744Y782500D01*
X1031500D01*
G01X985000Y845000D02*
Y831313D01*
X986313Y830000D01*
X991988D01*
G01X970164Y864416D02*
X970287Y864540D01*
Y868374D01*
X970000Y868661D01*
Y871753D01*
X971280Y873033D01*
X971283D01*
X971927Y873677D01*
Y875771D01*
X971283Y876415D01*
X971280D01*
X970000Y877695D01*
Y1016457D01*
G01X973740Y866457D02*
X975667D01*
X976710Y867500D01*
X1010218D01*
X1015000Y862718D01*
Y808795D01*
X1017895Y805900D01*
X1021213D01*
X1021713Y806400D01*
Y806561D01*
X1022213Y807061D01*
X1026161D01*
X1026600Y807500D01*
X1031500D01*
G01X970000Y1024724D02*
Y1026065D01*
X1080000D01*
G01X1020189Y772689D02*
X1020000Y772500D01*
G01X1031500Y777500D02*
X1012563D01*
X1011563Y778500D01*
X1007063D01*
G01X1017500Y795000D02*
X1026244D01*
X1028744Y792500D01*
X1031500D01*
G01X1022500Y812500D02*
X1019600Y815400D01*
Y911727D01*
X1028777Y920904D01*
X1033740D01*
Y946457D01*
G01X1068500Y777500D02*
X1031500D01*
G01X1193740Y866457D02*
Y800000D01*
X1050187D01*
Y797500D01*
X1031500D01*
G01Y802500D02*
X1042937D01*
X1043187Y802750D01*
Y803000D01*
X1045187Y805000D01*
X1063760D01*
X1063941Y805181D01*
X1073059D01*
X1073240Y805000D01*
X1078670D01*
X1079239Y804431D01*
X1083739D01*
G01X1083740Y866457D02*
Y864766D01*
X1085000Y863506D01*
Y816631D01*
X1083800Y815431D01*
X1073105D01*
X1072893Y815219D01*
X1064107D01*
X1063895Y815431D01*
X1039468D01*
X1036537Y812500D01*
X1031500D01*
G01X1026260Y1017798D02*
Y946457D01*
G01X1132292Y958815D02*
X1030000D01*
Y954724D01*
G01X1026260Y1017798D02*
X1076260D01*
G01X1051988Y660000D02*
X1060746D01*
Y656900D01*
X1078000D01*
G01X1040000Y660000D02*
Y670000D01*
X1067746D01*
Y660000D01*
X1078000D01*
G01X1040000Y772500D02*
X1047187D01*
X1049187Y770500D01*
Y754500D01*
X1051187Y752500D01*
X1093758D01*
X1095758Y754500D01*
Y759392D01*
X1096958Y760592D01*
X1097680D01*
X1098880Y761792D01*
Y763448D01*
X1099524Y764092D01*
X1104452D01*
X1105096Y763448D01*
Y761792D01*
X1106296Y760592D01*
X1109651D01*
X1112801Y763742D01*
G01X1056187Y760000D02*
X1061064D01*
G01X1039819Y772319D02*
X1040000Y772500D01*
G01X1068500Y762500D02*
X1083484D01*
X1087242Y766258D01*
G01X1090000Y760000D02*
X1073240D01*
X1073059Y759819D01*
X1063941D01*
X1063760Y760000D01*
X1061064D01*
G01D02*
X1063564Y757500D01*
X1068500D01*
G01X1087242Y780000D02*
X1075187D01*
Y767500D01*
X1068500D01*
G01X1073187Y777500D02*
X1068500D01*
G01Y772500D02*
X1073187D01*
Y777500D01*
G01Y782500D02*
X1073751D01*
X1079751Y788500D01*
G01X1068500Y782500D02*
X1073187D01*
G01Y777500D02*
Y782500D01*
G01X1078000Y656900D02*
X1106703D01*
Y660000D01*
X1122000D01*
G01X1117533Y666300D02*
X1093703D01*
Y660000D01*
X1078000D01*
G01X1087242Y766258D02*
Y770000D01*
X1090000D01*
G01X1087242Y766258D02*
X1088500Y765000D01*
X1098027D01*
X1098819Y765792D01*
X1105157D01*
X1105949Y765000D01*
X1111654D01*
X1112097Y765443D01*
X1113505D01*
X1113506Y765442D01*
X1118414D01*
X1121988Y769016D01*
Y770000D01*
G01X1090000Y780000D02*
X1087242D01*
G01X1121988D02*
Y784742D01*
X1087242D01*
Y780000D01*
G01X1096975Y773742D02*
X1095717Y775000D01*
X1085109D01*
X1083851Y773742D01*
X1079751D01*
G01X1076260Y866457D02*
Y868800D01*
X1077460Y870000D01*
X1087501D01*
X1091734Y865767D01*
X1098268D01*
X1103199Y870698D01*
X1169592D01*
X1172492Y867798D01*
G01X1080000Y874724D02*
Y873134D01*
X1092500D01*
G01X1095000D02*
X1092500D01*
G01D02*
X1104366Y885000D01*
X1110000D01*
G01X1083740Y1016457D02*
Y1005010D01*
X1085000Y1003750D01*
Y1000000D01*
G01X1076260Y1017798D02*
Y1016457D01*
G01X1141622Y1017798D02*
X1139420Y1020000D01*
X1078462D01*
X1076260Y1017798D01*
G01X1132292Y1026065D02*
X1080000D01*
G01D02*
Y1024724D01*
G01X1110000Y770000D02*
X1113758D01*
Y774260D01*
G01X1112801Y763742D02*
Y760000D01*
X1110000D01*
G01X1101988D02*
Y759016D01*
X1105057Y755947D01*
X1106931D01*
X1107370Y755508D01*
X1112630D01*
X1112692Y755570D01*
X1119296D01*
X1120000Y754866D01*
Y679858D01*
X1117547Y677405D01*
Y666314D01*
X1117533Y666300D01*
G01X1101988Y770000D02*
X1096975D01*
Y773742D01*
G01X1110000Y780000D02*
X1113758D01*
Y774260D01*
G01X1101988Y780000D02*
X1096975D01*
Y773742D01*
G01X1095000Y873134D02*
X1190000D01*
Y874724D01*
G01X1164746Y660000D02*
Y655000D01*
X1139527D01*
X1134527Y660000D01*
X1122000D01*
G01Y666300D02*
X1131703D01*
G01X1122000D02*
X1117533D01*
G01X1124746Y774260D02*
X1127500Y771506D01*
Y768046D01*
X1123546Y764092D01*
X1119524D01*
X1119174Y763742D01*
X1112801D01*
G01X1121988Y760000D02*
X1135000D01*
X1140000Y755000D01*
G01X1113758Y774260D02*
X1124746D01*
G01D02*
X1172492D01*
G01X1131703Y666300D02*
X1138792D01*
X1141942Y663150D01*
Y660000D01*
X1150000D01*
G01X1155000Y955000D02*
X1144803D01*
X1137618Y947815D01*
Y947579D01*
X1136496Y946457D01*
X1136260D01*
G01X1141622Y1017798D02*
Y968378D01*
X1155000Y955000D01*
G01X1140000Y954724D02*
Y958815D01*
X1132292D01*
G01X1186260Y1016457D02*
Y1017798D01*
X1141622D01*
G01X1132292Y1026065D02*
X1190000D01*
Y1024724D01*
G01X1161988Y660000D02*
X1164746D01*
G01D02*
X1177242Y672496D01*
Y675000D01*
G01X1201500D02*
X1177242D01*
G01D02*
X1167500Y684742D01*
Y710258D01*
X1177242Y720000D01*
G01X1210000Y700000D02*
X1205250Y695250D01*
X1185758D01*
Y710000D01*
X1180000D01*
G01Y720000D02*
X1177242D01*
G01D02*
Y769510D01*
X1172492Y774260D01*
G01X1186260Y866457D02*
Y867798D01*
X1172492D01*
G01X1191988Y710000D02*
X1206250D01*
G01X1191988Y700000D02*
Y705000D01*
X1215000D01*
X1220000Y700000D01*
G01X1191988Y720000D02*
Y719016D01*
X1194774Y716230D01*
X1195758D01*
X1196988Y715000D01*
X1215000D01*
X1220000Y720000D01*
G01Y675000D02*
X1201500D01*
G54D19*
G01X1220000Y645000D02*
X1215000Y640000D01*
X1201988D01*
G01X1220000Y655000D02*
X1215000Y650000D01*
X1201988D01*
M02*
