M48
INCH
T01C.025
T02C.035
T03C.04
;LEADER: 12 
;HEADER: 
;CODE  : ASCII 
;FILE  : ReedPSoCFinal-1-2.drl for  ... layers TOP and BOTTOM
;T01 Holesize 1. = 25.000000 Tolerance = +0.000000/-0.000000 PLATED MILS Quantity = 1
;T02 Holesize 2. = 35.000000 Tolerance = +0.000000/-0.000000 PLATED MILS Quantity = 26
;T03 Holesize 3. = 40.000000 Tolerance = +0.000000/-0.000000 PLATED MILS Quantity = 44
%
G90
T01
X0980020Y1075030
T02
X0840000Y1068189
X0840000Y1091811
X0820000Y1085000
X0820000Y1075000
X0970000Y1198189
X0970000Y1221811
X0970000Y1028189
X0970000Y1051811
X1000000Y1205000
R17Y-0010000
T03
X0870000Y1080000
X0860000Y1080000
X0870000Y1090000
X0860000Y1090000
X0870000Y1100000
X0860000Y1100000
X0870000Y1110000
X0860000Y1110000
X0870000Y1120000
X0860000Y1120000
X0870000Y1130000
X0860000Y1130000
X0870000Y1140000
X0860000Y1140000
X0870000Y1150000
X0860000Y1150000
X0870000Y1160000
X0860000Y1160000
X0870000Y1170000
X0860000Y1170000
X0944000Y1170000
X0954000Y1170000
X0944000Y1160000
X0954000Y1160000
X0944000Y1150000
X0954000Y1150000
X0944000Y1140000
X0954000Y1140000
X0944000Y1130000
X0954000Y1130000
X0944000Y1120000
X0954000Y1120000
X0944000Y1110000
X0954000Y1110000
X0944000Y1100000
X0954000Y1100000
X0944000Y1090000
X0954000Y1090000
X0944000Y1080000
X0954000Y1080000
X0944000Y1070000
X0954000Y1070000
X0944000Y1060000
X0954000Y1060000
M30
