G04 ================== begin FILE IDENTIFICATION RECORD ==================*
G04 Layout Name:  ReedPSoCFinal.brd*
G04 Film Name:    SOLDERMASK_BOTTOM*
G04 File Format:  Gerber RS274X*
G04 File Origin:  Cadence Allegro 16.6-2015-S062*
G04 Origin Date:  Fri Oct 13 21:27:10 2017*
G04 *
G04 Layer:  DRC ERROR CLASS/SOLDERMASK_BOTTOM*
G04 Layer:  PIN/SOLDERMASK_BOTTOM*
G04 Layer:  VIA CLASS/SOLDERMASK_BOTTOM*
G04 *
G04 Offset:    (0.00 0.00)*
G04 Mirror:    No*
G04 Mode:      Positive*
G04 Rotation:  0*
G04 FullContactRelief:  No*
G04 UndefLineWidth:     0.01*
G04 ================== end FILE IDENTIFICATION RECORD ====================*
%FSLAX25Y25*MOIN*%
%IR0*IPPOS*OFA0.00000B0.00000*MIA0B0*SFA1.00000B1.00000*%
%ADD11C,.07*%
%ADD10C,.08*%
%ADD12C,.09*%
%ADD13C,.065*%
%LPD*%
G75*
G54D10*
X840000Y1068189D03*
Y1091811D03*
X970000Y1051811D03*
Y1028189D03*
Y1198189D03*
Y1221811D03*
G54D11*
X820000Y1075000D03*
Y1085000D03*
X1000000Y1035000D03*
Y1045000D03*
Y1055000D03*
Y1065000D03*
Y1075000D03*
Y1085000D03*
Y1095000D03*
Y1105000D03*
Y1115000D03*
Y1125000D03*
Y1135000D03*
Y1145000D03*
Y1155000D03*
Y1165000D03*
Y1175000D03*
Y1185000D03*
Y1195000D03*
Y1205000D03*
G54D12*
X860000Y1080000D03*
X870000D03*
X860000Y1110000D03*
X870000D03*
X860000Y1100000D03*
X870000D03*
X860000Y1090000D03*
X870000D03*
X860000Y1140000D03*
X870000D03*
X860000Y1130000D03*
X870000D03*
X860000Y1120000D03*
X870000D03*
X860000Y1170000D03*
X870000D03*
X860000Y1160000D03*
X870000D03*
X860000Y1150000D03*
X870000D03*
X954000Y1060000D03*
X944000D03*
X954000Y1070000D03*
X944000D03*
X954000Y1080000D03*
X944000D03*
X954000Y1090000D03*
X944000D03*
X954000Y1100000D03*
X944000D03*
X954000Y1110000D03*
X944000D03*
X954000Y1120000D03*
X944000D03*
X954000Y1130000D03*
X944000D03*
X954000Y1140000D03*
X944000D03*
X954000Y1150000D03*
X944000D03*
X954000Y1160000D03*
X944000D03*
X954000Y1170000D03*
X944000D03*
G54D13*
X980020Y1075030D03*
M02*
