G04 ================== begin FILE IDENTIFICATION RECORD ==================*
G04 Layout Name:  E:/Cadence/Projects/PSoC_Assigment/ReedPSoCFinal.brd*
G04 Film Name:    TOP*
G04 File Format:  Gerber RS274X*
G04 File Origin:  Cadence Allegro 16.6-P004*
G04 Origin Date:  Fri Oct 06 13:24:52 2017*
G04 *
G04 Layer:  ETCH/TOP*
G04 Layer:  PIN/TOP*
G04 Layer:  VIA CLASS/TOP*
G04 *
G04 Offset:    (0.00 0.00)*
G04 Mirror:    No*
G04 Mode:      Positive*
G04 Rotation:  0*
G04 FullContactRelief:  No*
G04 UndefLineWidth:     0.00*
G04 ================== end FILE IDENTIFICATION RECORD ====================*
%FSLAX25Y25*MOIN*%
%IR0*IPPOS*OFA0.00000B0.00000*MIA0B0*SFA1.00000B1.00000*%
%ADD11C,.06*%
%ADD12C,.07*%
%ADD13C,.045*%
%ADD10C,.065*%
%ADD14C,.01*%
%ADD15C,.015*%
%ADD16C,.025*%
%ADD17C,.09004*%
%ADD18C,.09504*%
G75*
%LPD*%
G75*
G36*
G01X812001Y1237999D02*
X1027999D01*
Y1022001D01*
X812001D01*
Y1237999D01*
G37*
%LPC*%
G75*
G36*
G01X984483Y1077252D02*
X996101D01*
G02Y1072748I3899J-2252D01*
G01X982999D01*
G02X983021Y1077282I-2979J2282D01*
G01X984453D01*
X984483Y1077252D01*
G37*
G36*
G01X996010Y1192076D02*
X989752Y1185817D01*
Y1175919D01*
G03X990094Y1175778I200J0D01*
G01X990248Y1175933D01*
Y1184433D01*
X993067Y1187252D01*
X996101D01*
G02Y1182748I3899J-2252D01*
G01X994933D01*
X994752Y1182567D01*
Y1177252D01*
X996101D01*
G02X996553Y1172104I3899J-2252D01*
G03X995964Y1172130I-306J-257D01*
G01X991768Y1167934D01*
G03X992051Y1167252I283J-282D01*
G01X996101D01*
G02Y1162748I3899J-2252D01*
G01X990743D01*
X985928Y1157934D01*
G03X986211Y1157252I283J-282D01*
G01X996101D01*
G02Y1152748I3899J-2252D01*
G01X985073D01*
X980258Y1147934D01*
G03X980541Y1147252I283J-282D01*
G01X996101D01*
G02Y1142748I3899J-2252D01*
G01X979703D01*
X974888Y1137934D01*
G03X975171Y1137252I283J-282D01*
G01X996101D01*
G02Y1132748I3899J-2252D01*
G01X975793D01*
X970978Y1127934D01*
G03X971261Y1127252I283J-282D01*
G01X996101D01*
G02Y1122748I3899J-2252D01*
G01X969783D01*
X960033Y1112998D01*
X958735D01*
G03X958385Y1112406I1J-400D01*
G02X958467Y1112252I-4374J-2428D01*
G01X959683D01*
X959813Y1112122D01*
X962167D01*
X967297Y1117252D01*
X996101D01*
G02Y1112748I3899J-2252D01*
G01X969163D01*
X964348Y1107934D01*
G03X964631Y1107252I283J-282D01*
G01X996101D01*
G02Y1102748I3899J-2252D01*
G01X958865D01*
G03X958505Y1102175I0J-400D01*
G02X958786Y1098549I-4505J-2173D01*
G01Y1098548D01*
X958752Y1098433D01*
X959933Y1097252D01*
X996101D01*
G02Y1092748I3899J-2252D01*
G01X958865D01*
G03X958505Y1092175I0J-400D01*
G02Y1087825I-4505J-2175D01*
G03X958865Y1087252I360J-173D01*
G01X996101D01*
G02Y1082748I3899J-2252D01*
G01X958536D01*
G03X958362Y1082450I0J-200D01*
G02X958467Y1082252I-4366J-2442D01*
G01X966363D01*
X991363Y1057252D01*
X996101D01*
G02Y1052748I3899J-2252D01*
G01X989497D01*
X964497Y1077748D01*
X958467D01*
G02X955893Y1075370I-4466J2252D01*
G03Y1074630I152J-370D01*
G02X958632Y1068112I-1893J-4630D01*
G03X959002Y1067562I371J-150D01*
G01X969493D01*
X989803Y1047252D01*
X996101D01*
G02Y1042748I3899J-2252D01*
G01X987937D01*
X967627Y1063058D01*
X958702D01*
G03X958354Y1062462I0J-400D01*
G02X949370Y1058107I-4354J-2462D01*
G03X948630I-370J-152D01*
G02X942107Y1064630I-4630J1893D01*
G03Y1065370I-152J370D01*
G02Y1074630I1893J4630D01*
G03Y1075370I-152J370D01*
G02Y1084630I1893J4630D01*
G03Y1085370I-152J370D01*
G02Y1094630I1893J4630D01*
G03Y1095370I-152J370D01*
G02Y1104630I1893J4630D01*
G03Y1105370I-152J370D01*
G02Y1114630I1893J4630D01*
G03Y1115370I-152J370D01*
G02Y1124630I1893J4630D01*
G03Y1125370I-152J370D01*
G02Y1134630I1893J4630D01*
G03Y1135370I-152J370D01*
G02Y1144630I1893J4630D01*
G03Y1145370I-152J370D01*
G02Y1154630I1893J4630D01*
G03Y1155370I-152J370D01*
G02Y1164630I1893J4630D01*
G03Y1165370I-152J370D01*
G02X948630Y1171893I1893J4630D01*
G03X949370I370J152D01*
G02X955893Y1165370I4630J-1893D01*
G03Y1164630I152J-370D01*
G02Y1155370I-1893J-4630D01*
G03Y1154630I152J-370D01*
G02X958467Y1152252I-1892J-4630D01*
G01X961567D01*
X985248Y1175933D01*
Y1187683D01*
X994817Y1197252D01*
X996101D01*
G02X996595Y1192055I3899J-2251D01*
G03X996010Y1192076I-302J-262D01*
G37*
G36*
G01X864630Y1078107D02*
G02X858107Y1084630I-4630J1893D01*
G03Y1085370I-152J370D01*
G02Y1094630I1893J4630D01*
G03Y1095370I-152J370D01*
G02Y1104630I1893J4630D01*
G03Y1105370I-152J370D01*
G02Y1114630I1893J4630D01*
G03Y1115370I-152J370D01*
G02Y1124630I1893J4630D01*
G03Y1125370I-152J370D01*
G02Y1134630I1893J4630D01*
G03Y1135370I-152J370D01*
G02Y1144630I1893J4630D01*
G03Y1145370I-152J370D01*
G02Y1154630I1893J4630D01*
G03Y1155370I-152J370D01*
G02Y1164630I1893J4630D01*
G03Y1165370I-152J370D01*
G02X864630Y1171893I1893J4630D01*
G03X865370I370J152D01*
G02X871893Y1165370I4630J-1893D01*
G03Y1164630I152J-370D01*
G02Y1155370I-1893J-4630D01*
G03Y1154630I152J-370D01*
G02Y1145370I-1893J-4630D01*
G03Y1144630I152J-370D01*
G02Y1135370I-1893J-4630D01*
G03Y1134630I152J-370D01*
G02Y1125370I-1893J-4630D01*
G03Y1124630I152J-370D01*
G02Y1115370I-1893J-4630D01*
G03Y1114630I152J-370D01*
G02Y1105370I-1893J-4630D01*
G03Y1104630I152J-370D01*
G02Y1095370I-1893J-4630D01*
G03Y1094630I152J-370D01*
G02Y1085370I-1893J-4630D01*
G03Y1084630I152J-370D01*
G02X865370Y1078107I-1893J-4630D01*
G03X864630I-370J-152D01*
G37*
G36*
G01X813438Y1235982D02*
X916642D01*
Y1223578D01*
X813438D01*
Y1235982D01*
G37*
G54D17*
X820000Y1075000D03*
Y1085000D03*
X1000000Y1035000D03*
Y1065000D03*
Y1205000D03*
G54D18*
X840000Y1068189D03*
Y1091811D03*
X970000Y1051811D03*
Y1028189D03*
Y1198189D03*
Y1221811D03*
%LPD*%
G75*
G36*
G01X864630Y1101893D02*
G03X861893Y1104630I-4630J-1893D01*
G02Y1105370I152J370D01*
G03X864630Y1108107I-1893J4630D01*
G02X865370I370J-152D01*
G03X868107Y1105370I4630J1893D01*
G02Y1104630I-152J-370D01*
G03X865370Y1101893I1893J-4630D01*
G02X864630I-370J152D01*
G37*
G36*
G01Y1091893D02*
G03X861893Y1094630I-4630J-1893D01*
G02Y1095370I152J370D01*
G03X864630Y1098107I-1893J4630D01*
G02X865370I370J-152D01*
G03X868107Y1095370I4630J1893D01*
G02Y1094630I-152J-370D01*
G03X865370Y1091893I1893J-4630D01*
G02X864630I-370J152D01*
G37*
G36*
G01Y1081893D02*
G03X861893Y1084630I-4630J-1893D01*
G02Y1085370I152J370D01*
G03X864630Y1088107I-1893J4630D01*
G02X865370I370J-152D01*
G03X868107Y1085370I4630J1893D01*
G02Y1084630I-152J-370D01*
G03X865370Y1081893I1893J-4630D01*
G02X864630I-370J152D01*
G37*
G36*
G01Y1131893D02*
G03X861893Y1134630I-4630J-1893D01*
G02Y1135370I152J370D01*
G03X864630Y1138107I-1893J4630D01*
G02X865370I370J-152D01*
G03X868107Y1135370I4630J1893D01*
G02Y1134630I-152J-370D01*
G03X865370Y1131893I1893J-4630D01*
G02X864630I-370J152D01*
G37*
G36*
G01Y1121893D02*
G03X861893Y1124630I-4630J-1893D01*
G02Y1125370I152J370D01*
G03X864630Y1128107I-1893J4630D01*
G02X865370I370J-152D01*
G03X868107Y1125370I4630J1893D01*
G02Y1124630I-152J-370D01*
G03X865370Y1121893I1893J-4630D01*
G02X864630I-370J152D01*
G37*
G36*
G01Y1111893D02*
G03X861893Y1114630I-4630J-1893D01*
G02Y1115370I152J370D01*
G03X864630Y1118107I-1893J4630D01*
G02X865370I370J-152D01*
G03X868107Y1115370I4630J1893D01*
G02Y1114630I-152J-370D01*
G03X865370Y1111893I1893J-4630D01*
G02X864630I-370J152D01*
G37*
G36*
G01Y1161893D02*
G03X861893Y1164630I-4630J-1893D01*
G02Y1165370I152J370D01*
G03X864630Y1168107I-1893J4630D01*
G02X865370I370J-152D01*
G03X868107Y1165370I4630J1893D01*
G02Y1164630I-152J-370D01*
G03X865370Y1161893I1893J-4630D01*
G02X864630I-370J152D01*
G37*
G36*
G01Y1151893D02*
G03X861893Y1154630I-4630J-1893D01*
G02Y1155370I152J370D01*
G03X864630Y1158107I-1893J4630D01*
G02X865370I370J-152D01*
G03X868107Y1155370I4630J1893D01*
G02Y1154630I-152J-370D01*
G03X865370Y1151893I1893J-4630D01*
G02X864630I-370J152D01*
G37*
G36*
G01Y1141893D02*
G03X861893Y1144630I-4630J-1893D01*
G02Y1145370I152J370D01*
G03X864630Y1148107I-1893J4630D01*
G02X865370I370J-152D01*
G03X868107Y1145370I4630J1893D01*
G02Y1144630I-152J-370D01*
G03X865370Y1141893I1893J-4630D01*
G02X864630I-370J152D01*
G37*
G36*
G01X948630Y1071893D02*
G03X945893Y1074630I-4630J-1893D01*
G02Y1075370I152J370D01*
G03X948630Y1078107I-1893J4630D01*
G02X949370I370J-152D01*
G03X952107Y1075370I4630J1893D01*
G02Y1074630I-152J-370D01*
G03X949370Y1071893I1893J-4630D01*
G02X948630I-370J152D01*
G37*
G36*
G01Y1091893D02*
G03X945893Y1094630I-4630J-1893D01*
G02Y1095370I152J370D01*
G03X948630Y1098107I-1893J4630D01*
G02X949370I370J-152D01*
G03X952107Y1095370I4630J1893D01*
G02Y1094630I-152J-370D01*
G03X949370Y1091893I1893J-4630D01*
G02X948630I-370J152D01*
G37*
G36*
G01Y1161893D02*
G03X945893Y1164630I-4630J-1893D01*
G02Y1165370I152J370D01*
G03X948630Y1168107I-1893J4630D01*
G02X949370I370J-152D01*
G03X952107Y1165370I4630J1893D01*
G02Y1164630I-152J-370D01*
G03X949370Y1161893I1893J-4630D01*
G02X948630I-370J152D01*
G37*
G36*
G01Y1151893D02*
G03X945893Y1154630I-4630J-1893D01*
G02Y1155370I152J370D01*
G03X948630Y1158107I-1893J4630D01*
G02X949370I370J-152D01*
G03X952107Y1155370I4630J1893D01*
G02Y1154630I-152J-370D01*
G03X949370Y1151893I1893J-4630D01*
G02X948630I-370J152D01*
G37*
G54D10*
X840000Y1068189D03*
Y1091811D03*
X970000Y1051811D03*
Y1028189D03*
Y1198189D03*
Y1221811D03*
G54D11*
X820000Y1075000D03*
Y1085000D03*
X1000000Y1035000D03*
Y1045000D03*
Y1055000D03*
Y1065000D03*
Y1075000D03*
Y1085000D03*
Y1095000D03*
Y1105000D03*
Y1115000D03*
Y1125000D03*
Y1135000D03*
Y1145000D03*
Y1155000D03*
Y1165000D03*
Y1175000D03*
Y1185000D03*
Y1195000D03*
Y1205000D03*
G54D12*
X860000Y1080000D03*
X870000D03*
X860000Y1110000D03*
X870000D03*
X860000Y1100000D03*
X870000D03*
X860000Y1090000D03*
X870000D03*
X860000Y1140000D03*
X870000D03*
X860000Y1130000D03*
X870000D03*
X860000Y1120000D03*
X870000D03*
X860000Y1170000D03*
X870000D03*
X860000Y1160000D03*
X870000D03*
X860000Y1150000D03*
X870000D03*
X954000Y1060000D03*
X944000D03*
X954000Y1070000D03*
X944000D03*
X954000Y1080000D03*
X944000D03*
X954000Y1090000D03*
X944000D03*
X954000Y1100000D03*
X944000D03*
X954000Y1110000D03*
X944000D03*
X954000Y1120000D03*
X944000D03*
X954000Y1130000D03*
X944000D03*
X954000Y1140000D03*
X944000D03*
X954000Y1150000D03*
X944000D03*
X954000Y1160000D03*
X944000D03*
X954000Y1170000D03*
X944000D03*
G54D13*
X980020Y1075030D03*
G54D14*
G01X816145Y1228520D02*
X816772Y1227995D01*
X817477Y1227680D01*
X818103D01*
X818730Y1227995D01*
X819200Y1228520D01*
X819435Y1229255D01*
X819278Y1229990D01*
X818887Y1230620D01*
X818182Y1231040D01*
X817242Y1231250D01*
X816693Y1231670D01*
X816458Y1232405D01*
X816615Y1233140D01*
X817007Y1233665D01*
X817555Y1233980D01*
X818103D01*
X818652Y1233770D01*
X819122Y1233245D01*
G01X824090Y1227470D02*
X823933Y1227575D01*
Y1227785D01*
X824090Y1227890D01*
X824247Y1227785D01*
Y1227575D01*
X824090Y1227470D01*
G01X828823Y1227680D02*
Y1233980D01*
X830782D01*
X831408Y1233665D01*
X831800Y1233245D01*
X831957Y1232405D01*
X831800Y1231565D01*
X831330Y1231040D01*
X830782Y1230725D01*
X828823D01*
G01X830782D02*
X831957Y1227680D01*
G01X835515Y1230515D02*
X838022D01*
X837787Y1231250D01*
X837395Y1231670D01*
X836847Y1231880D01*
X836298Y1231775D01*
X835828Y1231460D01*
X835515Y1230725D01*
X835358Y1230095D01*
Y1229465D01*
X835515Y1228835D01*
X835907Y1228205D01*
X836377Y1227785D01*
X836925Y1227680D01*
X837473Y1227890D01*
X838022Y1228520D01*
G01X841815Y1230515D02*
X844322D01*
X844087Y1231250D01*
X843695Y1231670D01*
X843147Y1231880D01*
X842598Y1231775D01*
X842128Y1231460D01*
X841815Y1230725D01*
X841658Y1230095D01*
Y1229465D01*
X841815Y1228835D01*
X842207Y1228205D01*
X842677Y1227785D01*
X843225Y1227680D01*
X843773Y1227890D01*
X844322Y1228520D01*
G01X850700Y1233980D02*
Y1227680D01*
G01Y1228625D02*
X850387Y1228100D01*
X849917Y1227785D01*
X849368Y1227680D01*
X848742Y1227890D01*
X848272Y1228415D01*
X847958Y1229045D01*
X847880Y1229780D01*
X847958Y1230515D01*
X848272Y1231145D01*
X848742Y1231670D01*
X849368Y1231880D01*
X849917Y1231775D01*
X850308Y1231565D01*
X850700Y1231145D01*
G01X861890Y1233980D02*
Y1227680D01*
G01X860088Y1233980D02*
X863692D01*
G01X868190Y1227680D02*
Y1233980D01*
X867250Y1232720D01*
G01Y1227680D02*
X869130D01*
G01X882357D02*
X879223D01*
Y1233980D01*
X882357D01*
G01X881103Y1230935D02*
X879223D01*
G01X887560Y1230830D02*
X889127D01*
Y1228940D01*
X888657Y1228310D01*
X888108Y1227890D01*
X887325Y1227680D01*
X886542Y1227890D01*
X885993Y1228310D01*
X885523Y1228940D01*
X885210Y1229675D01*
X885053Y1230515D01*
Y1231250D01*
X885210Y1231880D01*
X885523Y1232615D01*
X885993Y1233245D01*
X886463Y1233665D01*
X887090Y1233980D01*
X887638D01*
X888265Y1233770D01*
X888735Y1233350D01*
G01X891823Y1227680D02*
Y1233980D01*
X893782D01*
X894408Y1233665D01*
X894800Y1233245D01*
X894957Y1232405D01*
X894800Y1231565D01*
X894330Y1231040D01*
X893782Y1230725D01*
X891823D01*
G01X893782D02*
X894957Y1227680D01*
G01X897967Y1228940D02*
X898437Y1228205D01*
X899063Y1227785D01*
X899768Y1227680D01*
X900395Y1227785D01*
X901022Y1228310D01*
X901413Y1228940D01*
X901492Y1229570D01*
X901335Y1230305D01*
X900787Y1230830D01*
X900238Y1231040D01*
X899533D01*
G01X900238D02*
X900708Y1231355D01*
X901100Y1231880D01*
X901257Y1232510D01*
X901100Y1233140D01*
X900708Y1233665D01*
X900003Y1233980D01*
X899298Y1233875D01*
X898593Y1233455D01*
G01X905990Y1233980D02*
X905363Y1233770D01*
X904893Y1233245D01*
X904580Y1232615D01*
X904345Y1231775D01*
X904267Y1230830D01*
X904345Y1229885D01*
X904580Y1229045D01*
X904893Y1228415D01*
X905363Y1227890D01*
X905990Y1227680D01*
X906617Y1227890D01*
X907087Y1228415D01*
X907400Y1229045D01*
X907635Y1229885D01*
X907713Y1230830D01*
X907635Y1231775D01*
X907400Y1232615D01*
X907087Y1233245D01*
X906617Y1233770D01*
X905990Y1233980D01*
G01X913230Y1227680D02*
Y1233980D01*
X910332Y1229465D01*
X914248D01*
G54D15*
G01X944000Y1070000D02*
X948750Y1065250D01*
X955968D01*
X956028Y1065310D01*
X968560D01*
X988870Y1045000D01*
X1000000D01*
G01X954000Y1080000D02*
X965430D01*
X990430Y1055000D01*
X1000000D01*
G01Y1085000D02*
X949000D01*
X944000Y1090000D01*
G01X1000000Y1095000D02*
X959000D01*
X954000Y1100000D01*
G01X1000000Y1105000D02*
X949000D01*
X944000Y1100000D01*
G01X954000Y1110000D02*
X958750D01*
X958880Y1109870D01*
X963100D01*
X968230Y1115000D01*
X1000000D01*
G01X944000Y1110000D02*
X949250Y1115250D01*
X959100D01*
X968850Y1125000D01*
X1000000D01*
G01X954000Y1120000D02*
X959860D01*
X974860Y1135000D01*
X1000000D01*
G01X944000Y1120000D02*
X949250Y1125250D01*
X959020D01*
X978770Y1145000D01*
X1000000D01*
G01X954000Y1130000D02*
X959140D01*
X984140Y1155000D01*
X1000000D01*
G01X944000Y1130000D02*
X948920Y1134920D01*
X959730D01*
X989810Y1165000D01*
X1000000D01*
G01X954000Y1140000D02*
X954220Y1139780D01*
X960430D01*
X995650Y1175000D01*
X1000000D01*
G01X944000Y1140000D02*
X948980Y1144980D01*
X962480D01*
X992500Y1175000D01*
Y1183500D01*
X994000Y1185000D01*
X1000000D01*
G01Y1195000D02*
X995750D01*
X987500Y1186750D01*
Y1175000D01*
X962500Y1150000D01*
X954000D01*
G01X980020Y1075030D02*
X983520D01*
X983550Y1075000D01*
X1000000D01*
G54D16*
G01X836298Y1064487D02*
X840000Y1068189D01*
G01D02*
X843702Y1071891D01*
G01X836298D02*
X840000Y1068189D01*
G01D02*
X843702Y1064487D01*
G01X816475Y1071475D02*
X820000Y1075000D01*
G01D02*
X823525Y1078525D01*
G01X816475D02*
X820000Y1075000D01*
G01D02*
X823525Y1071475D01*
G01X856122Y1076122D02*
X860000Y1080000D01*
G01D02*
X863878Y1083878D01*
G01X856122D02*
X860000Y1080000D01*
G01D02*
X863878Y1076122D01*
G01X940122Y1056122D02*
X944000Y1060000D01*
G01X940122Y1063878D02*
X944000Y1060000D01*
G01D02*
X947878Y1056122D01*
G01X950122Y1166122D02*
X954000Y1170000D01*
G01D02*
X957878Y1173878D01*
G01X950122D02*
X954000Y1170000D01*
G01D02*
X957878Y1166122D01*
G01X966298Y1024487D02*
X970000Y1028189D01*
G01D02*
X973702Y1031891D01*
G01X966298D02*
X970000Y1028189D01*
G01D02*
X973702Y1024487D01*
G01X966298Y1194487D02*
X970000Y1198189D01*
G01D02*
X973702Y1201891D01*
G01X966298D02*
X970000Y1198189D01*
G01D02*
X973702Y1194487D01*
M02*
